<svg xmlns="http://www.w3.org/2000/svg" width="90" height="90" viewBox="0 0 90 90">
    <g fill="none" fill-rule="nonzero">
        <circle cx="44.883" cy="44.967" r="44.792" fill="#E2E2FD"/>
        <path fill="#C1C1EA" d="M62.054 46.067a1.525 1.525 0 0 1-.3-.9c.03-1.696 3.296-3.013 7.292-2.942 3.996.07 7.204 1.525 7.204 3.192a1.554 1.554 0 0 1-.333.891l-8.75 10.25-10.184-11.516 5.071 1.025z"/>
        <path fill="#C1C1EA" d="M53.396 68.83l12.641-14.547-19.762-.35z" opacity=".72" style="mix-blend-mode:multiply"/>
        <ellipse cx="50.216" cy="49.156" fill="#726EFB" rx="3.067" ry="7.237" transform="rotate(-88.98 50.216 49.156)"/>
        <path fill="#D0D0F7" d="M43.008 47.233l-.025 1.475c0 1.25 1.75 2.371 4.3 2.892.638.131 1.284.219 1.934.262a15.908 15.908 0 0 0 3.842-.158c2.566-.416 3.92-1.512 3.941-2.77l.5-1.6c-1.025-1.167-4.133-1.509-7.212-1.567-2.463-.042-5.955.7-7.28 1.466z"/>
        <path fill="#D0D0F7" d="M52.75 51.746l.104-5.834c2.084.188 3.9.6 4.633 1.434l-.029 1.633c-.025 1.292-1.979 2.375-4.708 2.767z"/>
        <ellipse cx="50.409" cy="47.506" fill="#8A8AF9" rx="3.067" ry="7.239" transform="rotate(-88.854 50.41 47.506)"/>
        <ellipse cx="50.216" cy="47.073" fill="#726EFB" rx="3.067" ry="7.237" transform="rotate(-88.98 50.216 47.073)"/>
        <path fill="#D0D0F7" d="M43.008 45.15l-.025 1.475c0 1.25 1.75 2.37 4.3 2.892.638.131 1.284.219 1.934.262a15.908 15.908 0 0 0 3.842-.158c2.566-.417 3.92-1.513 3.941-2.771l.5-1.6c-1.025-1.167-4.133-1.508-7.212-1.567-2.463-.041-5.955.7-7.28 1.467z"/>
        <path fill="#D0D0F7" d="M52.75 49.663l.104-5.834c2.084.188 3.9.6 4.633 1.434l-.029 1.633c-.025 1.291-1.979 2.375-4.708 2.767z"/>
        <ellipse cx="50.409" cy="45.418" fill="#8A8AF9" rx="3.067" ry="7.239" transform="rotate(-88.854 50.41 45.418)"/>
        <ellipse cx="50.216" cy="44.99" fill="#726EFB" rx="3.067" ry="7.237" transform="rotate(-88.98 50.216 44.99)"/>
        <path fill="#D0D0F7" d="M43.008 43.067l-.025 1.475c0 1.25 1.75 2.37 4.3 2.891.638.132 1.284.22 1.934.263a15.908 15.908 0 0 0 3.842-.158c2.566-.417 3.92-1.513 3.941-2.771l.5-1.6C56.475 42 53.367 41.658 50.288 41.6c-2.463-.042-5.955.7-7.28 1.467z"/>
        <path fill="#D0D0F7" d="M52.75 47.58l.104-5.834c2.084.187 3.9.6 4.633 1.433l-.029 1.633c-.025 1.292-1.979 2.376-4.708 2.767z"/>
        <ellipse cx="50.409" cy="43.326" fill="#8A8AF9" rx="3.067" ry="7.239" transform="rotate(-88.854 50.41 43.326)"/>
        <ellipse cx="50.217" cy="42.907" fill="#726EFB" rx="3.067" ry="7.237" transform="rotate(-88.98 50.217 42.907)"/>
        <path fill="#D0D0F7" d="M43.008 40.983l-.025 1.475c0 1.25 1.75 2.371 4.3 2.892.638.131 1.284.219 1.934.262a15.908 15.908 0 0 0 3.842-.158c2.566-.416 3.92-1.512 3.941-2.77l.5-1.6c-1.025-1.167-4.133-1.509-7.212-1.567-2.463-.042-5.955.7-7.28 1.466z"/>
        <path fill="#D0D0F7" d="M52.75 45.496l.104-5.834c2.084.188 3.9.6 4.633 1.434l-.029 1.633c-.025 1.292-1.979 2.375-4.708 2.767z"/>
        <ellipse cx="50.247" cy="41.113" fill="#8A8AF9" rx="3.067" ry="7.237" transform="rotate(-88.98 50.247 41.113)"/>
        <ellipse cx="50.217" cy="40.82" fill="#726EFB" rx="3.067" ry="7.237" transform="rotate(-88.98 50.217 40.82)"/>
        <path fill="#D0D0F7" d="M43.008 38.9l-.025 1.475c0 1.25 1.75 2.37 4.3 2.892.638.131 1.284.219 1.934.262a15.908 15.908 0 0 0 3.842-.158c2.566-.417 3.92-1.513 3.941-2.771l.5-1.6c-1.025-1.167-4.133-1.508-7.212-1.567-2.463-.041-5.955.7-7.28 1.467z"/>
        <path fill="#D0D0F7" d="M52.75 43.413l.104-5.834c2.084.188 3.9.6 4.633 1.434l-.029 1.633c-.025 1.291-1.979 2.375-4.708 2.767z"/>
        <ellipse cx="50.247" cy="39.03" fill="#8A8AF9" rx="3.067" ry="7.237" transform="rotate(-88.98 50.247 39.03)"/>
        <ellipse cx="50.217" cy="38.737" fill="#726EFB" rx="3.067" ry="7.237" transform="rotate(-88.98 50.217 38.737)"/>
        <path fill="#D0D0F7" d="M43.008 36.817l-.025 1.475c0 1.25 1.75 2.37 4.3 2.891.638.132 1.284.22 1.934.263a15.908 15.908 0 0 0 3.842-.158c2.566-.417 3.92-1.513 3.941-2.771l.5-1.6c-1.025-1.167-4.133-1.509-7.212-1.567-2.463-.042-5.955.7-7.28 1.467z"/>
        <path fill="#D0D0F7" d="M52.75 41.33l.104-5.834c2.084.187 3.9.6 4.633 1.433l-.029 1.633c-.025 1.292-1.979 2.376-4.708 2.767z"/>
        <ellipse cx="50.247" cy="36.947" fill="#8A8AF9" rx="3.067" ry="7.237" transform="rotate(-88.98 50.247 36.947)"/>
        <ellipse cx="50.218" cy="36.654" fill="#726EFB" rx="3.067" ry="7.237" transform="rotate(-88.98 50.218 36.654)"/>
        <path fill="#D0D0F7" d="M43.008 34.733l-.025 1.475c0 1.25 1.75 2.371 4.3 2.892.638.131 1.284.219 1.934.262a15.908 15.908 0 0 0 3.842-.158c2.566-.416 3.92-1.512 3.941-2.77l.5-1.6c-1.025-1.167-4.133-1.509-7.212-1.567-2.463-.042-5.955.7-7.28 1.466z"/>
        <path fill="#D0D0F7" d="M52.75 39.246l.104-5.834c2.084.188 3.9.6 4.633 1.434l-.029 1.633c-.025 1.292-1.979 2.375-4.708 2.767z"/>
        <ellipse cx="50.248" cy="34.864" fill="#8A8AF9" rx="3.067" ry="7.237" transform="rotate(-88.98 50.248 34.864)"/>
        <ellipse cx="50.218" cy="34.571" fill="#726EFB" rx="3.067" ry="7.237" transform="rotate(-88.98 50.218 34.571)"/>
        <path fill="#D0D0F7" d="M43.008 32.65l-.025 1.475c0 1.25 1.75 2.37 4.3 2.892.638.131 1.284.219 1.934.262a15.908 15.908 0 0 0 3.842-.158c2.566-.417 3.92-1.513 3.941-2.771l.5-1.6c-1.025-1.167-4.133-1.508-7.212-1.567-2.463-.041-5.955.7-7.28 1.467z"/>
        <path fill="#D0D0F7" d="M52.75 37.163l.104-5.834c2.084.188 3.9.6 4.633 1.434l-.029 1.633c-.025 1.291-1.979 2.375-4.708 2.767z"/>
        <ellipse cx="50.248" cy="32.781" fill="#8A8AF9" rx="3.067" ry="7.237" transform="rotate(-88.98 50.248 32.781)"/>
        <ellipse cx="50.218" cy="32.488" fill="#726EFB" rx="3.067" ry="7.237" transform="rotate(-88.98 50.218 32.488)"/>
        <path fill="#D0D0F7" d="M43.008 30.567l-.025 1.475c0 1.25 1.75 2.37 4.3 2.891.638.132 1.284.22 1.934.263a15.908 15.908 0 0 0 3.842-.158c2.566-.417 3.92-1.513 3.941-2.771l.5-1.6c-1.025-1.167-4.133-1.509-7.212-1.567-2.463-.042-5.955.7-7.28 1.467z"/>
        <path fill="#D0D0F7" d="M52.75 35.08l.104-5.834c2.084.187 3.9.6 4.633 1.433l-.029 1.634c-.025 1.291-1.979 2.374-4.708 2.766z"/>
        <ellipse cx="50.244" cy="30.698" fill="#8A8AF9" rx="3.067" ry="7.237" transform="rotate(-88.98 50.244 30.698)"/>
        <ellipse cx="50.214" cy="30.406" fill="#726EFB" rx="3.067" ry="7.237" transform="rotate(-88.98 50.214 30.406)"/>
        <path fill="#D0D0F7" d="M43.008 28.483l-.025 1.475c0 1.25 1.75 2.371 4.3 2.892.638.131 1.284.219 1.934.262a15.908 15.908 0 0 0 3.842-.158c2.566-.416 3.92-1.512 3.941-2.77l.5-1.6c-1.025-1.167-4.133-1.509-7.212-1.567-2.463-.042-5.955.7-7.28 1.466z"/>
        <path fill="#D0D0F7" d="M52.75 32.996l.104-5.834c2.084.188 3.9.6 4.633 1.434l-.029 1.633c-.025 1.292-1.979 2.375-4.708 2.767z"/>
        <ellipse cx="50.244" cy="28.615" fill="#8A8AF9" rx="3.067" ry="7.237" transform="rotate(-88.98 50.244 28.615)"/>
        <ellipse cx="50.215" cy="28.323" fill="#726EFB" rx="3.067" ry="7.237" transform="rotate(-88.98 50.215 28.323)"/>
        <path fill="#D0D0F7" d="M43.008 26.4l-.025 1.475c0 1.25 1.75 2.37 4.3 2.892.638.131 1.284.219 1.934.262a15.908 15.908 0 0 0 3.842-.158c2.566-.417 3.92-1.513 3.941-2.771l.5-1.6c-1.025-1.167-4.133-1.508-7.212-1.567-2.463-.041-5.955.7-7.28 1.467z"/>
        <path fill="#D0D0F7" d="M52.75 30.913l.104-5.834c2.084.188 3.9.6 4.633 1.433l-.029 1.634c-.025 1.291-1.979 2.375-4.708 2.767z"/>
        <ellipse cx="50.245" cy="26.532" fill="#8A8AF9" rx="3.067" ry="7.237" transform="rotate(-88.98 50.245 26.532)"/>
        <ellipse cx="50.215" cy="26.24" fill="#726EFB" rx="3.067" ry="7.237" transform="rotate(-88.98 50.215 26.24)"/>
        <path fill="#D0D0F7" d="M43.008 24.317l-.025 1.475c0 1.25 1.75 2.37 4.3 2.891.638.132 1.284.22 1.934.263a15.908 15.908 0 0 0 3.842-.158c2.566-.417 3.92-1.513 3.941-2.771l.5-1.6c-1.025-1.167-4.133-1.509-7.212-1.567-2.463-.042-5.955.7-7.28 1.467z"/>
        <path fill="#D0D0F7" d="M52.75 28.83l.104-5.834c2.084.187 3.9.6 4.633 1.433l-.029 1.634c-.025 1.291-1.979 2.375-4.708 2.766z"/>
        <ellipse cx="50.245" cy="24.445" fill="#8A8AF9" rx="3.067" ry="7.237" transform="rotate(-88.98 50.245 24.445)"/>
        <ellipse cx="50.215" cy="24.157" fill="#726EFB" rx="3.067" ry="7.237" transform="rotate(-88.98 50.215 24.157)"/>
        <path fill="#D0D0F7" d="M43.008 22.233l-.025 1.475c0 1.25 1.75 2.371 4.3 2.892.638.131 1.284.219 1.934.262a15.908 15.908 0 0 0 3.842-.158c2.566-.416 3.92-1.512 3.941-2.77l.5-1.6c-1.025-1.167-4.133-1.509-7.212-1.567-2.463-.042-5.955.7-7.28 1.466z"/>
        <path fill="#D0D0F7" d="M52.75 26.746l.104-5.833c2.084.187 3.9.6 4.633 1.433l-.029 1.633c-.025 1.292-1.979 2.375-4.708 2.767z"/>
        <ellipse cx="50.245" cy="22.362" fill="#8A8AF9" rx="3.067" ry="7.237" transform="rotate(-88.98 50.245 22.362)"/>
        <ellipse cx="50.216" cy="22.07" fill="#726EFB" rx="3.067" ry="7.237" transform="rotate(-88.98 50.216 22.07)"/>
        <path fill="#D0D0F7" d="M43.008 20.15l-.025 1.475c0 1.25 1.75 2.37 4.3 2.892.638.131 1.284.219 1.934.262a15.908 15.908 0 0 0 3.842-.158c2.566-.417 3.92-1.513 3.941-2.771l.5-1.6c-1.025-1.167-4.133-1.508-7.212-1.567-2.463-.041-5.955.7-7.28 1.467z"/>
        <path fill="#D0D0F7" d="M52.75 24.663l.104-5.834c2.084.188 3.9.6 4.633 1.433l-.029 1.634c-.025 1.291-1.979 2.375-4.708 2.767z"/>
        <ellipse cx="50.246" cy="20.279" fill="#8A8AF9" rx="3.067" ry="7.237" transform="rotate(-88.98 50.246 20.28)"/>
        <ellipse cx="50.216" cy="19.987" fill="#726EFB" rx="3.067" ry="7.237" transform="rotate(-88.98 50.216 19.987)"/>
        <path fill="#D0D0F7" d="M43.008 18.067l-.025 1.475c0 1.25 1.75 2.37 4.3 2.891.638.132 1.284.22 1.934.263a15.908 15.908 0 0 0 3.842-.158c2.566-.417 3.92-1.513 3.941-2.771l.5-1.6C56.475 17 53.367 16.658 50.288 16.6c-2.463-.042-5.955.7-7.28 1.467z"/>
        <path fill="#D0D0F7" d="M52.75 22.58l.104-5.834c2.084.187 3.9.6 4.633 1.433l-.029 1.634c-.025 1.291-1.979 2.375-4.708 2.766z"/>
        <ellipse cx="50.246" cy="18.197" fill="#8A8AF9" rx="3.067" ry="7.237" transform="rotate(-88.98 50.246 18.197)"/>
        <ellipse cx="50.216" cy="17.904" fill="#726EFB" rx="3.067" ry="7.237" transform="rotate(-88.98 50.216 17.904)"/>
        <path fill="#D0D0F7" d="M43.008 15.983l-.025 1.475c0 1.25 1.75 2.371 4.3 2.892.638.131 1.284.219 1.934.262a15.908 15.908 0 0 0 3.842-.158c2.566-.416 3.92-1.512 3.941-2.77l.5-1.6c-1.025-1.167-4.133-1.509-7.212-1.567-2.463-.042-5.955.7-7.28 1.466z"/>
        <path fill="#D0D0F7" d="M52.75 20.496l.104-5.833c2.084.187 3.9.6 4.633 1.433l-.029 1.633c-.025 1.292-1.979 2.375-4.708 2.767z"/>
        <ellipse cx="50.246" cy="16.114" fill="#8A8AF9" rx="3.067" ry="7.237" transform="rotate(-88.98 50.246 16.114)"/>
        <ellipse cx="61.614" cy="54.223" fill="#726EFB" rx="3.067" ry="7.237" transform="rotate(-88.98 61.614 54.223)"/>
        <path fill="#D0D0F7" d="M54.408 52.304l-.029 1.475c0 1.25 1.75 2.375 4.3 2.892.638.13 1.284.219 1.933.262a15.892 15.892 0 0 0 3.842-.158c2.567-.417 3.921-1.508 3.946-2.77l.483-1.6c-1.02-1.168-4.129-1.51-7.208-1.563-2.454-.046-5.942.7-7.267 1.462z"/>
        <path fill="#D0D0F7" d="M64.167 56.817l.104-5.834c2.083.188 3.896.6 4.629 1.438l-.03 1.629c-.04 1.292-1.99 2.375-4.703 2.767z"/>
        <ellipse cx="61.833" cy="52.586" fill="#8A8AF9" rx="3.067" ry="7.239" transform="rotate(-88.854 61.833 52.586)"/>
        <ellipse cx="61.614" cy="52.14" fill="#726EFB" rx="3.067" ry="7.237" transform="rotate(-88.98 61.614 52.14)"/>
        <path fill="#D0D0F7" d="M54.408 50.22l-.029 1.476c0 1.25 1.75 2.375 4.3 2.892.638.13 1.284.218 1.933.262a15.892 15.892 0 0 0 3.842-.158c2.567-.417 3.921-1.509 3.946-2.771l.483-1.6c-1.02-1.167-4.129-1.508-7.208-1.563-2.454-.046-5.942.7-7.267 1.463z"/>
        <path fill="#D0D0F7" d="M64.167 54.733l.104-5.833c2.083.188 3.896.6 4.629 1.438l-.03 1.629c-.04 1.291-1.99 2.375-4.703 2.766z"/>
        <ellipse cx="61.833" cy="50.499" fill="#8A8AF9" rx="3.067" ry="7.239" transform="rotate(-88.854 61.833 50.499)"/>
        <ellipse cx="61.614" cy="50.057" fill="#726EFB" rx="3.067" ry="7.237" transform="rotate(-88.98 61.614 50.057)"/>
        <path fill="#D0D0F7" d="M54.408 48.138l-.029 1.474c0 1.25 1.75 2.375 4.3 2.892.638.131 1.284.219 1.933.263.313.025.63.037.955.045.966.02 1.933-.048 2.887-.204 2.567-.416 3.921-1.508 3.946-2.77l.483-1.6c-1.02-1.167-4.129-1.509-7.208-1.563-2.454-.046-5.942.7-7.267 1.463z"/>
        <path fill="#D0D0F7" d="M64.167 52.65l.104-5.833c2.083.187 3.896.6 4.629 1.437l-.03 1.63c-.04 1.291-1.99 2.374-4.703 2.766z"/>
        <ellipse cx="61.833" cy="48.411" fill="#8A8AF9" rx="3.067" ry="7.239" transform="rotate(-88.854 61.833 48.411)"/>
        <ellipse cx="61.615" cy="47.974" fill="#726EFB" rx="3.067" ry="7.237" transform="rotate(-88.98 61.615 47.974)"/>
        <path fill="#D0D0F7" d="M54.408 46.054l-.029 1.475c0 1.25 1.75 2.375 4.3 2.892.638.13 1.284.219 1.933.262a15.892 15.892 0 0 0 3.842-.158c2.567-.417 3.921-1.508 3.946-2.77l.483-1.6c-1.02-1.168-4.129-1.51-7.208-1.563-2.454-.046-5.942.7-7.267 1.462z"/>
        <path fill="#D0D0F7" d="M64.167 50.567l.104-5.834c2.083.188 3.896.6 4.629 1.438l-.03 1.629c-.04 1.292-1.99 2.375-4.703 2.767z"/>
        <ellipse cx="61.833" cy="46.324" fill="#8A8AF9" rx="3.067" ry="7.239" transform="rotate(-88.854 61.833 46.324)"/>
        <ellipse cx="61.611" cy="45.891" fill="#726EFB" rx="3.067" ry="7.237" transform="rotate(-88.98 61.61 45.891)"/>
        <path fill="#D0D0F7" d="M54.408 43.97l-.029 1.476c0 1.25 1.75 2.375 4.3 2.892.638.13 1.284.218 1.933.262a15.892 15.892 0 0 0 3.842-.158c2.567-.417 3.921-1.509 3.946-2.771l.483-1.6c-1.02-1.167-4.129-1.508-7.208-1.563-2.454-.046-5.942.7-7.267 1.463z"/>
        <path fill="#D0D0F7" d="M64.167 48.483l.104-5.833c2.083.188 3.896.6 4.629 1.438l-.03 1.629c-.04 1.291-1.99 2.375-4.703 2.766z"/>
        <ellipse cx="61.641" cy="44.105" fill="#8A8AF9" rx="3.067" ry="7.237" transform="rotate(-88.98 61.64 44.105)"/>
        <ellipse cx="61.611" cy="43.808" fill="#726EFB" rx="3.067" ry="7.237" transform="rotate(-88.98 61.611 43.808)"/>
        <path fill="#D0D0F7" d="M54.408 41.888l-.029 1.474c0 1.25 1.75 2.375 4.3 2.892.638.131 1.284.219 1.933.263.313.025.63.037.955.045.966.02 1.933-.048 2.887-.204 2.567-.416 3.921-1.508 3.946-2.77l.483-1.6c-1.02-1.167-4.129-1.509-7.208-1.563-2.454-.046-5.942.7-7.267 1.463z"/>
        <path fill="#D0D0F7" d="M64.167 46.4l.104-5.833c2.083.187 3.896.6 4.629 1.437l-.03 1.63c-.04 1.291-1.99 2.374-4.703 2.766z"/>
        <ellipse cx="61.641" cy="42.022" fill="#8A8AF9" rx="3.067" ry="7.237" transform="rotate(-88.98 61.641 42.022)"/>
        <ellipse cx="61.799" cy="41.851" fill="#726EFB" rx="3.067" ry="7.239" transform="rotate(-88.854 61.799 41.851)"/>
        <path fill="#D0D0F7" d="M54.408 39.804l-.029 1.475c0 1.25 1.75 2.375 4.3 2.892.638.13 1.284.219 1.933.262a15.892 15.892 0 0 0 3.842-.158c2.567-.417 3.921-1.508 3.946-2.77l.483-1.6c-1.02-1.168-4.129-1.51-7.208-1.563-2.454-.046-5.942.7-7.267 1.462z"/>
        <path fill="#D0D0F7" d="M64.167 44.317l.104-5.834c2.083.188 3.896.6 4.629 1.438l-.03 1.629c-.04 1.292-1.99 2.375-4.703 2.767z"/>
        <ellipse cx="61.641" cy="39.939" fill="#8A8AF9" rx="3.067" ry="7.237" transform="rotate(-88.98 61.641 39.94)"/>
        <ellipse cx="61.612" cy="39.643" fill="#726EFB" rx="3.067" ry="7.237" transform="rotate(-88.98 61.612 39.643)"/>
        <path fill="#D0D0F7" d="M54.408 37.72l-.029 1.476c0 1.25 1.75 2.375 4.3 2.892.638.13 1.284.218 1.933.262a15.892 15.892 0 0 0 3.842-.158c2.567-.417 3.921-1.509 3.946-2.771l.483-1.6c-1.02-1.167-4.129-1.508-7.208-1.563-2.454-.046-5.942.7-7.267 1.463z"/>
        <path fill="#D0D0F7" d="M64.167 42.233l.104-5.833c2.083.188 3.896.6 4.629 1.438l-.03 1.629c-.04 1.291-1.99 2.375-4.703 2.766z"/>
        <ellipse cx="61.642" cy="37.852" fill="#8A8AF9" rx="3.067" ry="7.237" transform="rotate(-88.98 61.642 37.852)"/>
        <ellipse cx="61.799" cy="37.676" fill="#726EFB" rx="3.067" ry="7.239" transform="rotate(-88.854 61.799 37.676)"/>
        <path fill="#D0D0F7" d="M54.408 35.638l-.029 1.474c0 1.25 1.75 2.375 4.3 2.892.638.131 1.284.219 1.933.263.313.025.63.037.955.045.966.02 1.933-.048 2.887-.204 2.567-.416 3.921-1.508 3.946-2.77l.483-1.6c-1.02-1.167-4.129-1.509-7.208-1.563-2.454-.046-5.942.7-7.267 1.463z"/>
        <path fill="#D0D0F7" d="M64.167 40.15l.104-5.833c2.083.187 3.896.6 4.629 1.437l-.03 1.63c-.04 1.291-1.99 2.374-4.703 2.766z"/>
        <ellipse cx="61.642" cy="35.769" fill="#8A8AF9" rx="3.067" ry="7.237" transform="rotate(-88.98 61.642 35.77)"/>
        <ellipse cx="61.799" cy="35.584" fill="#726EFB" rx="3.067" ry="7.239" transform="rotate(-88.854 61.799 35.584)"/>
        <path fill="#D0D0F7" d="M54.408 33.554l-.029 1.475c0 1.25 1.75 2.375 4.3 2.892.638.13 1.284.219 1.933.262a15.892 15.892 0 0 0 3.842-.158c2.567-.417 3.921-1.508 3.946-2.77l.483-1.6c-1.02-1.168-4.129-1.51-7.208-1.563-2.454-.046-5.942.7-7.267 1.462z"/>
        <path fill="#D0D0F7" d="M64.167 38.067l.104-5.834c2.083.188 3.896.6 4.629 1.438l-.03 1.629c-.04 1.292-1.99 2.375-4.703 2.767z"/>
        <ellipse cx="61.642" cy="33.687" fill="#8A8AF9" rx="3.067" ry="7.237" transform="rotate(-88.98 61.642 33.687)"/>
        <ellipse cx="61.799" cy="33.497" fill="#726EFB" rx="3.067" ry="7.239" transform="rotate(-88.854 61.799 33.497)"/>
        <path fill="#D0D0F7" d="M54.408 31.47l-.029 1.476c0 1.25 1.75 2.375 4.3 2.892.638.13 1.284.218 1.933.262a15.892 15.892 0 0 0 3.842-.158c2.567-.417 3.921-1.509 3.946-2.771l.483-1.6c-1.02-1.167-4.129-1.509-7.208-1.563-2.454-.046-5.942.7-7.267 1.463z"/>
        <path fill="#D0D0F7" d="M64.167 35.983l.104-5.833c2.083.188 3.896.6 4.629 1.438l-.03 1.629c-.04 1.291-1.99 2.375-4.703 2.766z"/>
        <ellipse cx="61.643" cy="31.604" fill="#8A8AF9" rx="3.067" ry="7.237" transform="rotate(-88.98 61.643 31.604)"/>
        <ellipse cx="61.799" cy="31.41" fill="#726EFB" rx="3.067" ry="7.239" transform="rotate(-88.854 61.799 31.41)"/>
        <path fill="#D0D0F7" d="M54.408 29.387l-.029 1.476c0 1.25 1.75 2.374 4.3 2.891.638.131 1.284.219 1.933.263.313.025.63.037.955.045.966.02 1.933-.048 2.887-.204 2.567-.416 3.921-1.508 3.946-2.77l.483-1.6c-1.02-1.167-4.129-1.509-7.208-1.563-2.454-.046-5.942.7-7.267 1.462z"/>
        <path fill="#D0D0F7" d="M64.167 33.9l.104-5.833c2.083.187 3.896.6 4.629 1.437l-.03 1.63c-.04 1.291-1.99 2.374-4.703 2.766z"/>
        <ellipse cx="61.643" cy="29.521" fill="#8A8AF9" rx="3.067" ry="7.237" transform="rotate(-88.98 61.643 29.52)"/>
        <path fill="#9C86B7" d="M38.975 52.462c-.212 1.667 2.8 3.7 6.733 4.505.417.083.834.154 1.213.204l.779-20.996a14.778 14.778 0 0 1-1.217-.2c-2.354-.483-4.383-1.4-5.583-2.43-.925.326-1.837 18.247-1.925 18.917z" opacity=".46" style="mix-blend-mode:multiply"/>
        <ellipse cx="38.473" cy="51.076" fill="#726EFB" rx="3.067" ry="7.237" transform="rotate(-88.98 38.473 51.076)"/>
        <path fill="#D0D0F7" d="M31.25 49.167l-.025 1.475c-.025 1.25 1.746 2.37 4.296 2.891.638.13 1.284.217 1.933.263a15.938 15.938 0 0 0 3.846-.158c2.567-.417 3.917-1.513 3.942-2.771l.483-1.6c-1.02-1.167-4.13-1.509-7.208-1.567-2.434-.054-5.925.688-7.267 1.467z"/>
        <path fill="#D0D0F7" d="M41.008 53.667l.104-5.834c2.084.188 3.896.6 4.63 1.434l-.03 1.633c-.02 1.292-1.962 2.375-4.704 2.767z"/>
        <ellipse cx="38.641" cy="49.431" fill="#8A8AF9" rx="3.067" ry="7.239" transform="rotate(-88.854 38.64 49.431)"/>
        <ellipse cx="38.473" cy="48.993" fill="#726EFB" rx="3.067" ry="7.237" transform="rotate(-88.98 38.473 48.993)"/>
        <path fill="#D0D0F7" d="M31.25 47.083l-.025 1.475c-.025 1.25 1.746 2.371 4.296 2.892.638.129 1.284.217 1.933.262a15.937 15.937 0 0 0 3.846-.158c2.567-.416 3.917-1.512 3.942-2.77l.483-1.6c-1.02-1.167-4.13-1.509-7.208-1.567-2.434-.054-5.925.687-7.267 1.466z"/>
        <path fill="#D0D0F7" d="M41.008 51.583l.104-5.833c2.084.188 3.896.6 4.63 1.433l-.03 1.634c-.02 1.291-1.962 2.375-4.704 2.766z"/>
        <ellipse cx="38.641" cy="47.34" fill="#8A8AF9" rx="3.067" ry="7.239" transform="rotate(-88.854 38.64 47.34)"/>
        <ellipse cx="38.474" cy="46.91" fill="#726EFB" rx="3.067" ry="7.237" transform="rotate(-88.98 38.474 46.91)"/>
        <path fill="#D0D0F7" d="M31.25 45l-.025 1.475c-.025 1.25 1.746 2.37 4.296 2.892.638.129 1.284.216 1.933.262a15.937 15.937 0 0 0 3.846-.158c2.567-.417 3.917-1.513 3.942-2.771l.483-1.6c-1.02-1.167-4.13-1.508-7.208-1.567-2.434-.054-5.925.688-7.267 1.467z"/>
        <path fill="#D0D0F7" d="M41.008 49.5l.104-5.833c2.084.187 3.896.6 4.63 1.433l-.03 1.633c-.02 1.292-1.962 2.375-4.704 2.767z"/>
        <ellipse cx="38.641" cy="45.252" fill="#8A8AF9" rx="3.067" ry="7.239" transform="rotate(-88.854 38.64 45.252)"/>
        <ellipse cx="38.474" cy="44.823" fill="#726EFB" rx="3.067" ry="7.237" transform="rotate(-88.98 38.474 44.823)"/>
        <path fill="#D0D0F7" d="M31.25 42.917l-.025 1.475c-.025 1.25 1.746 2.37 4.296 2.891.638.13 1.284.217 1.933.263a15.938 15.938 0 0 0 3.846-.158c2.567-.417 3.917-1.513 3.942-2.771l.483-1.6c-1.02-1.167-4.13-1.509-7.208-1.567-2.434-.054-5.925.688-7.267 1.467z"/>
        <path fill="#D0D0F7" d="M41.008 47.417l.104-5.834c2.084.188 3.896.6 4.63 1.434l-.03 1.633c-.02 1.292-1.962 2.375-4.704 2.767z"/>
        <ellipse cx="38.641" cy="43.165" fill="#8A8AF9" rx="3.067" ry="7.239" transform="rotate(-88.854 38.64 43.165)"/>
        <ellipse cx="38.474" cy="42.74" fill="#726EFB" rx="3.067" ry="7.237" transform="rotate(-88.98 38.474 42.74)"/>
        <path fill="#D0D0F7" d="M31.25 40.833l-.025 1.475c-.025 1.25 1.746 2.371 4.296 2.892.638.129 1.284.217 1.933.262a15.937 15.937 0 0 0 3.846-.158c2.567-.416 3.917-1.512 3.942-2.77l.483-1.6c-1.02-1.167-4.13-1.509-7.208-1.567-2.434-.054-5.925.687-7.267 1.466z"/>
        <path fill="#D0D0F7" d="M41.008 45.333l.104-5.833c2.084.188 3.896.6 4.63 1.433l-.03 1.634c-.02 1.291-1.962 2.375-4.704 2.766z"/>
        <ellipse cx="38.504" cy="40.95" fill="#8A8AF9" rx="3.067" ry="7.237" transform="rotate(-88.98 38.504 40.95)"/>
        <ellipse cx="38.611" cy="40.784" fill="#726EFB" rx="3.067" ry="7.239" transform="rotate(-88.854 38.611 40.784)"/>
        <path fill="#D0D0F7" d="M31.25 38.75l-.025 1.475c-.025 1.25 1.746 2.37 4.296 2.892.638.129 1.284.216 1.933.262a15.937 15.937 0 0 0 3.846-.158c2.567-.417 3.917-1.513 3.942-2.771l.483-1.6c-1.02-1.167-4.13-1.508-7.208-1.567-2.434-.054-5.925.688-7.267 1.467z"/>
        <path fill="#D0D0F7" d="M41.008 43.25l.104-5.833c2.084.187 3.896.6 4.63 1.433l-.03 1.633c-.02 1.292-1.962 2.375-4.704 2.767z"/>
        <ellipse cx="38.505" cy="38.867" fill="#8A8AF9" rx="3.067" ry="7.237" transform="rotate(-88.98 38.505 38.867)"/>
        <ellipse cx="38.611" cy="38.697" fill="#726EFB" rx="3.067" ry="7.239" transform="rotate(-88.854 38.611 38.697)"/>
        <path fill="#D0D0F7" d="M31.25 36.667l-.025 1.475c-.025 1.25 1.746 2.37 4.296 2.891.638.13 1.284.217 1.933.263a15.938 15.938 0 0 0 3.846-.158c2.567-.417 3.917-1.513 3.942-2.771l.483-1.6c-1.02-1.167-4.13-1.509-7.208-1.567-2.434-.054-5.925.688-7.267 1.467z"/>
        <path fill="#D0D0F7" d="M41.008 41.167l.104-5.834c2.084.188 3.896.6 4.63 1.434l-.03 1.633c-.02 1.292-1.962 2.375-4.704 2.767z"/>
        <ellipse cx="38.505" cy="36.784" fill="#8A8AF9" rx="3.067" ry="7.237" transform="rotate(-88.98 38.505 36.784)"/>
        <ellipse cx="38.611" cy="36.609" fill="#726EFB" rx="3.067" ry="7.239" transform="rotate(-88.854 38.611 36.609)"/>
        <path fill="#D0D0F7" d="M31.25 34.583l-.025 1.475c-.025 1.25 1.746 2.371 4.296 2.892.638.129 1.284.217 1.933.262a15.937 15.937 0 0 0 3.846-.158c2.567-.416 3.917-1.512 3.942-2.77l.483-1.6c-1.02-1.167-4.13-1.509-7.208-1.567-2.434-.054-5.925.687-7.267 1.466z"/>
        <path fill="#D0D0F7" d="M41.008 39.083l.104-5.833c2.084.188 3.896.6 4.63 1.433l-.03 1.634c-.02 1.291-1.962 2.375-4.704 2.766z"/>
        <ellipse cx="38.501" cy="34.701" fill="#8A8AF9" rx="3.067" ry="7.237" transform="rotate(-88.98 38.501 34.701)"/>
        <path fill="#8A8AF9" d="M50.4 67.375l8.467-9.742-.096 5.271-8.454 9.733-.009.046-35.05-.625.092-5.308z"/>
        <path fill="#726EFB" d="M58.783 62.096l.096-5.275-8.466 9.742-.088 5.27z"/>
        <path fill="#C1C1EA" d="M23.913 56.38l-8.159 9.387 34.58.612 8.158-9.383z"/>
        <path fill="#8A8AF9" d="M15.27 71.25l35.055.625.087-5.313-35.045-.624z"/>
        <path fill="#3C3AC4" d="M23.87 56.342l-8.037 9.354 34.617.617 8.025-9.355-34.604-.616zM20.376 62.7l2.77-3.233c1.813.025 4.084-.896 5.088-2.084l24.3.417c-.991 1.154-.366 2.12 1.388 2.18l-2.775 3.233c-1.775 0-3.983.875-5 2.008l-24.309-.417c.921-1.117.284-2.058-1.462-2.104z"/>
        <ellipse cx="37.233" cy="61.656" fill="#E2E2FD" rx="3.621" ry="1.671" transform="rotate(-18.616 37.233 61.656)"/>
        <path fill="#C1C1EA" d="M42.73 61.425c-.5.588-.176 1.075.733 1.092a3.663 3.663 0 0 0 2.545-1.034c.505-.583.175-1.07-.729-1.087-.95.002-1.864.37-2.55 1.029zM28.333 61.17c-.5.584-.175 1.076.734 1.088a3.68 3.68 0 0 0 2.546-1.029c.504-.587.175-1.075-.73-1.087a3.68 3.68 0 0 0-2.55 1.029z"/>
        <path fill="#C1C1EA" d="M23.833 56.196l35.046.625-8.462 9.742-35.046-.626 8.462-9.741zm34.267.97l-34.108-.603-7.85 9.029 34.108.608 7.85-9.033z"/>
        <path fill="#3C3AC4" d="M39.896 56.483l4.858.088-8.466 9.742-.109 6.12-4.858-.087.108-6.121z" opacity=".2"/>
        <path fill="#FFB23D" d="M30.425 66.208l-.113 6.121 4.859.088.112-6.125.005-.005 8.462-9.733-4.858-.087-8.463 9.733z"/>
        <path fill="#615EEE" d="M43.217 56.542l.975.02-8.467 9.738-.108 6.12-.975-.016.108-6.12zM38.43 56.458l.978.017-8.466 9.742-.109 6.12-.979-.016.108-6.121z"/>
        <path fill="#846E56" d="M29.975 66.2l-.108 6.12 5.754.1.108-6.12.004-.004-4.858-.088z" opacity=".29" style="mix-blend-mode:multiply"/>
        <path fill="#8A8AF9" d="M50.4 61.125l8.467-9.742-.096 5.271-8.454 9.733-.009.046-35.05-.625.092-5.308z"/>
        <path fill="#726EFB" d="M58.783 55.846l.096-5.275-8.466 9.742-.088 5.27z"/>
        <path fill="#C1C1EA" d="M23.913 50.13l-8.159 9.387 34.58.612 8.158-9.383z"/>
        <path fill="#8A8AF9" d="M15.27 65l35.055.625.087-5.313-35.045-.624z"/>
        <path fill="#3C3AC4" d="M23.87 50.092l-8.037 9.354 34.617.617 8.025-9.355-34.604-.616zm-3.495 6.358l2.77-3.233c1.813.025 4.084-.896 5.088-2.084l24.3.417c-.991 1.154-.366 2.12 1.388 2.18l-2.775 3.233c-1.775 0-3.983.874-5 2.008l-24.309-.417c.921-1.117.284-2.058-1.462-2.104z"/>
        <ellipse cx="37.242" cy="55.385" fill="#E2E2FD" rx="3.621" ry="1.671" transform="rotate(-18.616 37.242 55.385)"/>
        <path fill="#C1C1EA" d="M42.73 55.175c-.5.588-.176 1.075.733 1.092a3.663 3.663 0 0 0 2.545-1.034c.505-.583.175-1.07-.729-1.087-.95.002-1.864.37-2.55 1.029zM28.333 54.92c-.5.584-.175 1.076.734 1.088a3.68 3.68 0 0 0 2.546-1.029c.504-.587.175-1.075-.73-1.087a3.68 3.68 0 0 0-2.55 1.029z"/>
        <path fill="#C1C1EA" d="M23.833 49.946l35.046.625-8.462 9.742-35.046-.626 8.462-9.741zm34.267.97l-34.108-.603-7.85 9.029 34.108.608 7.85-9.033z"/>
        <path fill="#3C3AC4" d="M39.896 50.233l4.858.088-8.466 9.742-.109 6.12-4.858-.087.108-6.121z" opacity=".2"/>
        <path fill="#FFB23D" d="M30.425 59.958l-.113 6.121 4.859.088.112-6.125.005-.005 8.462-9.733-4.858-.087-8.463 9.733z"/>
        <path fill="#615EEE" d="M43.217 50.292l.975.02-8.467 9.738-.108 6.12-.975-.016.108-6.12zM38.43 50.208l.978.017-8.466 9.742-.109 6.12-.979-.016.108-6.121z"/>
        <path fill="#846E56" d="M29.975 59.95l-.108 6.12 5.754.1.108-6.12.004-.004-4.858-.088z" opacity=".29" style="mix-blend-mode:multiply"/>
    </g>
</svg>
