<svg xmlns="http://www.w3.org/2000/svg" xmlns:xlink="http://www.w3.org/1999/xlink" width="88" height="88" viewBox="0 0 88 88">
    <defs>
        <circle id="a" cx="44" cy="44" r="44"/>
    </defs>
    <g fill="none" fill-rule="evenodd">
        <mask id="b" fill="#fff">
            <use xlink:href="#a"/>
        </mask>
        <use fill="#E2E2FD" fill-rule="nonzero" xlink:href="#a"/>
        <g mask="url(#b)">
            <path fill="#8A8AF9" fill-rule="nonzero" d="M45.81 55.893l-8.134-3.847a3.75 3.75 0 0 0-4.96 1.508L49.25 64.27a11.351 11.351 0 0 0 7.097.828l11.404-3.21a4.225 4.225 0 0 1 3.133.345l2.385 1.28-.323-11.654h-.095a11.142 11.142 0 0 0-11.573-.828l-.682.352a7.94 7.94 0 0 1-3.447.894l-6.705.186a4.982 4.982 0 0 0-4.633 3.43z"/>
            <path fill="#3C3AC4" fill-rule="nonzero" d="M72.293 49.056h16.67v17.078h-16.67z"/>
            <path stroke="#E2E2FD" stroke-width=".5" d="M45.736 55.533s.054 2.961 2.43 2.961h9.92"/>
            <path fill="#8A8AF9" fill-rule="nonzero" d="M41.562 32.835l8.134 3.852a3.754 3.754 0 0 0 4.96-1.512L38.123 24.458a11.376 11.376 0 0 0-7.097-.804l-11.404 3.21a4.225 4.225 0 0 1-3.133-.344l-2.385-1.28v12.556c2.418 2.572 11.011 4.485 14.529 4.485.02 0 12.272-7.441 12.929-9.446z"/>
            <path fill="#3C3AC4" fill-rule="nonzero" d="M-3.897 23.567h18.976v17.078H-3.897z"/>
            <path fill="#726EFB" fill-rule="nonzero" d="M53.197 31.862v13.856H29.571l-.918-.596H52.3V31.133z"/>
            <path fill="#C1C1EA" fill-rule="nonzero" d="M52.288 32.653v12.47H28.653v-13.99H52.3z"/>
            <path fill="#E2E2FD" fill-rule="nonzero" d="M50.973 35.705v4.845c-1.769.03-2.798.775-2.856 3.015H32.563c-.053-2.27-.582-2.986-2.347-3.015v-4.845c1.765-.029 2.294-.774 2.347-3.015h15.579c.058 2.24 1.058 2.986 2.831 3.015z"/>
            <path fill="#726EFB" fill-rule="nonzero" d="M40.466 33.974a4.137 4.137 0 0 1 4.134 4.141 4.137 4.137 0 0 1-4.134 4.141 4.137 4.137 0 0 1-4.133-4.14 4.137 4.137 0 0 1 4.133-4.142z"/>
            <path fill="#FFB23D" fill-rule="nonzero" d="M42.025 36.749h-.608a1.326 1.326 0 0 0-.326-.68h.934a.314.314 0 0 0 .31-.314.31.31 0 0 0-.31-.31h-3.117a.31.31 0 0 0-.314.31.315.315 0 0 0 .314.315h.905a.988.988 0 0 1 .972.679H38.92a.314.314 0 0 0-.302.48.314.314 0 0 0 .302.145h1.864c-.13.43-.524.725-.972.729h-.892a.31.31 0 0 0-.215.538l2.227 2.108a.31.31 0 1 0 .414-.451l-1.654-1.566h.12a1.652 1.652 0 0 0 1.616-1.358h.608a.315.315 0 0 0 0-.625h-.012z"/>
            <path fill="#8A8AF9" fill-rule="nonzero" d="M24.933 28.446l-3.058 5.184s2.955 3.703 8.436 1.71l3.856 1.09s.992 1.967 1.778 2.443c2.116 1.288 3.397-.34 3.397-.34l-1.926-4.596a3.394 3.394 0 0 0-1.352-1.586l-8.039-4.97-3.092 1.065z"/>
            <path stroke="#E2E2FD" stroke-width=".5" d="M37.664 34.09a3.391 3.391 0 0 0-1.277-1.702l-8.47-5.3M21.437 33.643s3.116 3.905 8.886 1.805l4.063 1.147s1.133 1.943 1.869 2.572"/>
        </g>
    </g>
</svg>
