<?xml version="1.0" encoding="UTF-8"?>
<svg width="173px" height="171px" viewBox="0 0 173 171" version="1.1" xmlns="http://www.w3.org/2000/svg" xmlns:xlink="http://www.w3.org/1999/xlink">
    <!-- Generator: Sketch 60 (88103) - https://sketch.com -->
    <title>undraw_file_searching_duff</title>
    <desc>Created with Sketch.</desc>
    <defs>
        <linearGradient x1="50%" y1="100%" x2="50%" y2="0%" id="linearGradient-1">
            <stop stop-color="#808080" stop-opacity="0.25" offset="0%"></stop>
            <stop stop-color="#808080" stop-opacity="0.12" offset="54%"></stop>
            <stop stop-color="#808080" stop-opacity="0.1" offset="100%"></stop>
        </linearGradient>
        <linearGradient x1="50%" y1="100%" x2="50%" y2="0%" id="linearGradient-2">
            <stop stop-color="#808080" stop-opacity="0.25" offset="0%"></stop>
            <stop stop-color="#808080" stop-opacity="0.12" offset="54%"></stop>
            <stop stop-color="#808080" stop-opacity="0.1" offset="100%"></stop>
        </linearGradient>
        <linearGradient x1="50%" y1="100%" x2="50%" y2="0%" id="linearGradient-3">
            <stop stop-color="#808080" stop-opacity="0.25" offset="0%"></stop>
            <stop stop-color="#808080" stop-opacity="0.12" offset="54%"></stop>
            <stop stop-color="#808080" stop-opacity="0.1" offset="100%"></stop>
        </linearGradient>
        <rect id="path-4" x="0.137793103" y="0.183673469" width="36.6912414" height="24.7270408"></rect>
        <linearGradient x1="50%" y1="100%" x2="50%" y2="0%" id="linearGradient-6">
            <stop stop-color="#808080" stop-opacity="0.25" offset="0%"></stop>
            <stop stop-color="#808080" stop-opacity="0.12" offset="54%"></stop>
            <stop stop-color="#808080" stop-opacity="0.1" offset="100%"></stop>
        </linearGradient>
        <linearGradient x1="50%" y1="100%" x2="50%" y2="0%" id="linearGradient-7">
            <stop stop-color="#808080" stop-opacity="0.25" offset="0%"></stop>
            <stop stop-color="#808080" stop-opacity="0.12" offset="54%"></stop>
            <stop stop-color="#808080" stop-opacity="0.1" offset="100%"></stop>
        </linearGradient>
        <rect id="path-8" x="0.137793103" y="0.107142857" width="36.6912414" height="24.7270408"></rect>
        <linearGradient x1="0%" y1="50%" x2="100%" y2="50%" id="linearGradient-10">
            <stop stop-color="#808080" stop-opacity="0.25" offset="0%"></stop>
            <stop stop-color="#808080" stop-opacity="0.12" offset="54%"></stop>
            <stop stop-color="#808080" stop-opacity="0.1" offset="100%"></stop>
        </linearGradient>
        <linearGradient x1="0.00629643622%" y1="50.0018066%" x2="100.006296%" y2="50.0018066%" id="linearGradient-11">
            <stop stop-color="#808080" stop-opacity="0.25" offset="0%"></stop>
            <stop stop-color="#808080" stop-opacity="0.12" offset="54%"></stop>
            <stop stop-color="#808080" stop-opacity="0.1" offset="100%"></stop>
        </linearGradient>
        <linearGradient x1="50.0002221%" y1="100.000449%" x2="50.0002221%" y2="0.00140337287%" id="linearGradient-12">
            <stop stop-color="#B3B3B3" stop-opacity="0.25" offset="0%"></stop>
            <stop stop-color="#B3B3B3" stop-opacity="0.1" offset="54%"></stop>
            <stop stop-color="#B3B3B3" stop-opacity="0.05" offset="100%"></stop>
        </linearGradient>
        <linearGradient x1="49.9800916%" y1="99.9486916%" x2="49.9800916%" y2="0%" id="linearGradient-13">
            <stop stop-color="#000000" stop-opacity="0.12" offset="0%"></stop>
            <stop stop-color="#000000" stop-opacity="0.09" offset="55%"></stop>
            <stop stop-color="#000000" stop-opacity="0.02" offset="100%"></stop>
        </linearGradient>
        <linearGradient x1="49.9885247%" y1="100.005627%" x2="49.9885247%" y2="0.0076852476%" id="linearGradient-14">
            <stop stop-color="#000000" stop-opacity="0.12" offset="0%"></stop>
            <stop stop-color="#000000" stop-opacity="0.09" offset="55%"></stop>
            <stop stop-color="#000000" stop-opacity="0.02" offset="100%"></stop>
        </linearGradient>
    </defs>
    <g id="Documents" stroke="none" stroke-width="1" fill="none" fill-rule="evenodd">
        <g id="document-instructions/list" transform="translate(-898.000000, -441.000000)">
            <g id="undraw_file_searching_duff" transform="translate(898.000000, 441.000000)">
                <g id="Group" opacity="0.5" transform="translate(0.000000, 8.000000)" fill="url(#linearGradient-1)" fill-rule="nonzero">
                    <rect id="Rectangle" x="0.0377505568" y="0.0525870647" width="112.859065" height="150.899834"></rect>
                </g>
                <rect id="Rectangle" fill="#F2F2F2" fill-rule="nonzero" x="1" y="10" width="110" height="146"></rect>
                <rect id="Rectangle" fill="#E0E0E0" fill-rule="nonzero" x="10" y="17" width="38" height="1"></rect>
                <rect id="Rectangle" fill="#6058F2" fill-rule="nonzero" opacity="0.7" x="10" y="22" width="38" height="1"></rect>
                <rect id="Rectangle" fill="#E0E0E0" fill-rule="nonzero" x="53" y="17" width="38" height="1"></rect>
                <rect id="Rectangle" fill="#E0E0E0" fill-rule="nonzero" x="59" y="50" width="38" height="1"></rect>
                <rect id="Rectangle" fill="#E0E0E0" fill-rule="nonzero" x="60" y="53" width="38" height="1"></rect>
                <rect id="Rectangle" fill="#E0E0E0" fill-rule="nonzero" x="61" y="56" width="38" height="1"></rect>
                <rect id="Rectangle" fill="#E0E0E0" fill-rule="nonzero" x="59" y="101" width="38" height="1"></rect>
                <rect id="Rectangle" fill="#E0E0E0" fill-rule="nonzero" x="60" y="105" width="38" height="1"></rect>
                <rect id="Rectangle" fill="#E0E0E0" fill-rule="nonzero" x="61" y="108" width="38" height="1"></rect>
                <g id="Group" opacity="0.5" transform="translate(10.000000, 37.000000)" fill="url(#linearGradient-2)" fill-rule="nonzero">
                    <rect id="Rectangle" x="0.00754716981" y="0.0404938272" width="39.954717" height="40.7874074"></rect>
                </g>
                <rect id="Rectangle" fill="#F5F5F5" fill-rule="nonzero" x="10" y="38" width="40" height="39"></rect>
                <g id="Group" opacity="0.5" transform="translate(12.000000, 41.000000)" fill="url(#linearGradient-3)" fill-rule="nonzero">
                    <rect id="Rectangle" x="0.135918367" y="0.00247524752" width="36.6979592" height="24.8589109"></rect>
                </g>
                <rect id="e1f34465-d008-41db-868b-e00503fb87b3" fill="#FFFFFF" fill-rule="nonzero" x="12" y="42" width="37" height="24"></rect>
                <g id="Clipped" transform="translate(57.000000, 56.000000)">
                    <mask id="mask-5" fill="white">
                        <use xlink:href="#path-4"></use>
                    </mask>
                    <g id="cf34cfb5-9399-4bae-9cea-d47bbef6cb3a"></g>
                    <g id="Group" mask="url(#mask-5)" fill="#6058F2" fill-rule="nonzero" opacity="0.4">
                        <g transform="translate(-50.013793, -14.540816)">
                            <polygon id="Path" points="1.36517241 23.1147959 10.6049655 8.81377551 14.4784828 15.0688776 22.8226207 6.43112245 29.9751034 15.0688776 36.231931 2.26020408 52.3231034 27.880102 0.173517241 26.0918367"></polygon>
                            <ellipse id="Oval" cx="8.51765517" cy="2.85459184" rx="2.68186207" ry="2.68112245"></ellipse>
                        </g>
                    </g>
                </g>
                <g id="Group" opacity="0.5" transform="translate(10.000000, 90.000000)" fill="url(#linearGradient-6)" fill-rule="nonzero">
                    <rect id="Rectangle" x="0.00754716981" y="0.218834356" width="39.954717" height="40.5371779"></rect>
                </g>
                <rect id="Rectangle" fill="#F5F5F5" fill-rule="nonzero" x="10" y="91" width="40" height="39"></rect>
                <g id="Group" opacity="0.5" transform="translate(12.000000, 93.000000)" fill="url(#linearGradient-7)" fill-rule="nonzero">
                    <rect id="Rectangle" x="0.135918367" y="0.183529412" width="36.6979592" height="25.5998039"></rect>
                </g>
                <rect id="c95ac4f6-be4d-44a3-92c2-5c8066e2b531" fill="#FFFFFF" fill-rule="nonzero" x="12" y="93" width="37" height="24"></rect>
                <g id="Clipped" transform="translate(57.000000, 108.000000)">
                    <mask id="mask-9" fill="white">
                        <use xlink:href="#path-8"></use>
                    </mask>
                    <g id="7439734d-5f7c-428f-88ce-e68b86a45c07"></g>
                    <g id="Group" mask="url(#mask-9)" fill="#BDBDBD" fill-rule="nonzero" opacity="0.4">
                        <g transform="translate(-50.013793, -14.540816)">
                            <polygon id="Path" points="1.36517241 23.0382653 10.6049655 8.7372449 14.4784828 14.994898 22.8226207 6.35459184 29.9751034 14.994898 36.231931 2.18367347 52.3231034 27.8035714 0.173517241 26.0178571"></polygon>
                            <ellipse id="Oval" cx="8.51765517" cy="2.78061224" rx="2.68186207" ry="2.68112245"></ellipse>
                        </g>
                    </g>
                </g>
                <g id="Group" opacity="0.5" transform="translate(16.000000, 0.000000)" fill="url(#linearGradient-10)" fill-rule="nonzero">
                    <polygon id="Rectangle" transform="translate(70.533779, 85.541187) rotate(-78.760000) translate(-70.533779, -85.541187) " points="-5.36706318 28.9654033 146.400741 29.0109315 146.434622 142.116971 -5.33318206 142.071443"></polygon>
                </g>
                <polygon id="Rectangle" fill="#FFFFFF" fill-rule="nonzero" transform="translate(86.372844, 85.098472) rotate(-78.760000) translate(-86.372844, -85.098472) " points="13.2762789 30.3841161 159.42793 30.4396451 159.469409 139.812827 13.3177581 139.757298"></polygon>
                <polygon id="Rectangle" fill="#E0E0E0" fill-rule="nonzero" transform="translate(91.438445, 19.078701) rotate(11.240000) translate(-91.438445, -19.078701) " points="52.62822 18.5066317 130.249116 18.4771944 130.24867 19.6507702 52.6277741 19.6802075"></polygon>
                <polygon id="Rectangle" fill="#E0E0E0" fill-rule="nonzero" transform="translate(69.774298, 127.878954) rotate(11.240000) translate(-69.774298, -127.878954) " points="30.9640734 127.306884 108.584969 127.277447 108.584523 128.451023 30.9636275 128.48046"></polygon>
                <polygon id="Rectangle" fill="#E0E0E0" fill-rule="nonzero" transform="translate(59.801682, 132.780465) rotate(11.240000) translate(-59.801682, -132.780465) " points="29.8119562 132.20505 89.7918537 132.182303 89.7914078 133.355879 29.8115103 133.378626"></polygon>
                <polygon id="Rectangle" fill="#6058F2" fill-rule="nonzero" opacity="0.7" transform="translate(40.025607, 135.741604) rotate(11.240000) translate(-40.025607, -135.741604) " points="28.8538689 135.159053 51.1977906 135.150579 51.1973447 136.324155 28.853423 136.332629"></polygon>
                <polygon id="Rectangle" fill="#6058F2" fill-rule="nonzero" opacity="0.7" transform="translate(71.082941, 21.924624) rotate(11.240000) translate(-71.082941, -21.924624) " points="51.678569 21.345195 90.487758 21.3304768 90.4873122 22.5040526 51.6781231 22.5187708"></polygon>
                <polygon id="Rectangle" fill="#E0E0E0" fill-rule="nonzero" transform="translate(85.052811, 31.575465) rotate(11.240000) translate(-85.052811, -31.575465) " points="50.0655994 31.001946 120.040468 30.9754084 120.040022 32.1489842 50.0651536 32.1755218"></polygon>
                <polygon id="Rectangle" fill="#3AD29F" fill-rule="nonzero" opacity="0.7" transform="translate(57.777455, 33.048728) rotate(11.240000) translate(-57.777455, -33.048728) " points="49.2517412 32.4651736 66.3036151 32.4587068 66.3031693 33.6322826 49.2512953 33.6387494"></polygon>
                <polygon id="Rectangle" fill="#E0E0E0" fill-rule="nonzero" transform="translate(86.166409, 45.560596) rotate(11.240000) translate(-86.166409, -45.560596) " points="47.356184 44.9885266 124.97708 44.9590893 124.976634 46.1326651 47.3557381 46.1621024"></polygon>
                <g id="Group" opacity="0.5" transform="translate(47.000000, 65.000000)" fill="url(#linearGradient-11)" fill-rule="nonzero">
                    <polygon id="Rectangle" transform="translate(37.963938, 26.526366) rotate(-78.760000) translate(-37.963938, -26.526366) " points="18.0318974 -8.1606499 57.9220946 -8.17563566 57.8959795 61.2133813 18.0057822 61.228367"></polygon>
                </g>
                <polygon id="Rectangle" fill="#FFFFFF" fill-rule="nonzero" transform="translate(85.238536, 91.603301) rotate(11.240000) translate(-85.238536, -91.603301) " points="50.8463818 72.1003097 119.64552 72.074218 119.63069 111.106293 50.831552 111.132385"></polygon>
                <polygon id="Rectangle" fill="#E0E0E0" fill-rule="nonzero" transform="translate(84.848179, 52.182685) rotate(11.240000) translate(-84.848179, -52.182685) " points="46.0379537 51.6106159 123.658849 51.5811786 123.658404 52.7547544 46.0375079 52.7841917"></polygon>
                <polygon id="Rectangle" fill="#FEA41C" fill-rule="nonzero" transform="translate(62.745730, 87.142184) rotate(11.240000) translate(-62.745730, -87.142184) " points="58.4875402 72.9101108 67.014736 72.9068769 67.0039201 101.374257 58.4767243 101.377491"></polygon>
                <polygon id="Rectangle" fill="#FEA41C" fill-rule="nonzero" transform="translate(76.824766, 94.722432) rotate(11.240000) translate(-76.824766, -94.722432) " points="72.5647921 85.1859184 81.0919879 85.1826845 81.08474 104.258945 72.5575442 104.262179"></polygon>
                <polygon id="Rectangle" fill="#FEA41C" fill-rule="nonzero" transform="translate(90.963920, 102.014156) rotate(11.240000) translate(-90.963920, -102.014156) " points="86.7022732 96.8804366 95.229469 96.8772027 95.2255668 107.147876 86.698371 107.15111"></polygon>
                <polygon id="Rectangle" fill="#FEA41C" fill-rule="nonzero" transform="translate(106.992171, 99.808368) rotate(11.240000) translate(-106.992171, -99.808368) " points="102.732531 89.3910443 111.259727 89.3878104 111.25181 110.225691 102.724614 110.228925"></polygon>
                <path d="M137.623173,63.0549685 C130.279063,55.4268461 120.163495,51.0807942 109.567464,51.0011151 C98.9714333,50.921436 88.7914768,55.1148713 81.333171,62.6316838 C66.447643,77.6179795 66.195346,102.019841 80.7554107,117.3236 C93.9624762,131.205962 115.269117,133.554074 131.189598,122.881732 L159.620956,152.413402 C160.353962,153.17438 161.565844,153.198066 162.328104,152.466313 L169.412606,145.663522 C170.174617,144.93151 170.198335,143.72127 169.465588,142.960043 L141.041799,113.430893 C152.291519,98.034497 150.850145,76.7948183 137.623173,63.0549685 Z M128.767546,110.535927 C117.567615,121.288548 99.7597898,120.938449 88.9923105,109.753953 C78.2248312,98.569456 78.5749789,80.7857528 89.774394,70.0325964 C100.973809,59.27944 118.781651,59.6286875 129.549667,70.8126693 C134.72098,76.1837497 137.543822,83.3864316 137.397144,90.8360695 C137.250466,98.2857075 134.146286,105.372007 128.767546,110.535927 L128.767546,110.535927 Z" id="Shape" fill="url(#linearGradient-12)" fill-rule="nonzero"></path>
                <path d="M88.4990046,82 C85.169654,82 85.164344,87 88.4990046,87 C91.8336651,87 91.8336651,82 88.4990046,82 Z" id="Path" fill="url(#linearGradient-13)" fill-rule="nonzero"></path>
                <path d="M109.960251,67.0061879 C101.323885,66.8148525 93.4654313,71.0771011 89.2867096,77.512014 C87.9228035,79.6116687 91.7944544,81.467119 93.1506837,79.3775346 C96.610348,74.0503531 103.184222,70.666737 110.29547,70.842967 C117.747054,71.0267497 124.528201,75.2210239 128.11837,81.0416494 C129.479717,83.2495596 133.049415,81.2430551 131.700863,79.0477327 C127.33534,71.9985323 118.880657,67.2151464 109.960251,67.0061879 Z" id="Path" fill="url(#linearGradient-14)" fill-rule="nonzero"></path>
                <path d="M140.62488,61.0549685 C133.280583,53.4268461 123.164761,49.0807942 112.568462,49.0011151 C101.972164,48.921436 91.7919509,53.1148713 84.333457,60.6316838 C69.4475534,75.6179795 69.19525,100.019841 83.7556821,115.3236 C96.9637375,129.20515 118.270852,131.55219 134.191142,120.879213 L162.620694,150.413402 C163.353718,151.17438 164.565631,151.198066 165.32791,150.466313 L172.412591,143.663522 C173.174621,142.93151 173.19834,141.72127 172.465575,140.960043 L144.033499,111.428373 C155.284774,96.0348521 153.847669,74.7969702 140.62488,61.0549685 L140.62488,61.0549685 Z M131.769029,108.515771 C120.568815,119.268392 102.760541,118.918293 91.9927897,107.733796 C81.2250387,96.5492995 81.5751953,78.7655964 92.7748929,68.01244 C103.974591,57.2592836 121.782882,57.6085311 132.551169,68.7925129 C137.722613,74.1635933 140.545526,81.3662752 140.398844,88.8159131 C140.252163,96.265551 137.147904,103.35185 131.769029,108.515771 Z" id="Shape" fill="#6058F2" fill-rule="nonzero"></path>
                <path d="M92.4990046,81 C89.169654,81 89.164344,86 92.4990046,86 C95.8336651,86 95.8336651,81 92.4990046,81 Z" id="Path" fill="#6058F2" fill-rule="nonzero"></path>
                <path d="M112.960251,65.0061879 C104.323885,64.8148525 96.4654313,69.0771011 92.2867096,75.512014 C90.9228035,77.6116687 94.7944544,79.467119 96.1506837,77.3775346 C99.610348,72.0503531 106.184222,68.666737 113.29547,68.842967 C120.747054,69.0267497 127.528201,73.2210239 131.11837,79.0416494 C132.479717,81.2495596 136.049415,79.2430551 134.700863,77.0477327 C130.327663,69.9783918 121.883216,65.1950058 112.960251,65.0061879 Z" id="Path" fill="#6058F2" fill-rule="nonzero"></path>
            </g>
        </g>
    </g>
</svg>