<svg xmlns="http://www.w3.org/2000/svg" width="58" height="58" viewBox="0 0 58 58">
    <g fill="none" fill-rule="evenodd">
        <ellipse cx="28.962" cy="28.987" fill="#E2E2FD" fill-rule="nonzero" rx="28.926" ry="28.821"/>
        <path fill="#8A8AF9" fill-rule="nonzero" d="M40.866 17.19l-8.778-8.746H15.962a.824.824 0 0 0-.802.84v33.014a.818.818 0 0 0 .802.84h24.11a.823.823 0 0 0 .805-.84l-.011-25.108z"/>
        <path fill="#615EEE" fill-rule="nonzero" d="M32.088 8.446v8.744h8.778z"/>
        <path stroke="#615EEE" stroke-linecap="round" stroke-linejoin="round" stroke-width="3" d="M18.786 24.009h18.762M18.786 27.607h18.762M18.786 31.507h9.275"/>
        <path fill="#3C3AC4" fill-rule="nonzero" d="M22.369 13.846h-.858c-.07-.4-.256-.77-.534-1.067h1.388a.33.33 0 1 0 0-.66l-4.077.017a.331.331 0 0 0-.309.501.331.331 0 0 0 .309.157h1.168c.651-.004 1.221.434 1.382 1.063l-2.546.01a.331.331 0 0 0-.309.502.331.331 0 0 0 .31.156h2.547a1.423 1.423 0 0 1-1.375 1.093h-1.169a.334.334 0 0 0-.223.574L21 18.924c.06.058.142.09.226.09a.332.332 0 0 0 .226-.574l-2.32-2.17h.335a2.07 2.07 0 0 0 2.048-1.755h.858a.33.33 0 1 0 0-.66l-.004-.009z"/>
        <ellipse cx="15.791" cy="40.949" fill="#FFB23D" fill-rule="nonzero" rx="5.304" ry="5.285"/>
        <rect width="1.563" height="6.136" x="15.008" y="37.881" fill="#FFF" fill-rule="nonzero" rx=".5"/>
        <path fill="#FFF" fill-rule="nonzero" d="M18.87 40.67v.556a.5.5 0 0 1-.5.5h-5.159a.5.5 0 0 1-.5-.5v-.557a.5.5 0 0 1 .5-.5h5.159a.5.5 0 0 1 .5.5z"/>
        <path fill="#3C3AC4" fill-rule="nonzero" d="M26.393 49.531c-.732 0-1.326-.719-1.329-1.607v-.94c-.014-4.203 3.042-7.666 6.79-7.678l8.74-.032c3.75-.013 6.829 3.421 6.844 7.63v.942c0 .889-.587 1.614-1.319 1.616l-19.726.07z"/>
        <path fill="#C1C1EA" fill-rule="nonzero" d="M36.204 35.206a1.734 1.734 0 0 1 1.74 1.727l.006 1.873a1.734 1.734 0 0 1-3.467.012l-.007-1.873a1.734 1.734 0 0 1 1.728-1.74z"/>
        <ellipse cx="29.585" cy="30.694" fill="#C1C1EA" fill-rule="nonzero" rx="1.561" ry="1.774" transform="rotate(-.2 29.585 30.694)"/>
        <ellipse cx="42.636" cy="30.65" fill="#C1C1EA" fill-rule="nonzero" rx="1.561" ry="1.774" transform="rotate(-.2 42.636 30.65)"/>
        <path fill="#C1C1EA" fill-rule="nonzero" d="M42.306 28.038c0-2.615-1.936-4.52-6.222-4.506-4.285.015-6.198 1.935-6.188 4.548.01 2.612-.421 9.498 6.24 9.475 6.66-.023 6.179-6.905 6.17-9.517z"/>
        <path fill="#FFF" fill-rule="nonzero" d="M38.508 33.806c0 1.145-1.025 2.074-2.301 2.08-1.276.007-2.31-.92-2.32-2.063l4.62-.017z"/>
        <path fill="#3C3AC4" fill-rule="nonzero" d="M42.496 22.153c.24 1.761-.21 2.648-.15 7.435v.042c-.012.3-.103.74-.483.74a.541.541 0 0 1-.55-.481 10.79 10.79 0 0 1-.076-1.278 9.927 9.927 0 0 1 .023-1.174.138.138 0 0 0-.145-.156c-1.18.042-8.342.21-9.825-1.81a.144.144 0 0 0-.261.078 362.65 362.65 0 0 1-.089 3.386c-.014.435.125 1.49-.559 1.437-.35-.027-.421-.485-.457-.76-.127-5.4-1.22-5.76-.422-7.646 1.055-2.504 3.457-1.843 4.543-1.189l.422-.187s7.392-3.12 8.03 1.563z"/>
    </g>
</svg>
