<?xml version="1.0" encoding="UTF-8"?>
<svg width="145px" height="128px" viewBox="0 0 145 128" version="1.1" xmlns="http://www.w3.org/2000/svg" xmlns:xlink="http://www.w3.org/1999/xlink">
    <!-- Generator: Sketch 61 (89581) - https://sketch.com -->
    <title>a/illustration/home-loan</title>
    <desc>Created with Sketch.</desc>
    <defs>
        <polygon id="path-1" points="18.8864867 0.386444032 0.391117902 35.1483488 60.7123079 35.1483488 79.3954469 0.386444032"></polygon>
        <linearGradient x1="-31.909375%" y1="49.5261364%" x2="83.3190625%" y2="49.5261364%" id="linearGradient-3">
            <stop stop-color="#3C3AC4" offset="0%"></stop>
            <stop stop-color="#3C3AC4" stop-opacity="0" offset="100%"></stop>
        </linearGradient>
        <linearGradient x1="-7.24520548%" y1="40.5283014%" x2="61.9849315%" y2="51.9110773%" id="linearGradient-4">
            <stop stop-color="#3C3AC4" offset="0%"></stop>
            <stop stop-color="#3C3AC4" stop-opacity="0" offset="100%"></stop>
        </linearGradient>
        <polygon id="path-5" points="0.62311179 1.16087994 0.857336389 0 27.0904915 0 37.3963738 16.6702359 24.2797963 16.6702359 22.4996893 19.6885237 14.7234326 19.6885237"></polygon>
        <polygon id="path-7" points="0.0217537501 2.17149041 0.302200745 0.0688466296 13.3897272 0.0688466296 43.0236263 40.0190785 28.5338649 40.0190785"></polygon>
        <linearGradient x1="0.234285714%" y1="50.1168224%" x2="99.8271429%" y2="50.1168224%" id="linearGradient-9">
            <stop stop-color="#3C3AC4" offset="0%"></stop>
            <stop stop-color="#3C3AC4" stop-opacity="0" offset="100%"></stop>
        </linearGradient>
    </defs>
    <g id="Misc" stroke="none" stroke-width="1" fill="none" fill-rule="evenodd">
        <g id="Loans-page" transform="translate(-394.000000, -330.000000)">
            <g id="Group-10" transform="translate(349.000000, 321.000000)">
                <g id="a/illustration/home-loan" transform="translate(44.000000, 0.000000)">
                    <g id="Sakal-Icons-copy-01" transform="translate(0.632035, 8.848485)">
                        <g id="Group" transform="translate(0.000000, 108.077922)" fill="#C1C1EA" fill-rule="nonzero">
                            <path d="M6.20273292,19.8361638 L3.33631846,19.8361638 L3.33631846,1.72691309 C3.33631846,0.933466533 3.99418408,0.28003996 4.79302089,0.28003996 L4.79302089,0.28003996 C5.59185771,0.28003996 6.24972332,0.933466533 6.24972332,1.72691309 L6.24972332,19.8361638 L6.20273292,19.8361638 Z" id="Path"></path>
                            <path d="M15.9297459,19.8361638 L13.0633315,19.8361638 L13.0633315,1.72691309 C13.0633315,0.933466533 13.7211971,0.28003996 14.5200339,0.28003996 L14.5200339,0.28003996 C15.3188707,0.28003996 15.9767363,0.933466533 15.9767363,1.72691309 L15.9767363,19.8361638 L15.9297459,19.8361638 Z" id="Path"></path>
                            <path d="M25.6097685,19.8361638 L22.743354,19.8361638 L22.743354,1.72691309 C22.743354,0.933466533 23.4012196,0.28003996 24.2000565,0.28003996 L24.2000565,0.28003996 C24.9988933,0.28003996 25.6567589,0.933466533 25.6567589,1.72691309 L25.6567589,19.8361638 L25.6097685,19.8361638 Z" id="Path"></path>
                            <path d="M35.3367815,19.8361638 L32.470367,19.8361638 L32.470367,1.72691309 C32.470367,0.933466533 33.1282326,0.28003996 33.9270695,0.28003996 L33.9270695,0.28003996 C34.7259063,0.28003996 35.3837719,0.933466533 35.3837719,1.72691309 L35.3837719,19.8361638 L35.3367815,19.8361638 Z" id="Path"></path>
                            <rect id="Rectangle" x="0.375923207" y="2.70705295" width="34.2090119" height="2.28699301"></rect>
                        </g>
                        <g id="Group" transform="translate(109.341991, 108.077922)" fill="#D0D0F7" fill-rule="nonzero">
                            <path d="M29.6039526,19.8361638 L32.470367,19.8361638 L32.470367,1.72691309 C32.470367,0.933466533 31.8125014,0.28003996 31.0136646,0.28003996 L31.0136646,0.28003996 C30.2148278,0.28003996 29.5569622,0.933466533 29.5569622,1.72691309 L29.5569622,19.8361638 L29.6039526,19.8361638 Z" id="Path"></path>
                            <path d="M19.8769396,19.8361638 L22.743354,19.8361638 L22.743354,1.72691309 C22.743354,0.933466533 22.0854884,0.28003996 21.2866516,0.28003996 L21.2866516,0.28003996 C20.4878148,0.28003996 19.8299492,0.933466533 19.8299492,1.72691309 L19.8299492,19.8361638 L19.8769396,19.8361638 Z" id="Path"></path>
                            <path d="M10.1499266,19.8361638 L13.0163411,19.8361638 L13.0163411,1.72691309 C13.0163411,0.933466533 12.3584754,0.28003996 11.5596386,0.28003996 L11.5596386,0.28003996 C10.7608018,0.28003996 10.1029362,0.933466533 10.1029362,1.72691309 L10.1029362,19.8361638 L10.1499266,19.8361638 Z" id="Path"></path>
                            <path d="M0.469904009,19.8361638 L3.33631846,19.8361638 L3.33631846,1.72691309 C3.33631846,0.933466533 2.67845285,0.28003996 1.87961604,0.28003996 L1.87961604,0.28003996 C1.08077922,0.28003996 0.422913608,0.933466533 0.422913608,1.72691309 L0.422913608,19.8361638 L0.469904009,19.8361638 Z" id="Path"></path>
                            <rect id="Rectangle" transform="translate(18.301539, 3.811671) rotate(-180.000000) translate(-18.301539, -3.811671) " x="1.19703347" y="2.66817407" width="34.2090119" height="2.28699301"></rect>
                        </g>
                        <polygon id="Path" fill="#3C3AC4" fill-rule="nonzero" points="120.001082 49.3509356 121.350649 53.7229437 112.601732 53.7229437 94.1731602 19.5930736 104.178571 19.5930736"></polygon>
                        <rect id="Rectangle" fill="#E2E2FD" fill-rule="nonzero" x="30.3376623" y="53.0909091" width="55.6190476" height="51.1948052"></rect>
                        <polygon id="Path" fill="#C1C1EA" fill-rule="nonzero" points="118.190476 127.670996 85.95671 127.670996 85.95671 52.9872828 103.051785 24.6493506 118.190476 52.7546233"></polygon>
                        <polygon id="Path" fill="#3C3AC4" fill-rule="nonzero" opacity="0.2" points="31.6495977 53.2073774 30.3376623 54.5584096 30.3376623 62.5714286 85.766931 62.5714286 103.478058 29.8671304 118.190476 56.0957912 118.190476 52.7880915 102.962655 24.6493506 86.610318 54.5584096"></polygon>
                        <polygon id="Path" fill="#615EEE" fill-rule="nonzero" points="27.34135 50.3879525 25.2813853 51.6947375 26.3113676 54.3549784 86.2844316 54.3549784 104.075036 21.5920117 121.491101 54.0282821 122.614719 52.3014591 104.075036 17.0649351 84.973545 51.2280285"></polygon>
                        <g id="Group-4" transform="translate(24.796578, 16.667656)">
                            <g id="Group-5" transform="translate(0.093690, 0.010835)">
                                <mask id="mask-2" fill="white">
                                    <use xlink:href="#path-1"></use>
                                </mask>
                                <use id="Mask" fill="#8A8AF9" fill-rule="nonzero" xlink:href="#path-1"></use>
                                <g mask="url(#mask-2)" id="Path" opacity="0.200000003" stroke="#3C3AC4" stroke-width="0.5">
                                    <g transform="translate(0.484808, 4.821521)">
                                        <line x1="15.3911586" y1="0.937217069" x2="32.2649962" y2="0.866790353"></line>
                                        <line x1="13.3039572" y1="4.38812616" x2="31.6329615" y2="4.38812616"></line>
                                        <line x1="11.3833155" y1="7.95641311" x2="73.1249198" y2="7.95641311"></line>
                                        <line x1="9.50951872" y1="11.4777489" x2="71.251123" y2="11.4777489"></line>
                                        <line x1="5.71508021" y1="18.5673717" x2="67.4566845" y2="18.5673717"></line>
                                        <line x1="3.7944385" y1="22.1356586" x2="65.5360428" y2="22.1356586"></line>
                                        <line x1="1.92064171" y1="25.6569944" x2="63.662246" y2="25.6569944"></line>
                                        <line x1="8.98175233e-15" y1="29.2252814" x2="61.7416043" y2="29.2252814"></line>
                                    </g>
                                </g>
                            </g>
                            <g transform="translate(17.064935, 1.896104)" stroke="#3C3AC4" stroke-width="0.5">
                                <g id="Group-6" transform="translate(0.611958, -0.000000)" opacity="0.200000003">
                                    <line x1="-4.49087617e-14" y1="0.23475572" x2="61.7416043" y2="0.23475572" id="Path"></line>
                                    <line x1="60.6976318" y1="3.49295874" x2="18.9833461" y2="3.49295874" id="Path"></line>
                                    <line x1="61.961701" y1="7.02203375" x2="20.2474153" y2="7.02203375" id="Path"></line>
                                </g>
                                <line x1="14.705587" y1="17.7782313" x2="52.8440438" y2="17.9822882" id="Path" opacity="0.200000003"></line>
                                <line x1="29.7078584" y1="10.5046736" x2="10.7468195" y2="10.5046736" id="Path"></line>
                                <line x1="30.339893" y1="14.0337486" x2="11.3788541" y2="14.0337486" id="Path"></line>
                            </g>
                        </g>
                        <rect id="Rectangle" fill="url(#linearGradient-3)" fill-rule="nonzero" x="36.025974" y="37.9220779" width="15.1688312" height="3.79220779"></rect>
                        <polygon id="Path" fill="url(#linearGradient-4)" fill-rule="nonzero" points="83.4978355 17.0649351 73.3160173 37.8759338 92.8783069 37.9220779 104.285714 17.0649351"></polygon>
                        <g id="Group" opacity="0.1" transform="translate(25.281385, 21.489177)">
                            <g></g>
                        </g>
                        <g id="Group" transform="translate(47.402597, 0.000000)">
                            <polygon id="Path" fill="#3C3AC4" fill-rule="nonzero" points="1.78605551 18.6669494 1.08338172 20.8029685 5.43995926 20.8029685 17.244879 5.06143652 14.4341839 1.9038431"></polygon>
                            <polygon id="Path" fill="#E2E2FD" fill-rule="nonzero" points="25.8643443 37.8446859 5.0651999 37.8446859 5.0651999 17.9704214 16.073756 3.15759343 25.8643443 15.6950967"></polygon>
                            <polygon id="Path" fill="#D0D0F7" fill-rule="nonzero" points="36.3576063 20.2457461 25.8643443 16.8559767 25.8643443 37.8446859"></polygon>
                            <polygon id="Path" fill="#3C3AC4" fill-rule="nonzero" opacity="0.2" points="28.7218844 20.4779221 15.2773924 2.55393586 5.0651999 16.1130135 5.0651999 19.3170421 15.2773924 5.94370527 25.8643443 20.5243573"></polygon>
                            <polygon id="Path" fill="#3C3AC4" fill-rule="nonzero" points="28.8155742 19.7349589 28.2065903 20.8029685 36.0765368 20.7100981 36.544986 19.9206997"></polygon>
                            <g id="Group-3" transform="translate(14.045297, 0.232176)">
                                <mask id="mask-6" fill="white">
                                    <use xlink:href="#path-5"></use>
                                </mask>
                                <use id="Mask" fill="#615EEE" fill-rule="nonzero" xlink:href="#path-5"></use>
                                <g mask="url(#mask-6)" id="Path" opacity="0.5" stroke="#3C3AC4" stroke-width="0.5">
                                    <g transform="translate(-24.017316, 0.557222)">
                                        <line x1="61.7416043" y1="0.232175987" x2="-6.28722663e-14" y2="0.232175987"></line>
                                        <line x1="63.662246" y1="3.7148158" x2="1.92064171" y2="3.7148158"></line>
                                        <line x1="65.5360428" y1="7.2438908" x2="3.7944385" y2="7.2438908"></line>
                                        <line x1="67.4566845" y1="10.7729658" x2="5.71508021" y2="10.7729658"></line>
                                        <line x1="69.3304813" y1="14.2556056" x2="7.58887701" y2="14.2556056"></line>
                                        <line x1="71.251123" y1="17.7846806" x2="9.50951872" y2="17.7846806"></line>
                                    </g>
                                </g>
                            </g>
                            <g opacity="0.2" transform="translate(1.264069, 21.321495)">
                                <g transform="translate(0.000000, -0.000000)"></g>
                            </g>
                            <polygon id="Path" fill="#726EFB" fill-rule="nonzero" points="1.08338172 20.8029685 0.00594856124 19.9671349 14.7620983 0.325046382 29.3308683 20.0135701 28.2065903 20.8029685 14.7620983 2.64680625"></polygon>
                        </g>
                        <g id="Group" transform="translate(14.536797, 41.082251)">
                            <polygon id="Path" fill="#3C3AC4" fill-rule="nonzero" points="3.78603443 38.0344898 2.38379946 42.426679 11.1711386 42.426679 35.0091332 10.2795918 29.3534521 3.87820965"></polygon>
                            <polygon id="Path" fill="#E2E2FD" fill-rule="nonzero" points="52.443588 86.6756494 10.3765388 86.6756494 10.3765388 36.6794527 32.6720749 6.44810761 52.443588 32.0069109"></polygon>
                            <polygon id="Path" fill="#D0D0F7" fill-rule="nonzero" points="70.9063485 41.305269 52.443588 34.3899072 52.443588 86.6756494 70.9063485 86.6756494"></polygon>
                            <polygon id="Path" fill="#3C3AC4" fill-rule="nonzero" points="58.4264573 40.2305844 57.1644458 42.426679 71.6542072 42.2397774 72.7759952 40.6511132"></polygon>
                            <g id="Group-2" transform="translate(29.752369, 0.632035)">
                                <mask id="mask-8" fill="white">
                                    <use xlink:href="#path-7"></use>
                                </mask>
                                <use id="Mask" fill="#615EEE" fill-rule="nonzero" xlink:href="#path-7"></use>
                                <g mask="url(#mask-8)" id="Path" opacity="0.5" stroke="#3C3AC4" stroke-width="0.5">
                                    <g transform="translate(-9.139515, 3.573253)">
                                        <line x1="61.6048565" y1="0.233627087" x2="-4.49087617e-15" y2="0.233627087"></line>
                                        <line x1="63.5212443" y1="3.97166048" x2="1.9163878" y2="3.97166048"></line>
                                        <line x1="65.390891" y1="7.70969388" x2="3.78603443" y2="7.70969388"></line>
                                        <line x1="67.3072788" y1="11.4477273" x2="5.70242223" y2="11.4477273"></line>
                                        <line x1="69.1769254" y1="15.1857607" x2="7.57206886" y2="15.1857607"></line>
                                        <line x1="71.0933132" y1="18.9237941" x2="9.48845666" y2="18.9237941"></line>
                                        <line x1="72.9629598" y1="22.6618275" x2="11.3581033" y2="22.6618275"></line>
                                        <line x1="74.8793476" y1="26.3998609" x2="13.2744911" y2="26.3998609"></line>
                                        <line x1="76.7489943" y1="30.1378942" x2="15.1441377" y2="30.1378942"></line>
                                        <line x1="78.6653821" y1="33.8759276" x2="17.0605255" y2="33.8759276"></line>
                                    </g>
                                </g>
                            </g>
                            <polygon id="Path" fill="url(#linearGradient-9)" fill-rule="nonzero" points="57.4916339 20.0452041 47.6759891 20.0452041 47.6759891 15.0455844 53.7523407 15.0455844"></polygon>
                            <g opacity="0.100000001" transform="translate(20.566113, 4.205288)">
                                <g></g>
                            </g>
                            <polygon id="Path" fill="#726EFB" fill-rule="nonzero" points="2.38379946 42.426679 0.140223497 40.744564 30.0545696 0.700881262 59.4547629 40.744564 57.1644458 42.426679 30.0078285 5.37342301"></polygon>
                            <g transform="translate(44.404108, 0.000000)" fill-rule="nonzero">
                                <polygon id="Path" fill="#F2F2F8" points="3.27188161 20.0452041 0.467411658 15.9333673 0.467411658 1.0746846 3.27188161 1.0746846"></polygon>
                                <rect id="Rectangle" fill="#E2E2FD" x="3.27188161" y="1.0746846" width="2.85121111" height="19.0172449"></rect>
                                <path d="M6.07635156,1.63538961 L0.420670492,1.63538961 C0.280446995,1.63538961 0.140223497,1.49521336 0.140223497,1.35503711 L0.140223497,0.327077922 C0.140223497,0.18690167 0.280446995,0.0467254174 0.420670492,0.0467254174 L6.07635156,0.0467254174 C6.21657505,0.0467254174 6.35679855,0.18690167 6.35679855,0.327077922 L6.35679855,1.35503711 C6.31005738,1.49521336 6.21657505,1.63538961 6.07635156,1.63538961 Z" id="Path" fill="#D3D3F2"></path>
                                <path d="M6.21657505,1.63538961 L3.36536394,1.63538961 C3.22514044,1.63538961 3.08491694,1.49521336 3.08491694,1.35503711 L3.08491694,0.327077922 C3.08491694,0.18690167 3.22514044,0.0467254174 3.36536394,0.0467254174 L6.21657505,0.0467254174 C6.35679855,0.0467254174 6.49702205,0.18690167 6.49702205,0.327077922 L6.49702205,1.35503711 C6.49702205,1.49521336 6.35679855,1.63538961 6.21657505,1.63538961 Z" id="Path" fill="#C9C9F2"></path>
                            </g>
                        </g>
                        <g id="Group" transform="translate(91.012987, 65.099567)" fill-rule="nonzero">
                            <path d="M10.084564,16.292047 L0.276289425,16.292047 L0.276289425,5.35243043 C0.276289425,2.58231293 2.48660482,0.375609153 5.1574026,0.375609153 L5.1574026,0.375609153 C7.87424861,0.375609153 10.0385158,2.62926407 10.0385158,5.35243043 L10.0385158,16.292047 L10.084564,16.292047 Z" id="Path" stroke="#B2B2ED" stroke-width="0.5" fill="#E2E2FD" stroke-linecap="round" stroke-linejoin="round"></path>
                            <path d="M9.34779221,15.3530241 L1.05910946,15.3530241 L1.05910946,5.35243043 C1.05910946,3.09877551 2.85499072,1.31463203 5.01925788,1.31463203 L5.38764378,1.31463203 C7.59795918,1.31463203 9.34779221,3.14572665 9.34779221,5.35243043 L9.34779221,15.3530241 L9.34779221,15.3530241 Z" id="Path" fill="#726EFB"></path>
                            <rect id="Rectangle" fill="#E2E2FD" x="4.7890167" y="1.1737786" width="1" height="14.4140012"></rect>
                            <polygon id="Rectangle" fill="#E2E2FD" transform="translate(5.196452, 8.391015) rotate(-90.000000) translate(-5.196452, -8.391015) " points="4.79736678 3.97038377 5.59553623 3.97038377 5.59553623 12.8116454 4.79736678 12.8116454"></polygon>
                        </g>
                        <g id="Group" transform="translate(58.147186, 15.800866)" fill-rule="nonzero">
                            <path d="M9.89474525,16.1511936 L0,16.1511936 L0,5.21157699 C0,2.44145949 2.24031968,0.23475572 4.94737263,0.23475572 L4.94737263,0.23475572 C7.7010989,0.23475572 9.89474525,2.48841064 9.89474525,5.21157699 L9.89474525,16.1511936 Z" id="Path" stroke="#BBBBEA" stroke-width="0.5" fill="#D0D0F7" stroke-linecap="round" stroke-linejoin="round"></path>
                            <path d="M9.14797203,15.2121707 L0.746773227,15.2121707 L0.746773227,5.21157699 C0.746773227,2.95792208 2.56703297,1.1737786 4.76067932,1.1737786 L5.13406593,1.1737786 C7.37438561,1.1737786 9.14797203,3.00487322 9.14797203,5.21157699 L9.14797203,15.2121707 Z" id="Path" fill="#726EFB"></path>
                            <rect id="Rectangle" fill="#D0D0F7" x="4.52731269" y="1.03292517" width="1" height="14.4140012"></rect>
                            <polygon id="Rectangle" fill="#D0D0F7" transform="translate(4.926696, 8.252086) rotate(-90.000000) translate(-4.926696, -8.252086) " points="4.52761162 3.77144677 5.32578107 3.77144677 5.32578107 12.7327255 4.52761162 12.7327255"></polygon>
                        </g>
                        <g id="Group" transform="translate(106.813853, 65.099567)" fill-rule="nonzero">
                            <path d="M10.084564,16.292047 L0.276289425,16.292047 L0.276289425,5.35243043 C0.276289425,2.58231293 2.48660482,0.375609153 5.1574026,0.375609153 L5.1574026,0.375609153 C7.87424861,0.375609153 10.0385158,2.62926407 10.0385158,5.35243043 L10.0385158,16.292047 L10.084564,16.292047 Z" id="Path" stroke="#B2B2ED" stroke-width="0.5" fill="#E2E2FD" stroke-linecap="round" stroke-linejoin="round"></path>
                            <path d="M9.34779221,15.3530241 L1.05910946,15.3530241 L1.05910946,5.35243043 C1.05910946,3.09877551 2.85499072,1.31463203 5.01925788,1.31463203 L5.38764378,1.31463203 C7.59795918,1.31463203 9.34779221,3.14572665 9.34779221,5.35243043 L9.34779221,15.3530241 L9.34779221,15.3530241 Z" id="Path" fill="#726EFB"></path>
                            <rect id="Rectangle" fill="#E2E2FD" x="4.7890167" y="1.1737786" width="1" height="14.4140012"></rect>
                            <polygon id="Rectangle" fill="#E2E2FD" transform="translate(5.197879, 8.392423) rotate(-90.000000) translate(-5.197879, -8.392423) " points="4.79879427 3.97179231 5.59696372 3.97179231 5.59696372 12.8130539 4.79879427 12.8130539"></polygon>
                        </g>
                        <g id="Group" transform="translate(91.012987, 96.069264)" fill-rule="nonzero">
                            <path d="M10.084564,16.0572913 L0.276289425,16.0572913 L0.276289425,5.16462585 C0.276289425,2.39450835 2.48660482,0.187804576 5.1574026,0.187804576 L5.1574026,0.187804576 C7.87424861,0.187804576 10.0385158,2.44145949 10.0385158,5.16462585 L10.0385158,16.0572913 L10.084564,16.0572913 Z" id="Path" stroke="#B2B2ED" stroke-width="0.5" fill="#E2E2FD" stroke-linecap="round" stroke-linejoin="round"></path>
                            <path d="M9.34779221,15.1182684 L1.05910946,15.1182684 L1.05910946,5.11767471 C1.05910946,2.86401979 2.85499072,1.07987631 5.01925788,1.07987631 L5.38764378,1.07987631 C7.59795918,1.07987631 9.34779221,2.91097093 9.34779221,5.11767471 L9.34779221,15.1182684 L9.34779221,15.1182684 Z" id="Path" fill="#726EFB"></path>
                            <rect id="Rectangle" fill="#E2E2FD" x="4.7890167" y="0.939022882" width="1" height="14.4140012"></rect>
                            <polygon id="Rectangle" fill="#E2E2FD" transform="translate(5.196452, 8.156259) rotate(-90.000000) translate(-5.196452, -8.156259) " points="4.79736678 3.73562805 5.59553623 3.73562805 5.59553623 12.5768896 4.79736678 12.5768896"></polygon>
                        </g>
                        <g id="Group" transform="translate(41.714286, 63.203463)" fill-rule="nonzero">
                            <path d="M10.084564,16.2450959 L0.276289425,16.2450959 L0.276289425,5.30547928 C0.276289425,2.53536178 2.48660482,0.328658009 5.1574026,0.328658009 L5.1574026,0.328658009 C7.87424861,0.328658009 10.0385158,2.58231293 10.0385158,5.30547928 L10.0385158,16.2450959 L10.084564,16.2450959 Z" id="Path" stroke="#BBBBEA" stroke-width="0.5" fill="#D0D0F7" stroke-linecap="round" stroke-linejoin="round"></path>
                            <path d="M9.34779221,15.306073 L1.05910946,15.306073 L1.05910946,5.30547928 C1.05910946,3.05182437 2.85499072,1.26768089 5.01925788,1.26768089 L5.38764378,1.26768089 C7.59795918,1.26768089 9.34779221,3.09877551 9.34779221,5.30547928 L9.34779221,15.306073 Z" id="Path" fill="#726EFB"></path>
                            <rect id="Rectangle" fill="#D0D0F7" x="4.83506494" y="1.12682746" width="1" height="14.4140012"></rect>
                            <polygon id="Rectangle" fill="#D0D0F7" transform="translate(5.203359, 8.288473) rotate(-90.000000) translate(-5.203359, -8.288473) " points="4.80427401 3.86784247 5.60244346 3.86784247 5.60244346 12.7091041 4.80427401 12.7091041"></polygon>
                        </g>
                        <g id="Group" transform="translate(35.393939, 89.748918)">
                            <path d="M25.8191893,37.8446859 L0.0471153089,37.8446859 L0.0471153089,12.7696793 C0.0471153089,5.75796448 5.795183,0.0928703949 12.9095946,0.0928703949 L12.9095946,0.0928703949 C20.0240063,0.0928703949 25.772074,5.75796448 25.772074,12.7696793 L25.772074,37.8446859 L25.8191893,37.8446859 Z" id="Path" fill="#C1C1EA" fill-rule="nonzero"></path>
                            <path d="M23.9345769,37.8446859 L1.97884298,37.8446859 L1.97884298,13.0018553 C1.97884298,7.01171482 6.8788351,2.18245428 12.95671,2.18245428 L12.95671,2.18245428 C19.0345848,2.18245428 23.9345769,7.01171482 23.9345769,13.0018553 L23.9345769,37.8446859 L23.9345769,37.8446859 Z" id="Path" fill="#726EFB" fill-rule="nonzero"></path>
                            <path d="M23.5105392,37.8446859 L2.77980323,37.8446859 L2.77980323,12.9554201 C2.77980323,7.3367612 7.3971035,2.73967665 13.1451712,2.73967665 L13.1451712,2.73967665 C18.8461236,2.73967665 23.5105392,7.290326 23.5105392,12.9554201 L23.5105392,37.8446859 Z" id="Path" fill="#8A8AF9" fill-rule="nonzero"></path>
                            <path d="M3.91057064,37.8446859 L3.91057064,13.2340313 C3.91057064,8.31190034 7.96248721,4.31847336 12.95671,4.31847336 L12.95671,4.31847336 C17.9509327,4.31847336 22.0028493,8.31190034 22.0028493,13.2340313 L22.0028493,37.8446859" id="Path" stroke="#726EFB" stroke-width="0.5"></path>
                            <g transform="translate(6.124990, 21.824543)" fill="#726EFB" fill-rule="nonzero">
                                <path d="M3.01537977,1.67166711 L2.26153483,1.67166711 L2.26153483,0.928703949 L3.01537977,0.928703949 C3.01537977,0.928703949 3.1567257,1.25375033 3.01537977,1.67166711 Z" id="Path"></path>
                                <ellipse id="Oval" cx="1.50768989" cy="1.30018553" rx="1.13076741" ry="1.11444474"></ellipse>
                            </g>
                        </g>
                        <g id="Group" transform="translate(106.813853, 96.069264)" fill-rule="nonzero">
                            <path d="M10.084564,16.0572913 L0.276289425,16.0572913 L0.276289425,5.16462585 C0.276289425,2.39450835 2.48660482,0.187804576 5.1574026,0.187804576 L5.1574026,0.187804576 C7.87424861,0.187804576 10.0385158,2.44145949 10.0385158,5.16462585 L10.0385158,16.0572913 L10.084564,16.0572913 Z" id="Path" stroke="#B2B2ED" stroke-width="0.5" fill="#E2E2FD" stroke-linecap="round" stroke-linejoin="round"></path>
                            <path d="M9.34779221,15.1182684 L1.05910946,15.1182684 L1.05910946,5.11767471 C1.05910946,2.86401979 2.85499072,1.07987631 5.01925788,1.07987631 L5.38764378,1.07987631 C7.59795918,1.07987631 9.34779221,2.91097093 9.34779221,5.11767471 L9.34779221,15.1182684 L9.34779221,15.1182684 Z" id="Path" fill="#726EFB"></path>
                            <rect id="Rectangle" fill="#E2E2FD" x="4.7890167" y="0.939022882" width="1" height="14.4140012"></rect>
                            <polygon id="Rectangle" fill="#E2E2FD" transform="translate(5.197879, 8.157667) rotate(-90.000000) translate(-5.197879, -8.157667) " points="4.79879427 3.73703659 5.59696372 3.73703659 5.59696372 12.5782982 4.79879427 12.5782982"></polygon>
                        </g>
                        <g id="Group" transform="translate(32.865801, 21.489177)" fill-rule="nonzero">
                            <polygon id="Path" fill="#F2F2F8" points="3.33714286 20.1619048 6.16444444 16.0368254 6.16444444 1.29777778 3.33714286 1.29777778"></polygon>
                            <rect id="Rectangle" fill="#E2E2FD" transform="translate(1.940827, 10.693086) rotate(-180.000000) translate(-1.940827, -10.693086) " x="0.527175873" y="1.26102286" width="2.82730159" height="18.864127"></rect>
                            <path d="M0.602539683,1.85396825 L6.21079365,1.85396825 C6.34984127,1.85396825 6.48888889,1.71492063 6.48888889,1.57587302 L6.48888889,0.556190476 C6.48888889,0.417142857 6.34984127,0.278095238 6.21079365,0.278095238 L0.602539683,0.278095238 C0.463492063,0.278095238 0.324444444,0.417142857 0.324444444,0.556190476 L0.324444444,1.57587302 C0.370793651,1.71492063 0.463492063,1.85396825 0.602539683,1.85396825 Z" id="Path" fill="#D3D3F2"></path>
                            <path d="M0.463492063,1.85396825 L3.29079365,1.85396825 C3.42984127,1.85396825 3.56888889,1.71492063 3.56888889,1.57587302 L3.56888889,0.556190476 C3.56888889,0.417142857 3.42984127,0.278095238 3.29079365,0.278095238 L0.463492063,0.278095238 C0.324444444,0.278095238 0.185396825,0.417142857 0.185396825,0.556190476 L0.185396825,1.57587302 C0.185396825,1.71492063 0.324444444,1.85396825 0.463492063,1.85396825 Z" id="Path" fill="#C9C9F2"></path>
                        </g>
                    </g>
                </g>
            </g>
        </g>
    </g>
</svg>