<?xml version="1.0" encoding="UTF-8"?>
<svg width="162px" height="139px" viewBox="0 0 162 139" version="1.1" xmlns="http://www.w3.org/2000/svg" xmlns:xlink="http://www.w3.org/1999/xlink">
    <!-- Generator: Sketch 61 (89581) - https://sketch.com -->
    <title>a/illustration/car-loan</title>
    <desc>Created with Sketch.</desc>
    <defs>
        <linearGradient x1="-31.7539485%" y1="50%" x2="83.312552%" y2="50%" id="linearGradient-1">
            <stop stop-color="#3C3AC4" offset="0%"></stop>
            <stop stop-color="#3C3AC4" stop-opacity="0.99" offset="1%"></stop>
            <stop stop-color="#3C3AC4" stop-opacity="0.46" offset="50%"></stop>
            <stop stop-color="#3C3AC4" stop-opacity="0.13" offset="84%"></stop>
            <stop stop-color="#3C3AC4" stop-opacity="0" offset="100%"></stop>
        </linearGradient>
        <linearGradient x1="50.0093381%" y1="99.9947165%" x2="50.0093381%" y2="0.0357693272%" id="linearGradient-2">
            <stop stop-color="#3C3AC4" offset="0%"></stop>
            <stop stop-color="#3C3AC4" stop-opacity="0.99" offset="1%"></stop>
            <stop stop-color="#3C3AC4" stop-opacity="0.46" offset="50%"></stop>
            <stop stop-color="#3C3AC4" stop-opacity="0.13" offset="84%"></stop>
            <stop stop-color="#3C3AC4" stop-opacity="0" offset="100%"></stop>
        </linearGradient>
    </defs>
    <g id="Misc" stroke="none" stroke-width="1" fill="none" fill-rule="evenodd" opacity="0.899999976">
        <g id="Loans-page" transform="translate(-382.000000, -162.000000)">
            <g id="Group-2" transform="translate(349.000000, 161.000000)">
                <g id="a/illustration/car-loan" transform="translate(31.000000, -8.000000)">
                    <g id="Sakal---loan-against-property-05" transform="translate(2.168831, 9.398268)">
                        <path d="M75.6206288,15.7899441 L75.6206288,11.8693276 C75.6206311,8.78216246 74.3933008,5.82164395 72.209031,3.64000368 C70.0247612,1.45836341 67.0627664,0.234600175 63.9756035,0.238312685 L149.574951,0.238312685 C155.998579,0.238312685 161.205958,5.44570013 161.205958,11.8693276 L161.205958,15.7899441 L75.6206288,15.7899441 Z" id="Path" fill="#E2E2FD" fill-rule="nonzero"></path>
                        <path d="M133.83641,15.7899441 L133.83641,11.8693276 C133.83641,5.44570013 128.629031,0.238321145 122.205403,0.238321145 L149.574951,0.238321145 C155.998579,0.238321145 161.205958,5.44570013 161.205958,11.8693276 L161.205958,15.7899441 L133.83641,15.7899441 Z" id="Path" fill="#8A8AF9" fill-rule="nonzero"></path>
                        <path d="M139.677614,139.642172 L27.923689,139.642172 L27.923689,16.3553727 C27.923689,7.21505585 34.5452785,0.238321145 42.704273,0.238321145 L149.71514,0.238321145 C149.71514,0.238321145 139.677614,1.20562462 139.677614,15.7151767 L139.677614,139.642172 Z" id="Path" fill="#C1C1EA" fill-rule="nonzero"></path>
                        <polygon id="Path" fill="#3C3AC4" fill-rule="nonzero" points="148.570264 97.3845622 149.939443 101.767802 141.16829 101.767802 122.663354 67.8374131 132.710226 67.8374131"></polygon>
                        <rect id="Rectangle" fill="#E2E2FD" fill-rule="nonzero" x="52.1903892" y="101.16499" width="61.7391956" height="41.5333008"></rect>
                        <polygon id="Path" fill="#C1C1EA" fill-rule="nonzero" points="146.252474 142.693618 113.929585 142.693618 113.929585 100.571523 131.041978 72.1318667 146.252474 100.347221"></polygon>
                        <polygon id="Path" fill="#3C3AC4" fill-rule="nonzero" opacity="0.2" points="52.1903892 102.099582 52.1903892 108.809958 113.929585 108.809958 131.570022 75.9870617 146.252474 102.309866 146.252474 100.347221 131.041978 72.1318667 114.747353 102.099582"></polygon>
                        <polygon id="Path" fill="#615EEE" fill-rule="nonzero" points="49.5034351 98.1275634 47.46135 99.4546851 48.480056 102.099582 114.747353 102.099582 132.504615 69.3280885 149.911405 101.805186 151.02357 100.052824 132.504615 64.771949 113.462288 99.0014076"></polygon>
                        <polygon id="Path" fill="#3C3AC4" fill-rule="nonzero" points="65.8588078 64.771949 47.46135 99.4546851 113.929585 99.4546851 132.504615 64.771949"></polygon>
                        <g id="Group" opacity="0.1" transform="translate(47.620231, 65.888787)" fill="#3C3AC4" fill-rule="nonzero">
                            <g id="Path">
                                <polygon points="83.8843702 0.752347145 17.2479088 0.752347145 17.4301544 0.401874873 84.0712888 0.401874873"></polygon>
                                <polygon points="82.0011659 4.28510765 15.3693774 4.28510765 15.5609689 3.93463538 82.1834115 3.93463538"></polygon>
                                <polygon points="80.1039427 7.8131952 13.5048649 7.8131952 13.6777646 7.46272293 80.2955342 7.46272293"></polygon>
                                <polygon points="78.2113924 11.3459557 11.6263335 11.3459557 11.8132521 10.9954834 78.393638 10.9954834"></polygon>
                                <polygon points="76.3188421 14.8740433 9.75714807 14.8740433 9.93939365 14.523571 76.5104336 14.523571"></polygon>
                                <polygon points="74.4216189 18.4068038 7.87861669 18.4068038 8.06553524 18.0563315 74.6178833 18.0563315"></polygon>
                                <polygon points="72.5384145 21.9348913 6.00475827 21.9348913 6.19634978 21.584419 72.7253331 21.584419"></polygon>
                                <polygon points="70.6505372 25.4676518 4.13557282 25.4676518 4.31314544 25.1171795 70.8374558 25.1171795"></polygon>
                                <polygon points="68.7579869 29.0004123 2.2617144 29.0004123 2.44863295 28.6499401 68.9449055 28.6499401"></polygon>
                                <polygon points="66.8701096 32.5284999 0.387855982 32.5284999 0.579447491 32.1780276 67.0523552 32.1780276"></polygon>
                            </g>
                        </g>
                        <path d="M123.420374,111.305321 L123.420374,111.305321 C126.163771,111.305321 128.387734,113.529284 128.387734,116.272681 L128.387734,127.141995 L118.453011,127.141995 L118.453011,116.277354 C118.451773,114.959119 118.974571,113.69445 119.906267,112.761879 C120.837962,111.829307 122.102138,111.305321 123.420374,111.305321 L123.420374,111.305321 Z" id="Path" stroke="#B2B2ED" stroke-width="1.163484" fill="#E2E2FD" fill-rule="nonzero" stroke-linecap="round" stroke-linejoin="round"></path>
                        <path d="M123.233455,112.235241 L123.607292,112.235241 C124.673131,112.235241 125.695315,112.658643 126.448977,113.412305 C127.202638,114.165966 127.626041,115.188151 127.626041,116.253989 L127.626041,126.216748 L119.214707,126.216748 L119.214707,116.258662 C119.214707,114.039169 121.013962,112.239914 123.233455,112.239914 L123.233455,112.235241 Z" id="Path" fill="#726EFB" fill-rule="nonzero"></path>
                        <rect id="Rectangle" fill="#E2E2FD" fill-rule="nonzero" x="123.023172" y="112.095052" width="1" height="14.3459984"></rect>
                        <polygon id="Rectangle" fill="#E2E2FD" fill-rule="nonzero" transform="translate(123.418037, 119.268051) rotate(-90.000000) translate(-123.418037, -119.268051) " points="123.020835 114.774996 123.815239 114.774996 123.815239 123.761105 123.020835 123.761105"></polygon>
                        <path d="M83.059987,111.305321 L83.059987,111.305321 C88.8848673,111.305321 93.6068659,116.027319 93.6068659,121.8522 L93.6068659,142.693618 L72.513108,142.693618 L72.513108,121.8522 C72.513108,116.027319 77.2351066,111.305321 83.059987,111.305321 Z" id="Path" fill="#C1C1EA" fill-rule="nonzero"></path>
                        <path d="M83.059987,113.057682 L83.059987,113.057682 C85.4444906,113.057682 87.7313312,114.004923 89.4174299,115.691021 C91.1035286,117.37712 92.050769,119.663961 92.050769,122.048464 L92.050769,142.693618 L74.0692049,142.693618 L74.0692049,122.048464 C74.0692049,119.663961 75.0164453,117.37712 76.702544,115.691021 C78.3886427,114.004923 80.6754833,113.057682 83.059987,113.057682 L83.059987,113.057682 Z" id="Path" fill="#726EFB" fill-rule="nonzero"></path>
                        <path d="M83.059987,113.553015 L83.059987,113.553015 C87.7423278,113.550434 91.54093,117.342761 91.5460889,122.025099 L91.5460889,142.693618 L74.578558,142.693618 L74.578558,122.025099 C74.5837155,117.344586 78.3794704,113.553015 83.059987,113.553015 L83.059987,113.553015 Z" id="Path" fill="#8A8AF9" fill-rule="nonzero"></path>
                        <path d="M75.6580126,142.693618 L75.6580126,122.221364 C75.6580126,118.123043 78.980358,114.800698 83.0786788,114.800698 L83.0786788,114.800698 C87.1777562,114.800698 90.5014384,118.122287 90.504018,122.221364 L90.504018,142.693618" id="Path" stroke="#6E6BEF" stroke-width="1.163484"></path>
                        <path d="M79.9197554,130.782233 L79.321616,130.782233 L79.321616,130.156056 L79.9197554,130.156056 C80.0023218,130.356617 80.0023218,130.581673 79.9197554,130.782233 Z" id="Path" fill="#726EFB" fill-rule="nonzero"></path>
                        <circle id="Oval" fill="#726EFB" fill-rule="nonzero" cx="78.690766" cy="130.441107" r="1"></circle>
                        <path d="M139.30845,111.305321 L139.30845,111.305321 C142.051848,111.305321 144.275811,113.529284 144.275811,116.272681 L144.275811,127.141995 L134.34109,127.141995 L134.34109,116.277354 C134.34109,113.533957 136.565053,111.309994 139.30845,111.309994 L139.30845,111.305321 Z" id="Path" stroke="#B2B2ED" stroke-width="1.163484" fill="#E2E2FD" fill-rule="nonzero" stroke-linecap="round" stroke-linejoin="round"></path>
                        <path d="M139.121532,112.235241 L139.495369,112.235241 C140.561207,112.235241 141.583392,112.658643 142.337053,113.412305 C143.090715,114.165966 143.514118,115.188151 143.514118,116.253989 L143.514118,126.216748 L135.102783,126.216748 L135.102783,116.258662 C135.102783,114.039169 136.902038,112.239914 139.121532,112.239914 L139.121532,112.235241 Z" id="Path" fill="#726EFB" fill-rule="nonzero"></path>
                        <rect id="Rectangle" fill="#E2E2FD" fill-rule="nonzero" x="138.911248" y="112.095052" width="1" height="14.3459984"></rect>
                        <polygon id="Rectangle" fill="#E2E2FD" fill-rule="nonzero" transform="translate(139.306114, 119.268051) rotate(-90.000000) translate(-139.306114, -119.268051) " points="138.908912 114.774996 139.703316 114.774996 139.703316 123.761105 138.908912 123.761105"></polygon>
                        <rect id="Rectangle" fill="url(#linearGradient-1)" fill-rule="nonzero" x="64.6578562" y="72.7066412" width="22.486301" height="5.27110298"></rect>
                        <polygon id="Path" fill="#F2F2F8" fill-rule="nonzero" points="64.6531832 77.9777442 68.2887489 72.6926223 68.2887489 58.0148435 64.6531832 58.0148435"></polygon>
                        <rect id="Rectangle" fill="#E2E2FD" fill-rule="nonzero" transform="translate(62.830727, 67.996294) rotate(180.000000) translate(-62.830727, -67.996294) " x="61.0129445" y="58.0148435" width="3.63556571" height="19.9629007"></rect>
                        <rect id="Rectangle" fill="#D3D3F2" fill-rule="nonzero" transform="translate(64.751315, 57.727456) rotate(180.000000) translate(-64.751315, -57.727456) " x="60.7652774" y="56.7157597" width="7.97207596" height="2.02339325" rx="0.265274352"></rect>
                        <rect id="Rectangle" fill="#C9C9F2" fill-rule="nonzero" transform="translate(62.751287, 57.727456) rotate(180.000000) translate(-62.751287, -57.727456) " x="60.56434" y="56.7157597" width="4.37389396" height="2.02339325" rx="0.265274352"></rect>
                        <path d="M13.3674073,95.2770556 C17.9731698,90.0618727 22.0712092,84.4194404 25.605899,78.4263487 L19.6104867,68.6925655 C19.5018404,68.5253946 19.5112236,68.3077038 19.6338515,68.1505017 C23.4423169,63.229871 33.8723717,70.8000721 42.5640841,68.4262065 C45.3959,67.6551675 36.4331558,78.4356946 36.4331558,78.4356946 C36.4331558,78.4356946 41.6014536,88.4965853 45.2043085,93.7209587 C48.867912,99.0341183 57.6484107,107.562277 58.3493552,119.221321 C59.2605832,134.408453 50.8445756,147.562846 28.442388,147.562846 C10.0776409,147.562846 -1.50663597,131.941128 0.371895409,116.842783 C1.57752003,107.010867 9.69913083,99.4733769 13.3674073,95.2770556 Z" id="Path" fill="#8A8AF9" fill-rule="nonzero"></path>
                        <path d="M43.0267075,68.4542443 C42.9425941,68.3748039 42.7930593,68.3561121 42.5594111,68.4168606 C33.8443339,70.7953991 23.4002602,63.1878143 19.6011408,68.1785395 C19.4846431,68.3329387 19.5070688,68.5510791 19.6525434,68.6785466 C20.0357264,69.005654 21.0544325,69.4636045 23.6619462,69.1224781 C26.8237431,68.7417864 30.0260298,68.8679849 33.1480624,69.4963152 C38.6761783,70.416889 42.8771726,69.524353 43.0267075,68.4542443 Z" id="Path" fill="url(#linearGradient-2)" fill-rule="nonzero" opacity="0.4"></path>
                        <path d="M25.2928105,78.4263487 C25.2928105,78.4263487 31.517198,80.1319804 36.5079232,78.5805565" id="Path" stroke="#C1C1EA" stroke-width="1.163484" stroke-linecap="round" stroke-linejoin="round"></path>
                        <path d="M23.423625,81.982474 C23.423625,81.982474 28.4610798,86.9171236 37.6107426,80.4123583" id="Path" stroke="#C1C1EA" stroke-width="1.163484" stroke-linecap="round" stroke-linejoin="round"></path>
                        <path d="M36.0826835,95.356496 C33.3396539,87.6788167 37.9144853,87.7816219 37.6107426,80.4030123" id="Path" stroke="#C1C1EA" stroke-width="1.163484" stroke-linecap="round" stroke-linejoin="round"></path>
                        <path d="M24.5170985,80.2534775 C24.5170985,80.2534775 31.9471107,83.7675461 37.0640059,79.6366463" id="Path" stroke="#C1C1EA" stroke-width="1.163484" stroke-linecap="round" stroke-linejoin="round"></path>
                        <path d="M37.5313022,80.4590879 C37.5313022,80.4590879 45.7510453,82.1693926 47.7837845,87.1040422 C50.1763418,92.907863 41.9752907,83.9591377 37.5406482,80.6273146" id="Path" stroke="#C1C1EA" stroke-width="1.163484" stroke-linecap="round" stroke-linejoin="round"></path>
                        <circle id="Oval" fill="#615EEE" fill-rule="nonzero" cx="44.5454207" cy="130.782233" r="17.2759466"></circle>
                        <circle id="Oval" fill="#8A8AF9" fill-rule="nonzero" cx="44.5454207" cy="130.782233" r="14.9675025"></circle>
                        <circle id="Oval" fill="#726EFB" fill-rule="nonzero" cx="44.5454207" cy="130.782233" r="14.6217032"></circle>
                        <g id="Group" opacity="0.5" transform="translate(39.676193, 122.898944)" fill="#3C3AC4" fill-rule="nonzero">
                            <path d="M9.60294027,3.73837091 C9.53662264,3.67468571 9.44713104,3.6409153 9.3552732,3.64491164 L7.51879849,3.64491164 C7.40862056,3.08210318 7.17214869,2.55163926 6.82719987,2.09348771 L9.34592727,2.09348771 C9.43846832,2.09624554 9.52805642,2.06074837 9.59359435,1.99535547 C9.65636385,1.9284636 9.68998318,1.83937237 9.68705362,1.7476884 L9.68705362,0.649541945 C9.69256428,0.557490582 9.65839764,0.467484924 9.59319097,0.402278249 C9.52798429,0.337071574 9.43797864,0.302904935 9.34592727,0.3084156 L0.378510055,0.3084156 C0.285969007,0.305657764 0.196380908,0.341154936 0.130842982,0.406547836 C0.0649695756,0.471769375 0.0293861049,0.561575277 0.0327107455,0.654214909 L0.0327107455,2.08414178 C0.0329998321,2.17565019 0.0700424603,2.2632055 0.135515945,2.32713589 C0.198488232,2.39399998 0.286670808,2.431308 0.378510055,2.42994109 L1.93927991,2.42994109 C3.45332013,2.42994109 4.41595064,2.83181596 4.82717144,3.64491164 L0.378510055,3.64491164 C0.285969007,3.6421538 0.196380908,3.67765097 0.130842982,3.74304387 C0.0661849128,3.80874332 0.0322486331,3.89867446 0.0373837091,3.99071095 L0.0373837091,5.0888574 C0.0354558063,5.18037235 0.0689370875,5.26909775 0.130842982,5.33652447 C0.196380908,5.40191737 0.285969007,5.43741454 0.378510055,5.43465671 L4.97670627,5.43465671 C4.82119828,6.02172612 4.41894301,6.51261391 3.87388685,6.78047024 C3.15988598,7.11980003 2.37400241,7.28018443 1.58413467,7.2477666 L0.378510055,7.2477666 C0.288057783,7.24655015 0.201374564,7.28394291 0.140188909,7.3505718 C0.0730557313,7.41139799 0.0355597299,7.49832053 0.0373837091,7.58889295 L0.0373837091,8.95807129 C0.0355417062,9.04769937 0.0710971193,9.13404823 0.135515945,9.19639244 C1.51559787,10.6574724 3.30222764,12.7057881 5.49540524,15.3413396 C5.55961521,15.4252691 5.6608763,15.4724079 5.76643713,15.4675096 L7.8645978,15.4675096 C7.99902352,15.4764749 8.1244915,15.399696 8.17768636,15.2759181 C8.24934099,15.1576377 8.23205286,15.0058863 8.13562969,14.906754 C6.03591136,12.3397393 4.38791285,10.4175936 3.19163416,9.14031687 C4.2787781,9.05108293 5.31411363,8.63759987 6.16363904,7.95338411 C6.92390941,7.31405854 7.42280877,6.41770269 7.56552813,5.43465671 L9.34592727,5.43465671 C9.43716522,5.43782119 9.5254682,5.40216037 9.58892138,5.33652447 C9.65580161,5.27197269 9.69157057,5.18169863 9.68705362,5.0888574 L9.68705362,3.99071095 C9.69486612,3.89861478 9.66444797,3.80736034 9.60294027,3.73837091 L9.60294027,3.73837091 Z" id="Path"></path>
                        </g>
                        <rect id="Rectangle" fill="#6E6BEF" fill-rule="nonzero" opacity="0.600000024" x="47.46135" y="17.8133374" width="76.328188" height="4.05145947" rx="2.01515429"></rect>
                        <rect id="Rectangle" fill="#6E6BEF" fill-rule="nonzero" opacity="0.600000024" x="47.46135" y="31.0518434" width="76.328188" height="4.05145947" rx="2.01515429"></rect>
                        <rect id="Rectangle" fill="#6E6BEF" fill-rule="nonzero" opacity="0.600000024" x="47.46135" y="44.2950223" width="76.328188" height="4.05145947" rx="2.01515429"></rect>
                    </g>
                </g>
            </g>
        </g>
    </g>
</svg>