<?xml version="1.0" encoding="UTF-8"?>
<svg width="380px" height="356px" viewBox="0 0 380 356" version="1.1" xmlns="http://www.w3.org/2000/svg" xmlns:xlink="http://www.w3.org/1999/xlink">
    <!-- Generator: Sketch 61 (89581) - https://sketch.com -->
    <title>Path</title>
    <desc>Created with Sketch.</desc>
    <g id="Misc" stroke="none" stroke-width="1" fill="none" fill-rule="evenodd">
        <g id="FAQ-Logged-out" transform="translate(-921.000000, -374.000000)" fill="#E2E1FE">
            <g id="blob-shape" transform="translate(921.000000, 374.000000)">
                <path d="M255.688097,75.8451292 C270.558737,105.817616 278.802244,125.610767 304.098495,147.423628 C329.394747,169.236488 371.743743,193.149847 378.855789,218.921338 C386.048652,244.773617 358.004565,272.484029 331.819308,300.679171 C305.634051,328.793525 281.226805,357.392609 254.152542,355.534477 C227.159097,353.676344 197.417818,321.360995 159.594668,312.393485 C121.6907,303.345188 75.6240438,317.64473 44.9129396,305.607262 C14.2018354,293.569795 -1.07289803,255.195317 0.0585637085,218.517396 C1.19002544,181.920263 18.808501,147.019686 40.7103674,120.440311 C62.6930526,93.9417247 89.1207659,75.6835524 116.033391,51.2854638 C143.026836,26.8065868 170.505192,-3.892995 194.993257,0.87351901 C219.481321,5.64003302 240.898276,45.8726428 255.688097,75.8451292 Z" id="Path"></path>
            </g>
        </g>
    </g>
</svg>