<svg xmlns="http://www.w3.org/2000/svg" width="131" height="131" viewBox="0 0 131 131">
    <defs>
        <linearGradient id="a" x1="95.882%" x2="-2.794%" y1="49.785%" y2="49.785%">
            <stop offset="0%" stop-color="#FFF200"/>
            <stop offset="100%" stop-color="#F7941E"/>
        </linearGradient>
    </defs>
    <g fill="none" fill-rule="nonzero">
        <path fill="#D3D3D3" d="M102.44 32.371h-1.867l1.13-24.596h1.82zM88.925 32.517h-1.819l1.082-24.596h1.867z"/>
        <path fill="#3C3AC4" d="M103.326 32.176l-.099-4.091s.05-1.023-.442-1.169c0 0-.295.146-.983.146-.54 0-.885-.097-.885-.097-.491.146-.59 1.169-.59 1.169l-.491 4.09 3.49-.048zM89.76 32.42l-.098-4.091s.05-1.023-.442-1.17c0 0-.295.147-.983.147-.54 0-.885-.098-.885-.098-.491.146-.59 1.17-.59 1.17l-.491 4.09 3.49-.048zM89.072 10.162h-.049a1.503 1.503 0 0 1-1.425-1.51l.197-4.48C87.893 2.32 89.465.81 91.285.81l9.534-.098c.934 0 1.77.341 2.408.974.64.633.983 1.51.934 2.436l-.147 4.529c-.05.828-.738 1.412-1.524 1.412-.836-.048-1.474-.681-1.425-1.51l.147-4.529c0-.146-.049-.243-.098-.292a.377.377 0 0 0-.246-.098l-9.535.098c-.295 0-.59.292-.59.584l-.196 4.481a1.455 1.455 0 0 1-1.475 1.364z"/>
        <path fill="#726EFB" d="M59.927 111.613c0 .049.344 4.724.344 4.724s.099.341.59.341c0 0 .344-.049.393-.34l.688-4.92-2.015.195z"/>
        <path fill="#615EEE" d="M62.434 115.899a2.877 2.877 0 0 0-.246-1.461l.393-.73s-.835-.244-1.572-.342l-.295-.048c-1.032-.05-1.966.925-2.065 2.24-.098 1.169.492 2.192 1.327 2.484 0 0 .885.292 1.77.34l.098-1.07c.344-.342.54-.829.59-1.413z"/>
        <path fill="#8A8AF9" d="M63.957 116.191c-.098 1.315-1.032 2.338-2.113 2.24-1.032-.097-1.77-1.217-1.671-2.58.098-1.316 1.032-2.339 2.113-2.241 1.033.146 1.819 1.266 1.671 2.581z"/>
        <path fill="#6058F2" d="M63.22 116.191c-.049.682-.54 1.218-1.081 1.169-.54-.049-.934-.633-.885-1.315.05-.682.54-1.218 1.082-1.169.54.049.933.633.884 1.315z"/>
        <path fill="#3C3AC4" d="M63.024 116.191c-.05.633-.492 1.072-.983 1.023-.492-.049-.836-.585-.787-1.169.05-.633.492-1.072.983-1.023.492 0 .836.536.787 1.17z"/>
        <path fill="#6058F2" d="M61.303 111.759c0 .049.345 4.724.345 4.724s.098.341.59.341c0 0 .343-.048.392-.34l.689-4.92-2.016.195z"/>
        <path fill="#3C3AC4" d="M58.993 109.519l.394 2.58s.245.975 1.572.878c0 0 2.458.146 2.802-.731.344-.974.639-2.727.639-2.727h-5.407z"/>
        <path fill="#726EFB" d="M89.957 118.042c0 .049.344 4.724.344 4.724s.098.341.59.341c0 0 .344-.049.393-.34l.688-4.92-2.015.195z"/>
        <path fill="#615EEE" d="M92.464 122.28a2.877 2.877 0 0 0-.246-1.462l.393-.73s-.835-.244-1.573-.342l-.295-.048c-1.032-.049-1.965.925-2.064 2.24-.098 1.17.492 2.192 1.327 2.484 0 0 .885.292 1.77.341l.098-1.071c.344-.341.54-.828.59-1.413z"/>
        <path fill="#8A8AF9" d="M93.987 122.62c-.098 1.315-1.032 2.338-2.113 2.24-1.032-.097-1.77-1.217-1.671-2.58.098-1.316 1.032-2.339 2.113-2.241 1.032.097 1.77 1.217 1.671 2.581z"/>
        <path fill="#6058F2" d="M93.2 122.62c-.048.682-.54 1.218-1.08 1.169-.541-.049-.934-.633-.885-1.315.05-.682.54-1.218 1.081-1.169.59 0 .983.633.885 1.315z"/>
        <path fill="#3C3AC4" d="M93.004 122.571c-.049.633-.491 1.072-.983 1.023-.491-.049-.835-.584-.786-1.169.05-.633.491-1.071.983-1.023.491.05.835.585.786 1.17z"/>
        <path fill="#6058F2" d="M91.284 118.14c0 .048.344 4.724.344 4.724s.098.34.59.34c0 0 .344-.048.393-.34l.688-4.92-2.015.195z"/>
        <g>
            <path fill="#3C3AC4" d="M88.974 115.899l.393 2.581s.246.974 1.573.877c0 0 2.458.146 2.802-.73.344-.975.638-2.728.638-2.728h-5.406z"/>
            <path fill="#373A3B" d="M91.776 118.285c.786 0 1.425-.194 2.162-.34.246-.926.393-1.997.393-1.997l-5.357-.05.344 2.095c.688.341 1.77.292 2.458.292z"/>
        </g>
        <g>
            <path fill="#726EFB" d="M109.518 111.418c0 .049.344 4.724.344 4.724s.099.341.59.341c0 0 .344-.048.393-.34l.688-4.92-2.015.195z"/>
            <path fill="#615EEE" d="M112.025 115.704a2.877 2.877 0 0 0-.246-1.461l.393-.73s-.835-.244-1.572-.342l-.295-.048c-1.032-.049-1.966.925-2.065 2.24-.098 1.169.492 2.192 1.327 2.484 0 0 .885.292 1.77.341l.098-1.072c.344-.34.54-.876.59-1.412z"/>
            <path fill="#8A8AF9" d="M113.548 115.996c-.098 1.315-1.032 2.338-2.113 2.24-1.032-.097-1.77-1.217-1.671-2.58.098-1.316 1.032-2.338 2.113-2.241 1.033.097 1.77 1.266 1.671 2.581z"/>
            <path fill="#6058F2" d="M112.762 115.996c-.05.682-.54 1.218-1.081 1.17-.54-.05-.934-.634-.885-1.316.05-.682.54-1.217 1.081-1.169.59.049.983.633.885 1.315z"/>
            <path fill="#3C3AC4" d="M112.565 115.996c-.049.633-.491 1.072-.982 1.023-.492-.049-.836-.584-.787-1.169.05-.633.492-1.071.983-1.023.492 0 .836.536.786 1.17z"/>
            <path fill="#6058F2" d="M110.845 111.564c0 .049.344 4.724.344 4.724s.099.341.59.341c0 0 .344-.048.393-.34l.688-4.92-2.015.195z"/>
            <path fill="#3C3AC4" d="M113.892 109.81s0-.048 0 0l-5.357-.097.344 2.095.099.487s.245.974 1.572.876c0 0 2.458.147 2.802-.73.246-.828.491-2.338.54-2.63z"/>
            <path fill="#373A3B" d="M108.928 111.175l.197.779s.197.633 1.081.633c0 0-.442-.195-.491-.633-.098-.439-.05-.633-.05-.633l-.737-.146z"/>
        </g>
        <path fill="#8A8AF9" d="M114.974 37.193s.098-5.455-6.242-6.186c-4.227-.487-25.557-.779-34.306-.779-1.13 0-2.457.244-3.49.438-1.425.487-2.653 1.315-3.931 2.192-1.327.925-2.703 1.802-3.883 2.874-.59.535-1.13 1.071-1.474 1.802-.197.39-.345.779-.541 1.169-1.524 8.669-5.8 47.291-4.374 66.14 0 0 0 6.526 4.718 7.452l25.262 5.406s4.522 1.51 8.847.39l15.285-5.212s3.981-1.704 4.129-4.675c.196-3.02 0-71.011 0-71.011z"/>
        <path fill="#726EFB" d="M92.021 118.529c1.082 0 2.36-.098 3.54-.438l15.284-5.212s3.981-1.704 4.129-4.675c.196-2.971 0-71.011 0-71.011s.049-2.338-1.72-4.14l-17.202 9.643.59 2.192L93.2 85.166l-1.18 33.363z"/>
        <path fill="#615EEE" d="M91.776 118.529l1.523-33.703s2.85-34.58 3.293-38.623c.59-5.211-3.883-5.65-3.883-5.65l-31.651-1.85c-1.524 8.669-5.8 47.778-4.375 66.578 0 0 0 6.527 4.719 7.452l25.262 4.968c.05 0 2.261.78 5.112.828z"/>
        <path fill="#3C3AC4" d="M90.498 85.605h-.05L58.06 81.319c-.246-.049-.443-.292-.394-.536.05-.243.295-.438.541-.39l32.389 4.286c.246.05.442.293.393.536a.528.528 0 0 1-.491.39zM91.333 69.24h-.049l-31.602-3.263a.531.531 0 0 1-.443-.536.533.533 0 0 1 .54-.438l31.603 3.263a.531.531 0 0 1 .443.536c-.05.243-.246.438-.492.438z"/>
        <g>
            <path fill="#726EFB" d="M90.252 85.75l-1.327-.145c-.147 0-.246-.146-.197-.244l.099-.779c0-.146.147-.244.245-.195l1.327.146c.148 0 .246.146.197.244l-.098.78c0 .145-.099.194-.246.194z"/>
            <path fill="#3C3AC4" d="M89.859 85.166a.562.562 0 0 0-.59.293c-.442.876-1.474 3.068-1.524 5.016 0 0-.098.341.443.536l1.67.243s.836.147.885-.535c.05-.439-.245-3.8-.344-5.017-.098-.292-.294-.487-.54-.536zm-.05 5.31c-.245.194-.59.243-.884.194-.344-.049-.639-.243-.688-.487-.197-.584.147-1.51.786-1.705.738-.194 1.082.439 1.082 1.12.049.293 0 .634-.295.877z"/>
            <path fill="#8A8AF9" d="M89.613 85.02a.562.562 0 0 0-.59.293c-.442.876-1.474 3.068-1.523 5.016 0 0-.099.341.442.536l1.671.243s.836.146.885-.535c.049-.439-.246-3.8-.344-5.017a.678.678 0 0 0-.54-.536zm-.05 5.31c-.245.194-.589.243-.884.194-.344-.049-.639-.244-.688-.487-.196-.585.148-1.51.787-1.705.737-.195 1.08.439 1.08 1.12.05.341 0 .634-.294.877z"/>
        </g>
        <path fill="#3C3AC4" d="M88.139 104.892h-.05l-29.734-4.822c-.246-.049-.394-.244-.344-.487.049-.244.245-.39.491-.341l29.735 4.822c.246.048.393.243.344.487a.471.471 0 0 1-.442.34z"/>
        <path fill="#3C3AC4" d="M92.12 118.578h-.492l1.327-33.412c1.327-18.41 3.391-39.596 3.391-39.84a3.875 3.875 0 0 0-.983-3.117c-.737-.876-1.769-1.363-2.948-1.46l-31.406-1.803.049-.243.049-.147 31.357 1.705c1.278.098 2.457.633 3.293 1.607.835.974 1.228 2.192 1.08 3.458 0 .195-2.063 21.382-3.39 39.792l-1.327 33.46z"/>
        <path fill="#615EEE" d="M104.112 115.168l-.246-34.288 2.408-41.203c.05-1.218-.344-2.436-1.18-3.312a4.386 4.386 0 0 0-3.243-1.461l-35.977-1.12.688-.488 35.338 1.072a5.066 5.066 0 0 1 3.588 1.656c.934 1.023 1.425 2.338 1.327 3.701l-2.408 41.155.246 34.142-.541.146z"/>
        <g>
            <path fill="#615EEE" d="M24.388 118.728c-.049 1.018 7.723 5.916 15.543 5.964 7.969.049 15.986-4.704 15.986-5.964v4.752c0 1.26-5.312 5.77-15.986 5.77-10.132 0-15.592-4.752-15.543-5.77v-4.752z"/>
            <path fill="#3C3AC4" d="M24.388 118.582c.246-3.103 7.23-5.576 15.79-5.576 8.558 0 15.493 2.473 15.788 5.576v.194c0 3.152-6.935 6.45-15.592 6.498h-.197-.344c-8.559-.049-15.445-3.346-15.445-6.498v-.194z"/>
            <path fill="#615EEE" d="M25.224 105.538l14.953 8.05 14.953-8.05-.049 12.947c0 1.164-4.673 5.577-15.15 5.577-11.264 0-14.756-4.655-14.707-5.577v-12.947z"/>
            <path fill="#3B33C7" d="M55.13 115.721c0-1.649-2.508-1.745-6-.194-5.756 2.57-12.396 8.583-17.167 7.613-4.574-1.357-6.345-3.443-6.64-4.364-.05-.145-.05-.242-.05-.242v-6.159c.197 0 6.1-.194 11.904-.388l3.05 1.65 3.443-1.844c3-.097 5.164-.194 5.115-.242-.148-.146 6-1.115 6-1.115l.345.194v5.091z" opacity=".7"/>
            <path fill="#615EEE" d="M23.896 105.393l16.281-7.226 16.134 7.226 7.722 1.503v1.552l-23.856 10.425-24.101-10.425v-1.552z"/>
            <path fill="#8A8AF9" d="M40.177 96.18l23.856 10.716-23.856 10.425-24.101-10.425z"/>
            <path fill="#615EEE" d="M37.964 105.684c0 .533.934 1.018 2.115 1.018 1.18 0 2.115-.437 2.115-1.018 0-.534-.935-1.019-2.115-1.019-1.131 0-2.115.437-2.115 1.019z"/>
            <path fill="url(#a)" d="M36.497 22.5h1v2.619h-1z" transform="translate(15.879 95.84)"/>
            <path fill="#E2E2FD" d="M49.916 127.505c0-.34.099-3.2.64-5.625.442-1.892 1.131-3.443 2.262-3.443 2.656 0 2.952 8.34 2.902 9.068-.049.436-.246.872-.836 1.163-.197.097-.492.194-.59.194-.394.097-.836.146-1.426.146-.296 0-.541 0-.738-.049-.295-.048-.443-.048-.59-.097-1.28-.194-1.624-.873-1.624-1.357z"/>
            <path fill="#E2E2FD" d="M51.343 117.564c0 .776.64 1.406 1.426 1.406.787 0 1.427-.63 1.427-1.406 0-.776-.64-1.406-1.427-1.406s-1.426.63-1.426 1.406z"/>
            <path fill="#2C2A59" d="M53.802 118.873c-.05-.048-.147-.097-.197-.145-1.278.194-2.41-1.164-1.377-2.425-.54.194-.885.727-.885 1.31 0 .484.246.92.64 1.163-1.87 1.552-2.067 8.195-2.067 8.777 0 .291.148.679.541.97v-.049s.246-4.17.64-6.594c.492-3.152 2.705-3.007 2.705-3.007z" opacity=".1"/>
            <path fill="#C1C1EA" d="M40.177 118.873v-1.552l-24.101-10.425v1.552z" opacity=".7"/>
            <path fill="#E2E2FD" d="M53.802 116.546h-1.967v-3.492c0-.388-.197-.727-.541-.921l-10.87-5.82.934-1.696 10.87 5.819c.984.533 1.574 1.503 1.574 2.618v3.492z"/>
            <path fill="#3C3AC4" d="M38.111 105.15c0 .534.886.921 1.968.921 1.082 0 1.967-.436 1.967-.92 0-.534-.885-.922-1.967-.922s-1.968.436-1.968.921z"/>
        </g>
        <g transform="translate(48.203 91.303)">
            <ellipse cx="4.967" cy="3.745" fill="#D0D0F7" rx="4.535" ry="1.998" transform="rotate(-25.291 4.967 3.745)"/>
            <path fill="#C1C1EA" d="M3.463 8.136l-1.854-1.51-.682-.828s-1.025-1.17.878-3.216c0 0 1.024 2.777 3.072 5.018l-1.414.536z"/>
            <path fill="#E2E2FD" d="M23.8 32.983L9.071 1.803c.488 1.023-.975 2.68-3.219 3.751-2.243 1.072-4.486 1.12-4.974.097l14.729 31.132c.78 1.608 3.267 2.144 5.51 1.072 2.244-1.023 3.366-3.41 2.683-4.872z"/>
            <path fill="#8A8AF9" d="M16.29 17.052l1.316 2.777c.098 2.24-4.828 6.236-8.193 3.8l-1.317-2.777c3.706 2.582 8.29-1.51 8.193-3.8z"/>
            <path fill="#615EEE" d="M11.168 26.016s2.878-.73 4.195-2.68l-1.512-.925s-2.097 2.387-4 1.997c0 0 1.171.829 1.903.585 0 0-.147.439-.586 1.023z"/>
            <path fill="#615EEE" d="M9.9 22.703s2.927.585 4.926-.584l-.975-1.51s-2.926 1.217-4.487.048c0 0 .732 1.267 1.414 1.364.098.049-.244.39-.878.682z"/>
            <path fill="#3C3AC4" d="M16.972 21.193s2.244 1.315 3.17.78c.537-.293.293-.975.049-1.56-.195-.487-.244-.925-.975-.876-1.659.097-2.195.584-2.195.584l-.049 1.072z"/>
            <path fill="#8A8AF9" d="M16.972 21.193l.049-.926c3.902 0 2.682-.682 2.682-.682.342.146.39.536.488.78.244.584.488 1.266-.049 1.559-.975.536-3.17-.731-3.17-.731z"/>
            <path fill="#3C3AC4" d="M17.167 19.634s1.805-1.851 1.512-2.874c-.146-.585-.878-.536-1.512-.439-.487.097-.926.049-1.073.73-.292 1.657.05 2.242.05 2.242l1.023.341z"/>
            <path fill="#8A8AF9" d="M17.167 19.634l-.878-.244c.927-3.8 0-2.777 0-2.777.244-.292.634-.243.878-.292.634-.097 1.317-.146 1.512.439.293 1.071-1.512 2.874-1.512 2.874z"/>
            <g>
                <path fill="#C1C1EA" d="M14.046 19.878c-.049.097.049.292 0 .39-.049.097-.244.194-.244.34-.049.147.098.293.049.39 0 .146-.195.244-.195.341 0 .146.146.244.146.39 0 .146-.146.292-.097.39 0 .146.195.195.243.34.05.147-.048.293 0 .39.05.098.244.147.342.244.097.097.049.292.146.39.098.097.293.049.39.097.098.049.147.244.244.293.098.048.293-.098.39-.05.098 0 .244.196.342.147.097 0 .195-.195.341-.195.098-.049.293.098.39.049.098-.049.147-.244.244-.292.098-.05.293 0 .39-.098.098-.097.098-.244.147-.341.097-.097.292-.097.34-.195.098-.097 0-.292.098-.39.05-.097.244-.146.293-.243.049-.098-.049-.293 0-.39.049-.097.244-.195.244-.341.049-.146-.098-.292-.049-.39 0-.146.195-.243.195-.34 0-.147-.146-.244-.146-.39 0-.147.146-.293.098-.39 0-.146-.196-.195-.244-.341-.05-.146.048-.293 0-.39-.05-.098-.244-.146-.342-.244-.097-.097-.049-.292-.146-.39-.098-.097-.293-.048-.39-.097-.098-.049-.147-.243-.244-.292-.098-.049-.293.097-.39.049-.098 0-.244-.195-.342-.147-.097 0-.195.195-.341.195-.098.049-.293-.097-.39-.048-.098.048-.147.243-.244.292-.098.049-.293 0-.39.097-.098.098-.098.244-.147.341-.097.098-.292.098-.34.195-.098.098 0 .293-.098.39-.05.097-.244.146-.293.244z"/>
                <path fill="#D0D0F7" d="M14.387 20.121c-.048.098.05.244 0 .341-.048.098-.195.146-.195.244-.049.097.049.243.049.34 0 .098-.146.196-.146.293 0 .098.097.195.146.341 0 .098-.098.244-.098.341 0 .098.147.195.196.293.048.097-.05.243 0 .34.048.098.195.147.292.195.049.098.049.244.098.341.097.05.244.05.341.098.098.049.146.195.195.244.098.048.244-.05.342-.05.097 0 .195.147.292.147.098 0 .195-.146.293-.146.097 0 .244.049.341.049.098-.05.147-.195.195-.244.098-.049.244 0 .342-.049.097-.049.048-.243.146-.292.049-.049.244-.049.293-.146.048-.098 0-.244.048-.341.05-.098.195-.098.244-.195.049-.098-.049-.244 0-.341.049-.098.195-.146.195-.244.05-.097-.048-.243-.048-.34 0-.098.146-.196.146-.293 0-.098-.098-.195-.146-.341 0-.098.097-.244.097-.341 0-.098-.146-.195-.195-.293-.049-.097.049-.243 0-.34-.049-.098-.195-.147-.293-.195-.048-.098-.048-.244-.097-.342-.098-.048-.244-.048-.342-.097-.097-.049-.146-.195-.195-.244-.097-.048-.243.05-.341.05-.098 0-.195-.147-.293-.147-.097 0-.195.146-.292.146-.098 0-.244-.049-.342-.049-.097.05-.146.195-.195.244-.097.049-.244 0-.341.049-.098.048-.049.243-.146.292-.05.049-.244.049-.293.146-.049.098 0 .244-.049.341-.049.049-.195.098-.244.195z"/>
            </g>
        </g>
    </g>
</svg>
