<?xml version="1.0" encoding="UTF-8"?>
<svg width="100px" height="130px" viewBox="0 0 100 130" version="1.1" xmlns="http://www.w3.org/2000/svg" xmlns:xlink="http://www.w3.org/1999/xlink">
    <!-- Generator: Sketch 61 (89581) - https://sketch.com -->
    <title>a/illustration/personal-loan</title>
    <desc>Created with Sketch.</desc>
    <defs>
        <linearGradient x1="95.8823529%" y1="49.7851852%" x2="-2.79411765%" y2="49.7851852%" id="linearGradient-1">
            <stop stop-color="#FFF200" offset="0%"></stop>
            <stop stop-color="#F7941E" offset="100%"></stop>
        </linearGradient>
    </defs>
    <g id="Misc" stroke="none" stroke-width="1" fill="none" fill-rule="evenodd">
        <g id="Loans-page" transform="translate(-403.000000, -491.000000)">
            <g id="Group-6" transform="translate(349.000000, 487.000000)">
                <g id="a/illustration/personal-loan" transform="translate(38.000000, 4.000000)">
                    <g id="Sakal-Icons-copy-04" transform="translate(15.878788, 0.567100)">
                        <g id="Group" transform="translate(40.264069, 0.000000)" fill-rule="nonzero">
                            <g transform="translate(29.980664, 0.000000)" id="Path">
                                <polygon fill="#D3D3D3" points="16.3173449 31.8039004 14.449697 31.8039004 15.5801154 7.2082347 17.3986147 7.2082347"></polygon>
                                <polygon fill="#D3D3D3" points="2.80147186 31.9500132 0.982972583 31.9500132 2.06424242 7.35434756 3.93189033 7.35434756"></polygon>
                                <path d="M17.2020202,31.6090832 L17.1037229,27.517923 C17.1037229,27.517923 17.1528716,26.4951329 16.6613853,26.3490201 C16.6613853,26.3490201 16.3664935,26.4951329 15.6784127,26.4951329 C15.1377778,26.4951329 14.7937374,26.3977244 14.7937374,26.3977244 C14.3022511,26.5438372 14.2039538,27.5666273 14.2039538,27.5666273 L13.7124675,31.6577875 L17.2020202,31.6090832 Z" fill="#3C3AC4"></path>
                                <path d="M3.63699856,31.8526047 L3.5387013,27.7614444 C3.5387013,27.7614444 3.58784993,26.7386544 3.09636364,26.5925415 C3.09636364,26.5925415 2.80147186,26.7386544 2.11339105,26.7386544 C1.57275613,26.7386544 1.22871573,26.6412458 1.22871573,26.6412458 C0.737229437,26.7873587 0.638932179,27.8101487 0.638932179,27.8101487 L0.147445887,31.901309 L3.63699856,31.8526047 Z" fill="#3C3AC4"></path>
                                <path d="M2.94891775,9.59474483 C2.94891775,9.59474483 2.89976912,9.59474483 2.89976912,9.59474483 C2.06424242,9.54604054 1.47445887,8.86418051 1.47445887,8.08491189 L1.67105339,3.60411735 C1.76935065,1.75335439 3.34210678,0.243521442 5.16060606,0.243521442 L14.6954401,0.146112865 C15.6292641,0.146112865 16.4647908,0.487042885 17.1037229,1.12019864 C17.7426551,1.75335439 18.0866955,2.63003158 18.0375469,3.55541306 L17.890101,8.08491189 C17.8409524,8.91288479 17.1528716,9.49733626 16.3664935,9.49733626 C15.5309668,9.44863197 14.8920346,8.81547622 14.9411833,7.98750331 L15.0886291,3.45800448 C15.0886291,3.31189162 15.0394805,3.21448304 14.9903319,3.16577875 C14.9411833,3.11707446 14.842886,3.06837017 14.7445887,3.06837017 L5.20975469,3.16577875 C4.91486291,3.16577875 4.61997114,3.45800448 4.61997114,3.75023021 L4.42337662,8.23102475 C4.37422799,9.01029337 3.73529582,9.59474483 2.94891775,9.59474483 Z" fill="#3C3AC4"></path>
                            </g>
                            <g transform="translate(2.457431, 108.610563)" id="Path">
                                <g transform="translate(0.000000, 1.948172)">
                                    <path d="M1.32701299,0.487042885 C1.32701299,0.535747173 1.67105339,5.21135887 1.67105339,5.21135887 C1.67105339,5.21135887 1.76935065,5.55228889 2.26083694,5.55228889 C2.26083694,5.55228889 2.60487734,5.5035846 2.65402597,5.21135887 L3.34210678,0.292225731 L1.32701299,0.487042885 Z" fill="#726EFB"></path>
                                    <path d="M3.83359307,4.77302027 C3.8827417,4.2372731 3.78444444,3.75023021 3.58784993,3.31189162 L3.98103896,2.58132729 C3.98103896,2.58132729 3.14551227,2.33780585 2.40828283,2.24039727 C2.40828283,2.24039727 2.11339105,2.19169298 2.11339105,2.19169298 C1.08126984,2.14298869 0.147445887,3.11707446 0.0491486291,4.43209025 C-0.0491486291,5.60099318 0.540634921,6.62378323 1.37616162,6.91600897 L1.37616162,6.91600897 C1.37616162,6.91600897 2.26083694,7.2082347 3.14551227,7.25693898 L3.24380952,6.18544464 C3.58784993,5.84451462 3.78444444,5.35747173 3.83359307,4.77302027 Z" fill="#615EEE"></path>
                                    <path d="M5.35720058,5.065246 C5.25890332,6.38026179 4.32507937,7.40305185 3.24380952,7.30564327 C2.21168831,7.2082347 1.47445887,6.08803606 1.57275613,4.72431598 C1.67105339,3.40930019 2.60487734,2.38651014 3.68614719,2.48391871 C4.7182684,2.63003158 5.50464646,3.75023021 5.35720058,5.065246 Z" fill="#8A8AF9"></path>
                                    <path d="M4.61997114,5.065246 C4.57082251,5.74710604 4.07933622,6.28285322 3.5387013,6.23414893 C2.99806638,6.18544464 2.60487734,5.60099318 2.65402597,4.91913314 C2.7031746,4.2372731 3.19466089,3.70152593 3.73529582,3.75023021 C4.27593074,3.7989345 4.66911977,4.38338596 4.61997114,5.065246 Z" fill="#6058F2"></path>
                                    <path d="M4.42337662,5.065246 C4.37422799,5.69840175 3.93189033,6.13674035 3.44040404,6.08803606 C2.94891775,6.03933177 2.60487734,5.5035846 2.65402597,4.91913314 C2.7031746,4.28597739 3.14551227,3.84763879 3.63699856,3.89634308 C4.12848485,3.89634308 4.47252525,4.43209025 4.42337662,5.065246 Z" fill="#3C3AC4"></path>
                                    <path d="M2.7031746,0.63315575 C2.7031746,0.681860039 3.04721501,5.35747173 3.04721501,5.35747173 C3.04721501,5.35747173 3.14551227,5.69840175 3.63699856,5.69840175 C3.63699856,5.69840175 3.98103896,5.64969746 4.03018759,5.35747173 L4.7182684,0.438338596 L2.7031746,0.63315575 Z" fill="#6058F2"></path>
                                </g>
                                <path d="M0.393189033,0.340930019 L0.786378066,2.92225731 C0.786378066,2.92225731 1.03212121,3.89634308 2.3591342,3.7989345 C2.3591342,3.7989345 4.81656566,3.94504737 5.16060606,3.06837017 C5.50464646,2.09428441 5.79953824,0.340930019 5.79953824,0.340930019 L0.393189033,0.340930019 Z" fill="#3C3AC4"></path>
                            </g>
                            <g transform="translate(32.438095, 114.942121)" id="Path">
                                <g transform="translate(0.000000, 1.948172)">
                                    <path d="M1.37616162,0.584451462 C1.37616162,0.63315575 1.72020202,5.30876745 1.72020202,5.30876745 C1.72020202,5.30876745 1.81849928,5.64969746 2.30998557,5.64969746 C2.30998557,5.64969746 2.65402597,5.60099318 2.7031746,5.30876745 L3.39125541,0.389634308 L1.37616162,0.584451462 Z" fill="#726EFB"></path>
                                    <path d="M3.8827417,4.82172456 C3.93189033,4.28597739 3.83359307,3.7989345 3.63699856,3.36059591 L4.03018759,2.63003158 C4.03018759,2.63003158 3.19466089,2.38651014 2.45743146,2.28910156 C2.45743146,2.28910156 2.16253968,2.24039727 2.16253968,2.24039727 C1.13041847,2.19169298 0.196594517,3.16577875 0.0982972583,4.48079454 C-4.16333634e-16,5.64969746 0.58978355,6.67248752 1.42531025,6.96471325 L1.42531025,6.96471325 C1.42531025,6.96471325 2.30998557,7.25693898 3.19466089,7.30564327 L3.29295815,6.23414893 C3.63699856,5.89321891 3.83359307,5.40617602 3.8827417,4.82172456 Z" fill="#615EEE"></path>
                                    <path d="M5.40634921,5.16265458 C5.30805195,6.47767037 4.37422799,7.50046043 3.29295815,7.40305185 C2.26083694,7.30564327 1.5236075,6.18544464 1.62190476,4.82172456 C1.72020202,3.50670877 2.65402597,2.48391871 3.73529582,2.58132729 C4.76741703,2.67873587 5.50464646,3.7989345 5.40634921,5.16265458 Z" fill="#8A8AF9"></path>
                                    <path d="M4.61997114,5.16265458 C4.57082251,5.84451462 4.07933622,6.38026179 3.5387013,6.3315575 C2.99806638,6.28285322 2.60487734,5.69840175 2.65402597,5.01654171 C2.7031746,4.33468168 3.19466089,3.7989345 3.73529582,3.84763879 C4.32507937,3.84763879 4.7182684,4.48079454 4.61997114,5.16265458 Z" fill="#6058F2"></path>
                                    <path d="M4.42337662,5.11395029 C4.37422799,5.74710604 3.93189033,6.18544464 3.44040404,6.13674035 C2.94891775,6.08803606 2.60487734,5.55228889 2.65402597,4.96783743 C2.7031746,4.33468168 3.14551227,3.89634308 3.63699856,3.94504737 C4.12848485,3.99375166 4.47252525,4.52949883 4.42337662,5.11395029 Z" fill="#3C3AC4"></path>
                                    <path d="M2.7031746,0.681860039 C2.7031746,0.730564327 3.04721501,5.40617602 3.04721501,5.40617602 C3.04721501,5.40617602 3.14551227,5.74710604 3.63699856,5.74710604 C3.63699856,5.74710604 3.98103896,5.69840175 4.03018759,5.40617602 L4.7182684,0.487042885 L2.7031746,0.681860039 Z" fill="#6058F2"></path>
                                </g>
                                <g>
                                    <path d="M0.393189033,0.389634308 L0.786378066,2.9709616 C0.786378066,2.9709616 1.03212121,3.94504737 2.3591342,3.84763879 C2.3591342,3.84763879 4.81656566,3.99375166 5.16060606,3.11707446 C5.50464646,2.14298869 5.79953824,0.389634308 5.79953824,0.389634308 L0.393189033,0.389634308 Z" fill="#3C3AC4"></path>
                                    <path d="M3.19466089,2.77614444 C3.98103896,2.77614444 4.61997114,2.58132729 5.35720058,2.43521442 C5.60294372,1.50983294 5.75038961,0.438338596 5.75038961,0.438338596 L0.393189033,0.389634308 L0.737229437,2.48391871 C1.42531025,2.82484873 2.50658009,2.77614444 3.19466089,2.77614444 Z" fill="#373A3B"></path>
                                </g>
                            </g>
                            <g transform="translate(51.606061, 109.097606)" id="Path">
                                <g transform="translate(0.000000, 1.461129)">
                                    <path d="M1.76935065,0.292225731 C1.76935065,0.340930019 2.11339105,5.01654171 2.11339105,5.01654171 C2.11339105,5.01654171 2.21168831,5.35747173 2.7031746,5.35747173 C2.7031746,5.35747173 3.04721501,5.30876745 3.09636364,5.01654171 L3.78444444,0.097408577 L1.76935065,0.292225731 Z" fill="#726EFB"></path>
                                    <path d="M4.27593074,4.57820312 C4.32507937,4.04245594 4.22678211,3.55541306 4.03018759,3.11707446 L4.42337662,2.38651014 C4.42337662,2.38651014 3.58784993,2.14298869 2.85062049,2.04558012 C2.85062049,2.04558012 2.55572872,1.99687583 2.55572872,1.99687583 C1.5236075,1.94817154 0.58978355,2.92225731 0.491486291,4.2372731 C0.393189033,5.40617602 0.982972583,6.42896608 1.81849928,6.72119181 L1.81849928,6.72119181 C1.81849928,6.72119181 2.7031746,7.01341754 3.58784993,7.06212183 L3.68614719,5.99062748 C4.03018759,5.64969746 4.22678211,5.11395029 4.27593074,4.57820312 Z" fill="#615EEE"></path>
                                    <path d="M5.79953824,4.87042885 C5.70124098,6.18544464 4.76741703,7.2082347 3.68614719,7.11082612 C2.65402597,7.01341754 1.91679654,5.89321891 2.0150938,4.52949883 C2.11339105,3.21448304 3.04721501,2.19169298 4.12848485,2.28910156 C5.16060606,2.38651014 5.8978355,3.55541306 5.79953824,4.87042885 Z" fill="#8A8AF9"></path>
                                    <path d="M5.01316017,4.87042885 C4.96401154,5.55228889 4.47252525,6.08803606 3.93189033,6.03933177 C3.39125541,5.99062748 2.99806638,5.40617602 3.04721501,4.72431598 C3.09636364,4.04245594 3.58784993,3.50670877 4.12848485,3.55541306 C4.7182684,3.60411735 5.11145743,4.18856881 5.01316017,4.87042885 Z" fill="#6058F2"></path>
                                    <path d="M4.81656566,4.87042885 C4.76741703,5.5035846 4.32507937,5.9419232 3.83359307,5.89321891 C3.34210678,5.84451462 2.99806638,5.30876745 3.04721501,4.72431598 C3.09636364,4.09116023 3.5387013,3.65282164 4.03018759,3.70152593 C4.52167388,3.70152593 4.86571429,4.2372731 4.81656566,4.87042885 Z" fill="#3C3AC4"></path>
                                    <path d="M3.09636364,0.438338596 C3.09636364,0.487042885 3.44040404,5.16265458 3.44040404,5.16265458 C3.44040404,5.16265458 3.5387013,5.5035846 4.03018759,5.5035846 C4.03018759,5.5035846 4.37422799,5.45488031 4.42337662,5.16265458 L5.11145743,0.243521442 L3.09636364,0.438338596 Z" fill="#6058F2"></path>
                                </g>
                                <path d="M6.14357864,0.146112865 C6.14357864,0.146112865 6.14357864,0.097408577 6.14357864,0.146112865 L0.786378066,0.0487042885 L1.13041847,2.14298869 L1.13041847,2.14298869 L1.22871573,2.63003158 C1.22871573,2.63003158 1.47445887,3.60411735 2.80147186,3.50670877 C2.80147186,3.50670877 5.25890332,3.65282164 5.60294372,2.77614444 C5.84868687,1.94817154 6.09443001,0.438338596 6.14357864,0.146112865 C6.14357864,0.146112865 6.14357864,0.146112865 6.14357864,0.146112865 Z" fill="#3C3AC4"></path>
                                <path d="M1.1795671,1.50983294 L1.37616162,2.28910156 C1.37616162,2.28910156 1.57275613,2.92225731 2.45743146,2.92225731 C2.45743146,2.92225731 2.0150938,2.72744016 1.96594517,2.28910156 C1.86764791,1.85076296 1.91679654,1.65594581 1.91679654,1.65594581 L1.1795671,1.50983294 Z" fill="#373A3B"></path>
                            </g>
                            <path d="M58.8309091,36.6256249 C58.8309091,36.6256249 58.9292063,31.1707446 52.5890332,30.4401803 C48.3622511,29.9531374 27.031746,29.6609117 18.28329,29.6609117 C17.1528716,29.6609117 15.8258586,29.9044331 14.7937374,30.0992503 C13.3684271,30.5862932 12.1397114,31.4142661 10.861847,32.2909433 C9.53483405,33.2163247 8.15867244,34.0930019 6.97910534,35.1644963 C6.38932179,35.7002435 5.84868687,36.2359906 5.50464646,36.966555 C5.30805195,37.3561893 5.16060606,37.7458236 4.96401154,38.1354579 C3.44040404,46.8048212 -0.835526696,85.427322 0.58978355,104.275882 C0.58978355,104.275882 0.58978355,110.802256 5.30805195,111.727638 L30.5704473,117.133814 C30.5704473,117.133814 35.0921212,118.643647 39.4172006,117.523448 L54.7024242,112.312089 C54.7024242,112.312089 58.6834632,110.607439 58.8309091,107.636478 C59.0275036,104.616812 58.8309091,36.6256249 58.8309091,36.6256249 Z" id="Path" fill="#8A8AF9"></path>
                            <path d="M35.8784993,117.961787 C36.9597691,117.961787 38.2376335,117.864378 39.4172006,117.523448 L54.7024242,112.312089 C54.7024242,112.312089 58.6834632,110.607439 58.8309091,107.636478 C59.0275036,104.665516 58.8309091,36.6256249 58.8309091,36.6256249 C58.8309091,36.6256249 58.8800577,34.2878191 57.1107071,32.4857604 L39.9086869,42.1292095 L40.4984704,44.3209025 L37.0580664,84.5993491 L35.8784993,117.961787 Z" id="Path" fill="#726EFB"></path>
                            <path d="M35.6327561,117.961787 L35.6327561,117.961787 L37.1563636,84.2584191 C37.1563636,84.2584191 40.0069841,49.6783743 40.4493218,45.6359183 C41.0391053,40.4245594 36.5665801,39.9862208 36.5665801,39.9862208 C36.5665801,39.9862208 4.91486291,38.1354579 4.91486291,38.1354579 C3.39125541,46.8048212 -0.884675325,85.9143649 0.540634921,104.71422 C0.540634921,104.71422 0.540634921,111.240595 5.25890332,112.165976 L30.5212987,117.133814 C30.5704473,117.133814 32.7821356,117.913082 35.6327561,117.961787 Z" id="Path" fill="#615EEE"></path>
                            <path d="M34.3548918,85.0376877 C34.3548918,85.0376877 34.3057431,85.0376877 34.3057431,85.0376877 L1.91679654,80.7517103 C1.67105339,80.703006 1.47445887,80.4594846 1.5236075,80.2159631 C1.57275613,79.9724417 1.81849928,79.7776245 2.06424242,79.8263288 L34.453189,84.1123062 C34.6989322,84.1610105 34.8955267,84.404532 34.8463781,84.6480534 C34.7972294,84.8428705 34.6006349,85.0376877 34.3548918,85.0376877 Z" id="Path" fill="#3C3AC4"></path>
                            <path d="M35.1904185,68.6730468 C35.1904185,68.6730468 35.1412698,68.6730468 35.1412698,68.6730468 L3.5387013,65.4098594 C3.29295815,65.3611552 3.09636364,65.166338 3.09636364,64.8741123 C3.14551227,64.6305908 3.34210678,64.4357737 3.63699856,64.4357737 L35.2395671,67.698961 C35.4853102,67.7476653 35.6819048,67.9424824 35.6819048,68.2347082 C35.6327561,68.4782296 35.4361616,68.6730468 35.1904185,68.6730468 Z" id="Path" fill="#3C3AC4"></path>
                            <g transform="translate(30.963636, 83.771376)">
                                <path d="M3.14551227,1.41242437 L1.81849928,1.2663115 C1.67105339,1.2663115 1.57275613,1.12019864 1.62190476,1.02279006 L1.72020202,0.243521442 C1.72020202,0.097408577 1.86764791,-2.76514922e-14 1.96594517,0.0487042885 L3.29295815,0.194817154 C3.44040404,0.194817154 3.5387013,0.340930019 3.48955267,0.438338596 L3.39125541,1.21760721 C3.39125541,1.36372008 3.29295815,1.41242437 3.14551227,1.41242437 Z" id="Path" fill="#726EFB"></path>
                                <path d="M2.75232323,0.827972904 L2.75232323,0.827972904 C2.50658009,0.779268616 2.26083694,0.925381481 2.16253968,1.12019864 C1.72020202,1.99687583 0.688080808,4.18856881 0.638932179,6.13674035 C0.638932179,6.13674035 0.540634921,6.47767037 1.08126984,6.67248752 L2.75232323,6.91600897 C2.75232323,6.91600897 3.58784993,7.06212183 3.63699856,6.38026179 C3.68614719,5.9419232 3.39125541,2.58132729 3.29295815,1.36372008 C3.19466089,1.07149435 2.99806638,0.876677193 2.75232323,0.827972904 Z M2.7031746,6.13674035 C2.45743146,6.3315575 2.11339105,6.38026179 1.81849928,6.3315575 C1.47445887,6.28285322 1.1795671,6.08803606 1.13041847,5.84451462 C0.933823954,5.26006316 1.27786436,4.33468168 1.91679654,4.13986452 C2.65402597,3.94504737 2.99806638,4.57820312 2.99806638,5.26006316 C3.04721501,5.55228889 2.99806638,5.89321891 2.7031746,6.13674035 Z" id="Shape" fill="#3C3AC4"></path>
                                <path d="M2.50658009,0.681860039 L2.50658009,0.681860039 C2.26083694,0.63315575 2.0150938,0.779268616 1.91679654,0.97408577 C1.47445887,1.85076296 0.442337662,4.04245594 0.393189033,5.99062748 C0.393189033,5.99062748 0.294891775,6.3315575 0.835526696,6.52637466 L2.50658009,6.7698961 C2.50658009,6.7698961 3.34210678,6.91600897 3.39125541,6.23414893 C3.44040404,5.79581033 3.14551227,2.43521442 3.04721501,1.21760721 C2.99806638,0.97408577 2.80147186,0.730564327 2.50658009,0.681860039 Z M2.45743146,5.99062748 C2.21168831,6.18544464 1.86764791,6.23414893 1.57275613,6.18544464 C1.22871573,6.13674035 0.933823954,5.9419232 0.884675325,5.69840175 C0.688080808,5.11395029 1.03212121,4.18856881 1.67105339,3.99375166 C2.40828283,3.7989345 2.75232323,4.43209025 2.75232323,5.11395029 C2.80147186,5.45488031 2.75232323,5.74710604 2.45743146,5.99062748 Z" id="Shape" fill="#8A8AF9"></path>
                            </g>
                            <path d="M31.9957576,104.324586 C31.9957576,104.324586 31.9466089,104.324586 31.9466089,104.324586 L2.21168831,99.5028614 C1.96594517,99.4541571 1.81849928,99.2593399 1.86764791,99.0158185 C1.91679654,98.7722971 2.11339105,98.6261842 2.3591342,98.6748885 L32.0940548,103.496613 C32.339798,103.545317 32.4872439,103.740134 32.4380952,103.983656 C32.3889466,104.178473 32.1923521,104.324586 31.9957576,104.324586 Z" id="Path" fill="#3C3AC4"></path>
                            <path d="M35.9767965,118.010491 L35.4853102,118.010491 L36.8123232,84.5993491 C38.1393362,66.1891281 40.2035786,45.0027626 40.2035786,44.7592411 C40.3510245,43.6390425 40.0069841,42.5188439 39.2206061,41.6421667 C38.4833766,40.7654895 37.4512554,40.2784466 36.2716883,40.181038 L4.86571429,38.3789793 L4.91486291,38.1354579 L4.96401154,37.989345 L36.3208369,39.6939951 C37.5987013,39.7914037 38.7782684,40.3271509 39.6137951,41.3012366 C40.4493218,42.2753224 40.8425108,43.4929296 40.6950649,44.7592411 C40.6950649,44.9540583 38.6308225,66.1404238 37.3038095,84.5506448 L35.9767965,118.010491 Z" id="Path" fill="#3C3AC4"></path>
                            <path d="M47.969062,114.601191 L47.7233189,80.3133717 L50.1316017,39.1095437 C50.1807504,37.8919364 49.7875613,36.6743292 48.9520346,35.797652 C48.1165079,34.8722706 46.9369408,34.3365234 45.7082251,34.3365234 L9.73142857,33.2163247 L10.4195094,32.7292819 L45.7573737,33.8007762 C47.1335354,33.8494805 48.4113997,34.433932 49.3452237,35.456722 C50.2790476,36.4795121 50.7705339,37.7945279 50.6722367,39.1582479 L48.2639538,80.3133717 L48.509697,114.455078 L47.969062,114.601191 Z" id="Path" fill="#615EEE"></path>
                        </g>
                        <g id="Group" transform="translate(0.000000, 95.272727)" fill-rule="nonzero">
                            <path d="M8.50938687,22.8878098 C8.46019966,23.9061233 16.2317784,28.8037267 24.0525444,28.8522178 C32.020872,28.900709 40.0383868,24.148579 40.0383868,22.8878098 L40.0383868,27.6399398 C40.0383868,28.900709 34.7261684,33.4103833 24.0525444,33.4103833 C13.9199797,33.4103833 8.46019966,28.6582533 8.50938687,27.6399398 L8.50938687,22.8878098 Z" id="Path" fill="#615EEE"></path>
                            <g transform="translate(8.361825, 16.971893)" fill="#3C3AC4" id="Path">
                                <path d="M0.147561622,5.77044357 C0.393497659,2.66701173 7.3780811,0.19396449 15.9366552,0.19396449 C24.4952293,0.19396449 31.4306255,2.66701173 31.7257487,5.77044357 C31.7257487,5.81893469 31.7257487,5.86742581 31.7257487,5.96440806 C31.7257487,9.11633101 24.7903525,12.4137273 16.133404,12.4622185 C16.0842168,12.4622185 15.9858424,12.4622185 15.9366552,12.4622185 C15.9366552,12.4622185 15.9366552,12.4622185 15.887468,12.4622185 C15.8382808,12.4622185 15.7399064,12.4622185 15.6907191,12.4622185 C15.6415319,12.4622185 15.5923447,12.4622185 15.5923447,12.4622185 C7.03377065,12.4137273 0.147561622,9.11633101 0.147561622,5.96440806 L0.147561622,5.96440806 C0.147561622,5.86742581 0.147561622,5.81893469 0.147561622,5.77044357 Z"></path>
                            </g>
                            <path d="M9.3455694,9.69822448 L24.2984804,17.7477508 L39.2513915,9.69822448 L39.2022043,22.6453542 C39.2022043,23.8091411 34.5294196,28.2218332 24.0525444,28.2218332 C12.7886739,28.2218332 9.29638219,23.5666855 9.3455694,22.6453542 L9.3455694,9.69822448 Z" id="Path" fill="#615EEE"></path>
                            <path d="M39.2513915,19.8813602 C39.2513915,18.232662 36.7428439,18.1356798 33.2505522,19.6873957 C27.4956489,22.2574252 20.8553759,28.2703244 16.0842168,27.3005019 C11.5098065,25.9427505 9.73906706,23.8576322 9.44394381,22.9363009 C9.3947566,22.7908275 9.3947566,22.6938453 9.3947566,22.6938453 L9.3947566,16.5354727 C9.59150543,16.5354727 15.4939703,16.3415083 21.2980608,16.1475438 L24.3476676,17.7962419 L27.7907722,15.9535793 C30.7911918,15.856597 32.9554289,15.7596148 32.9062417,15.7111237 C32.7586801,15.5656503 38.907081,14.5958278 38.907081,14.5958278 L39.2513915,14.7897923 L39.2513915,19.8813602 Z" id="Path" fill="#3B33C7" opacity="0.7"></path>
                            <polygon id="Path" fill="#615EEE" points="8.0175148 9.55275111 24.2984804 2.32757388 40.4318844 9.55275111 48.154276 11.0559759 48.154276 12.6076918 48.154276 12.6076918 24.2984804 23.0332831 0.196748829 12.6076918 0.196748829 12.6076918 0.196748829 11.0559759"></polygon>
                            <polygon id="Path" fill="#8A8AF9" points="24.2984804 0.339437857 48.154276 11.0559759 24.2984804 21.4815672 0.196748829 11.0559759"></polygon>
                            <path d="M22.0850561,9.84369785 C22.0850561,10.3771002 23.019613,10.8620114 24.200106,10.8620114 C25.380599,10.8620114 26.3151559,10.4255913 26.3151559,9.84369785 C26.3151559,9.3102955 25.380599,8.82538428 24.200106,8.82538428 C23.0688002,8.82538428 22.0850561,9.26180438 22.0850561,9.84369785 Z" id="Path" fill="#615EEE"></path>
                            <rect id="Rectangle" fill="url(#linearGradient-1)" x="36.4969079" y="22.4998808" width="1" height="2.61852061"></rect>
                            <g transform="translate(33.939173, 19.881360)" id="Path">
                                <path d="M0.0983744147,11.7833427 C0.0983744147,11.4439049 0.196748829,8.58292867 0.73780811,6.15837255 C1.18049298,4.26721877 1.86911388,2.71550285 3.00041965,2.71550285 C5.65652885,2.71550285 5.95165209,11.0559759 5.90246488,11.7833427 C5.85327767,12.2197628 5.65652885,12.6561829 5.06628236,12.9471297 C4.86953353,13.0441119 4.57441028,13.1410942 4.47603587,13.1410942 C4.08253821,13.2380764 3.63985334,13.2865675 3.04960686,13.2865675 C2.75448361,13.2865675 2.50854757,13.2865675 2.31179875,13.2380764 C2.0166755,13.1895853 1.86911388,13.1895853 1.72155226,13.1410942 C0.442684866,12.9471297 0.0983744147,12.268254 0.0983744147,11.7833427 Z" fill="#E2E2FD"></path>
                                <path d="M1.52480343,1.84266265 C1.52480343,2.61852061 2.16423712,3.2489052 2.95123244,3.2489052 C3.73822776,3.2489052 4.37766145,2.61852061 4.37766145,1.84266265 C4.37766145,1.06680469 3.73822776,0.436420102 2.95123244,0.436420102 C2.16423712,0.436420102 1.52480343,1.06680469 1.52480343,1.84266265 Z" fill="#E2E2FD"></path>
                                <path d="M3.9841638,3.15192296 C3.93497659,3.10343183 3.83660217,3.05494071 3.78741497,3.00644959 C2.50854757,3.20041408 1.37724181,1.84266265 2.41017316,0.581893469 C1.86911388,0.775857958 1.52480343,1.3092603 1.52480343,1.89115377 C1.52480343,2.376065 1.77073946,2.8124851 2.16423712,3.05494071 C0.295123244,4.60665663 0.0983744147,11.2499404 0.0983744147,11.8318339 C0.0983744147,12.1227806 0.245936037,12.5107096 0.639433696,12.8016563 C0.639433696,12.8016563 0.639433696,12.7531652 0.639433696,12.7531652 C0.639433696,12.7531652 0.885369732,8.58292867 1.27886739,6.15837255 C1.77073946,3.00644959 3.9841638,3.15192296 3.9841638,3.15192296 Z" fill="#2C2A59" opacity="0.1"></path>
                            </g>
                            <polygon id="Path" fill="#C1C1EA" opacity="0.7" points="24.2984804 23.0332831 24.2984804 21.4815672 0.196748829 11.0559759 0.196748829 12.6076918"></polygon>
                            <path d="M37.9233369,20.7057093 L35.9558486,20.7057093 L35.9558486,17.2143485 C35.9558486,16.8264195 35.7590997,16.4869816 35.4147893,16.2930171 L24.5444165,10.4740824 L25.4789734,8.77689316 L36.3493462,14.5958278 C37.3330904,15.1292302 37.9233369,16.0990526 37.9233369,17.2143485 L37.9233369,20.7057093 Z" id="Path" fill="#E2E2FD"></path>
                            <path d="M22.2326177,9.3102955 C22.2326177,9.84369785 23.1179875,10.2316268 24.200106,10.2316268 C25.2822246,10.2316268 26.1675943,9.79520673 26.1675943,9.3102955 C26.1675943,8.77689316 25.2822246,8.38896418 24.200106,8.38896418 C23.1179875,8.38896418 22.2326177,8.82538428 22.2326177,9.3102955 Z" id="Path" fill="#3C3AC4"></path>
                        </g>
                        <g id="Group" transform="translate(32.324675, 90.735931)" fill-rule="nonzero">
                            <ellipse id="Oval" fill="#D0D0F7" transform="translate(4.966970, 3.744936) rotate(-25.291395) translate(-4.966970, -3.744936) " cx="4.96696969" cy="3.74493563" rx="4.53456114" ry="1.99777889"></ellipse>
                            <path d="M3.46270996,8.13615478 L1.60942857,6.6258506 L0.926640693,5.79761927 C0.926640693,5.79761927 -0.0975411255,4.62835152 1.80451082,2.58213295 C1.80451082,2.58213295 2.82869264,5.35914387 4.87705628,7.60024039 L3.46270996,8.13615478 Z" id="Path" fill="#C1C1EA"></path>
                            <g transform="translate(0.487706, 1.461585)" fill="#E2E2FD" id="Path">
                                <path d="M23.312329,31.5215098 L8.58361905,0.341036428 L8.58361905,0.341036428 C8.58361905,0.341036428 8.58361905,0.341036428 8.58361905,0.341036428 C9.07132468,1.36414571 7.60820779,3.02060836 5.3647619,4.09243713 C3.12131602,5.16426591 0.87787013,5.2129854 0.390164502,4.18987611 L15.1188745,35.32163 C15.8992035,36.9293732 18.3865022,37.4652876 20.6299481,36.3934588 C22.8733939,35.3703495 23.9951169,32.9830945 23.312329,31.5215098 Z"></path>
                            </g>
                            <path d="M16.289368,17.0518214 L17.6061732,19.8288323 C17.7037143,22.0699288 12.7778874,26.064927 9.41271861,23.6289525 L8.09591342,20.8519416 C11.8024762,23.4340745 16.3869091,19.3416374 16.289368,17.0518214 Z" id="Path" fill="#8A8AF9"></path>
                            <path d="M11.1684589,26.0162075 C11.1684589,26.0162075 14.0459221,25.2854151 15.3627273,23.3366356 L13.8508398,22.4109653 C13.8508398,22.4109653 11.7537056,24.7982202 9.85165368,24.4084643 C9.85165368,24.4084643 11.0221472,25.2366957 11.7537056,24.9930982 C11.7537056,24.9930982 11.6073939,25.4315736 11.1684589,26.0162075 Z" id="Path" fill="#615EEE"></path>
                            <path d="M9.90042424,22.7032822 C9.90042424,22.7032822 12.826658,23.2879161 14.8262511,22.1186483 L13.8508398,20.6083441 C13.8508398,20.6083441 10.9246061,21.8263314 9.36394805,20.6570636 C9.36394805,20.6570636 10.0955065,21.9237704 10.7782944,22.0212093 C10.8758355,22.0699288 10.5344416,22.4109653 9.90042424,22.7032822 Z" id="Path" fill="#615EEE"></path>
                            <g transform="translate(16.581991, 19.487796)" id="Path">
                                <path d="M0.390164502,1.70518214 C0.390164502,1.70518214 2.63361039,3.02060836 3.56025108,2.48469397 C4.09672727,2.19237704 3.85287446,1.51030418 3.60902165,0.925670304 C3.41393939,0.438475407 3.36516883,2.78180257e-14 2.63361039,0.0487194897 C0.975411255,0.146158469 0.438935065,0.633353366 0.438935065,0.633353366 L0.390164502,1.70518214 Z" fill="#3C3AC4"></path>
                                <path d="M0.390164502,1.70518214 L0.438935065,0.779511835 C4.34058009,0.779511835 3.12131602,0.0974389794 3.12131602,0.0974389794 C3.46270996,0.243597448 3.51148052,0.633353366 3.60902165,0.876950814 C3.85287446,1.46158469 4.09672727,2.14365755 3.56025108,2.43597448 C2.58483983,2.97188887 0.390164502,1.70518214 0.390164502,1.70518214 Z" fill="#8A8AF9"></path>
                            </g>
                            <g transform="translate(15.606580, 16.077432)" id="Path">
                                <path d="M1.56065801,3.55652275 C1.56065801,3.55652275 3.36516883,1.70518214 3.07254545,0.682072856 C2.92623377,0.0974389794 2.19467532,0.146158469 1.56065801,0.243597448 C1.07295238,0.341036428 0.634017316,0.292316938 0.487705628,0.974389794 C0.195082251,2.63085244 0.53647619,3.21548632 0.53647619,3.21548632 L1.56065801,3.55652275 Z" fill="#3C3AC4"></path>
                                <path d="M1.56065801,3.55652275 L0.682787879,3.3129253 C1.60942857,-0.487194897 0.682787879,0.535914387 0.682787879,0.535914387 C0.926640693,0.243597448 1.31680519,0.292316938 1.56065801,0.243597448 C2.19467532,0.146158469 2.8774632,0.0974389794 3.07254545,0.682072856 C3.36516883,1.75390163 1.56065801,3.55652275 1.56065801,3.55652275 Z" fill="#8A8AF9"></path>
                            </g>
                            <g transform="translate(13.655758, 18.026211)" id="Path">
                                <path d="M0.390164502,1.85134061 C0.341393939,1.94877959 0.438935065,2.14365755 0.390164502,2.24109653 C0.341393939,2.3385355 0.146311688,2.43597448 0.146311688,2.58213295 C0.0975411255,2.72829142 0.243852814,2.87444989 0.195082251,2.97188887 C0.195082251,3.11804734 0,3.21548632 0,3.3129253 C0,3.45908377 0.146311688,3.55652275 0.146311688,3.70268122 C0.146311688,3.84883968 0,3.99499815 0.0487705628,4.09243713 C0.0487705628,4.2385956 0.243852814,4.28731509 0.292623377,4.43347356 C0.341393939,4.57963203 0.243852814,4.7257905 0.292623377,4.82322948 C0.341393939,4.92066846 0.53647619,4.96938795 0.634017316,5.06682693 C0.731558442,5.16426591 0.682787879,5.35914387 0.780329004,5.45658284 C0.87787013,5.55402182 1.07295238,5.50530233 1.17049351,5.55402182 C1.26803463,5.60274131 1.31680519,5.79761927 1.41434632,5.84633876 C1.51188745,5.89505825 1.7069697,5.74889978 1.80451082,5.79761927 C1.90205195,5.79761927 2.04836364,5.99249723 2.14590476,5.94377774 C2.24344589,5.94377774 2.34098701,5.74889978 2.4872987,5.74889978 C2.58483983,5.70018029 2.77992208,5.84633876 2.8774632,5.79761927 C2.97500433,5.74889978 3.02377489,5.55402182 3.12131602,5.50530233 C3.21885714,5.45658284 3.41393939,5.50530233 3.51148052,5.40786335 C3.60902165,5.31042438 3.60902165,5.16426591 3.65779221,5.06682693 C3.75533333,4.96938795 3.95041558,4.96938795 3.99918615,4.87194897 C4.09672727,4.77450999 3.99918615,4.57963203 4.09672727,4.48219305 C4.14549784,4.38475407 4.34058009,4.33603458 4.38935065,4.2385956 C4.43812121,4.14115662 4.34058009,3.94627866 4.38935065,3.84883968 C4.43812121,3.75140071 4.63320346,3.65396173 4.63320346,3.50780326 C4.68197403,3.36164479 4.53566234,3.21548632 4.5844329,3.11804734 C4.5844329,2.97188887 4.77951515,2.87444989 4.77951515,2.77701091 C4.77951515,2.63085244 4.63320346,2.53341346 4.63320346,2.38725499 C4.63320346,2.24109653 4.77951515,2.09493806 4.73074459,1.99749908 C4.73074459,1.85134061 4.53566234,1.80262112 4.48689177,1.65646265 C4.43812121,1.51030418 4.53566234,1.36414571 4.48689177,1.26670673 C4.43812121,1.16926775 4.24303896,1.12054826 4.14549784,1.02310928 C4.04795671,0.925670304 4.09672727,0.730792345 3.99918615,0.633353366 C3.90164502,0.535914387 3.70656277,0.584633876 3.60902165,0.535914387 C3.51148052,0.487194897 3.46270996,0.292316938 3.36516883,0.243597448 C3.26762771,0.194877959 3.07254545,0.341036428 2.97500433,0.292316938 C2.8774632,0.292316938 2.73115152,0.0974389794 2.63361039,0.146158469 C2.53606926,0.146158469 2.43852814,0.341036428 2.29221645,0.341036428 C2.19467532,0.389755917 1.99959307,0.243597448 1.90205195,0.292316938 C1.80451082,0.341036428 1.75574026,0.535914387 1.65819913,0.584633876 C1.56065801,0.633353366 1.36557576,0.584633876 1.26803463,0.682072856 C1.17049351,0.779511835 1.17049351,0.925670304 1.12172294,1.02310928 C1.02418182,1.12054826 0.829099567,1.12054826 0.780329004,1.21798724 C0.682787879,1.31542622 0.780329004,1.51030418 0.682787879,1.60774316 C0.634017316,1.70518214 0.438935065,1.75390163 0.390164502,1.85134061 Z" fill="#C1C1EA"></path>
                                <path d="M0.731558442,2.09493806 C0.682787879,2.19237704 0.780329004,2.3385355 0.731558442,2.43597448 C0.682787879,2.53341346 0.53647619,2.58213295 0.53647619,2.67957193 C0.487705628,2.77701091 0.585246753,2.92316938 0.585246753,3.02060836 C0.585246753,3.11804734 0.438935065,3.21548632 0.438935065,3.3129253 C0.438935065,3.41036428 0.53647619,3.50780326 0.585246753,3.65396173 C0.585246753,3.75140071 0.487705628,3.89755917 0.487705628,3.99499815 C0.487705628,4.09243713 0.634017316,4.18987611 0.682787879,4.28731509 C0.731558442,4.38475407 0.634017316,4.53091254 0.682787879,4.62835152 C0.731558442,4.7257905 0.87787013,4.77450999 0.975411255,4.82322948 C1.02418182,4.92066846 1.02418182,5.06682693 1.07295238,5.16426591 C1.17049351,5.2129854 1.31680519,5.2129854 1.41434632,5.26170489 C1.51188745,5.31042438 1.56065801,5.45658284 1.60942857,5.50530233 C1.7069697,5.55402182 1.85328139,5.45658284 1.95082251,5.45658284 C2.04836364,5.45658284 2.14590476,5.60274131 2.24344589,5.60274131 C2.34098701,5.60274131 2.43852814,5.45658284 2.53606926,5.45658284 C2.63361039,5.45658284 2.77992208,5.50530233 2.8774632,5.50530233 C2.97500433,5.45658284 3.02377489,5.31042438 3.07254545,5.26170489 C3.17008658,5.2129854 3.31639827,5.26170489 3.41393939,5.2129854 C3.51148052,5.16426591 3.46270996,4.96938795 3.56025108,4.92066846 C3.60902165,4.87194897 3.8041039,4.87194897 3.85287446,4.77450999 C3.90164502,4.67707101 3.85287446,4.53091254 3.90164502,4.43347356 C3.95041558,4.33603458 4.09672727,4.33603458 4.14549784,4.2385956 C4.1942684,4.14115662 4.09672727,3.99499815 4.14549784,3.89755917 C4.1942684,3.8001202 4.34058009,3.75140071 4.34058009,3.65396173 C4.38935065,3.55652275 4.29180952,3.41036428 4.29180952,3.3129253 C4.29180952,3.21548632 4.43812121,3.11804734 4.43812121,3.02060836 C4.43812121,2.92316938 4.34058009,2.8257304 4.29180952,2.67957193 C4.29180952,2.58213295 4.38935065,2.43597448 4.38935065,2.3385355 C4.38935065,2.24109653 4.24303896,2.14365755 4.1942684,2.04621857 C4.14549784,1.94877959 4.24303896,1.80262112 4.1942684,1.70518214 C4.14549784,1.60774316 3.99918615,1.55902367 3.90164502,1.51030418 C3.85287446,1.4128652 3.85287446,1.26670673 3.8041039,1.16926775 C3.70656277,1.12054826 3.56025108,1.12054826 3.46270996,1.07182877 C3.36516883,1.02310928 3.31639827,0.876950814 3.26762771,0.828231325 C3.17008658,0.779511835 3.02377489,0.876950814 2.92623377,0.876950814 C2.82869264,0.876950814 2.73115152,0.730792345 2.63361039,0.730792345 C2.53606926,0.730792345 2.43852814,0.876950814 2.34098701,0.876950814 C2.24344589,0.876950814 2.0971342,0.828231325 1.99959307,0.828231325 C1.90205195,0.876950814 1.85328139,1.02310928 1.80451082,1.07182877 C1.7069697,1.12054826 1.56065801,1.07182877 1.46311688,1.12054826 C1.36557576,1.16926775 1.41434632,1.36414571 1.31680519,1.4128652 C1.26803463,1.46158469 1.07295238,1.46158469 1.02418182,1.55902367 C0.975411255,1.65646265 1.02418182,1.80262112 0.975411255,1.9000601 C0.926640693,1.94877959 0.780329004,1.99749908 0.731558442,2.09493806 Z" fill="#D0D0F7"></path>
                            </g>
                        </g>
                    </g>
                </g>
            </g>
        </g>
    </g>
</svg>