<svg xmlns="http://www.w3.org/2000/svg" width="518" height="384" viewBox="0 0 518 384">
    <defs>
        <linearGradient id="a" x1="49.997%" x2="49.997%" y1="100.01%" y2="-.004%">
            <stop offset="0%" stop-color="gray" stop-opacity=".25"/>
            <stop offset="54%" stop-color="gray" stop-opacity=".12"/>
            <stop offset="100%" stop-color="gray" stop-opacity=".1"/>
        </linearGradient>
    </defs>
    <g fill="none" fill-rule="evenodd">
        <path fill="#6C63FF" fill-rule="nonzero" d="M228.215 14.49C207.723 6.16 186.073-.794 163.972.08 131.476 1.357 100.31 20.906 85.01 49.604c-12.966 24.314-14.565 52.811-20.148 79.794-6.89 33.249-20.065 64.833-34.142 95.73-7.56 16.597-15.537 33.551-16.773 51.747-1.725 25.253 10.348 50.422 29.288 67.223 18.94 16.802 44.08 25.667 69.32 27.601 13.43 1.027 27.466.074 39.4-6.178 12.616-6.611 21.821-18.564 34.49-25.081 11.743-6.044 25.48-6.895 38.665-6.104a173.251 173.251 0 0 1 50.477 10.73c18.429 6.922 35.565 16.94 53.951 23.96 18.386 7.02 38.93 10.93 57.726 5.076 17.638-5.5 31.612-18.856 44.164-32.384a566.632 566.632 0 0 0 56.331-71.268c11.348-16.996 21.91-34.932 26.931-54.745 9.59-37.88-3.612-80.617-32.896-106.46-24.248-21.446-56.81-30.743-88.682-36.406-29.065-5.146-62.672-5.467-89.427-18.884-25.513-12.794-48.73-28.586-75.47-39.464z" opacity=".1"/>
        <path fill="#464A5F" fill-rule="nonzero" d="M434.222 268.205l.777.781.348-1.344-.372-1.325h-.957z"/>
        <path fill="#000" fill-rule="nonzero" d="M434.222 268.205l.777.781.348-1.344-.372-1.325h-.957z" opacity=".1"/>
        <path fill="#9C9CA1" fill-rule="nonzero" d="M434.222 268.205l.753.804-.753.883-.809-.302-.2-.39z"/>
        <path fill="#000" fill-rule="nonzero" d="M434.222 268.205l.753.804-.753.883-.809-.302-.2-.39z" opacity=".1"/>
        <path fill="#9C9CA1" fill-rule="nonzero" d="M291.12 126.98L206.1 212a8.173 8.173 0 0 0-.023 11.534l130.318 131.355a8.173 8.173 0 0 0 11.539.06l86.288-85.052L291.12 126.98z"/>
        <path fill="#000" fill-rule="nonzero" d="M291.12 126.98L206.1 212a8.173 8.173 0 0 0-.023 11.534l130.318 131.355a8.173 8.173 0 0 0 11.539.06l86.288-85.052L291.12 126.98z" opacity=".1"/>
        <path fill="#9C9CA1" fill-rule="nonzero" d="M291.12 125.293l-85.02 85.02a8.173 8.173 0 0 0-.023 11.533l130.318 131.35a8.173 8.173 0 0 0 11.539.065l86.288-85.075L291.12 125.293z"/>
        <path fill="#464A5F" fill-rule="nonzero" d="M300.045 65.531l-7.8 59.2 143.102 142.911 8.22-60.175a8.703 8.703 0 0 0-2.53-7.406L302.965 64.518a1.73 1.73 0 0 0-2.92 1.013z"/>
        <path fill="#000" fill-rule="nonzero" d="M300.045 65.531l-7.8 59.2 143.102 142.911 8.22-60.175a8.703 8.703 0 0 0-2.53-7.406L302.965 64.518a1.73 1.73 0 0 0-2.92 1.013z" opacity=".1"/>
        <path fill="#464A5F" fill-rule="nonzero" d="M298.92 66.094l-7.8 59.199 143.102 142.912 8.22-60.176a8.703 8.703 0 0 0-2.53-7.405L301.84 65.08a1.73 1.73 0 0 0-2.92 1.014z"/>
        <g fill="#000" fill-rule="nonzero" opacity=".1">
            <path d="M291.5 152.498l-5.174 5.22a1.641 1.641 0 0 0 0 2.325l5.244 5.38c.63.653 1.67.674 2.325.046l5.15-4.863c.653-.616.69-1.64.084-2.301l-5.243-5.737a1.641 1.641 0 0 0-2.385-.07zM301.142 162.145l-5.155 5.216a1.641 1.641 0 0 0 0 2.301l5.244 5.379a1.641 1.641 0 0 0 2.324.046l5.151-4.858c.662-.62.7-1.658.084-2.324l-5.263-5.723a1.641 1.641 0 0 0-2.385-.037zM311.268 172.265l-5.156 5.221a1.646 1.646 0 0 0 0 2.301l5.249 5.38c.63.653 1.67.674 2.324.046l5.151-4.863c.652-.616.69-1.64.084-2.301l-5.244-5.737a1.641 1.641 0 0 0-2.408-.047zM321.505 182.507l-5.151 5.244a1.646 1.646 0 0 0 0 2.301l5.248 5.379c.63.654 1.67.674 2.325.046l5.146-4.862c.656-.613.695-1.64.088-2.302l-5.271-5.76a1.646 1.646 0 0 0-2.385-.046zM331.746 192.748l-5.15 5.23a1.646 1.646 0 0 0 0 2.325l5.248 5.379c.63.654 1.67.674 2.324.046l5.147-4.863c.655-.613.695-1.64.088-2.3l-5.244-5.737a1.646 1.646 0 0 0-2.413-.08zM342.634 202.335l-6.402 6.485a.772.772 0 0 0 0 1.078l6.448 6.606c.3.293.78.293 1.079 0l6.402-6.043a.767.767 0 0 0 .037-1.079l-6.444-7.047a.772.772 0 0 0-1.12 0zM352.876 212.576l-6.402 6.509a.767.767 0 0 0 0 1.073l6.448 6.611c.3.293.779.293 1.079 0l6.401-6.043a.767.767 0 0 0 .037-1.079l-6.443-7.048a.772.772 0 0 0-1.12-.023zM361.94 221.641l-6.4 6.509a.767.767 0 0 0 0 1.074l6.447 6.61c.3.293.78.293 1.079 0l6.402-6.043a.767.767 0 0 0 .037-1.079l-6.448-7.024a.772.772 0 0 0-1.116-.047zM372.094 231.795l-6.401 6.48a.767.767 0 0 0 0 1.079l6.448 6.606a.767.767 0 0 0 1.078 0l6.402-6.044a.772.772 0 0 0 .037-1.078l-6.443-7.048a.772.772 0 0 0-1.12.005zM381.927 241.627l-6.402 6.48a.767.767 0 0 0 0 1.08l6.448 6.61c.3.293.779.293 1.079 0l6.401-6.044a.772.772 0 0 0 .037-1.078l-6.466-7.025a.772.772 0 0 0-1.097-.023zM391.759 251.441l-6.41 6.508a.767.767 0 0 0 0 1.074l6.447 6.611c.3.293.779.293 1.079 0l6.401-6.043a.767.767 0 0 0 .038-1.079l-6.444-7.048a.772.772 0 0 0-1.111-.023zM401.591 261.292l-6.401 6.485a.772.772 0 0 0 0 1.079l6.43 6.606c.293.3.772.31 1.078.023l6.401-6.043a.767.767 0 0 0 .038-1.079l-6.444-7.048a.772.772 0 0 0-1.102-.023zM282.142 161.861l-5.15 5.216a1.641 1.641 0 0 0 0 2.325l5.248 5.378a1.641 1.641 0 0 0 2.324.047l5.147-4.858a1.646 1.646 0 0 0 .088-2.325l-5.276-5.741a1.646 1.646 0 0 0-2.38-.042zM261.687 182.312l-5.155 5.216a1.646 1.646 0 0 0 0 2.324l5.243 5.337a1.641 1.641 0 0 0 2.302.051l5.15-4.862a1.636 1.636 0 0 0 .084-2.302l-5.244-5.718a1.641 1.641 0 0 0-2.38-.046zM291.784 171.503l-5.155 5.216a1.641 1.641 0 0 0 0 2.324l5.244 5.38a1.646 1.646 0 0 0 2.324.05l5.146-4.886c.662-.62.7-1.658.084-2.324l-5.244-5.732a1.637 1.637 0 0 0-2.399-.028zM301.905 181.628l-5.151 5.216a1.641 1.641 0 0 0 0 2.302l5.249 5.378a1.641 1.641 0 0 0 2.324.047l5.146-4.858a1.646 1.646 0 0 0 .089-2.325l-5.244-5.736a1.646 1.646 0 0 0-2.413-.024zM312.146 191.865l-5.15 5.22a1.641 1.641 0 0 0 0 2.302l5.248 5.379a1.636 1.636 0 0 0 2.301.046l5.151-4.858a1.646 1.646 0 0 0 .089-2.324l-5.254-5.695a1.65 1.65 0 0 0-2.385-.07zM271.66 191.628l-5.157 5.216a1.641 1.641 0 0 0 0 2.301l5.244 5.38a1.641 1.641 0 0 0 2.325.046l5.15-4.858c.663-.62.7-1.659.085-2.325l-5.244-5.732a1.637 1.637 0 0 0-2.404-.028zM281.78 201.749l-5.151 5.22a1.641 1.641 0 0 0 0 2.325l5.248 5.379a1.641 1.641 0 0 0 2.325.046l5.146-4.858a1.646 1.646 0 0 0 .089-2.324l-5.244-5.737a1.646 1.646 0 0 0-2.413-.051zM292.021 211.99l-5.15 5.221a1.641 1.641 0 0 0 0 2.301l5.248 5.379c.63.654 1.67.675 2.324.047l5.147-4.863c.655-.613.695-1.64.088-2.301l-5.244-5.737a1.646 1.646 0 0 0-2.413-.047zM322.388 202.107l-5.151 5.22a1.641 1.641 0 0 0 0 2.302l5.249 5.378a1.641 1.641 0 0 0 2.324.047l5.151-4.858a1.641 1.641 0 0 0 .084-2.325l-5.277-5.708a1.641 1.641 0 0 0-2.38-.056zM332.63 212.348l-5.156 5.221a1.641 1.641 0 0 0 0 2.301l5.249 5.379a1.641 1.641 0 0 0 2.324.046l5.151-4.862a1.636 1.636 0 0 0 .084-2.301l-5.272-5.742a1.641 1.641 0 0 0-2.38-.042zM343.508 221.934l-6.402 6.509a.767.767 0 0 0 0 1.078l6.453 6.579a.767.767 0 0 0 1.079 0l6.401-6.044a.772.772 0 0 0 .037-1.079l-6.443-7.047a.772.772 0 0 0-1.125.004zM352.583 230.986l-6.402 6.508a.767.767 0 0 0 0 1.079l6.448 6.606a.767.767 0 0 0 1.079 0l6.401-6.044a.772.772 0 0 0 .037-1.078l-6.443-7.048a.772.772 0 0 0-1.12-.023zM362.736 241.153l-6.406 6.508a.767.767 0 0 0 0 1.074l6.443 6.611c.3.293.779.293 1.079 0l6.401-6.044a.767.767 0 0 0 .042-1.078l-6.443-7.048a.772.772 0 0 0-1.116-.023zM372.568 250.976l-6.401 6.509a.767.767 0 0 0 0 1.078l6.443 6.606a.776.776 0 0 0 1.083 0l6.397-6.043a.767.767 0 0 0 .042-1.079L373.69 251a.772.772 0 0 0-1.12-.023zM292.175 191.358l-5.156 5.226a1.641 1.641 0 0 0 0 2.301l5.249 5.379a1.636 1.636 0 0 0 2.324.046l5.151-4.858c.665-.619.702-1.66.084-2.324l-5.272-5.723a1.636 1.636 0 0 0-2.38-.047zM302.416 201.6l-5.155 5.211a1.641 1.641 0 0 0 0 2.302l5.248 5.378a1.636 1.636 0 0 0 2.325.047l5.15-4.858c.663-.62.7-1.658.084-2.325l-5.244-5.732a1.637 1.637 0 0 0-2.408-.023zM312.658 211.842l-5.156 5.197a1.641 1.641 0 0 0 0 2.301l5.244 5.379a1.641 1.641 0 0 0 2.325.047l5.15-4.859c.663-.62.7-1.658.084-2.324l-5.244-5.737a1.641 1.641 0 0 0-2.403-.004zM322.9 222.083l-5.156 5.216a1.641 1.641 0 0 0 0 2.301l5.244 5.38a1.641 1.641 0 0 0 2.324.046l5.151-4.858c.662-.62.7-1.659.084-2.325l-5.244-5.737a1.641 1.641 0 0 0-2.404-.023zM333.787 231.67l-6.406 6.48a.772.772 0 0 0 0 1.078l6.443 6.606a.767.767 0 0 0 1.079 0l6.401-6.043a.767.767 0 0 0 .042-1.079l-6.443-7.052a.767.767 0 0 0-1.116.01zM342.852 240.748l-6.406 6.481a.772.772 0 0 0 0 1.079l6.444 6.606a.767.767 0 0 0 1.078 0l6.402-6.044a.767.767 0 0 0 .042-1.078l-6.44-7.044a.767.767 0 0 0-1.12 0zM353.001 250.883l-6.401 6.509a.772.772 0 0 0 0 1.078l6.443 6.606a.767.767 0 0 0 1.078.023l6.402-6.043a.767.767 0 0 0 .042-1.079l-6.448-7.047a.772.772 0 0 0-1.116-.047zM362.838 260.739l-6.406 6.462a.772.772 0 0 0 0 1.078l6.443 6.606a.767.767 0 0 0 1.079.024l6.401-6.044a.767.767 0 0 0 .042-1.078l-6.434-7.048a.762.762 0 0 0-1.125 0zM382.4 260.818l-6.4 6.508a.767.767 0 0 0 0 1.079l6.447 6.606a.767.767 0 0 0 1.079.023l6.401-6.043a.772.772 0 0 0 .038-1.079l-6.444-7.048a.772.772 0 0 0-1.12-.046zM392.233 270.655l-6.42 6.48a.767.767 0 0 0 0 1.079l6.462 6.606a.767.767 0 0 0 1.079.023l6.401-6.043a.772.772 0 0 0 .037-1.079l-6.443-7.047a.768.768 0 0 0-1.116-.02zM342.42 261.469l-6.043 6.104a1.032 1.032 0 0 0 0 1.445l6.085 6.24a1.032 1.032 0 0 0 1.446.027l6.043-5.685a1.037 1.037 0 0 0 .065-1.423l-6.085-6.657a1.037 1.037 0 0 0-1.51-.051zM352.253 271.301l-6.044 6.104a1.032 1.032 0 0 0 0 1.446l6.085 6.239a1.032 1.032 0 0 0 1.446.028l6.044-5.686c.41-.386.435-1.03.056-1.446l-6.104-6.657a1.037 1.037 0 0 0-1.483-.028zM362.104 281.134l-6.044 6.104a1.032 1.032 0 0 0 0 1.445l6.085 6.24a1.032 1.032 0 0 0 1.446.032l6.044-5.69c.412-.385.437-1.03.056-1.446l-6.086-6.653a1.027 1.027 0 0 0-1.501-.032zM372.113 290.77l-6.402 6.486a.772.772 0 0 0 0 1.079l6.448 6.606a.767.767 0 0 0 1.079 0l6.401-6.044a.767.767 0 0 0 .038-1.079l-6.444-7.047a.772.772 0 0 0-1.12 0zM272.008 171.452l-5.495 5.606a1.641 1.641 0 0 0 0 2.325l15.341 15.188c.63.621 1.638.633 2.283.028l5.727-5.388a1.646 1.646 0 0 0 .033-2.367l-15.574-15.406a1.641 1.641 0 0 0-2.315.014zM372.429 270.632l-6.718 6.843a.781.781 0 0 0 0 1.088l16.555 16.387c.298.29.772.29 1.07 0l7-6.587a.767.767 0 0 0 0-1.107l-16.843-16.662a.772.772 0 0 0-1.064.038zM302.598 221.604l-6.411 6.35a.762.762 0 0 0 0 1.084l35.699 36.591c.3.293.778.293 1.078 0l6.974-6.578a.767.767 0 0 0 0-1.102l-36.262-36.359a.772.772 0 0 0-1.078.014z"/>
        </g>
        <path fill="#464A5F" fill-rule="nonzero" d="M291.5 151.373l-5.174 5.23a1.641 1.641 0 0 0 0 2.301l5.244 5.38c.63.653 1.67.674 2.325.046l5.15-4.863c.653-.616.69-1.64.084-2.301l-5.243-5.737a1.641 1.641 0 0 0-2.385-.056zM301.142 161.02l-5.155 5.216a1.641 1.641 0 0 0 0 2.3l5.244 5.38a1.641 1.641 0 0 0 2.324.046l5.151-4.858c.662-.62.7-1.658.084-2.324l-5.263-5.718a1.641 1.641 0 0 0-2.385-.042zM311.268 171.14l-5.156 5.221a1.646 1.646 0 0 0 0 2.301l5.24 5.37c.629.654 1.669.674 2.324.046l5.15-4.863a1.641 1.641 0 0 0 .085-2.324l-5.244-5.737a1.641 1.641 0 0 0-2.4-.014zM321.505 181.382l-5.151 5.216a1.65 1.65 0 0 0 0 2.324l5.248 5.38c.63.653 1.67.674 2.325.046l5.146-4.863c.656-.613.695-1.64.088-2.301l-5.271-5.756a1.646 1.646 0 0 0-2.385-.046zM331.746 191.623l-5.15 5.217a1.646 1.646 0 0 0 0 2.324l5.248 5.374a1.646 1.646 0 0 0 2.324.051l5.147-4.863a1.636 1.636 0 0 0 .088-2.324l-5.244-5.737a1.646 1.646 0 0 0-2.413-.042zM342.634 201.233l-6.402 6.462a.767.767 0 0 0 0 1.074l6.448 6.61c.294.3.773.31 1.079.024l6.402-6.044a.767.767 0 0 0 .037-1.079l-6.448-7.047a.772.772 0 0 0-1.116 0zM352.876 211.46l-6.402 6.486a.767.767 0 0 0 0 1.073l6.448 6.611c.3.293.779.293 1.079 0l6.401-6.043a.767.767 0 0 0 .037-1.079l-6.448-7.048a.772.772 0 0 0-1.115 0zM361.94 220.516l-6.4 6.486a.767.767 0 0 0 0 1.074l6.443 6.629c.3.293.778.293 1.078 0l6.402-6.044a.767.767 0 0 0 .037-1.078l-6.443-7.048a.772.772 0 0 0-1.116-.019zM372.094 230.67l-6.401 6.48a.767.767 0 0 0 0 1.079l6.448 6.606a.767.767 0 0 0 1.078.023l6.402-6.043a.772.772 0 0 0 .037-1.079l-6.443-7.052a.772.772 0 0 0-1.12-.014zM381.927 240.502l-6.402 6.48a.767.767 0 0 0 0 1.08l6.443 6.633c.3.293.78.293 1.079 0l6.402-6.043a.772.772 0 0 0 .037-1.079l-6.462-7.048a.772.772 0 0 0-1.097-.023zM391.759 250.335l-6.402 6.508a.767.767 0 0 0 0 1.074l6.449 6.61c.3.294.778.294 1.078 0l6.402-6.043a.767.767 0 0 0 .037-1.078l-6.444-7.048a.772.772 0 0 0-1.12-.023zM401.591 260.167l-6.401 6.508a.772.772 0 0 0 0 1.079l6.43 6.583c.3.293.778.293 1.078 0l6.401-6.044a.767.767 0 0 0 .038-1.078l-6.444-7.048a.772.772 0 0 0-1.102 0zM282.142 160.736l-5.15 5.216a1.641 1.641 0 0 0 0 2.301l5.248 5.38a1.641 1.641 0 0 0 2.324.046l5.147-4.858a1.646 1.646 0 0 0 .088-2.325l-5.276-5.709a1.646 1.646 0 0 0-2.38-.05zM261.687 181.187l-5.155 5.216a1.646 1.646 0 0 0 0 2.324l5.248 5.374a1.641 1.641 0 0 0 2.301.051l5.151-4.862c.665-.62.702-1.66.084-2.325l-5.249-5.723a1.636 1.636 0 0 0-2.38-.055zM291.784 170.378l-5.155 5.216a1.641 1.641 0 0 0 0 2.301l5.244 5.379a1.641 1.641 0 0 0 2.324.046l5.146-4.867c.662-.62.7-1.658.084-2.324l-5.244-5.732a1.637 1.637 0 0 0-2.399-.02zM301.905 180.499l-5.151 5.22a1.641 1.641 0 0 0 0 2.302l5.249 5.378a1.641 1.641 0 0 0 2.324.047l5.146-4.858a1.646 1.646 0 0 0 .089-2.325l-5.272-5.718a1.65 1.65 0 0 0-2.385-.046zM312.146 190.74l-5.15 5.22a1.641 1.641 0 0 0 0 2.302l5.248 5.379c.626.64 1.65.662 2.301.046l5.151-4.858a1.646 1.646 0 0 0 .089-2.324l-5.244-5.737a1.646 1.646 0 0 0-2.395-.028zM271.66 190.503l-5.157 5.216a1.641 1.641 0 0 0 0 2.301l5.244 5.38a1.641 1.641 0 0 0 2.325.046l5.15-4.858c.663-.62.7-1.659.085-2.325l-5.268-5.723a1.636 1.636 0 0 0-2.38-.037zM281.78 200.624l-5.151 5.22a1.641 1.641 0 0 0 0 2.302l5.248 5.378c.63.654 1.67.675 2.325.047l5.146-4.858a1.646 1.646 0 0 0 .089-2.325l-5.244-5.736a1.646 1.646 0 0 0-2.413-.028zM292.021 210.865l-5.15 5.244a1.641 1.641 0 0 0 0 2.301l5.248 5.38c.63.653 1.67.674 2.324.046l5.147-4.863c.655-.613.695-1.64.088-2.301l-5.244-5.737a1.646 1.646 0 0 0-2.413-.07zM322.388 200.982l-5.151 5.22a1.641 1.641 0 0 0 0 2.302l5.249 5.378a1.641 1.641 0 0 0 2.324.047l5.151-4.863a1.636 1.636 0 0 0 .084-2.324l-5.244-5.737a1.641 1.641 0 0 0-2.413-.023zM332.63 211.223l-5.156 5.221a1.641 1.641 0 0 0 0 2.301l5.249 5.379a1.641 1.641 0 0 0 2.324.046l5.151-4.862a1.636 1.636 0 0 0 .084-2.302l-5.244-5.736a1.641 1.641 0 0 0-2.408-.047zM343.508 220.81l-6.402 6.485a.767.767 0 0 0 0 1.078l6.448 6.606a.767.767 0 0 0 1.079 0l6.402-6.043a.772.772 0 0 0 .037-1.079l-6.444-7.048a.772.772 0 0 0-1.12 0zM352.583 229.875l-6.402 6.485a.767.767 0 0 0 0 1.078l6.448 6.607a.767.767 0 0 0 1.079 0l6.401-6.044a.772.772 0 0 0 .037-1.079l-6.443-7.047a.772.772 0 0 0-1.12 0zM362.736 240.028l-6.406 6.485a.767.767 0 0 0 0 1.074l6.443 6.61c.3.294.779.294 1.079 0l6.401-6.043a.767.767 0 0 0 .042-1.078l-6.443-7.025a.772.772 0 0 0-1.116-.023zM372.568 249.86l-6.401 6.486a.767.767 0 0 0 0 1.078l6.443 6.606a.776.776 0 0 0 1.083 0l6.397-6.043a.767.767 0 0 0 .042-1.079l-6.443-7.048a.772.772 0 0 0-1.12 0zM292.175 190.233l-5.156 5.216a1.641 1.641 0 0 0 0 2.302l5.249 5.378a1.636 1.636 0 0 0 2.324.047l5.151-4.858c.665-.62.702-1.66.084-2.325l-5.272-5.713a1.636 1.636 0 0 0-2.38-.047zM302.416 200.475l-5.155 5.216a1.641 1.641 0 0 0 0 2.324l5.248 5.38a1.636 1.636 0 0 0 2.325.046l5.15-4.858c.663-.62.7-1.659.084-2.325l-5.244-5.732a1.636 1.636 0 0 0-2.408-.051zM312.658 210.717l-5.156 5.216a1.641 1.641 0 0 0 0 2.3l5.244 5.38a1.641 1.641 0 0 0 2.325.046l5.15-4.858c.663-.62.7-1.658.084-2.324l-5.244-5.737a1.641 1.641 0 0 0-2.403-.023zM322.9 220.953l-5.156 5.221a1.641 1.641 0 0 0 0 2.325l5.244 5.378a1.641 1.641 0 0 0 2.324.047l5.151-4.858c.662-.62.7-1.659.084-2.325l-5.244-5.736a1.646 1.646 0 0 0-2.404-.052zM333.787 230.544l-6.406 6.485a.772.772 0 0 0 0 1.079l6.443 6.606a.767.767 0 0 0 1.079.023l6.401-6.043a.772.772 0 0 0 .042-1.084l-6.443-7.047a.768.768 0 0 0-1.116-.019zM342.852 239.61l-6.406 6.48a.772.772 0 0 0 0 1.079l6.444 6.596a.767.767 0 0 0 1.078.024l6.402-6.044a.772.772 0 0 0 .042-1.083l-6.44-7.034a.768.768 0 0 0-1.12-.019zM353.001 249.758l-6.401 6.509a.772.772 0 0 0 0 1.078l6.443 6.606a.767.767 0 0 0 1.078 0l6.402-6.043a.767.767 0 0 0 .042-1.079l-6.448-7.048a.772.772 0 0 0-1.116-.023zM362.838 259.595l-6.406 6.48a.772.772 0 0 0 0 1.08l6.443 6.6a.767.767 0 0 0 1.079 0l6.401-6.043a.767.767 0 0 0 .042-1.078l-6.434-7.02a.763.763 0 0 0-1.125-.019zM382.4 259.693L376 266.2a.767.767 0 0 0 0 1.079l6.447 6.606a.767.767 0 0 0 1.079 0l6.401-6.044a.772.772 0 0 0 .038-1.078l-6.448-7.048a.772.772 0 0 0-1.116-.023zM392.233 269.525l-6.401 6.509a.767.767 0 0 0 0 1.078l6.448 6.606a.767.767 0 0 0 1.078 0l6.402-6.043a.772.772 0 0 0 .037-1.079l-6.448-7.024a.772.772 0 0 0-1.116-.047zM342.42 260.344l-6.043 6.104a1.032 1.032 0 0 0 0 1.445l6.085 6.24a1.032 1.032 0 0 0 1.446.027l6.043-5.685a1.037 1.037 0 0 0 .056-1.446l-6.085-6.657a1.037 1.037 0 0 0-1.502-.028zM352.253 270.176l-6.044 6.104a1.032 1.032 0 0 0 0 1.446l6.1 6.257c.398.382 1.028.382 1.427 0l6.043-5.685c.41-.386.435-1.03.056-1.446l-6.1-6.648a1.037 1.037 0 0 0-1.482-.028zM362.104 280.009l-6.044 6.104a1.032 1.032 0 0 0 0 1.445l6.085 6.24a1.027 1.027 0 0 0 1.446.027l6.044-5.686c.412-.384.437-1.03.056-1.445l-6.086-6.658a1.032 1.032 0 0 0-1.501-.027zM372.113 289.646l-6.402 6.508a.772.772 0 0 0 0 1.079l6.448 6.606c.294.3.773.31 1.079.023l6.401-6.044a.767.767 0 0 0 .038-1.078l-6.444-7.048a.772.772 0 0 0-1.12-.046zM272.008 170.327l-5.495 5.611a1.641 1.641 0 0 0 0 2.324l15.341 15.188c.63.622 1.638.634 2.283.028l5.727-5.388a1.646 1.646 0 0 0 .033-2.366l-15.574-15.407a1.641 1.641 0 0 0-2.315.01zM372.429 269.507l-6.718 6.857a.781.781 0 0 0 0 1.088l16.555 16.387c.298.29.772.29 1.07 0l7-6.587a.767.767 0 0 0 0-1.107l-16.843-16.662a.767.767 0 0 0-1.064.024zM302.598 220.48l-6.411 6.35a.762.762 0 0 0 0 1.083l35.699 36.591c.3.293.778.293 1.078 0l6.974-6.578a.767.767 0 0 0 0-1.102l-36.262-36.359a.772.772 0 0 0-1.078.014z"/>
        <path fill="#000" fill-rule="nonzero" d="M277.414 224.942l-28.186 28a4.184 4.184 0 0 0-.046 5.886l52.132 53.537a4.185 4.185 0 0 0 5.932.065l29.024-28.549a4.184 4.184 0 0 0 .023-5.937l-52.97-53.002a4.184 4.184 0 0 0-5.909 0z" opacity=".1"/>
        <path fill="#939498" fill-rule="nonzero" d="M277.414 223.794l-28.186 28.024a4.184 4.184 0 0 0-.046 5.885l52.132 53.537a4.185 4.185 0 0 0 5.932.065l29.024-28.549a4.184 4.184 0 0 0 .023-5.937l-52.97-52.997a4.184 4.184 0 0 0-5.909-.028z"/>
        <path fill="#6C63FF" fill-rule="nonzero" d="M304.49 76.856l-7.136 49.892 132.224 131.801 6.732-49.455a8.74 8.74 0 0 0-2.488-7.36L307.423 75.87a1.73 1.73 0 0 0-2.933.986z"/>
        <ellipse cx="137.185" cy="317.223" fill="#6C63FF" fill-rule="nonzero" opacity=".1" rx="10.744" ry="1.474"/>
        <ellipse cx="96.023" cy="321.398" fill="#6C63FF" fill-rule="nonzero" opacity=".1" rx="10.744" ry="1.474"/>
        <ellipse cx="47.544" cy="315.749" fill="#6C63FF" fill-rule="nonzero" opacity=".1" rx="10.744" ry="1.474"/>
        <ellipse cx="112.499" cy="333.28" fill="#6C63FF" fill-rule="nonzero" opacity=".1" rx="7.638" ry="1.051"/>
        <ellipse cx="69.78" cy="332.23" fill="#6C63FF" fill-rule="nonzero" opacity=".1" rx="7.638" ry="1.051"/>
        <path fill="#6C63FF" fill-rule="nonzero" d="M95.795 321.068s15.068-49.4-2.361-69.162c-13.017-14.802-27.833-13.017-34.463-11.2a12.245 12.245 0 0 0-7.903 6.565c-2.324 5.002-1.896 13.114 14.458 22.584 27.392 15.858 29.093 37.61 29.093 37.61l1.176 13.603z"/>
        <path stroke="#565987" d="M61.32 247.69s44.424 13.886 34.466 73.378M87.274 252.668s-6.113 4.12-4.184 10.316M65.787 256.336s3.719-3.803 8.289-1.706M83.346 275.467s6.564-3.334 8.265.841M99.594 282.412s-4.933-.39-5.021 1.966"/>
        <path fill="#6C63FF" fill-rule="nonzero" d="M96.404 321.463s-17.665-35.904-22.5-35.118c-2.301.372-3.361 2.636-3.84 4.914a14.486 14.486 0 0 0 .957 8.74c2.506 5.746 9.233 16.657 25.383 21.464z"/>
        <path stroke="#565987" d="M74.039 293.156s18.52 26.866 22.1 28.042M72.332 297.349h4.324M77.511 307.177l6.778.288M81.635 299.315l-.735 3.529M88.845 310.059l-.134 3.208"/>
        <path fill="#6C63FF" fill-rule="nonzero" d="M95.88 321.463s17.665-35.904 22.495-35.118c2.325.372 3.366 2.636 3.845 4.914a14.449 14.449 0 0 1-.962 8.74c-2.502 5.746-9.229 16.657-25.379 21.464z"/>
        <path stroke="#565987" d="M118.245 293.156s-18.526 26.866-22.106 28.042M119.947 297.349h-4.324M114.768 307.177l-6.778.288M110.644 299.315l.735 3.529M103.438 310.059l.13 3.208"/>
        <path fill="#6C63FF" fill-rule="nonzero" d="M65.573 329.845a3.045 3.045 0 0 1-1.004-1.516 1.348 1.348 0 0 1 .702-1.543c.646-.247 1.334.2 1.86.65.525.452 1.124.968 1.808.875a2.743 2.743 0 0 1-.851-2.571c.028-.194.11-.376.237-.525.358-.382 1.004-.219 1.432.083 1.367.958 1.743 2.79 1.753 4.477.076-.617.084-1.24.023-1.86a1.901 1.901 0 0 1 .692-1.631 2.115 2.115 0 0 1 1.056-.247 2.176 2.176 0 0 1 1.715.465c.52.558.386 1.488-.07 2.102a6.61 6.61 0 0 1-1.77 1.422c-.51.301-.944.715-1.27 1.209-.037.068-.068.14-.093.214h-3.84a10.716 10.716 0 0 1-2.38-1.604zM132.829 315.387a3.073 3.073 0 0 1-1.01-1.516 1.353 1.353 0 0 1 .703-1.543c.646-.247 1.334.2 1.86.65.525.452 1.12.968 1.803.87a2.752 2.752 0 0 1-.85-2.57c.03-.192.113-.372.237-.522.357-.385 1.004-.218 1.436.084 1.362.958 1.743 2.79 1.748 4.472.078-.617.088-1.24.028-1.86-.06-.625.2-1.24.693-1.631.323-.175.687-.26 1.055-.246a2.185 2.185 0 0 1 1.71.465c.521.557.387 1.492-.064 2.105a6.615 6.615 0 0 1-1.776 1.395 4.026 4.026 0 0 0-1.265 1.209c-.04.069-.07.142-.093.218H135.2a10.693 10.693 0 0 1-2.371-1.58zM110.412 329.845a3.045 3.045 0 0 1-1.005-1.516 1.348 1.348 0 0 1 .702-1.543c.647-.247 1.335.2 1.86.65.525.452 1.125.968 1.808.875a2.743 2.743 0 0 1-.85-2.571c.028-.194.11-.376.237-.525.358-.382 1.004-.219 1.432.083 1.362.958 1.743 2.79 1.752 4.477.077-.617.084-1.24.024-1.86a1.901 1.901 0 0 1 .688-1.627 2.115 2.115 0 0 1 1.055-.246 2.176 2.176 0 0 1 1.715.465c.521.558.386 1.488-.07 2.101a6.61 6.61 0 0 1-1.77 1.423c-.51.301-.944.714-1.27 1.209-.037.068-.068.14-.093.213h-3.84c-.86-.427-1.66-.968-2.375-1.608zM46.847 300.617s-1.441 1.883.665 4.723 3.84 5.244 3.138 7.016c0 0-3.175-5.282-5.76-5.351-2.585-.07-.888-3.213 1.957-6.388z"/>
        <path fill="#000" fill-rule="nonzero" d="M46.847 300.617a2.37 2.37 0 0 0-.293.59c-2.524 2.962-3.868 5.728-1.441 5.798 2.255.06 4.965 4.1 5.611 5.114-.02.079-.044.156-.074.232 0 0-3.175-5.281-5.76-5.35-2.585-.07-.888-3.209 1.957-6.384z" opacity=".1"/>
        <path fill="#FFD037" fill-rule="nonzero" d="M44.17 303.016c0 .665.074 1.2.167 1.2.093 0 .167-.535.167-1.2 0-.665-.093-.349-.186-.349s-.149-.316-.149.349z"/>
        <path fill="#FFD037" fill-rule="nonzero" d="M43.253 303.806c.582.316 1.088.512 1.13.428.042-.084-.39-.4-.971-.72-.582-.321-.354-.084-.396 0-.041.083-.344-.005.237.292z"/>
        <path fill="#6C63FF" fill-rule="nonzero" d="M54.453 300.617s1.436 1.883-.665 4.723-3.84 5.244-3.138 7.016c0 0 3.175-5.282 5.76-5.351 2.585-.07.883-3.213-1.957-6.388z"/>
        <path fill="#000" fill-rule="nonzero" d="M54.453 300.617c.124.182.223.381.293.59 2.52 2.962 3.863 5.728 1.44 5.798-2.259.06-4.964 4.1-5.615 5.114.021.079.048.156.079.232 0 0 3.175-5.281 5.76-5.35 2.585-.07.883-3.209-1.957-6.384z" opacity=".1"/>
        <path fill="#FFD037" fill-rule="nonzero" d="M57.135 303.016c0 .665-.074 1.2-.163 1.2-.088 0-.167-.535-.167-1.2 0-.665.093-.349.186-.349s.144-.316.144.349z"/>
        <path fill="#FFD037" fill-rule="nonzero" d="M58.065 303.806c-.581.316-1.088.512-1.134.428-.047-.084.395-.4.976-.72.58-.321.353-.084.395 0 .042.083.325-.005-.237.292z"/>
        <path fill="#A8A8A8" fill-rule="nonzero" d="M56.67 312.11s-4.026-.126-5.24-.986c-1.212-.86-6.191-1.897-6.508-.512-.316 1.386-6.043 6.89-1.501 6.927 4.542.037 10.557-.706 11.77-1.446 1.214-.739 1.48-3.984 1.48-3.984z"/>
        <path fill="#000" fill-rule="nonzero" d="M43.351 317.056c4.547.037 10.562-.707 11.771-1.446.93-.563 1.288-2.576 1.395-3.505h.153s-.255 3.254-1.464 3.984-7.23 1.483-11.771 1.446c-1.311 0-1.767-.465-1.744-1.167.186.418.684.678 1.66.688z" opacity=".2"/>
        <path fill="url(#a)" fill-rule="nonzero" d="M80.175 155.31c-.074 1.953 1.6 4.547 1.6 4.547.51 1.232 6.782 6.941 6.782 6.941l4.649 3.106a26.034 26.034 0 0 1-2.947 1.883c-2.264 1.157-3.501 4.988-3.501 4.988s-3.43 8.242 3.5 9.4l.13.023.624.674c1.534 1.655 3.407 3.631 4.058 4.073 1.167.795 4.742 6.796 4.742 6.796s3.789 6.22 8.833 6.509c5.044.288 5.03-5.495 4.649-5.858a2.324 2.324 0 0 1-.312-.79c1.205 1.939 2.846 4.486 3.376 4.84.874.576 3.719 5.113 3.719 5.113s3.575 8.168 4.156 9.038c.58.87 1.604 5.207 1.604 5.207s2.045 5.997 2.994 6.796c.948.8 1.455 3.687 1.455 3.687s2.989 4.337 3.5 5.058a30.757 30.757 0 0 1 1.604 3.254s1.604 2.603 1.604 3.617c0 1.013 3.357 2.743 3.357 2.743s2.408 2.822 3.793 3.328c1.385.507 2.696 3.831 2.915 3.613a.87.87 0 0 1 .414-.084l.567.567c2.213 2.204 6.634 6.597 7.768 7.615 1.534 1.395 5.035 1.59 7.95 1.013 1.497-.297 3.32-1.715 4.737-3.026a3.255 3.255 0 0 0 .056-4.7c-1.395-1.344-3.008-2.817-3.72-3.045-1.31-.437-5.03-3.036-6.777-5.207-.93-1.13-2.562-2.203-3.933-2.97l-.168-.098a14.51 14.51 0 0 1-.423-2.427s2.408-5.42 1.093-5.709c-1.316-.288-6.272-8.893-6.272-8.893-.07-6.509-6.043-12.004-6.043-12.004s-2.99-7.085-3.863-8.6a2.324 2.324 0 0 1 0-2.603s-1.679-1.302-1.967-1.953c-.288-.65-1.678-5.579-1.678-5.579s-1.678-2.966-1.753-4.337c-.074-1.372-3.342-5.198-3.342-5.198s-1.325-6.443-2.79-7.6c-.283-.224-.241-1.074 0-2.297l.07-.075.223-.218.065-.065c.67-.661 1.3-1.361 1.888-2.097l.028-.037c.093-.116.18-.228.265-.344 2.115-2.892 3.426-9.763 3.426-9.763s.418-.195.962-.492a9.177 9.177 0 0 0 2.101-1.446.465.465 0 0 0 .075-.112.093.093 0 0 0 0-.037.716.716 0 0 0 .037-.088.242.242 0 0 0 0-.052.665.665 0 0 0 0-.102V161.615c0-.06 0-.121-.023-.186a.2.2 0 0 1 0-.023c0-.056-.023-.112-.037-.172v-.056c0-.051-.028-.103-.047-.158a.432.432 0 0 0 0-.06l-.056-.173a.167.167 0 0 1 0-.042 9.169 9.169 0 0 0-.316-.716l-.125-.237a12.641 12.641 0 0 0-.716-1.222l-.037-.056c.51-1.441 1.501-3.98 2.422-4.89 1.31-1.302-.73-8.243-.73-8.243s-.437-4.914-1.023-6.36c-.586-1.446 0-1.655-.465-2.892-.562-1.394-.972-1.301-.246-4.481.274-1.2.697-2.52 1.078-3.752l.465.428c2.696 2.543 6.932 5.853 6.932 5.853s8.312 7.517 9.042 7.736c.73.218 2.92 7.591 2.92 7.591s-.512 12.218 6.196 12.724c2.85.214 4.059-1.99 4.496-4.588a13.844 13.844 0 0 0-3.287-11.348l-4.017-4.565-3.575-6.36a64.778 64.778 0 0 1-5.722-11.362 31.654 31.654 0 0 0-7.011-10.362l-.288-.284.372-.344s-.586-4.77-1.023-5.346c-.437-.577-2.041-3.905-2.041-4.65 0-.743-1.023-.864-1.604-1.733 0 0-1.023-2.022-1.971-2.325a1.395 1.395 0 0 1-.465-.297 10.47 10.47 0 0 0-5.96-2.58l-.58-.056a32.542 32.542 0 0 0-3.878.056h-.033c-.99-.298-1.738-1.07-2.505-1.758a19.707 19.707 0 0 0-4.077-2.812c-1.511-.786-3.222-1.395-4.91-1.107-1.32.214-2.5.93-3.789 1.307-1.831.516-4.081.409-5.234 1.91-.553.716-.712 1.67-1.228 2.409-.734 1.05-2.082 1.538-2.84 2.575a3.952 3.952 0 0 0-.656 2.566 7.131 7.131 0 0 0 .26 2.171c.194.607.335 1.23.424 1.86-.01.103-.027.206-.051.307-.103.465-.34.855-.433 1.306a2.357 2.357 0 0 0-.023.744c-.14 1.11.577 2.166 1.06 3.198.374.806.62 1.666.73 2.548-1.21.358-2.39.81-3.529 1.353-1.52.734-3.05 1.73-3.923 3.003-1.423 2-3.204 3.72-5.254 5.072a41.31 41.31 0 0 0-1.603 4.76c-.437 1.86-.874 4.914-2.185 6.509-1.311 1.594-1.916 6.327-1.916 6.327s-1.752 2.817-1.752 3.398-.219 3.255 0 4.045c.128.248.3.472.506.66l-.13.465c-.604 2.125-1.422 5.188-1.469 6.41zm41.115-32.565a4.522 4.522 0 0 1-.13.465c0-.149.023-.293.032-.442l.098-.023zm-16.615 61.793l-.233-.213-.111-.103c0-.055.028-.111.042-.176l.302.492zm-12.087-29.59l.093-.172.344-.623 2.789-2.278.358.326s-.293 3.035-1.018 2.891c-.167-.032-.242.665-.26 1.758-1.316-1.125-2.32-1.902-2.32-1.902h.014z"/>
        <path fill="#464353" fill-rule="nonzero" d="M117.762 98.636s8.68-.781 10.743-.567l.563.05c2.153.22 4.181 1.12 5.788 2.572.134.127.292.227.464.293.93.283 1.92 2.278 1.92 2.278s-2.203 17.428-2.203 17.642c0 .214-4.556 8.108-4.556 8.108l-4.412 1.71-7.61 1.075-.214-3.283s3.663-2.008 3.254-6.16c-.409-4.15-3.737-23.718-3.737-23.718z"/>
        <path fill="#ECB4B6" fill-rule="nonzero" d="M122.03 119.338s-1.86 8.395 0 11.096c1.859 2.701-18.355-4.407-18.355-4.407l-3.719-6.69s1.395-.99 2.966-2.268c2.213-1.78 4.863-4.114 4.863-5.114.023-1.725 14.244 7.383 14.244 7.383z"/>
        <path fill="#000" fill-rule="nonzero" d="M122.03 119.338s-1.86 8.395 0 11.096c1.859 2.701-18.355-4.407-18.355-4.407l-3.719-6.69s1.395-.99 2.966-2.268c2.213-1.78 4.863-4.114 4.863-5.114.023-1.725 14.244 7.383 14.244 7.383z" opacity=".1"/>
        <circle cx="117.762" cy="112.522" r="12.38" fill="#000" fill-rule="nonzero" opacity=".1"/>
        <circle cx="117.762" cy="111.95" r="12.38" fill="#ECB4B6" fill-rule="nonzero"/>
        <path fill="#ECB4B6" fill-rule="nonzero" d="M133.768 127.315c.046.465.93 1.427 2.129 2.566 2.631 2.501 6.764 5.76 6.764 5.76s8.112 7.397 8.833 7.61c.72.214 2.845 7.471 2.845 7.471s-.497 12.022 6.044 12.52c2.79.209 3.96-1.953 4.388-4.514a13.71 13.71 0 0 0-3.203-11.158l-3.886-4.523-3.487-6.262a63.611 63.611 0 0 1-5.62-11.157 31.115 31.115 0 0 0-6.83-10.228c-.73-.725-1.2-1.111-1.2-1.111l-3.253.995s-3.664 10.6-3.524 12.031z"/>
        <path fill="#C17174" fill-rule="nonzero" d="M146.218 252.664l1.245 1.25c2.158 2.171 6.472 6.509 7.578 7.494 1.492 1.353 4.91 1.567 7.755.995 1.46-.288 3.254-1.687 4.62-2.975a3.2 3.2 0 0 0 .052-4.626c-1.348-1.32-2.93-2.79-3.608-2.998-1.278-.428-4.91-2.985-6.615-5.114-.888-1.111-2.497-2.167-3.831-2.924-1.227-.693-2.217-1.13-2.217-1.13l-4.98 10.028z"/>
        <path fill="#000" fill-rule="nonzero" d="M147.975 252.664s.414.423 1.055 1.064c1.836 1.86 5.504 5.523 6.448 6.374 1.27 1.148 4.184 1.33 6.592.846 1.088-.219 2.385-1.153 3.482-2.12a3.203 3.203 0 0 0 .117-4.714c-1.051-1.009-2.176-2.008-2.692-2.18-1.088-.363-4.184-2.543-5.625-4.356a11.943 11.943 0 0 0-3.255-2.487 23.612 23.612 0 0 0-1.882-.963l-4.24 8.536z" opacity=".1"/>
        <path fill="#C17174" fill-rule="nonzero" d="M89.677 185.073s.977 1.102 2.162 2.394c1.493 1.632 3.324 3.575 3.956 4.008 1.14.785 4.626 6.69 4.626 6.69s3.72 6.117 8.61 6.401c4.89.284 4.91-5.407 4.551-5.76-.358-.353-.85-3.561-1.562-5.909-.54-1.776-4.95-5.997-7.062-7.945a75.387 75.387 0 0 0-1.12-1.018l-14.16 1.14z"/>
        <path fill="#000" fill-rule="nonzero" d="M90.723 185.891s.884 1.004 1.967 2.185c1.362 1.488 3.031 3.255 3.608 3.654 1.04.716 4.216 6.1 4.216 6.1s3.375 5.578 7.852 5.834c4.477.256 4.472-4.928 4.152-5.253-.321-.326-.781-3.254-1.428-5.384-.492-1.617-4.514-5.467-6.438-7.243-.619-.571-1.023-.93-1.023-.93l-12.906 1.037z" opacity=".1"/>
        <path fill="#000" fill-rule="nonzero" d="M89.677 185.073s.977 1.102 2.162 2.394c6.248.93 9.154-.116 9.154-.116s2.915-1.283 3.556-1.353c.163 0 .28-.423.41-1.046a75.387 75.387 0 0 0-1.12-1.018l-14.162 1.14z" opacity=".1"/>
        <path fill="#5E5A6B" fill-rule="nonzero" d="M97.204 168.286s-3.914 3.194-6.132 4.337c-2.217 1.144-3.403 4.9-3.403 4.9s-3.342 8.113 3.412 9.247c6.755 1.134 9.893 0 9.893 0s2.915-1.278 3.557-1.348c.641-.07.637-6.193 2.984-8.043 2.348-1.85 7.755-6.043 7.755-6.043l-18.066-3.05z"/>
        <path fill="#000" fill-rule="nonzero" d="M97.204 168.286s-3.914 3.194-6.132 4.337c-2.217 1.144-3.403 4.9-3.403 4.9s-3.342 8.113 3.412 9.247c6.755 1.134 9.893 0 9.893 0s2.915-1.278 3.557-1.348c.641-.07.637-6.193 2.984-8.043 2.348-1.85 7.755-6.043 7.755-6.043l-18.066-3.05z" opacity=".1"/>
        <path fill="#5E5A6B" fill-rule="nonzero" d="M133.763 158.537s2.79 3.798 1.925 4.71c-.865.91-2.985 1.906-2.985 1.906s-1.283 6.76-3.347 9.604c-2.064 2.845-6.113 5.979-6.113 5.979l2.84-15.867 7.68-6.332z"/>
        <path fill="#000" fill-rule="nonzero" d="M123.247 180.736c1.266-1 2.48-2.065 3.636-3.19a22.78 22.78 0 0 0 2.473-2.789c2.064-2.845 3.347-9.604 3.347-9.604s2.134-.995 2.985-1.907c.52-.553-.302-2.166-1.028-3.351-.465-.772-.892-1.358-.892-1.358l-4.03 3.32-3.655 3.012-1.074 6.146-1.762 9.72zM146.218 252.664l1.245 1.25c.786 0 1.958.098 1.958.098s5.76-6.904 4.834-8.113a5.895 5.895 0 0 1-.841-2.143 28.182 28.182 0 0 0-2.217-1.13l-4.98 10.038z" opacity=".1"/>
        <path fill="#5E5A6B" fill-rule="nonzero" d="M102.253 179.81c0 1.21 9.674 16.007 9.674 16.007s3.77 6.401 4.626 6.973c.855.572 3.626 5.049 3.626 5.049s3.487 8.038 4.058 8.893c.572.856 1.563 5.114 1.563 5.114s1.994 5.904 2.919 6.685c.925.781 1.423 3.63 1.423 3.63s2.914 4.269 3.412 4.98a30.59 30.59 0 0 1 1.567 3.198s1.566 2.562 1.566 3.561c0 1 3.255 2.701 3.255 2.701s2.324 2.79 3.695 3.255c1.372.465 2.636 3.77 2.846 3.556.209-.214 2.635 0 2.635 0s5.76-6.899 4.835-8.108c-.925-1.208-1.139-4.058-1.139-4.058s2.325-5.332 1.07-5.616c-1.256-.284-6.095-8.726-6.095-8.726-.07-6.402-5.904-11.808-5.904-11.808s-2.92-6.974-3.77-8.466a2.297 2.297 0 0 1 0-2.561s-1.637-1.279-1.92-1.92c-.284-.642-1.637-5.477-1.637-5.477s-1.636-2.92-1.71-4.272c-.075-1.353-3.255-5.114-3.255-5.114s-1.292-6.336-2.715-7.475c-.279-.224-.232-1.056 0-2.264.656-3.185 2.743-8.94 4.184-12.71a233.05 233.05 0 0 1 1.432-3.669l-2.752.688-23.43 5.858s-1.27 3.408-2.386 6.62c-.888 2.53-1.673 4.942-1.673 5.477z"/>
        <path fill="#000" fill-rule="nonzero" d="M147.714 238.075s7.327-2.845 3.72.781c-3.608 3.627-10.526 3.417-10.526 3.417l6.806-4.198zM135.19 223.548s-4.123 2.277-3.342 4.481c.78 2.204 3.342-4.481 3.342-4.481zM131.053 205.919a4.314 4.314 0 0 1-4.059 2.203c-2.97-.07 4.059-2.203 4.059-2.203zM92.365 174.27s1.566 4.839 0 5.192c-1.567.353 0-5.193 0-5.193zM133.768 127.315c.046.465.93 1.427 2.129 2.566.679-2.185 1.31-4.184.93-4.844-.567-.995 1.655-3.129 1.255-4.551-.307-1.088 2.37-3.845 3.645-5.077-.73-.725-1.2-1.11-1.2-1.11l-3.254.994s-3.645 10.59-3.505 12.022zM103.922 174.334c2.7-.149 9-2.101 9-2.101s7.303-.242 12.087-1.218c2.325-.465 4.017-1.13 4.017-2.009 0-1.176.962-2.752 2.055-4.184a33.333 33.333 0 0 1 2.39-2.71 4.319 4.319 0 0 0 .99-1.604c.065-.19.144-.404.223-.627-.465-.772-.893-1.358-.893-1.358l-4.03 3.32-23.431 5.857s-1.311 3.422-2.408 6.634z" opacity=".1"/>
        <path fill="#464353" fill-rule="nonzero" d="M96.135 169.708s5.262 3.13 6.83 3.696c1.566.568 9.957-2.027 9.957-2.027s16.08-.53 16.08-3.254c0-2.087 3.05-5.444 4.445-6.866a4.3 4.3 0 0 0 .99-1.609c.488-1.394 1.474-3.984 2.39-4.9 1.283-1.278-.712-8.107-.712-8.107s-.427-4.84-.994-6.263c-.568-1.422 0-1.631-.465-2.845-.549-1.362-.93-1.283-.237-4.411.692-3.13 2.417-7.113 1.86-8.113-.559-1 1.654-3.129 1.254-4.551-.4-1.423 4.291-5.69 4.291-5.69s-.585-4.654-1.009-5.249c-.423-.595-1.99-3.84-1.99-4.551 0-.712-.999-.856-1.566-1.706-.567-.851-7.136 22.054-7.136 22.054l-9.572 2.157-.53.116s-5.444.256-8.977-1.706c0 0-6.104-.995-8.099-11.097a23.389 23.389 0 0 0-4.425 1.6c-1.483.72-2.97 1.701-3.826 2.952a19.367 19.367 0 0 1-5.114 4.992 41.436 41.436 0 0 0-1.567 4.682c-.423 1.86-.85 4.84-2.134 6.406-1.283 1.567-1.86 6.258-1.86 6.258l12.827 11.673s-.283 2.99-.995 2.845c-.711-.144.284 13.514.284 13.514z"/>
        <path fill="#000" fill-rule="nonzero" d="M98.538 116.953l6.844 14.267s2.845 1.86 3.844.85c1-1.008 4.765-.994 4.765-.994l.498.995 7.21-1.702-1.13-2.324-.53.12s-5.443.257-8.977-1.705c0 0-6.104-1-8.098-11.102a23.389 23.389 0 0 0-4.426 1.595z" opacity=".1"/>
        <path fill="#464353" fill-rule="nonzero" d="M98.538 116.385l6.844 14.263s2.845 1.86 3.844.856c1-1.004 4.765-.995 4.765-.995l.498.995 7.21-1.706-1.13-2.325-.53.116s-5.443.256-8.977-1.706c0 0-6.104-.995-8.098-11.097a23.389 23.389 0 0 0-4.426 1.6z"/>
        <path fill="#000" fill-rule="nonzero" d="M101.542 157.896s15.1 4.75 16.22 5.35c1.12.6-16.15-3.714-16.22-5.35zM111.062 165.153s-3.97 2.208-5.392 1.422c-1.423-.786 5.392-1.422 5.392-1.422zM123.526 138.765s3.822 20.414-1.827 26.388l1.827-26.388zM129.807 108.031a4.277 4.277 0 0 0 .153-5.643c-.492-.558-1.139-.981-1.543-1.609a6.913 6.913 0 0 0-.753-1.237c-.735-.753-1.971-.553-2.98-.86-1.009-.306-1.692-1.05-2.44-1.724a19.177 19.177 0 0 0-3.976-2.79c-1.478-.771-3.147-1.357-4.793-1.088-1.287.214-2.436.93-3.696 1.288-1.785.507-3.984.405-5.113 1.883-.535.702-.688 1.636-1.195 2.366-.716 1.032-2.032 1.516-2.79 2.534-.832 1.148-.743 2.724-.385 4.096.237.888.571 1.799.362 2.691-.102.437-.33.842-.418 1.284-.233 1.152.511 2.245 1.009 3.314.535 1.157.799 2.421.771 3.696a1.66 1.66 0 0 0 .117.842c.14.213.334.386.562.502l2.139 1.348a.93.93 0 0 0 .334.149c.419.065.674-.414.93-.735.716-.855 2.078-.79 3.087-.307 1.009.484 1.836 1.279 2.85 1.739 2.375 1.083 5.114.12 7.684-.377a16.96 16.96 0 0 0 2.6-.585c.8-.325 1.564-.735 2.277-1.223a8.122 8.122 0 0 0 1.948-1.53 2.748 2.748 0 0 0 .646-2.52c-.209-.748-.878-1.422-.744-2.254.27-1.441 2.422-2.301 3.357-3.25z" opacity=".1"/>
        <path fill="#464353" fill-rule="nonzero" d="M129.807 107.464a4.282 4.282 0 0 0 .153-5.648c-.492-.553-1.139-.981-1.543-1.604a7.122 7.122 0 0 0-.753-1.241c-.735-.749-1.971-.549-2.98-.856-1.009-.307-1.692-1.055-2.44-1.73a18.981 18.981 0 0 0-3.976-2.788c-1.478-.772-3.147-1.358-4.793-1.088-1.287.214-2.436.93-3.696 1.287-1.785.507-3.984.4-5.113 1.86-.535.707-.688 1.641-1.195 2.37-.716 1.033-2.032 1.516-2.79 2.535-.832 1.148-.743 2.724-.385 4.095.237.884.571 1.8.362 2.692-.102.437-.33.841-.418 1.283-.233 1.153.511 2.246 1.009 3.31a8.368 8.368 0 0 1 .795 3.752c-.035.287.005.579.116.846.143.21.336.383.562.502l2.139 1.344a.93.93 0 0 0 .335.153c.418.06.674-.414.93-.74.715-.855 2.077-.785 3.086-.306 1.009.479 1.837 1.278 2.85 1.739 2.376 1.083 5.114.12 7.685-.372a17.54 17.54 0 0 0 2.598-.59c.801-.324 1.565-.733 2.278-1.219a8.14 8.14 0 0 0 1.948-1.534 2.738 2.738 0 0 0 .646-2.515c-.209-.753-.878-1.427-.743-2.255.246-1.478 2.398-2.338 3.333-3.282z"/>
        <path fill="#ECB4B6" fill-rule="nonzero" d="M81.268 156.403c-.075 1.92 1.562 4.482 1.562 4.482.497 1.209 6.615 6.83 6.615 6.83l4.84 3.253s6.475 3.984 8.005 4.696c.767.358 1.59 1.86 2.227 3.328.637 1.47 1.078 2.79 1.078 2.79a6.364 6.364 0 0 0 5.407-5.653c.181-1.832.302-3.478.144-3.51-.358-.07-4.342-3.06-4.342-3.06s-4.62-2.989-6.118-5.973c-1.497-2.985-7.327-7.54-7.327-7.54l.093-.173.335-.613.711-2.348-11.157-4.979s-.274.907-.628 2.148c-.604 2.092-1.404 5.128-1.445 6.322z"/>
        <path fill="#000" fill-rule="nonzero" d="M82.704 150.095a61.882 61.882 0 0 0 6.746 5.75c.692.405 3.12.154 4.007.042l.335-.613.711-2.348-11.157-4.98s-.293.898-.642 2.149z" opacity=".1"/>
        <path fill="#464353" fill-rule="nonzero" d="M93.787 141.462s5.69 3.417 5.407 4.909c-.284 1.492-2.697 6.653-2.697 6.653l-2.71 2.24s-3.487.498-4.342 0c-.855-.497-6.899-5.476-7.113-6.257-.214-.781 0-3.417 0-3.984 0-.567 1.706-3.347 1.706-3.347l2.492-4.408 7.257 4.194z"/>
        <path fill="#000" fill-rule="nonzero" d="M112.922 172.219l1.674 4.495-2.822 2.669-.13.804-6.262 3.603-1.99-5.025z" opacity=".1"/>
        <path fill="#5E5A6B" fill-rule="nonzero" d="M112.922 171.935l1.674 4.491-2.822 2.673-.13.805-6.262 3.602-1.99-5.025z"/>
        <g fill="#000" fill-rule="nonzero" opacity=".1">
            <path d="M126.58 110.393a1.618 1.618 0 0 1-.092-.804c.232-1.455 2.384-2.325 3.319-3.254.61-.635.996-1.451 1.102-2.325a4.207 4.207 0 0 1-1.102 3.482c-.86.842-2.748 1.641-3.226 2.901zM100.29 108.57c.248.79.577 1.55.982 2.27a8.368 8.368 0 0 1 .776 3.695c-.037.287.002.579.112.846.143.212.336.384.562.502l2.139 1.344a.86.86 0 0 0 .34.153c.413.06.669-.413.929-.734.716-.856 2.083-.79 3.087-.312 1.004.48 1.836 1.279 2.85 1.744 2.38 1.078 5.113.12 7.684-.377.88-.128 1.75-.326 2.599-.59.801-.323 1.565-.731 2.278-1.218a8.136 8.136 0 0 0 1.953-1.534c.318-.372.544-.813.66-1.288a2.761 2.761 0 0 1-.66 2.427 8.256 8.256 0 0 1-1.953 1.534c-.713.487-1.477.895-2.278 1.218-.85.262-1.719.46-2.599.59-2.566.493-5.304 1.455-7.684.372-1.014-.465-1.86-1.255-2.85-1.739-.99-.483-2.371-.548-3.087.307-.27.326-.525.8-.93.74a.93.93 0 0 1-.34-.154l-2.138-1.344a1.632 1.632 0 0 1-.562-.502 1.678 1.678 0 0 1-.112-.846 8.368 8.368 0 0 0-.776-3.696c-.498-1.064-1.241-2.157-1.009-3.31a.772.772 0 0 1 .028-.097zM100.323 103.554c.228.865.554 1.762.372 2.636-.083-.502-.241-1.004-.372-1.497a6.718 6.718 0 0 1-.232-2.408c.042.43.12.854.232 1.27z"/>
        </g>
        <circle cx="10.056" cy="61.891" r="10.056" fill="#6C63FF" fill-rule="nonzero" opacity=".1"/>
        <circle cx="282.998" cy="19.521" r="10.056" fill="#6C63FF" fill-rule="nonzero" opacity=".1"/>
        <circle cx="442.525" cy="59.246" r="10.056" fill="#6C63FF" fill-rule="nonzero" opacity=".1"/>
        <circle cx="30.162" cy="117.366" r="16.852" fill="#6C63FF" fill-rule="nonzero" opacity=".1"/>
        <circle cx="235.997" cy="367.018" r="16.852" fill="#6C63FF" fill-rule="nonzero" opacity=".1"/>
        <circle cx="460.498" cy="357.301" r="16.852" fill="#6C63FF" fill-rule="nonzero" opacity=".1"/>
    </g>
</svg>
