<svg xmlns="http://www.w3.org/2000/svg" width="90" height="90" viewBox="0 0 90 90">
    <g fill="none" fill-rule="evenodd">
        <circle cx="44.875" cy="45.071" r="44.792" fill="#E2E2FD" fill-rule="nonzero"/>
        <path fill="#3C3AC4" fill-rule="nonzero" d="M58.546 32.125c-3.358-5.833-8.475-9.708-13.775-8.492-5.296-1.216-10.417 2.646-13.775 8.492-8.225 14.313-1.667 21.42 1.425 29.27l12.35.034 12.346-.033c3.116-7.85 9.654-14.959 1.429-29.271z"/>
        <path fill="#E2E2FD" fill-rule="nonzero" d="M55.217 44.288c-.563-4.109-5.296 1.858-10.442-7.605-5.15 9.463-9.883 3.496-10.446 7.605-.642 4.72 2.008 10.662 5.417 12.995.175.134 2.825 2.109 5 2.084 2.191 0 4.841-1.959 5-2.084 3.462-2.333 6.116-8.275 5.47-12.995z"/>
        <path fill="#E2E2FD" fill-rule="nonzero" d="M44.775 89.862a40.025 40.025 0 0 0 23.03-7.329c-.955-3.85-1.788-8.291-2.138-8.862-5.992-9.675-15.25-5.338-15.867-16.392 0 0-2.758 2.113-5.03 2.083-2.27-.029-5.028-2.083-5.028-2.083-.63 11.067-9.871 6.717-15.863 16.392-.354.57-1.187 5-2.137 8.862a40 40 0 0 0 23.029 7.33h.004z"/>
        <path fill="#D0D0F7" fill-rule="nonzero" d="M49.792 59.004l.175-.137a17.076 17.076 0 0 1-.167-1.588s-2.758 2.113-5.03 2.083c-2.27-.029-5.028-2.083-5.028-2.083a15.763 15.763 0 0 1-.167 1.588l.175.137c.175.154 2.825 2.434 5 2.417 2.192 0 4.842-2.263 5-2.417h.042z"/>
        <path fill="#726EFB" fill-rule="nonzero" d="M44.775 89.862c8.604-.024 16.646-2.858 23.104-6.354-.983-4.633-1.85-12.266-2.212-12.85-2.275-3.658-8.255-3.708-11.521-5.454-2.917 9.375-6.196 13.921-9.375 14.059-3.18-.138-6.438-4.68-9.354-14.059C32.15 66.95 26.17 67 23.9 70.658c-.367.584-1.25 8.092-2.217 12.73 7.13 3.787 14.5 6.45 23.109 6.474h-.017z"/>
        <path fill="#FFB23D" fill-rule="nonzero" d="M56.004 65.833l-4.033-2.479c.212 5.738-.763 13.704-7.2 15.784-6.434-2.084-7.409-10.046-7.196-15.784l-4.038 2.48a2.78 2.78 0 0 0-.62 4.228c1.333 1.496 2.666 3.367 4.07 4.855l3.026 3.491a1.013 1.013 0 0 1-.417 1.613.417.417 0 0 0-.221.629 59.042 59.042 0 0 1 4.554 9.2h1.746a51.954 51.954 0 0 1 4.504-9.204.417.417 0 0 0-.217-.63 1.013 1.013 0 0 1-.416-1.612l3.025-3.492c1.408-1.487 2.737-3.358 4.075-4.854a2.783 2.783 0 0 0-.642-4.225z"/>
        <path stroke="#FFB23D" stroke-width=".5" d="M55.417 47.767s-1.23 5.958-6.85 7.412"/>
        <path stroke="#FFB23D" stroke-linecap="round" stroke-linejoin="round" d="M50.342 54.5a8.88 8.88 0 0 1-1.796.68"/>
    </g>
</svg>
