<svg xmlns="http://www.w3.org/2000/svg" xmlns:xlink="http://www.w3.org/1999/xlink" width="90" height="90" viewBox="0 0 90 90">
    <defs>
        <circle id="a" cx="45" cy="45.071" r="44.792"/>
    </defs>
    <g fill="none" fill-rule="evenodd">
        <mask id="b" fill="#fff">
            <use xlink:href="#a"/>
        </mask>
        <use fill="#E2E2FD" fill-rule="nonzero" xlink:href="#a"/>
        <g mask="url(#b)">
            <path fill="#C1C1EA" fill-rule="nonzero" d="M46.1 27.225c12.254 0 22.188 9.934 22.188 22.188v55H23.916v-55c0-12.253 9.93-22.186 22.183-22.188z"/>
            <path fill="#3C3AC4" fill-rule="nonzero" d="M46.1 27.225c12.254 0 22.188 9.934 22.188 22.188v7.966H23.916v-7.97c0-12.254 9.933-22.188 22.187-22.188l-.004.004z"/>
            <path fill="#FFB23D" fill-rule="nonzero" d="M28.212 15.72l.888 1.8 1.987.293-1.437 1.4.337 1.979-1.775-.934-1.779.934.342-1.98-1.438-1.4 1.988-.291zM37.158 15.72l.888 1.8 1.987.293-1.437 1.4.337 1.979-1.775-.934-1.779.934.338-1.98-1.438-1.4 1.988-.291zM46.1 15.72l.892 1.8 1.987.293-1.442 1.4.342 1.979-1.779-.934-1.775.934.337-1.98-1.437-1.4 1.987-.291zM55.046 15.72l.887 1.8 1.988.293-1.438 1.4.342 1.979-1.78-.934-1.774.934.337-1.98-1.437-1.4 1.987-.291zM63.992 15.72l.887 1.8 1.988.293-1.438 1.4.338 1.979-1.775-.934-1.78.934.342-1.98-1.437-1.4 1.987-.291z"/>
            <text fill="#FFB23D" font-family="NunitoSans-BlackItalic, Nunito Sans" font-size="14.073" font-style="italic" font-weight="700" transform="translate(23.75 15.417)">
                <tspan x="9.958" y="33.008">85</tspan>
            </text>
            <text fill="#FFB23D" font-family="NunitoSans-BlackItalic, Nunito Sans" font-size="8.98" font-style="italic" font-weight="700" transform="translate(23.75 15.417)">
                <tspan x="31.217" y="31.563">+</tspan>
            </text>
            <g fill="#3C3AC4" font-family="NunitoSans-BlackItalic, Nunito Sans" font-size="10.127" font-style="italic" font-weight="700">
                <text transform="translate(30.258 56.904)">
                    <tspan x="0" y="11.75">Y</tspan>
                </text>
                <text transform="translate(30.258 56.904)">
                    <tspan x="7.037" y="11.75">ea</tspan>
                </text>
                <text transform="translate(30.258 56.904)">
                    <tspan x="20.696" y="11.75">r</tspan>
                </text>
                <text transform="translate(30.258 56.904)">
                    <tspan x="25.708" y="11.75">s</tspan>
                </text>
            </g>
        </g>
    </g>
</svg>
