<?xml version="1.0" encoding="UTF-8"?>
<svg width="77px" height="125px" viewBox="0 0 77 125" version="1.1" xmlns="http://www.w3.org/2000/svg" xmlns:xlink="http://www.w3.org/1999/xlink">
    <!-- Generator: Sketch 61 (89581) - https://sketch.com -->
    <title>a/illustration/business-loan</title>
    <desc>Created with Sketch.</desc>
    <defs>
        <linearGradient x1="95.6561732%" y1="54.9055867%" x2="-2.64974846%" y2="46.2842751%" id="linearGradient-1">
            <stop stop-color="#3C3AC4" offset="0%"></stop>
            <stop stop-color="#3C3AC4" stop-opacity="0" offset="100%"></stop>
        </linearGradient>
    </defs>
    <g id="Misc" stroke="none" stroke-width="1" fill="none" fill-rule="evenodd">
        <g id="Loans-page" transform="translate(-426.000000, -654.000000)">
            <g id="Group-5" transform="translate(349.000000, 647.000000)">
                <g id="a/illustration/business-loan" transform="translate(53.000000, 7.000000)">
                    <g id="Sakal-Icons-copy-02" transform="translate(24.350649, 0.000000)">
                        <g id="Group" transform="translate(11.363636, 83.874459)" fill-rule="nonzero">
                            <g transform="translate(0.000000, 3.756957)" id="Path">
                                <path d="M1.998002,0.667903525 L1.998002,0.667903525 C1.4985015,1.04359926 1.16550117,1.58627087 0.957375957,2.17068646 L0.208125208,4.29962894 C0.208125208,4.29962894 -0.208125208,5.7606679 0.999000999,6.17810761 C3.37162837,6.97124304 4.16250416,4.84230056 4.16250416,4.84230056 L4.995005,3.29777365 C5.28638029,2.79684601 5.82750583,2.50463822 6.41025641,2.54638219 L16.4002664,3.50649351 L16.6500167,1.29406308 L4.24575425,0.0417439703 C3.37162837,-0.0417439703 2.62237762,0.166975881 1.998002,0.667903525 Z" fill="#8888FF"></path>
                                <path d="M1.998002,0.667903525 L1.998002,0.667903525 C1.4985015,1.04359926 1.16550117,1.58627087 0.957375957,2.17068646 L0.208125208,4.29962894 C0.208125208,4.29962894 -0.208125208,5.7606679 0.999000999,6.17810761 C3.37162837,6.97124304 4.16250416,4.84230056 4.16250416,4.84230056 L4.995005,3.29777365 C5.28638029,2.79684601 5.82750583,2.50463822 6.41025641,2.54638219 L16.4002664,3.50649351 L16.6500167,1.29406308 L4.24575425,0.0417439703 C3.37162837,-0.0417439703 2.62237762,0.166975881 1.998002,0.667903525 Z" fill="#3C3AC4" opacity="0.2"></path>
                                <path d="M3.91275391,4.17439703 L4.74525475,2.62987013 C5.03663004,2.12894249 5.57775558,1.83673469 6.16050616,1.87847866 L16.4002664,2.83858998 L16.5667666,1.25231911 L4.16250416,0.0417439703 C3.37162837,-0.0417439703 2.62237762,0.208719852 1.998002,0.709647495 C1.4985015,1.08534323 1.16550117,1.62801484 0.957375957,2.21243043 L0.208125208,4.34137291 C0.208125208,4.34137291 0.124875125,4.67532468 0.124875125,5.05102041 C0.24975025,5.25974026 0.457875458,5.46846011 0.790875791,5.59369202 C3.16350316,6.30333952 3.91275391,4.17439703 3.91275391,4.17439703 Z" fill="#8888FF"></path>
                            </g>
                            <path d="M10.6560107,1.75324675 L11.1138861,4.46660482 C11.1971362,4.9257885 11.4468864,5.3432282 11.8631369,5.63543599 L22.977023,13.0241187 C23.4765235,13.3580705 24.0592741,13.6085343 24.6420246,13.7755102 C25.5994006,14.025974 27.1395271,14.3599258 28.7629038,14.4016698 C31.3852814,14.4434137 32.1345321,13.8589981 32.2594073,13.1493506 C32.3426573,12.5649351 32.6340326,10.4359926 32.7172827,9.68460111 C32.7589078,9.51762523 32.6756577,9.30890538 32.5507826,9.18367347 L29.8451548,6.4703154 C29.7202797,6.34508349 29.6370296,6.17810761 29.5537796,6.01113173 L29.3456543,5.51020408 C29.2207792,5.21799629 29.2624043,4.88404453 29.4289044,4.63358071 L29.8451548,3.96567718 C30.0532801,3.63172542 30.3862804,3.3812616 30.7609058,3.29777365 L37.3792874,1.83673469 C37.3792874,1.83673469 37.7122877,1.29406308 37.4625375,0.208719852 L10.6560107,1.75324675 Z" id="Path" fill="#5959EF"></path>
                        </g>
                        <path d="M40.4300375,88.0881414 C40.6386991,87.7616919 40.9725576,87.5168547 41.3481485,87.4352424 L47.9835868,86.0070258 C47.9835868,86.0070258 48.3174454,85.4765453 48.0670515,84.4155844 L36.5906644,85.0276772 L35.7142857,86.0886381 L36.6323967,90.0468384 C36.7993259,90.822156 37.2166491,91.5158612 37.8009016,92.0463416 L42.8922442,96.8614719 C43.0174411,96.1269605 43.2261027,94.290682 43.3095674,93.5969768 C43.3512997,93.433752 43.267835,93.2297211 43.1426381,93.1073025 L40.4300375,90.4549003 C40.3048406,90.3324817 40.2213759,90.169257 40.1379113,90.0060322 L39.9292497,89.516358 C39.8040528,89.2307146 39.8457851,88.9042651 40.0127143,88.659428 L40.4300375,88.0881414 Z" id="Path" fill="#3C3AC4" fill-rule="nonzero" opacity="0.7"></path>
                        <path d="M26.5151515,52.5081978 C26.5151515,52.5081978 21.6124367,50.7866604 15.6294627,50.8686384 C11.6823617,50.9096274 7.23667965,51.4834732 3.49732088,53.9018233 C-1.69623296,57.3039091 0.090349562,62.6734661 1.33680248,65.2557722 C2.25086796,67.1412655 5.65783928,72.5108225 5.65783928,72.5108225 L9.27255276,69.6825825 L6.4888079,64.1490696 C6.4888079,64.1490696 3.87125676,58.7795125 7.07048593,56.4021514 C10.2697151,54.0247902 18.1639169,54.0247902 22.6511475,54.762592 L25.5595376,55.3364378 L26.5151515,52.5081978 Z" id="Path" fill="#726EFB" fill-rule="nonzero"></path>
                        <path d="M43.4247654,1.89505282 C43.4247654,1.89505282 40.6892375,2.84257923 39.3629209,6.46789767 C37.995157,10.2580033 36.6688404,19.5272834 35.7984452,22.8642243 C34.9280499,26.2011651 30.2444946,43.4626245 27.3017297,47.6235013 C27.3017297,47.6235013 24.9806757,52.3199366 24.483307,57.2223558 C23.9859383,62.1247751 24.9392283,65.9560775 26.4727819,69.2106248 L34.9694973,80.0865801 L69.4122805,78.9742665 C69.4122805,78.9742665 72.9767563,77.6971657 72.1892558,66.9036039 C71.360308,56.1100422 73.3083354,50.589671 73.3083354,50.589671 C73.3083354,50.589671 75.2978103,37.6538756 73.1010985,25.2948355 C71.1116236,14.1305026 70.8214919,6.71507847 66.3866209,2.59539843 C65.4747782,1.73026562 64.3556986,1.15351041 63.1122769,0.86513281 C61.5372759,0.494361605 58.8846428,0 55.527404,0 C48.0668734,0 43.4247654,1.89505282 43.4247654,1.89505282 Z" id="Path" fill="#726EFB" fill-rule="nonzero"></path>
                        <path d="M71.0469352,25.8322893 C69.5905379,14.816399 68.8831449,7.55498823 64.6387869,3.38792863 C63.5985031,2.35647824 62.3085512,1.69634998 60.8937652,1.36628586 C59.2709225,0.994963715 56.6910186,0.541125541 53.4037218,0.541125541 C49.2425865,0.541125541 45.9136783,1.11873776 43.8331107,1.65509197 C43.6250539,1.737608 43.5002199,1.77886602 43.5002199,1.77886602 C43.5002199,1.77886602 40.7538706,2.72780038 39.4223073,6.35850577 C38.0491327,10.1542432 36.7175694,19.4372968 35.843731,22.7791961 C34.9698926,26.1210954 30.2678098,43.408204 27.3134038,47.5752636 C27.3134038,47.5752636 24.983168,52.2786774 24.4838318,57.1883813 C23.9844956,62.0980852 24.9415567,65.9350807 26.4811767,69.1944639 L35.011504,80.0865801 L69.5905379,78.9726137 C69.5905379,78.9726137 69.6737606,78.9313556 69.7569833,78.8900976 C69.3408698,77.4873251 68.4670314,74.0629098 67.9676952,67.5441433 C67.1354681,56.7345431 68.5918654,51.7835812 68.5918654,51.7835812 C68.5918654,51.7835812 72.669778,38.250952 71.0469352,25.8322893 Z" id="Path" fill="#8C8CF9" fill-rule="nonzero"></path>
                        <g id="Group" transform="translate(35.714286, 22.186147)" stroke="#726EFB" stroke-linecap="round" stroke-linejoin="round" stroke-width="0.5">
                            <path d="M6.64176007,0.290498975 C6.64176007,0.290498975 22.9555832,0.746997364 29.0161893,0.290498975" id="Path"></path>
                            <path d="M6.64176007,6.84747583 C6.64176007,6.84747583 22.9555832,6.39097744 29.0161893,6.84747583" id="Path"></path>
                            <path d="M6.26816106,14.0269505 C6.26816106,14.0269505 9.5475301,8.00947173 9.8381071,6.84747583 C9.8381071,6.84747583 13.4910751,16.3924421 15.3590702,25.3979104 C17.2270652,34.4033786 19.1780822,43.6578459 22.2498962,48.5548286" id="Path"></path>
                            <path d="M3.52843504,23.4474172 C11.4570361,13.4459525 13.9892071,6.68147642 13.9892071,6.68147642 C18.0157742,14.8569476 18.9705272,28.6763988 22.5404732,36.8103701" id="Path"></path>
                            <path d="M0.830220008,35.4823748 C5.23038605,24.3189142 13.6986301,19.0899326 18.3893732,6.76447613 C18.3893732,6.76447613 23.5782482,20.6669271 24.6160232,33.9468802" id="Path"></path>
                            <path d="M0.456621005,44.9858412 C1.86799502,32.4943853 19.3441262,17.9694366 22.2083852,6.68147642 C22.2083852,6.68147642 25.6122873,14.5664486 26.9406393,23.239918" id="Path"></path>
                            <path d="M1.61892902,52.6633141 C4.06807804,34.0713797 21.0460772,21.828923 26.1104193,6.84747583 L29.0161893,15.1059467" id="Path"></path>
                            <path d="M6.64176007,51.3353188 C5.77002906,37.7648667 25.7368203,21.6214237 29.4312993,7.71897276" id="Path"></path>
                            <path d="M11.2909921,49.4263256 C9.9211291,38.4703642 27.5217933,23.3644175 30.1784973,14.1099502" id="Path"></path>
                            <path d="M15.3590702,49.5508251 C13.5325861,41.9563519 27.3972603,28.2199004 27.3972603,28.2199004" id="Path"></path>
                            <path d="M6.64176007,9.29596719 C11.7476131,22.2439215 13.6986301,41.4168538 19.0950602,49.4263256" id="Path"></path>
                            <path d="M5.02283105,17.8034372 C8.21917808,25.6054096 11.0004151,44.4463431 16.9779992,52.2068157" id="Path"></path>
                            <path d="M3.27936903,25.8129089 C6.06060606,31.8718875 7.59651308,45.5668392 12.4117891,51.5428181" id="Path"></path>
                            <path d="M1.53590702,32.286886 C3.15483603,38.8438629 4.77376505,47.1438336 8.80033209,52.3728152" id="Path"></path>
                            <path d="M0.373599004,42.4543502 C1.86799502,47.019334 3.81901204,51.4598184 6.06060606,54.8213065" id="Path"></path>
                        </g>
                        <path d="M37.1170191,75.2164502 C35.2590454,64.639373 36.4151179,54.6820463 38.6446864,49.2282409 C40.8742549,43.7744354 42.6083637,31.957857 42.7322286,29.5614879 C42.8560935,27.1651188 42.2780572,17.1664755 41.4110028,11.5060865 C40.7916783,7.58099925 41.6587327,4.31697932 42.2780572,2.70562771 C41.3697145,3.32537833 40.0897771,4.52356286 39.3052993,6.71334838 C37.9427852,10.5144855 36.6215595,19.8107448 35.7545051,23.1573982 C34.8874507,26.5040515 30.2218722,43.8157521 27.2904026,47.9887397 C27.2904026,47.9887397 24.9782575,52.6988444 24.4827978,57.6155326 C23.9873382,62.5322209 24.9369692,66.3746747 26.4646365,69.6386946 L30.3457371,74.679333 L37.1170191,75.2164502 Z" id="Path" fill="#8C8CF9" fill-rule="nonzero"></path>
                        <path d="M71.0467512,26.297888 C69.4774324,14.2130414 68.7753688,6.6651679 63.3653487,2.70562771 C63.3653487,2.70562771 62.2916043,11.779574 63.6957316,19.7811448 C65.099859,27.7827156 64.0261145,37.8465469 63.571838,40.2387691 C63.0762637,42.5897461 59.5659453,52.3236157 59.5246475,58.0154548 C59.4833496,63.7072938 60.9700727,74.142332 63.6544338,78.1431174 C64.0261145,78.6793051 64.3977953,79.1330024 64.7694761,79.5454545 L69.6426239,79.3804737 C69.6426239,79.3804737 69.7252196,79.3392285 69.8078153,79.2979833 C69.3948367,77.8956461 68.5275816,74.4722937 68.0320072,67.9555504 C67.20605,57.1493053 68.6514752,52.1998801 68.6514752,52.1998801 C68.6514752,52.1998801 72.6573679,38.7126963 71.0467512,26.297888 Z" id="Path" fill="#8C8CF9" fill-rule="nonzero"></path>
                        <path d="M37.1727233,75.2164502 C35.3331265,64.6091528 36.4777645,54.6233766 38.6852807,49.1539889 C40.8927968,43.6846011 42.6097539,31.834261 42.7323937,29.4310451 C42.8550334,27.0278293 42.2827144,17.0006184 41.4242359,11.3240569 C40.8519169,7.55349412 41.6286356,4.36301793 42.2009546,2.70562771" id="Path" stroke="#726EFB" stroke-width="0.5" stroke-linecap="round" stroke-linejoin="round"></path>
                        <path d="M63.0903334,2.70562771 C62.936968,4.19205101 62.2084822,12.4499582 63.3970642,19.7169166 C64.7006702,27.7270866 63.703795,37.8017335 63.2820401,40.1965266 C62.8219439,42.5500301 59.5629288,52.2943607 59.5245875,57.9923167 C59.4862461,63.6902727 60.8665349,74.1365253 63.3587228,78.1416103 C63.703795,78.6783743 64.0488672,79.1325592 64.3939394,79.5454545" id="Path" stroke="#726EFB" stroke-width="0.5" stroke-linecap="round" stroke-linejoin="round"></path>
                        <g id="Group" transform="translate(4.870130, 67.640693)">
                            <path d="M22.3573894,1.78226029 C22.3573894,1.78226029 14.2610554,-0.704614534 7.97303962,0.455927052 C1.68502384,1.61646864 0.246588854,4.35203095 0.0410981424,5.59546836 C-0.164392569,6.83890578 1.60282755,13.1804366 1.60282755,13.1804366 C1.60282755,13.1804366 1.93161269,14.2995303 2.87686997,14.6311136 C2.87686997,14.6311136 2.79467368,15.7502072 4.31530495,16.5377176 C5.83593622,17.325228 15.4118034,18.9416966 22.2751932,19.1489362 C29.1385829,19.3561757 33.9881637,19.1903841 37.0705244,18.1127383 C40.1528851,17.0350926 43.3585402,16.6206134 44.7147789,16.6620613 C46.0710176,16.7035093 49.6876541,16.5377176 51.9891501,15.9159989 C54.2906461,15.2942802 62.0992931,13.5949157 62.0992931,13.5949157 C62.0992931,13.5949157 64.9761631,12.8488533 64.7706724,10.3205305 L63.2500411,6.09284333 C63.0034522,5.47112462 62.5513727,4.93230174 61.9759987,4.64216634 C60.0032879,3.64741641 55.2359033,1.40922907 51.9069538,1.32633324 C47.632747,1.24343741 39.7830018,3.39872893 37.8513891,4.02044764 C35.8786783,4.64216634 30.6181161,5.05664548 30.6181161,5.05664548 C30.6181161,5.05664548 25.7685353,2.98424979 22.3573894,1.78226029 Z" id="Path" fill="#8C8CF9" fill-rule="nonzero"></path>
                            <path d="M53.3864869,1.53357281 C48.783495,2.52832274 42.7831662,5.80270793 40.0295907,7.75075988 C36.659543,10.1547389 32.344238,10.9008013 32.344238,10.9008013 C26.1384185,11.8541033 3.08236068,9.03564521 1.72612198,8.37247859 C1.10964984,8.04089527 0.534275851,7.58496822 0.123294427,7.12904117 C0.493177708,9.40867643 1.52063127,13.1804366 1.52063127,13.1804366 C1.52063127,13.1804366 1.84941641,14.2995303 2.79467368,14.6311136 C2.79467368,14.6311136 2.7124774,15.7502072 4.23310866,16.5377176 C5.75373993,17.325228 15.3296071,18.9416966 22.1929969,19.1489362 C29.0563867,19.3561757 33.9059675,19.1903841 36.9883281,18.1127383 C40.0706888,17.0350926 43.2763439,16.6206134 44.6325826,16.6620613 C45.9888213,16.7035093 49.6054578,16.5377176 51.9069538,15.9159989 C54.2084498,15.2942802 62.0170968,13.5949157 62.0170968,13.5949157 C62.0170968,13.5949157 64.8939668,12.8488533 64.6884761,10.3205305 L63.1678448,6.09284333 C62.921256,5.47112462 62.4691764,4.97374965 61.8938024,4.64216634 C60.2087786,3.81320807 56.5099458,2.07239569 53.3864869,1.53357281 Z" id="Path" fill="#3C3AC4" fill-rule="nonzero" opacity="0.2"></path>
                            <path d="M2.83577182,14.6311136 C2.83577182,14.6311136 4.31530495,15.6673114 6.94558606,16.2061343 C9.57586717,16.7449572 25.5630446,18.734457 33.6593786,17.4081238 C33.6593786,17.4081238 36.4129541,16.9521967 38.5911557,16.1232385 C40.7693572,15.2942802 44.4270919,13.8850511 47.5916489,13.7607074 C48.9067894,13.6778116 49.8931448,13.5949157 50.5918133,13.5534678 C51.4137761,13.470572 52.1946408,12.973197 52.6056222,12.2271346 L53.7974684,10.113291 L59.2635213,11.8541033 C59.2635213,11.8541033 60.5375637,12.3100304 61.6883117,12.019895 C62.8390597,11.7297596 64.6884761,10.3619784 64.6884761,10.3619784" id="Path" stroke="#3C3AC4" stroke-width="0.5" opacity="0.2"></path>
                        </g>
                        <path d="M56.1301584,63.9420549 L55.8359577,64.8344659 C55.8359577,64.8344659 54.8692983,72.0548817 58.9460791,79.5998105 C59.1141938,79.9243236 59.4504231,80.0865801 59.8286811,80.0865801 L62.1402578,80.0865801 C62.7286592,80.0865801 63.3170605,79.8837594 63.7373472,79.5592464 L64.3257485,79.1130409 C64.5358919,78.9507843 64.6199492,78.6668354 64.4938632,78.4234506 C63.7793758,76.6386287 60.9634551,69.2965206 61.5518565,63.4958495 C62.2663438,56.8433316 65.7547232,55.3830228 66.9315259,55.0990738 C68.1083286,54.8151249 69.7474466,54.6123042 70.840192,54.6934325 C70.840192,54.6934325 71.3865647,58.3036404 74.2865427,57.8574349 C77.1865208,57.4112295 76.5560908,54.247227 74.8749441,53.7604574 C73.1937974,53.2736878 65.4184939,53.030303 65.4184939,53.030303 C65.4184939,53.030303 57.7692764,54.4500477 56.1301584,63.9420549 Z" id="Path" fill="#5959EF" fill-rule="nonzero"></path>
                        <path d="M55.3747847,64.9441595 C55.3747847,64.9441595 55.2513271,65.4761905 56.7328185,65.4761905 C57.843937,65.4761905 59.1196656,65.2306377 59.1196656,65.2306377 C59.1196656,65.2306377 60.1484791,65.0669359 60.2719367,63.9619484 C60.3542417,62.856961 60.4776994,59.3373713 62.0003432,57.2092473 C63.3995295,55.2038997 65.3748513,54.0989123 69.490105,53.7715086 C73.5642062,53.4850304 74.6753247,53.8533595 74.6753247,53.8533595 C74.6753247,53.8533595 74.5518671,53.1985521 73.7288163,52.7483721 C72.9057656,52.298192 69.5724101,51.4796828 69.5724101,51.4796828 C69.5724101,51.4796828 69.1197322,51.3159809 67.7616984,51.4796828 C66.4036647,51.6433846 61.0126823,52.3391175 58.5435301,54.426316 C56.0743779,56.5135145 54.6751916,59.4192222 55.3747847,64.9441595 Z" id="Path" fill="#726EFB" fill-rule="nonzero"></path>
                        <path d="M60.4198669,64.2186557 C60.5013266,63.0868743 60.6235163,59.4819412 62.1305218,57.3022142 C63.5153377,55.2482406 65.4703719,54.1164593 69.5433599,53.7811167 C73.5756179,53.4876919 74.6753247,53.8649523 74.6753247,53.8649523 C74.6753247,53.8649523 74.5938649,53.5296097 74.2680259,53.1523492 C73.0053996,52.9427601 68.3214635,52.8170066 64.4928548,54.4098841 C60.053298,56.2961863 59.5238095,62.4581069 59.5238095,65.4761905 C59.8089187,65.3923548 60.3384071,65.0570122 60.4198669,64.2186557 Z" id="Path" fill="#3C3AC4" fill-rule="nonzero" opacity="0.6"></path>
                        <path d="M35.1731602,72.8385657 C35.1731602,72.8385657 30.4214032,70.8268887 27.0214391,69.7224385 C27.0214391,69.7224385 19.9757305,67.6713168 13.913144,68.3024312 C10.5951068,69.0518795 11.1685947,70.0774403 12.0288266,70.7085547 C12.4794242,71.0635566 13.0529121,71.3002244 13.6264,71.4185584 C24.4407435,73.8641266 35.1731602,72.8385657 35.1731602,72.8385657 Z" id="Path" fill="url(#linearGradient-1)" fill-rule="nonzero"></path>
                        <g id="Group" transform="translate(37.337662, 99.025974)" fill-rule="nonzero">
                            <path d="M0.208125208,0.61842919 L0.208125208,7.30519481 C0.208125208,7.57575758 1.29037629,7.84632035 2.62237762,7.84632035 C3.95437895,7.84632035 5.03663004,7.6144094 5.03663004,7.30519481 L5.03663004,0.61842919 L0.208125208,0.61842919 Z" id="Path" fill="#3C3AC4"></path>
                            <ellipse id="Oval" fill="#726EFB" cx="2.62237762" cy="0.61842919" rx="2.41425241" ry="1"></ellipse>
                        </g>
                        <path d="M39.5021645,96.8614719 C38.9009139,96.8614719 38.4199134,96.9808378 38.4199134,97.1002037 L38.4199134,99.3283677 C38.4199134,99.4477336 38.9009139,99.5670996 39.5021645,99.5670996 C40.1034151,99.5670996 40.5844156,99.4477336 40.5844156,99.3283677 L40.5844156,97.1002037 C40.5844156,96.9808378 40.1034151,96.8614719 39.5021645,96.8614719 Z" id="Path" fill="#3C3AC4" fill-rule="nonzero"></path>
                        <g id="Group" transform="translate(3.246753, 107.142857)" fill-rule="nonzero">
                            <path d="M4.81240981,9.95085995 L4.81240981,9.95085995 L3.11147186,9.70515971 C2.9455267,9.66420966 2.73809524,9.62325962 2.53066378,9.62325962 C2.53066378,9.62325962 2.53066378,9.62325962 2.48917749,9.62325962 L2.48917749,9.62325962 L2.48917749,9.62325962 C1.32756133,9.62325962 0.373376623,10.7289107 0.373376623,12.039312 C0.373376623,13.2678133 1.20310245,14.2915643 2.28174603,14.4553645 L4.48051948,14.7829648 L4.48051948,14.7829648 C4.56349206,14.7829648 4.60497835,14.7829648 4.68795094,14.7829648 C5.89105339,14.7829648 6.8452381,13.7182637 6.8452381,12.3669124 C6.8452381,11.0565111 5.93253968,10.03276 4.81240981,9.95085995 Z" id="Path" fill="#726EFB"></path>
                            <ellipse id="Oval" fill="#8C8CF9" cx="4.8538961" cy="12.4488124" rx="1.90836941" ry="2.12940213"></ellipse>
                            <ellipse id="Oval" fill="#3C3AC4" opacity="0.2" cx="4.8538961" cy="12.4488124" rx="1.65945166" ry="1.84275184"></ellipse>
                            <path d="M3.11147186,8.43570844 L3.11147186,9.21375921 L2.07431457,9.25470925 C2.07431457,9.25470925 0.0414862915,9.62325962 0.165945166,12.4897625 C0.165945166,12.6126126 0.248917749,12.6945127 0.373376623,12.7354627 L2.24025974,13.3087633 C2.40620491,13.3497133 2.57215007,13.2268632 2.57215007,13.0630631 C2.61363636,12.2850123 2.82106782,10.5241605 4.06565657,10.1965602 C6.05699856,9.66420966 6.72077922,11.5888616 6.72077922,11.5888616 L6.8037518,11.5069615 L6.8037518,8.47665848 L3.11147186,8.47665848 L3.11147186,8.43570844 Z" id="Path" fill="#3C3AC4"></path>
                            <path d="M34.5995671,0.327600328 L34.2261905,0.368550369 C34.2261905,0.368550369 29.6212121,0.163800164 22.6515152,1.31040131 C16.0966811,2.37510238 5.06132756,5.8968059 3.69227994,6.34725635 C3.56782107,6.38820639 3.48484848,6.42915643 3.4018759,6.51105651 C3.23593074,6.67485667 2.9455267,6.96150696 2.86255411,7.33005733 C2.77958153,7.86240786 2.86255411,8.72235872 2.86255411,8.72235872 L3.81673882,9.04995905 L7.21861472,8.72235872 L7.21861472,8.19000819 C7.21861472,7.94430794 7.38455988,7.6986077 7.67496392,7.61670762 C9.66630592,7.12530713 18.2539683,5.11875512 26.5097403,4.70925471 C27.0075758,4.66830467 27.463925,4.66830467 27.9617605,4.58640459 L30.1605339,4.34070434 C30.741342,4.25880426 31.2806638,4.34070434 31.8199856,4.54545455 L33.6868687,5.24160524 L37.1717172,5.24160524 L37.1717172,0.40950041 L34.5995671,0.327600328 Z" id="Path" fill="#5959EF"></path>
                            <path d="M22.6930014,2.98935299 C13.7734488,4.17690418 6.88672439,6.18345618 4.64646465,6.87960688 C4.19011544,7.04340704 3.85822511,7.45290745 3.85822511,7.94430794 L3.85822511,8.96805897 L7.21861472,8.64045864 L7.21861472,8.10810811 C7.21861472,7.86240786 7.38455988,7.61670762 7.67496392,7.53480753 C9.66630592,7.04340704 18.2539683,5.03685504 26.5097403,4.62735463 C27.0075758,4.58640459 27.463925,4.58640459 27.9617605,4.5045045 L30.1605339,4.25880426 C30.741342,4.17690418 31.2806638,4.25880426 31.8199856,4.46355446 L33.6868687,5.15970516 L34.8069986,5.15970516 L34.9314574,1.92465192 C34.8484848,2.00655201 33.6453824,1.55610156 22.6930014,2.98935299 Z" id="Path" fill="#3C3AC4" opacity="0.6"></path>
                        </g>
                        <g id="Group" transform="translate(38.419913, 107.142857)" fill-rule="nonzero">
                            <path d="M32.4007937,9.95085995 L32.4007937,9.95085995 L34.1017316,9.70515971 C34.2676768,9.66420966 34.4751082,9.62325962 34.6825397,9.62325962 C34.6825397,9.62325962 34.6825397,9.62325962 34.724026,9.62325962 L34.724026,9.62325962 L34.724026,9.62325962 C35.8856421,9.62325962 36.8398268,10.7289107 36.8398268,12.039312 C36.8398268,13.2678133 36.010101,14.2915643 34.9314574,14.4553645 L32.732684,14.7829648 L32.732684,14.7829648 C32.6497114,14.7829648 32.6082251,14.7829648 32.5252525,14.7829648 C31.3221501,14.7829648 30.3679654,13.7182637 30.3679654,12.3669124 C30.3679654,11.0565111 31.2806638,10.03276 32.4007937,9.95085995 Z" id="Path" fill="#726EFB"></path>
                            <ellipse id="Oval" fill="#8C8CF9" cx="32.3593074" cy="12.4488124" rx="1.90836941" ry="2.12940213"></ellipse>
                            <ellipse id="Oval" fill="#3C3AC4" opacity="0.2" cx="32.3593074" cy="12.4488124" rx="1.65945166" ry="1.84275184"></ellipse>
                            <path d="M34.1017316,8.43570844 L34.1017316,9.21375921 L35.1388889,9.25470925 C35.1388889,9.25470925 37.1717172,9.62325962 37.0472583,12.4897625 C37.0472583,12.6126126 36.9642857,12.6945127 36.8398268,12.7354627 L34.9729437,13.3087633 C34.8069986,13.3497133 34.6410534,13.2268632 34.6410534,13.0630631 C34.5995671,12.2850123 34.3921356,10.5241605 33.1475469,10.1965602 C31.1562049,9.66420966 30.4924242,11.5888616 30.4924242,11.5888616 L30.4094517,11.5069615 L30.4094517,8.47665848 L34.1017316,8.47665848 L34.1017316,8.43570844 Z" id="Path" fill="#3C3AC4"></path>
                            <path d="M2.61363636,0.327600328 L2.98701299,0.368550369 C2.98701299,0.368550369 7.59199134,0.163800164 14.5616883,1.31040131 C21.1165224,2.37510238 32.1518759,5.8968059 33.5209235,6.34725635 C33.6453824,6.38820639 33.728355,6.42915643 33.8113276,6.51105651 C33.9772727,6.67485667 34.2676768,6.96150696 34.3506494,7.33005733 C34.4336219,7.86240786 34.3506494,8.72235872 34.3506494,8.72235872 L33.3964646,9.04995905 L29.9945887,8.72235872 L29.9945887,8.19000819 C29.9945887,7.94430794 29.8286436,7.6986077 29.5382395,7.61670762 C27.5468975,7.12530713 18.9592352,5.11875512 10.7034632,4.70925471 C10.2056277,4.66830467 9.7492785,4.66830467 9.251443,4.58640459 L7.05266955,4.34070434 C6.47186147,4.25880426 5.93253968,4.34070434 5.39321789,4.54545455 L3.52633478,5.24160524 L0.0414862915,5.24160524 L0.0414862915,0.40950041 L2.61363636,0.327600328 Z" id="Path" fill="#5959EF"></path>
                            <path d="M14.520202,2.98935299 C23.4397547,4.17690418 30.3264791,6.18345618 32.5667388,6.87960688 C33.023088,7.04340704 33.3549784,7.45290745 33.3549784,7.94430794 L33.3549784,8.96805897 L29.9945887,8.64045864 L29.9945887,8.10810811 C29.9945887,7.86240786 29.8286436,7.61670762 29.5382395,7.53480753 C27.5468975,7.04340704 18.9592352,5.03685504 10.7034632,4.62735463 C10.2056277,4.58640459 9.7492785,4.58640459 9.251443,4.5045045 L7.05266955,4.25880426 C6.47186147,4.17690418 5.93253968,4.25880426 5.39321789,4.46355446 L3.52633478,5.15970516 L2.48917749,5.15970516 L2.36471861,1.92465192 C2.36471861,2.00655201 3.56782107,1.55610156 14.520202,2.98935299 Z" id="Path" fill="#3C3AC4" opacity="0.6"></path>
                        </g>
                        <g id="Group" transform="translate(33.549784, 108.225108)" fill-rule="nonzero">
                            <g transform="translate(0.865801, 11.865167)">
                                <path d="M4.58874459,0.122743111 L4.58874459,0.122743111 L2.85714286,0.0409143702 C2.68398268,0 2.46753247,0 2.29437229,0 C2.29437229,0 2.29437229,0 2.25108225,0 L2.25108225,0 L2.25108225,0 C1.08225108,0.122743111 0.173160173,1.26834548 0.25974026,2.53669095 C0.303030303,3.72320769 1.21212121,4.6642382 2.29437229,4.70515257 L4.5021645,4.82789568 L4.5021645,4.82789568 C4.58874459,4.82789568 4.63203463,4.82789568 4.71861472,4.82789568 C5.88744589,4.70515257 6.7965368,3.60046458 6.75324675,2.29120473 C6.66666667,1.02285925 5.71428571,0.0818287404 4.58874459,0.122743111 Z" id="Path" fill="#726EFB"></path>
                                <ellipse id="Oval" fill="#8C8CF9" transform="translate(4.730310, 2.573447) rotate(-84.409930) translate(-4.730310, -2.573447) " cx="4.73030955" cy="2.57344733" rx="2.08771473" ry="1.90372232"></ellipse>
                                <ellipse id="Oval" fill="#3C3AC4" opacity="0.2" transform="translate(4.730310, 2.573447) rotate(-84.409930) translate(-4.730310, -2.573447) " cx="4.73030955" cy="2.57344733" rx="1.8011657" ry="1.64412376"></ellipse>
                            </g>
                            <path d="M0.649350649,15.2610601 C0.519480519,15.2610601 0.38961039,15.138317 0.38961039,15.0155739 C0.38961039,14.1972865 0.562770563,11.3741949 3.41991342,11.5378524 L3.41991342,10.2695069 C3.41991342,10.2695069 7.48917749,10.2695069 7.48917749,10.2695069 C7.48917749,10.2695069 7.48917749,13.8699715 7.48917749,13.8699715 C7.48917749,13.8699715 6.96969697,12.1515679 5.58441558,12.1515679 C4.28571429,12.1515679 3.54978355,13.9108859 3.46320346,15.2201457 C3.46320346,15.3428888 3.33333333,15.4656319 3.16017316,15.4656319 L0.649350649,15.2610601 Z" id="Path" fill="#3C3AC4"></path>
                            <path d="M2.94372294,0.327314961 L2.94372294,10.2285925 C2.94372294,10.4331644 3.11688312,10.6377362 3.33333333,10.6786506 L4.45887446,10.9650512 C4.63203463,11.0059656 4.80519481,11.0468799 4.97835498,11.0468799 L6.36363636,11.0468799 C6.58008658,11.0468799 6.83982684,11.0059656 7.05627706,10.9241368 L7.92207792,10.6377362 C8.0952381,10.5559075 8.22510823,10.39225 8.26839827,10.2285925 L8.65800866,0.368229332 L2.94372294,0.327314961 Z" id="Path" fill="#5959EF"></path>
                        </g>
                    </g>
                </g>
            </g>
        </g>
    </g>
</svg>