<svg xmlns="http://www.w3.org/2000/svg" width="125" height="125" viewBox="0 0 125 125">
    <defs>
        <linearGradient id="a" x1="95.656%" x2="-2.65%" y1="54.906%" y2="46.284%">
            <stop offset="0%" stop-color="#3C3AC4"/>
            <stop offset="100%" stop-color="#3C3AC4" stop-opacity="0"/>
        </linearGradient>
    </defs>
    <g fill="none" fill-rule="evenodd">
        <g fill-rule="nonzero">
            <path fill="#88F" d="M37.712 88.3c-.5.375-.832.918-1.04 1.502l-.75 2.129s-.416 1.461.791 1.879c2.373.793 3.164-1.336 3.164-1.336l.832-1.545c.292-.5.833-.793 1.416-.751l9.99.96.25-2.213-12.405-1.252c-.874-.083-1.623.125-2.248.626z"/>
            <path fill="#3C3AC4" d="M37.712 88.3c-.5.375-.832.918-1.04 1.502l-.75 2.129s-.416 1.461.791 1.879c2.373.793 3.164-1.336 3.164-1.336l.832-1.545c.292-.5.833-.793 1.416-.751l9.99.96.25-2.213-12.405-1.252c-.874-.083-1.623.125-2.248.626z" opacity=".2"/>
            <path fill="#88F" d="M39.627 91.806l.833-1.545c.29-.5.832-.793 1.415-.751l10.24.96.166-1.586-12.404-1.21c-.791-.084-1.54.166-2.165.667-.5.376-.832.918-1.04 1.503l-.75 2.129s-.083.334-.083.71c.125.208.333.417.666.542 2.373.71 3.122-1.42 3.122-1.42z"/>
            <path fill="#5959EF" d="M46.37 85.628l.458 2.713c.083.46.333.877.75 1.169l11.113 7.389a6 6 0 0 0 1.665.751c.958.25 2.498.584 4.121.626 2.623.042 3.372-.543 3.497-1.252.083-.585.374-2.714.458-3.465.041-.167-.042-.376-.167-.5l-2.706-2.714c-.124-.125-.208-.292-.29-.46l-.21-.5a.934.934 0 0 1 .084-.877l.416-.668c.209-.334.542-.584.916-.668l6.619-1.46s.333-.543.083-1.629L46.37 85.628z"/>
        </g>
        <path fill="#3C3AC4" fill-rule="nonzero" d="M64.78 88.088c.21-.326.543-.571.919-.653l6.635-1.428s.334-.53.084-1.591l-11.477.612-.876 1.06.918 3.959a3.786 3.786 0 0 0 1.169 2l5.09 4.814c.126-.734.335-2.57.418-3.264.042-.163-.042-.367-.167-.49l-2.712-2.652c-.126-.123-.209-.286-.292-.449l-.21-.49a.894.894 0 0 1 .084-.857l.418-.57z" opacity=".7"/>
        <path fill="#726EFB" fill-rule="nonzero" d="M50.866 52.508s-4.903-1.721-10.886-1.64c-3.947.042-8.393.615-12.132 3.034-5.194 3.402-3.407 8.771-2.16 11.354.914 1.885 4.32 7.255 4.32 7.255l3.615-2.828-2.784-5.534s-2.617-5.37.582-7.747c3.2-2.377 11.094-2.377 15.58-1.64l2.91.574.955-2.828z"/>
        <path fill="#726EFB" fill-rule="nonzero" d="M67.775 1.895s-2.735.948-4.061 4.573c-1.368 3.79-2.695 13.06-3.565 16.396-.87 3.337-5.554 20.599-8.497 24.76 0 0-2.32 4.696-2.818 9.598-.497 4.903.456 8.734 1.99 11.989l8.496 10.876 34.443-1.113s3.564-1.277 2.777-12.07C95.71 56.11 97.659 50.59 97.659 50.59s1.99-12.936-.207-25.295c-1.99-11.164-2.28-18.58-6.715-22.7-.912-.865-2.03-1.441-3.274-1.73A33.19 33.19 0 0 0 79.878 0c-7.46 0-12.103 1.895-12.103 1.895z"/>
        <path fill="#8C8CF9" fill-rule="nonzero" d="M95.398 25.832C93.94 14.816 93.234 7.555 88.989 3.388c-1.04-1.032-2.33-1.692-3.745-2.022a33.552 33.552 0 0 0-7.49-.825c-4.16 0-7.49.578-9.57 1.114a6.757 6.757 0 0 1-.333.124s-2.746.949-4.078 4.58c-1.373 3.795-2.705 13.078-3.579 16.42-.873 3.342-5.576 20.63-8.53 24.796 0 0-2.33 4.704-2.83 9.613-.499 4.91.458 8.747 1.998 12.006l8.53 10.893 34.58-1.114.166-.083c-.416-1.403-1.29-4.827-1.79-11.346-.832-10.81.625-15.76.625-15.76s4.077-13.533 2.455-25.952z"/>
        <g stroke="#726EFB" stroke-linecap="round" stroke-linejoin="round" stroke-width=".5">
            <path d="M66.707 22.477s16.314.456 22.374 0M66.707 29.034s16.314-.457 22.374 0"/>
            <path d="M66.333 36.213s3.28-6.017 3.57-7.18c0 0 3.653 9.546 5.521 18.551 1.868 9.006 3.819 18.26 6.89 23.157"/>
            <path d="M63.593 45.634c7.929-10.002 10.461-16.766 10.461-16.766 4.027 8.175 4.981 21.995 8.551 30.129"/>
            <path d="M60.895 57.669c4.4-11.164 12.869-16.393 17.56-28.718 0 0 5.188 13.902 6.226 27.182"/>
            <path d="M60.522 67.172c1.41-12.491 18.887-27.016 21.751-38.304 0 0 3.404 7.885 4.733 16.558"/>
            <path d="M61.684 74.85c2.449-18.592 19.427-30.835 24.491-45.816l2.906 8.258M66.707 73.521c-.872-13.57 19.095-29.713 22.79-43.616M71.356 71.612c-1.37-10.955 16.23-26.061 18.887-35.316M75.424 71.737c-1.826-7.595 12.038-21.331 12.038-21.331M66.707 31.482c5.106 12.948 7.057 32.121 12.453 40.13M65.088 39.99c3.196 7.802 5.977 26.642 11.955 34.403M63.344 48c2.782 6.058 4.317 19.753 9.133 25.729M61.6 54.473c1.62 6.557 3.239 14.857 7.265 20.086M60.439 64.64c1.494 4.565 3.445 9.006 5.687 12.367"/>
        </g>
        <path fill="#8C8CF9" fill-rule="nonzero" d="M61.468 75.216c-1.858-10.577-.702-20.534 1.527-25.988 2.23-5.454 3.964-17.27 4.088-19.667.124-2.396-.454-12.395-1.321-18.055-.62-3.925.247-7.189.867-8.8-.909.62-2.189 1.818-2.973 4.007-1.363 3.801-2.684 13.098-3.55 16.444-.868 3.347-5.533 20.659-8.465 24.832 0 0-2.312 4.71-2.808 9.627-.495 4.916.455 8.759 1.982 12.023l3.881 5.04 6.772.537zM95.397 26.298c-1.569-12.085-2.271-19.633-7.681-23.592 0 0-1.074 9.074.33 17.075 1.405 8.002.33 18.066-.124 20.458-.495 2.35-4.005 12.085-4.047 17.776-.041 5.692 1.446 16.127 4.13 20.128.372.536.743.99 1.115 1.402l4.873-.165s.083-.04.165-.082c-.413-1.402-1.28-4.826-1.775-11.342-.826-10.807.62-15.756.62-15.756s4.005-13.487 2.394-25.902z"/>
        <path stroke="#726EFB" stroke-linecap="round" stroke-linejoin="round" stroke-width=".5" d="M61.523 75.216c-1.84-10.607-.695-20.593 1.513-26.062 2.207-5.47 3.924-17.32 4.047-19.723.123-2.403-.45-12.43-1.308-18.107-.572-3.77.204-6.961.777-8.618M87.441 2.706c-.153 1.486-.882 9.744.307 17.01 1.303 8.011.306 18.086-.115 20.48-.46 2.354-3.72 12.098-3.758 17.796-.038 5.698 1.342 16.145 3.834 20.15.345.536.69.99 1.036 1.403"/>
        <path fill="#8C8CF9" fill-rule="nonzero" d="M51.578 69.423s-8.096-2.487-14.384-1.326c-6.288 1.16-7.727 3.896-7.932 5.14-.206 1.243 1.562 7.584 1.562 7.584s.328 1.12 1.274 1.45c0 0-.083 1.12 1.438 1.907 1.52.788 11.097 2.404 17.96 2.612 6.863.207 11.713.041 14.795-1.037 3.083-1.077 6.288-1.492 7.645-1.45 1.356.041 4.972-.125 7.274-.746 2.301-.622 10.11-2.321 10.11-2.321s2.877-.746 2.671-3.275l-1.52-4.227c-.247-.622-.699-1.161-1.274-1.451-1.973-.995-6.74-3.233-10.07-3.316-4.273-.083-12.123 2.072-14.055 2.694-1.973.622-7.233 1.036-7.233 1.036s-4.85-2.072-8.26-3.274z"/>
        <path fill="#3C3AC4" fill-rule="nonzero" d="M82.607 69.174c-4.603.995-10.603 4.27-13.357 6.217-3.37 2.404-7.685 3.15-7.685 3.15-6.206.954-29.262-1.865-30.618-2.528a6.154 6.154 0 0 1-1.603-1.243c.37 2.28 1.397 6.051 1.397 6.051s.33 1.12 1.274 1.45c0 0-.082 1.12 1.439 1.907 1.52.788 11.096 2.404 17.96 2.612 6.863.207 11.713.041 14.795-1.037 3.082-1.077 6.288-1.492 7.644-1.45 1.357.041 4.973-.125 7.275-.746 2.301-.622 10.11-2.321 10.11-2.321s2.877-.746 2.671-3.275l-1.52-4.227a2.916 2.916 0 0 0-1.274-1.451c-1.685-.83-5.384-2.57-8.508-3.109z" opacity=".2"/>
        <path stroke="#3C3AC4" stroke-width=".5" d="M32.057 82.272s1.48 1.036 4.11 1.575c2.63.539 18.617 2.528 26.713 1.202 0 0 2.754-.456 4.932-1.285 2.178-.829 5.836-2.238 9-2.363 1.316-.082 2.302-.165 3-.207a2.631 2.631 0 0 0 2.014-1.326l1.192-2.114 5.466 1.74s1.274.457 2.425.167c1.15-.29 3-1.658 3-1.658" opacity=".2"/>
        <path fill="#5959EF" fill-rule="nonzero" d="M80.48 63.942l-.293.892s-.967 7.22 3.11 14.766c.168.324.504.487.882.487h2.312c.588 0 1.177-.203 1.597-.528l.588-.446a.55.55 0 0 0 .169-.69c-.715-1.784-3.53-9.126-2.942-14.927.714-6.653 4.202-8.113 5.38-8.397 1.176-.284 2.815-.487 3.908-.406 0 0 .546 3.61 3.446 3.164 2.9-.446 2.27-3.61.589-4.097-1.682-.486-9.457-.73-9.457-.73s-7.65 1.42-9.288 10.912z"/>
        <path fill="#726EFB" fill-rule="nonzero" d="M79.725 64.944s-.123.532 1.358.532c1.112 0 2.387-.245 2.387-.245s1.03-.164 1.153-1.27c.082-1.104.205-4.624 1.728-6.752 1.4-2.005 3.375-3.11 7.49-3.437 4.074-.287 5.185.081 5.185.081s-.123-.654-.947-1.105c-.823-.45-4.156-1.268-4.156-1.268s-.453-.164-1.81 0c-1.359.163-6.75.86-9.219 2.946-2.469 2.088-3.868 4.993-3.169 10.518z"/>
        <path fill="#3C3AC4" fill-rule="nonzero" d="M84.77 64.219c.082-1.132.204-4.737 1.711-6.917 1.385-2.054 3.34-3.186 7.413-3.52 4.032-.294 5.132.083 5.132.083s-.081-.335-.407-.713c-1.263-.21-5.947-.335-9.775 1.258-4.44 1.886-4.97 8.048-4.97 11.066.286-.084.815-.419.897-1.257z" opacity=".6"/>
        <path fill="url(#a)" fill-rule="nonzero" d="M35.173 72.839s-4.752-2.012-8.152-3.117c0 0-7.045-2.05-13.108-1.42-3.318.75-2.744 1.775-1.884 2.407.45.355 1.024.591 1.597.71 10.815 2.445 21.547 1.42 21.547 1.42z" transform="translate(24.35)"/>
        <g fill-rule="nonzero" transform="translate(61.688 99.026)">
            <path fill="#3C3AC4" d="M.208.618v6.687c0 .27 1.082.541 2.414.541s2.415-.232 2.415-.54V.617H.208z"/>
            <ellipse cx="2.622" cy=".618" fill="#726EFB" rx="2.414" ry="1"/>
        </g>
        <path fill="#3C3AC4" fill-rule="nonzero" d="M63.853 96.861c-.601 0-1.082.12-1.082.24v2.227c0 .12.48.24 1.082.24.601 0 1.082-.12 1.082-.24V97.1c0-.12-.48-.239-1.082-.239z"/>
        <g fill-rule="nonzero" transform="translate(27.597 107.143)">
            <path fill="#726EFB" d="M4.812 9.95l-1.7-.245a2.478 2.478 0 0 0-.581-.082h-.042C1.328 9.623.373 10.73.373 12.04c0 1.229.83 2.253 1.909 2.416l2.199.328h.207c1.203 0 2.157-1.065 2.157-2.416 0-1.31-.912-2.334-2.033-2.416z"/>
            <ellipse cx="4.854" cy="12.449" fill="#8C8CF9" rx="1.908" ry="2.129"/>
            <ellipse cx="4.854" cy="12.449" fill="#3C3AC4" opacity=".2" rx="1.659" ry="1.843"/>
            <path fill="#3C3AC4" d="M3.111 8.436v.778l-1.037.04S.041 9.625.166 12.49c0 .123.083.205.207.245l1.867.574c.166.04.332-.082.332-.246.042-.778.25-2.539 1.494-2.866 1.991-.533 2.655 1.392 2.655 1.392l.083-.082v-3.03H3.11v-.041z"/>
            <path fill="#5959EF" d="M34.6.328l-.374.04s-4.605-.204-11.574.942c-6.555 1.065-17.59 4.587-18.96 5.037a.67.67 0 0 0-.29.164c-.166.164-.456.45-.54.82-.082.531 0 1.391 0 1.391l.955.328 3.402-.328V8.19c0-.246.166-.491.456-.573 1.991-.492 10.579-2.498 18.835-2.908.498-.04.954-.04 1.452-.123l2.199-.245c.58-.082 1.12 0 1.659.204l1.867.697h3.485V.41L34.6.328z"/>
            <path fill="#3C3AC4" d="M22.693 2.99C13.773 4.176 6.887 6.182 4.646 6.88c-.456.163-.788.573-.788 1.064v1.024l3.36-.328v-.532c0-.246.167-.491.457-.573 1.991-.492 10.579-2.498 18.835-2.908.498-.04.954-.04 1.452-.122l2.199-.246c.58-.082 1.12 0 1.659.205l1.867.696h1.12l.124-3.235c-.083.082-1.286-.369-12.238 1.064z" opacity=".6"/>
        </g>
        <g fill-rule="nonzero" transform="translate(62.77 107.143)">
            <path fill="#726EFB" d="M32.4 9.95l1.702-.245c.166-.04.373-.082.58-.082h.042c1.162 0 2.116 1.106 2.116 2.416 0 1.229-.83 2.253-1.909 2.416l-2.198.328h-.208c-1.203 0-2.157-1.065-2.157-2.416 0-1.31.913-2.334 2.033-2.416z"/>
            <ellipse cx="32.359" cy="12.449" fill="#8C8CF9" rx="1.908" ry="2.129"/>
            <ellipse cx="32.359" cy="12.449" fill="#3C3AC4" opacity=".2" rx="1.659" ry="1.843"/>
            <path fill="#3C3AC4" d="M34.102 8.436v.778l1.037.04s2.033.37 1.908 3.236c0 .123-.083.205-.207.245l-1.867.574c-.166.04-.332-.082-.332-.246-.041-.778-.249-2.539-1.493-2.866-1.992-.533-2.656 1.392-2.656 1.392l-.083-.082v-3.03h3.693v-.041z"/>
            <path fill="#5959EF" d="M2.614.328l.373.04s4.605-.204 11.575.942c6.555 1.065 17.59 4.587 18.959 5.037a.67.67 0 0 1 .29.164c.166.164.457.45.54.82.083.531 0 1.391 0 1.391l-.955.328-3.401-.328V8.19a.604.604 0 0 0-.457-.573c-1.991-.492-10.579-2.498-18.835-2.908-.497-.04-.954-.04-1.452-.123l-2.198-.245c-.581-.082-1.12 0-1.66.204l-1.867.697H.041V.41L2.614.328z"/>
            <path fill="#3C3AC4" d="M14.52 2.99c8.92 1.187 15.806 3.193 18.047 3.89.456.163.788.573.788 1.064v1.024l-3.36-.328v-.532a.604.604 0 0 0-.457-.573c-1.991-.492-10.579-2.498-18.835-2.908-.497-.04-.954-.04-1.452-.122l-2.198-.246c-.581-.082-1.12 0-1.66.205l-1.867.696H2.49l-.124-3.235c0 .082 1.203-.369 12.155 1.064z" opacity=".6"/>
        </g>
        <g fill-rule="nonzero">
            <g transform="translate(58.766 120.09)">
                <path fill="#726EFB" d="M4.589.123L2.857.04C2.684 0 2.467 0 2.294 0h-.043C1.082.123.173 1.268.26 2.537c.043 1.186.952 2.127 2.034 2.168l2.208.123h.217C5.887 4.705 6.797 3.6 6.753 2.29 6.667 1.023 5.714.081 4.59.123z"/>
                <ellipse cx="4.73" cy="2.573" fill="#8C8CF9" rx="2.088" ry="1.904" transform="rotate(-84.41 4.73 2.573)"/>
                <ellipse cx="4.73" cy="2.573" fill="#3C3AC4" opacity=".2" rx="1.801" ry="1.644" transform="rotate(-84.41 4.73 2.573)"/>
            </g>
            <path fill="#3C3AC4" d="M58.55 123.486c-.13 0-.26-.123-.26-.245 0-.819.173-3.642 3.03-3.478v-1.268h4.07v3.6s-.52-1.718-1.905-1.718c-1.299 0-2.035 1.759-2.121 3.068 0 .123-.13.246-.303.246l-2.511-.205z"/>
            <path fill="#5959EF" d="M60.844 108.552v9.902c0 .204.173.409.39.45l1.125.286c.173.041.347.082.52.082h1.385c.217 0 .476-.04.693-.123l.866-.286a.658.658 0 0 0 .346-.41l.39-9.86-5.715-.04z"/>
        </g>
    </g>
</svg>
