<svg xmlns="http://www.w3.org/2000/svg" width="21" height="21" viewBox="0 0 21 21">
    <g fill="none" fill-rule="evenodd" stroke="#707070" stroke-linecap="round" stroke-linejoin="round" transform="translate(3.15 1.05)">
        <path d="M9.021 9.965l-4.093 4.092"/>
        <circle cx="5.085" cy="10.122" r="1.138"/>
        <circle cx="8.803" cy="13.839" r="1.114"/>
        <path d="M10.165 5.967c1.75 1.825 3.553 4.303 3.553 6.76 0 3.48-3.05 6.476-6.816 6.476S.085 16.218.085 12.727c0-2.612 1.799-4.919 3.64-6.76M9.613 1.638C9.976.621 9.989.012 9.989.012H3.814s.052.718.355 1.626M10.038 4.637H3.766a.92.92 0 1 1 0-1.84h6.272a.92.92 0 1 1 0 1.84z"/>
    </g>
</svg>
