<svg xmlns="http://www.w3.org/2000/svg" width="15" height="15" viewBox="0 0 15 15">
    <g fill="none" fill-rule="evenodd" stroke="#54527B" stroke-linecap="round" stroke-linejoin="round" stroke-width=".7">
        <path d="M11.642 14.118h-8.57a1.04 1.04 0 0 1-1.037-1.037V1.797C2.035 1.227 2.5.76 3.07.76h8.571c.57 0 1.037.467 1.037 1.037v11.284a1.04 1.04 0 0 1-1.037 1.037z"/>
        <path d="M10.364 4.754H4.636C4.286 4.754 4 4.4 4 3.968v-.182C4 3.354 4.286 3 4.636 3h5.728c.35 0 .636.354.636.786v.182c0 .432-.286.786-.636.786zM5.974 8.951H4.791a.62.62 0 0 1-.622-.622v-.328a.62.62 0 0 1 .622-.622h1.183A.62.62 0 0 1 6.596 8v.328a.62.62 0 0 1-.622.622zM9.923 8.951H8.739a.62.62 0 0 1-.622-.622v-.328a.62.62 0 0 1 .622-.622h1.184a.62.62 0 0 1 .622.622v.328a.63.63 0 0 1-.622.622zM5.974 11.69H4.791a.62.62 0 0 1-.622-.622v-.328a.62.62 0 0 1 .622-.622h1.183a.62.62 0 0 1 .622.622v.328a.62.62 0 0 1-.622.622zM9.923 11.69H8.739a.62.62 0 0 1-.622-.622v-.328a.62.62 0 0 1 .622-.622h1.184a.62.62 0 0 1 .622.622v.328a.63.63 0 0 1-.622.622z"/>
    </g>
</svg>
