<?xml version="1.0" encoding="UTF-8"?>
<svg width="91px" height="30px" viewBox="0 0 91 30" version="1.1" xmlns="http://www.w3.org/2000/svg" xmlns:xlink="http://www.w3.org/1999/xlink">
    <!-- Generator: Sketch 60 (88103) - https://sketch.com -->
    <title>Experian_New Logo</title>
    <desc>Created with Sketch.</desc>
    <g id="Eligibility" stroke="none" stroke-width="1" fill="none" fill-rule="evenodd">
        <g id="Experian-scroll-3" transform="translate(-363.000000, -572.000000)" fill-rule="nonzero">
            <g id="Group-10" transform="translate(363.000000, 551.000000)">
                <g id="Experian_New-Logo" transform="translate(-0.000000, 21.000000)">
                    <path d="M14.3547106,6.93485122 L11.0433811,6.93485122 C10.0583039,6.93485122 9.2611036,6.13637459 9.2611036,5.15359482 L9.2611036,1.84226527 C9.2611036,0.859230317 10.0583039,0.0610089403 11.0433811,0.0610089403 L14.3547106,0.0610089403 C15.3385114,0.0610089403 16.135967,0.859230317 16.135967,1.84226527 L16.135967,5.15359482 C16.135967,6.13637459 15.3385114,6.93485122 14.3547106,6.93485122" id="Path" fill="#3776C3"></path>
                    <path d="M5.78921084,14.3567528 L2.06383743,14.3567528 C0.957763526,14.3567528 0.0599878704,13.4622956 0.0599878704,12.3539242 L0.0599878704,8.62752979 C0.0599878704,7.52120057 0.957763526,6.62342491 2.06383743,6.62342491 L5.78921084,6.62342491 C6.89656107,6.62342491 7.79433679,7.52120057 7.79433679,8.62752979 L7.79433679,12.3539242 C7.79433679,13.4622956 6.89656107,14.3567528 5.78921084,14.3567528" id="Path" fill="#672891"></path>
                    <path d="M5.43413378,22.0890595 L3.15919014,22.0890595 C2.48324189,22.0890595 1.93390631,21.540745 1.93390631,20.8635204 L1.93390631,18.5898531 C1.93390631,17.9105864 2.48324189,17.3622719 3.15919014,17.3622719 L5.43413378,17.3622719 C6.11135835,17.3622719 6.65941761,17.9105864 6.65941761,18.5898531 L6.65941761,20.8635204 C6.65941761,21.540745 6.11135835,22.0890595 5.43413378,22.0890595" id="Path" fill="#A02899"></path>
                    <path d="M11.5424289,29.277136 L8.85267566,29.277136 C8.05317796,29.277136 7.40556442,28.6305435 7.40556442,27.8300248 L7.40556442,25.1392505 C7.40556442,24.3387317 8.05317796,23.6921391 8.85267566,23.6921391 L11.5424289,23.6921391 C12.3429477,23.6921391 12.9905613,24.3387317 12.9905613,25.1392505 L12.9905613,27.8300248 C12.9905613,28.6305435 12.3429477,29.277136 11.5424289,29.277136" id="Path" fill="#D92095"></path>
                    <path d="M21.4008584,8.29006617 L19.5366401,8.29006617 C18.982965,8.29006617 18.5352259,7.84002961 18.5352259,7.28763082 L18.5352259,5.42647579 C18.5352259,4.87280061 18.982965,4.42276412 19.5366401,4.42276412 L21.4008584,4.42276412 C21.9535125,4.42276412 22.4012516,4.87280061 22.4012516,5.42647579 L22.4012516,7.28763082 C22.4012516,7.84002961 21.9535125,8.29006617 21.4008584,8.29006617" id="Path" fill="#D92095"></path>
                    <path d="M62.1859623,9.53398451 C62.7779275,9.53398451 63.2573198,9.05459224 63.2573198,8.46032959 C63.2573198,7.86734325 62.7779275,7.38565353 62.1859623,7.38565353 C61.5929759,7.38565353 61.1092441,7.86734325 61.1092441,8.46032959 C61.1092441,9.05459224 61.5929759,9.53398451 62.1859623,9.53398451" id="Path" fill="#2557A1"></path>
                    <path d="M22.9812193,20.9903883 C22.8142744,21.2392741 22.5444566,21.3638446 22.2539623,21.3638446 C22.0877831,21.3638446 21.9011826,21.322236 21.7559354,21.2392741 C21.527471,21.0940269 21.3605262,20.7828559 21.3605262,20.4714296 C21.3605262,20.3261824 21.4031558,20.1809352 21.4861178,20.05662 L23.977273,16.1326485 L21.4861178,12.208677 C21.4031558,12.0841065 21.3605262,11.9181826 21.3605262,11.7716591 C21.3605262,11.4811647 21.5067944,11.1699937 21.7766121,11.0247465 C21.9218593,10.9417846 22.0671065,10.900176 22.2330303,10.900176 C22.52378,10.900176 22.8142744,11.0247465 22.9812193,11.2749086 L25.0159562,14.4920445 L27.0700936,11.2749086 C27.2372937,11.0247465 27.5277881,10.900176 27.8182824,10.900176 C27.9842063,10.900176 28.1294535,10.9417846 28.2747007,11.0247465 C28.5445184,11.1699937 28.6897656,11.4811647 28.6897656,11.7716591 C28.6897656,11.9181826 28.648157,12.0841065 28.5651951,12.208677 L26.0740399,16.1326485 L28.5651951,20.05662 C28.648157,20.1809352 28.6897656,20.3261824 28.6897656,20.4714296 C28.6897656,20.7828559 28.5235865,21.0940269 28.2953774,21.2392741 C28.1501301,21.322236 27.9635297,21.3638446 27.7976058,21.3638446 C27.5068561,21.3638446 27.2372937,21.2392741 27.0700936,20.9903883 L25.0159562,17.7936739" id="Path" fill="#2557A1"></path>
                    <path d="M35.4346978,12.5418011 C33.4415695,12.5418011 31.863506,14.1185882 31.863506,16.1326485 C31.863506,18.1257769 33.4415695,19.7038403 35.4346978,19.7038403 C37.4485028,19.7038403 39.0255452,18.1257769 39.0255452,16.1326485 C39.0255452,14.1185882 37.4485028,12.5418011 35.4346978,12.5418011 M31.863506,12.1254598 C32.7972744,11.2749086 34.0641668,10.7549288 35.4346978,10.7549288 C38.4249009,10.7549288 40.8121622,13.1434665 40.8121622,16.1326485 C40.8121622,19.081243 38.4249009,21.4685043 35.4346978,21.4685043 C34.0641668,21.4685043 32.7972744,20.9487798 31.863506,20.0979732 L31.863506,24.6861507 C31.863506,25.1425689 31.4484411,25.5379782 30.9710909,25.5379782 C30.5343283,25.5379782 30.0985867,25.1425689 30.0985867,24.6861507 L30.0985867,11.6897183 C30.0985867,11.2333001 30.5343283,10.8378907 30.9710909,10.8378907 C31.4484411,10.8378907 31.863506,11.2333001 31.863506,11.6897183" id="Shape" fill="#2557A1"></path>
                    <path d="M56.0123187,15.1562505 L56.0123187,20.5337148 C56.0123187,20.9901331 55.5765771,21.3845213 55.1395592,21.3845213 C54.6624643,21.3845213 54.2473994,20.9901331 54.2473994,20.5337148 L54.2473994,11.6897183 C54.2473994,11.232279 54.6624643,10.8378907 55.1395592,10.8378907 C55.5559004,10.8378907 55.9903656,11.211347 56.0123187,11.6483649 C56.7385546,11.0880528 57.673344,10.7756055 58.6900743,10.7549288 C59.2514075,10.7549288 59.6654513,11.1906704 59.6654513,11.627433 C59.6654513,12.1047832 59.2297098,12.5405247 58.6900743,12.5405247 C57.2998877,12.5821333 56.0123187,13.0801601 56.0123187,15.1562505 L49.272747,5.55462002" id="Path" fill="#2557A1"></path>
                    <path d="M62.1979598,10.8378907 C61.7208649,10.8378907 61.3058,11.232279 61.3058,11.6897183 L61.3058,20.5337148 C61.3058,20.9901331 61.7208649,21.3845213 62.1979598,21.3845213 C62.6349777,21.3845213 63.0707193,20.9901331 63.0707193,20.5337148 L63.0707193,11.6897183 C63.0707193,11.232279 62.6349777,10.8378907 62.1979598,10.8378907" id="Path" fill="#2557A1"></path>
                    <path d="M69.9006555,19.6829084 C71.8937839,19.6829084 73.4728685,18.1048449 73.4728685,16.0910399 C73.4728685,14.0979115 71.8937839,12.5198481 69.9006555,12.5198481 C67.8868505,12.5198481 66.3098082,14.0979115 66.3098082,16.0910399 C66.3098082,18.1048449 67.8868505,19.6829084 69.9006555,19.6829084 M73.4728685,11.6886972 C73.4728685,11.232279 73.8869123,10.8378907 74.3652835,10.8378907 C74.8010251,10.8378907 75.2367666,11.232279 75.2367666,11.6886972 L75.2367666,20.5337148 C75.2367666,20.9903883 74.8010251,21.3845213 74.3652835,21.3845213 C73.8869123,21.3845213 73.4728685,20.9903883 73.4728685,20.5337148 L73.4728685,20.0979732 C72.5174023,20.9487798 71.2711866,21.4674832 69.9006555,21.4674832 C66.9114736,21.4674832 64.5242122,19.081243 64.5242122,16.0910399 C64.5242122,13.1434665 66.9114736,10.7549288 69.9006555,10.7549288 C71.2711866,10.7549288 72.5174023,11.2736323 73.4728685,12.1254598" id="Shape" fill="#2557A1"></path>
                    <path d="M84.2272867,15.259889 C84.2272867,13.7867405 82.9394624,12.4991714 81.4650375,12.4991714 C80.0324765,12.4991714 78.7032988,13.0811812 78.7032988,15.1562505 L78.7032988,20.5337148 C78.7032988,20.9901331 78.2685783,21.3845213 77.8318157,21.3845213 C77.3534444,21.3845213 76.9394006,20.9901331 76.9394006,20.5337148 L76.9394006,11.6886972 C76.9394006,11.232279 77.3534444,10.8378907 77.8318157,10.8378907 C78.2466253,10.8378907 78.6836432,11.211347 78.7032988,11.6470886 C79.4512325,11.0660999 80.4069539,10.7549288 81.4433398,10.7549288 C83.8525541,10.7549288 85.9909297,12.6444186 85.9909297,15.010748 L85.9909297,20.5337148 C85.9909297,20.9901331 85.5562091,21.3845213 85.1191912,21.3845213 C84.6420964,21.3845213 84.2272867,20.9901331 84.2272867,20.5337148" id="Path" fill="#2557A1"></path>
                    <path d="M15.5353226,12.5198481 C17.1450392,12.5198481 18.4828961,13.5529155 18.9393143,14.9933898 L12.1091227,14.9933898 C12.5657962,13.5529155 13.9056951,12.5198481 15.5353226,12.5198481 M20.8701574,15.8005455 C20.8285488,13.0811812 18.3999341,10.7549288 15.5353226,10.7549288 C12.5448643,10.7549288 10.1576029,13.1434665 10.1576029,16.0910399 C10.1576029,19.081243 12.5448643,21.4674832 15.5353226,21.4674832 C16.9668626,21.4674832 18.2960403,20.9071711 19.2517617,19.9527261 C19.4383621,19.7868023 19.5629326,19.5366401 19.5629326,19.2877544 C19.5629326,18.8104042 19.1478678,18.3953393 18.6694965,18.3953393 C18.3999341,18.3953393 18.150793,18.5615184 17.9641926,18.7481189 C17.3612508,19.3913929 16.469091,19.6829084 15.5353226,19.6829084 C13.7494714,19.6829084 12.2969995,18.4586456 11.9848075,16.7570327 L19.9986742,16.7570327 C20.0053112,16.7570327 20.0096507,16.7549905 20.0160324,16.7549905 L20.0402828,16.7549905 C20.0553436,16.7539695 20.0696386,16.7483536 20.0849547,16.7463115 C20.1155868,16.7419719 20.1462188,16.7376323 20.1755746,16.728698 C20.5543915,16.6260805 20.8701574,16.2646218 20.8701574,15.8005455" id="Shape" fill="#2557A1"></path>
                    <path d="M47.4172078,12.5198481 C49.0271798,12.5198481 50.3650365,13.5529155 50.8214547,14.9933898 L43.9912632,14.9933898 C44.4479367,13.5529155 45.7878356,12.5198481 47.4172078,12.5198481 M52.7533189,15.8005455 C52.7109445,13.0811812 50.2820746,10.7549288 47.4172078,10.7549288 C44.4270047,10.7549288 42.0387223,13.1434665 42.0387223,16.0910399 C42.0387223,19.081243 44.4270047,21.4674832 47.4172078,21.4674832 C48.8502794,21.4674832 50.1781807,20.9071711 51.1336469,19.9527261 C51.3205027,19.7868023 51.4450732,19.5366401 51.4450732,19.2877544 C51.4450732,18.8104042 51.0300083,18.3953393 50.5526581,18.3953393 C50.2820746,18.3953393 50.0329336,18.5615184 49.846333,18.7481189 C49.2444123,19.3913929 48.3509762,19.6829084 47.4172078,19.6829084 C45.6328882,19.6829084 44.1791401,18.4586456 43.866948,16.7570327 L51.8677961,16.7570327 C51.8731567,16.7570327 51.8785173,16.7549905 51.8841332,16.7549905 L51.9224233,16.7549905 C51.9464185,16.7529484 51.9704136,16.7452904 51.9931324,16.7406956 C52.0053852,16.7386534 52.0184039,16.7376323 52.0304015,16.7343139 C52.4204501,16.6436939 52.7533189,16.2766193 52.7533189,15.8005455" id="Shape" fill="#2557A1"></path>
                    <path d="M87.8617849,21.3911583 C87.7808651,21.3911583 87.7152613,21.3265756 87.7152613,21.2492295 L87.7152613,19.7505542 L87.3800952,19.7505542 C87.3014728,19.7505542 87.2379112,19.6852058 87.2379112,19.6032649 C87.2379112,19.520303 87.2991754,19.4569967 87.3800952,19.4569967 L88.3488352,19.4569967 C88.4294997,19.4569967 88.4907639,19.520303 88.4907639,19.6032649 C88.4907639,19.6852058 88.4264365,19.7505542 88.3488352,19.7505542 L88.0080531,19.7505542 L88.0080531,21.2492295 C88.0080531,21.3298941 87.9457679,21.3911583 87.8617849,21.3911583" id="Path" fill="#2557A1"></path>
                    <path d="M89.5937746,21.3932004 C89.5128548,21.3932004 89.4661409,21.3342336 89.4485274,21.2796064 L89.0314204,20.0543226 L89.0314204,21.2489743 C89.0314204,21.3298941 88.9678588,21.3911583 88.8848969,21.3911583 C88.8042324,21.3911583 88.7386286,21.3265756 88.7386286,21.2489743 L88.7386286,19.6675923 C88.7386286,19.5496587 88.8412461,19.4470412 88.9591797,19.4470412 C89.0520971,19.4470412 89.1393985,19.513666 89.1700306,19.6099019 L89.5937746,20.8461622 L90.012158,19.6099019 C90.0425348,19.513666 90.1311126,19.4470412 90.2260721,19.4470412 C90.3440057,19.4470412 90.4466232,19.5496587 90.4466232,19.6675923 L90.4466232,21.2489743 C90.4466232,21.3298941 90.3833169,21.3911583 90.300355,21.3911583 C90.2194352,21.3911583 90.1538315,21.3265756 90.1538315,21.2489743 L90.1538315,20.057641 C90.088483,20.24756 89.9891839,20.542394 89.9082641,20.7805585 C89.7423403,21.2732247 89.7413192,21.2752668 89.7390218,21.2796064 C89.7063475,21.3538892 89.6570809,21.3932004 89.5937746,21.3932004" id="Path" fill="#2557A1"></path>
                </g>
            </g>
        </g>
    </g>
</svg>