<svg xmlns="http://www.w3.org/2000/svg" width="245" height="282" viewBox="0 0 245 282">
    <defs>
        <linearGradient id="a" x1="95.882%" x2="-2.794%" y1="49.785%" y2="49.785%">
            <stop offset="0%" stop-color="#FFF200"/>
            <stop offset="100%" stop-color="#F7941E"/>
        </linearGradient>
    </defs>
    <g fill="none" fill-rule="evenodd">
        <path fill="#E2E1FE" d="M164.852 101.648c9.587 19.32 14.902 32.08 31.212 46.141 16.309 14.062 43.613 29.477 48.198 46.09 4.638 16.665-13.443 34.529-30.326 52.704-16.882 18.124-32.619 36.56-50.074 35.362-17.404-1.198-36.58-22.03-60.965-27.81-24.439-5.833-54.14 3.385-73.94-4.375C9.157 242-.692 217.263.037 193.619c.73-23.592 12.09-46.09 26.21-63.224 14.174-17.082 31.212-28.852 48.564-44.58 17.404-15.78 35.12-35.57 50.908-32.497 15.789 3.073 29.597 29.008 39.133 48.33z"/>
        <g fill-rule="nonzero">
            <path fill="#D3D3D3" d="M171.14 56.082h-3.293l1.993-43.371h3.207zM147.307 56.34H144.1l1.907-43.372h3.293z"/>
            <path fill="#3C3AC4" d="M172.7 55.738l-.173-7.214s.086-1.804-.78-2.061c0 0-.52.257-1.734.257-.953 0-1.56-.171-1.56-.171-.866.257-1.04 2.06-1.04 2.06l-.866 7.215 6.153-.086zM148.78 56.168l-.173-7.215s.086-1.803-.78-2.06c0 0-.52.257-1.734.257-.953 0-1.56-.172-1.56-.172-.866.258-1.04 2.061-1.04 2.061l-.866 7.214 6.153-.085zM147.567 16.919h-.087a2.651 2.651 0 0 1-2.513-2.662l.346-7.902c.174-3.263 2.947-5.926 6.154-5.926L168.28.258c1.647 0 3.12.6 4.247 1.717a5.599 5.599 0 0 1 1.646 4.294l-.26 7.988c-.086 1.46-1.3 2.49-2.686 2.49-1.474-.086-2.6-1.202-2.514-2.662l.26-7.987c0-.258-.086-.43-.173-.516a.665.665 0 0 0-.433-.171l-16.814.171c-.52 0-1.04.516-1.04 1.031l-.346 7.901c-.087 1.374-1.214 2.405-2.6 2.405z"/>
            <path fill="#726EFB" d="M96.173 195.814c0 .085.607 8.33.607 8.33s.173.601 1.04.601c0 0 .607-.085.693-.6l1.214-8.675-3.554.344z"/>
            <path fill="#615EEE" d="M100.593 203.371a5.073 5.073 0 0 0-.433-2.576l.693-1.288s-1.473-.43-2.773-.602l-.52-.086c-1.82-.085-3.467 1.632-3.64 3.951-.173 2.061.867 3.865 2.34 4.38 0 0 1.56.515 3.12.601l.173-1.89c.607-.6.954-1.46 1.04-2.49z"/>
            <path fill="#8A8AF9" d="M103.28 203.887c-.173 2.318-1.82 4.122-3.727 3.95-1.82-.172-3.12-2.147-2.946-4.552.173-2.318 1.82-4.122 3.726-3.95 1.82.257 3.207 2.233 2.947 4.552z"/>
            <path fill="#6058F2" d="M101.98 203.887c-.087 1.202-.953 2.147-1.907 2.06-.953-.085-1.646-1.116-1.56-2.318.087-1.202.954-2.147 1.907-2.061.953.086 1.647 1.116 1.56 2.319z"/>
            <path fill="#3C3AC4" d="M101.633 203.887c-.086 1.116-.866 1.889-1.733 1.803-.867-.086-1.473-1.03-1.387-2.061.087-1.117.867-1.89 1.734-1.804.866 0 1.473.945 1.386 2.062z"/>
            <path fill="#6058F2" d="M98.6 196.071c0 .086.607 8.33.607 8.33s.173.602 1.04.602c0 0 .606-.086.693-.601l1.213-8.674-3.553.343z"/>
            <path fill="#3C3AC4" d="M94.527 192.12l.693 4.552s.433 1.718 2.773 1.546c0 0 4.334.258 4.94-1.288.607-1.718 1.127-4.81 1.127-4.81h-9.533z"/>
            <path fill="#726EFB" d="M149.127 207.15c0 .086.606 8.33.606 8.33s.174.602 1.04.602c0 0 .607-.086.694-.601l1.213-8.674-3.553.343z"/>
            <path fill="#615EEE" d="M153.547 214.622a5.073 5.073 0 0 0-.434-2.577l.694-1.288s-1.474-.43-2.774-.601l-.52-.086c-1.82-.086-3.466 1.632-3.64 3.95-.173 2.062.867 3.866 2.34 4.38 0 0 1.56.516 3.12.602l.174-1.89c.606-.6.953-1.46 1.04-2.49z"/>
            <path fill="#8A8AF9" d="M156.233 215.223c-.173 2.319-1.82 4.123-3.726 3.95-1.82-.171-3.12-2.146-2.947-4.551.173-2.319 1.82-4.122 3.727-3.95 1.82.171 3.12 2.146 2.946 4.551z"/>
            <path fill="#6058F2" d="M154.847 215.223c-.087 1.202-.954 2.147-1.907 2.061-.953-.086-1.647-1.116-1.56-2.319.087-1.202.953-2.147 1.907-2.06 1.04 0 1.733 1.116 1.56 2.318z"/>
            <path fill="#3C3AC4" d="M154.5 215.137c-.087 1.117-.867 1.89-1.733 1.804-.867-.086-1.474-1.03-1.387-2.061.087-1.117.867-1.89 1.733-1.804.867.086 1.474 1.03 1.387 2.061z"/>
            <path fill="#6058F2" d="M151.467 207.322c0 .086.606 8.33.606 8.33s.174.602 1.04.602c0 0 .607-.086.694-.601l1.213-8.675-3.553.344z"/>
            <g>
                <path fill="#3C3AC4" d="M147.393 203.371l.694 4.552s.433 1.718 2.773 1.546c0 0 4.333.258 4.94-1.288.607-1.718 1.127-4.81 1.127-4.81h-9.534z"/>
                <path fill="#373A3B" d="M152.333 207.58c1.387 0 2.514-.344 3.814-.602.433-1.631.693-3.52.693-3.52l-9.447-.087.607 3.693c1.213.601 3.12.516 4.333.516z"/>
            </g>
            <g>
                <path fill="#726EFB" d="M183.62 195.47c0 .086.607 8.33.607 8.33s.173.602 1.04.602c0 0 .606-.086.693-.601l1.213-8.675-3.553.344z"/>
                <path fill="#615EEE" d="M188.04 203.028a5.073 5.073 0 0 0-.433-2.577l.693-1.288s-1.473-.43-2.773-.601l-.52-.086c-1.82-.086-3.467 1.632-3.64 3.95-.174 2.062.866 3.865 2.34 4.38 0 0 1.56.516 3.12.602l.173-1.89c.607-.6.953-1.546 1.04-2.49z"/>
                <path fill="#8A8AF9" d="M190.727 203.543c-.174 2.319-1.82 4.122-3.727 3.95-1.82-.171-3.12-2.146-2.947-4.551.174-2.319 1.82-4.123 3.727-3.95 1.82.171 3.12 2.232 2.947 4.551z"/>
                <path fill="#6058F2" d="M189.34 203.543c-.087 1.202-.953 2.147-1.907 2.061-.953-.086-1.646-1.116-1.56-2.319.087-1.202.954-2.147 1.907-2.06 1.04.085 1.733 1.116 1.56 2.318z"/>
                <path fill="#3C3AC4" d="M188.993 203.543c-.086 1.117-.866 1.89-1.733 1.804-.867-.086-1.473-1.031-1.387-2.062.087-1.116.867-1.889 1.734-1.803.866 0 1.473.945 1.386 2.061z"/>
                <path fill="#6058F2" d="M185.96 195.728c0 .086.607 8.33.607 8.33s.173.602 1.04.602c0 0 .606-.086.693-.602l1.213-8.674-3.553.344z"/>
                <path fill="#3C3AC4" d="M191.333 192.636s0-.086 0 0l-9.446-.172.606 3.693.174.859s.433 1.718 2.773 1.546c0 0 4.333.257 4.94-1.288.433-1.46.867-4.123.953-4.638z"/>
                <path fill="#373A3B" d="M182.58 195.04l.347 1.375s.346 1.116 1.906 1.116c0 0-.78-.343-.866-1.116-.174-.773-.087-1.117-.087-1.117l-1.3-.257z"/>
            </g>
            <path fill="#8A8AF9" d="M193.24 64.584s.173-9.619-11.007-10.907c-7.453-.859-45.066-1.374-60.493-1.374-1.993 0-4.333.43-6.153.773-2.514.859-4.68 2.319-6.934 3.865-2.34 1.631-4.766 3.177-6.846 5.067-1.04.944-1.994 1.89-2.6 3.177-.347.687-.607 1.374-.954 2.061-2.686 15.288-10.226 83.393-7.713 116.63 0 0 0 11.508 8.32 13.14l44.547 9.533s7.973 2.662 15.6.687l26.953-9.19s7.02-3.005 7.28-8.244c.347-5.325 0-125.218 0-125.218z"/>
            <path fill="#726EFB" d="M152.767 208.009c1.906 0 4.16-.172 6.24-.773l26.953-9.19s7.02-3.005 7.28-8.244c.347-5.24 0-125.218 0-125.218s.087-4.122-3.033-7.3L159.873 74.29l1.04 3.865-6.066 71.025-2.08 58.83z"/>
            <path fill="#615EEE" d="M152.333 208.009l2.687-59.431s5.027-60.977 5.807-68.106c1.04-9.189-6.847-9.962-6.847-9.962l-55.813-3.264C95.48 82.534 87.94 151.498 90.453 184.65c0 0 0 11.508 8.32 13.14l44.547 8.76c.087 0 3.987 1.374 9.013 1.46z"/>
            <path fill="#3C3AC4" d="M150.08 149.952h-.087l-57.113-7.558c-.433-.086-.78-.515-.693-.944.086-.43.52-.773.953-.688l57.113 7.558c.434.086.78.515.694.945-.087.343-.434.687-.867.687zM151.553 121.095h-.086l-55.727-5.754c-.433-.086-.78-.43-.78-.945a.94.94 0 0 1 .953-.773l55.727 5.755c.433.085.78.429.78.944-.087.43-.433.773-.867.773z"/>
            <g>
                <path fill="#726EFB" d="M149.647 150.21l-2.34-.258c-.26 0-.434-.258-.347-.43l.173-1.374c0-.257.26-.429.434-.343l2.34.258c.26 0 .433.257.346.429l-.173 1.374c0 .258-.173.344-.433.344z"/>
                <path fill="#3C3AC4" d="M148.953 149.179c-.433-.086-.866.172-1.04.515-.78 1.546-2.6 5.41-2.686 8.846 0 0-.174.601.78.945l2.946.43s1.474.257 1.56-.945c.087-.773-.433-6.7-.606-8.846-.174-.516-.52-.86-.954-.945zm-.086 9.361c-.434.344-1.04.43-1.56.344-.607-.086-1.127-.43-1.214-.859-.346-1.03.26-2.662 1.387-3.006 1.3-.343 1.907.773 1.907 1.975.086.516 0 1.117-.52 1.546z"/>
                <path fill="#8A8AF9" d="M148.52 148.921c-.433-.086-.867.172-1.04.516-.78 1.546-2.6 5.41-2.687 8.846 0 0-.173.6.78.944l2.947.43s1.473.257 1.56-.945c.087-.773-.433-6.699-.607-8.846-.086-.43-.433-.859-.953-.945zm-.087 9.362c-.433.343-1.04.429-1.56.343-.606-.086-1.126-.43-1.213-.859-.347-1.03.26-2.662 1.387-3.006 1.3-.343 1.906.773 1.906 1.976.087.6 0 1.116-.52 1.546z"/>
            </g>
            <path fill="#3C3AC4" d="M145.92 183.962h-.087L93.4 175.459c-.433-.086-.693-.43-.607-.859.087-.429.434-.687.867-.6l52.433 8.502c.434.086.694.43.607.858a.831.831 0 0 1-.78.602z"/>
            <path fill="#3C3AC4" d="M152.94 208.095h-.867l2.34-58.916c2.34-32.464 5.98-69.823 5.98-70.252.26-1.976-.346-3.951-1.733-5.497-1.3-1.546-3.12-2.405-5.2-2.576l-55.38-3.178.087-.43.086-.257 55.294 3.006c2.253.172 4.333 1.116 5.806 2.834 1.474 1.718 2.167 3.865 1.907 6.098 0 .343-3.64 37.702-5.98 70.166l-2.34 59.002z"/>
            <path fill="#615EEE" d="M174.087 202.083l-.434-60.462 4.247-72.657c.087-2.147-.607-4.294-2.08-5.84-1.473-1.632-3.553-2.576-5.72-2.576l-63.44-1.976 1.213-.859 62.314 1.89a8.933 8.933 0 0 1 6.326 2.92c1.647 1.803 2.514 4.122 2.34 6.527l-4.246 72.571.433 60.204-.953.258z"/>
            <g>
                <path fill="#615EEE" d="M33.505 208.36c-.087 1.795 13.617 10.431 27.408 10.517 14.051.085 28.189-8.294 28.189-10.518v8.38c0 2.223-9.367 10.175-28.189 10.175-17.867 0-27.495-8.38-27.408-10.175v-8.38z"/>
                <path fill="#3C3AC4" d="M33.505 208.103c.434-5.473 12.75-9.833 27.842-9.833 15.092 0 27.321 4.36 27.842 9.833v.342c0 5.558-12.23 11.372-27.495 11.458h-.347-.607c-15.092-.086-27.235-5.9-27.235-11.458v-.342z"/>
                <path fill="#615EEE" d="M34.98 185.101l26.367 14.195L87.714 185.1l-.086 22.83c0 2.053-8.24 9.834-26.715 9.834-19.862 0-26.02-8.208-25.933-9.833v-22.83z"/>
                <path fill="#3B33C7" d="M87.714 203.058c0-2.907-4.423-3.078-10.581-.342-10.148 4.532-21.857 15.135-30.27 13.425-8.067-2.395-11.19-6.071-11.71-7.696-.087-.257-.087-.428-.087-.428v-10.859c.347 0 10.755-.342 20.99-.684l5.378 2.907 6.071-3.25c5.29-.17 9.107-.341 9.02-.427-.26-.256 10.582-1.966 10.582-1.966l.607.342v8.978z" opacity=".7"/>
                <path fill="#615EEE" d="M32.638 184.845l28.709-12.74 28.449 12.74 13.617 2.65v2.737l-42.066 18.384-42.5-18.384v-2.736z"/>
                <path fill="#8A8AF9" d="M61.347 168.599l42.066 18.897-42.066 18.384-42.5-18.384z"/>
                <path fill="#615EEE" d="M57.444 185.358c0 .94 1.648 1.796 3.73 1.796 2.081 0 3.73-.77 3.73-1.796 0-.94-1.649-1.796-3.73-1.796-1.995 0-3.73.77-3.73 1.796z"/>
                <path fill="url(#a)" d="M64.357 39.675h1.474v4.617h-1.474z" transform="translate(18.5 168)"/>
                <path fill="#E2E2FD" d="M78.52 223.836c0-.598.174-5.643 1.128-9.919.78-3.334 1.995-6.07 3.99-6.07 4.683 0 5.204 14.707 5.117 15.99-.087.769-.434 1.538-1.474 2.051-.347.171-.868.342-1.041.342-.694.171-1.475.257-2.516.257-.52 0-.954 0-1.3-.086-.52-.085-.781-.085-1.041-.17-2.255-.343-2.863-1.54-2.863-2.395z"/>
                <path fill="#E2E2FD" d="M81.036 206.307c0 1.368 1.127 2.48 2.515 2.48 1.388 0 2.515-1.112 2.515-2.48 0-1.368-1.127-2.48-2.515-2.48-1.388 0-2.515 1.112-2.515 2.48z"/>
                <path fill="#2C2A59" d="M85.372 208.616c-.086-.086-.26-.171-.346-.257-2.256.342-4.25-2.052-2.43-4.275-.953.342-1.56 1.283-1.56 2.309 0 .855.433 1.624 1.127 2.052-3.296 2.736-3.643 14.45-3.643 15.477 0 .513.26 1.197.954 1.71v-.086s.434-7.353 1.128-11.629c.867-5.558 4.77-5.301 4.77-5.301z" opacity=".1"/>
                <path fill="#C1C1EA" d="M61.347 208.616v-2.736l-42.5-18.384v2.736z" opacity=".7"/>
                <path fill="#E2E2FD" d="M85.372 204.512h-3.469v-6.157c0-.684-.347-1.283-.954-1.625l-19.168-10.26 1.648-2.993 19.168 10.26c1.735.941 2.775 2.651 2.775 4.618v6.157z"/>
                <path fill="#3C3AC4" d="M57.704 184.417c0 .941 1.561 1.625 3.47 1.625 1.908 0 3.469-.77 3.469-1.625 0-.94-1.561-1.624-3.47-1.624-1.908 0-3.469.77-3.469 1.624z"/>
            </g>
            <g transform="translate(75.5 160)">
                <ellipse cx="8.759" cy="6.604" fill="#D0D0F7" rx="7.996" ry="3.523" transform="rotate(-25.291 8.759 6.604)"/>
                <path fill="#C1C1EA" d="M6.106 14.347l-3.268-2.663-1.204-1.46S-.172 8.16 3.182 4.553c0 0 1.806 4.896 5.418 8.848l-2.494.945z"/>
                <path fill="#E2E2FD" d="M41.968 58.161L15.996 3.179c.86 1.804-1.72 4.725-5.676 6.615-3.956 1.89-7.912 1.976-8.772.172L27.52 64.862c1.376 2.835 5.762 3.78 9.718 1.89 3.956-1.804 5.934-6.014 4.73-8.591z"/>
                <path fill="#8A8AF9" d="M28.724 30.068l2.322 4.897c.172 3.952-8.514 10.997-14.448 6.701l-2.322-4.897c6.536 4.554 14.62-2.663 14.448-6.7z"/>
                <path fill="#615EEE" d="M19.694 45.876s5.074-1.289 7.396-4.725l-2.666-1.632s-3.698 4.21-7.052 3.522c0 0 2.064 1.46 3.354 1.03 0 0-.258.774-1.032 1.805z"/>
                <path fill="#615EEE" d="M17.458 40.034s5.16 1.031 8.686-1.03l-1.72-2.664s-5.16 2.148-7.912.086c0 0 1.29 2.233 2.494 2.405.172.086-.43.688-1.548 1.203z"/>
                <path fill="#3C3AC4" d="M29.928 37.37s3.956 2.32 5.59 1.375c.946-.515.516-1.718.086-2.749-.344-.859-.43-1.632-1.72-1.546-2.924.172-3.87 1.03-3.87 1.03l-.086 1.89z"/>
                <path fill="#8A8AF9" d="M29.928 37.37l.086-1.631c6.88 0 4.73-1.203 4.73-1.203.602.258.688.945.86 1.374.43 1.031.86 2.234-.086 2.75-1.72.944-5.59-1.29-5.59-1.29z"/>
                <path fill="#3C3AC4" d="M30.272 34.622s3.182-3.265 2.666-5.069c-.258-1.03-1.548-.945-2.666-.773-.86.172-1.634.086-1.892 1.288-.516 2.921.086 3.952.086 3.952l1.806.602z"/>
                <path fill="#8A8AF9" d="M30.272 34.622l-1.548-.43c1.634-6.7 0-4.897 0-4.897.43-.515 1.118-.43 1.548-.515 1.118-.172 2.322-.258 2.666.773.516 1.89-2.666 5.069-2.666 5.069z"/>
                <g>
                    <path fill="#C1C1EA" d="M24.768 35.051c-.086.172.086.516 0 .688-.086.171-.43.343-.43.6-.086.259.172.516.086.688 0 .258-.344.43-.344.602 0 .257.258.43.258.687 0 .258-.258.515-.172.687 0 .258.344.344.43.601.086.258-.086.516 0 .688.086.172.43.257.602.43.172.171.086.515.258.687.172.171.516.086.688.171.172.086.258.43.43.516.172.086.516-.172.688-.086.172 0 .43.344.602.258.172 0 .344-.344.602-.344.172-.086.516.172.688.086.172-.086.258-.43.43-.515.172-.086.516 0 .688-.172.172-.172.172-.43.258-.602.172-.172.516-.172.602-.343.172-.172 0-.516.172-.688.086-.171.43-.257.516-.43.086-.171-.086-.515 0-.686.086-.172.43-.344.43-.602.086-.258-.172-.515-.086-.687 0-.258.344-.43.344-.601 0-.258-.258-.43-.258-.688 0-.257.258-.515.172-.687 0-.258-.344-.344-.43-.601-.086-.258.086-.516 0-.688-.086-.171-.43-.257-.602-.43-.172-.171-.086-.515-.258-.686-.172-.172-.516-.086-.688-.172-.172-.086-.258-.43-.43-.516-.172-.086-.516.172-.688.086-.172 0-.43-.344-.602-.258-.172 0-.344.344-.602.344-.172.086-.516-.172-.688-.086-.172.086-.258.43-.43.516-.172.086-.516 0-.688.171-.172.172-.172.43-.258.602-.172.172-.516.172-.602.343-.172.172 0 .516-.172.688-.086.172-.43.257-.516.43z"/>
                    <path fill="#D0D0F7" d="M25.37 35.48c-.086.173.086.43 0 .602s-.344.258-.344.43c-.086.172.086.43.086.601 0 .172-.258.344-.258.516 0 .171.172.343.258.6 0 .173-.172.43-.172.602s.258.344.344.516c.086.172-.086.43 0 .601.086.172.344.258.516.344.086.172.086.43.172.601.172.086.43.086.602.172s.258.344.344.43c.172.085.43-.086.602-.086s.344.257.516.257c.172 0 .344-.257.516-.257.172 0 .43.086.602.086.172-.086.258-.344.344-.43.172-.086.43 0 .602-.086s.086-.43.258-.515c.086-.086.43-.086.516-.258.086-.172 0-.43.086-.602.086-.171.344-.171.43-.343.086-.172-.086-.43 0-.602.086-.171.344-.257.344-.43.086-.17-.086-.429-.086-.6 0-.172.258-.344.258-.516 0-.172-.172-.344-.258-.601 0-.172.172-.43.172-.602 0-.171-.258-.343-.344-.515-.086-.172.086-.43 0-.601-.086-.172-.344-.258-.516-.344-.086-.172-.086-.43-.172-.601-.172-.086-.43-.086-.602-.172s-.258-.344-.344-.43c-.172-.086-.43.086-.602.086s-.344-.258-.516-.258c-.172 0-.344.258-.516.258-.172 0-.43-.086-.602-.086-.172.086-.258.344-.344.43-.172.086-.43 0-.602.086s-.086.43-.258.515c-.086.086-.43.086-.516.258-.086.172 0 .43-.086.601-.086.086-.344.172-.43.344z"/>
                </g>
            </g>
        </g>
    </g>
</svg>
