<svg xmlns="http://www.w3.org/2000/svg" width="71" height="58" viewBox="0 0 71 58">
    <g fill="#4A46A3" fill-rule="nonzero">
        <path d="M0 29.043v28.5h29v-28.5H12.429c0-8.993 7.42-16.285 16.571-16.285V.543c-16.018 0-29 12.76-29 28.5zM71 12.758V.543c-16.017 0-29 12.76-29 28.5v28.5h29v-28.5H54.429c0-8.993 7.42-16.285 16.571-16.285z" opacity=".173"/>
        <path d="M28 34.272v13.271h13.588V34.272h-7.764c0-4.188 3.476-7.584 7.764-7.584V21C34.083 21 28 26.942 28 34.272zM61 26.688V21c-7.505 0-13.588 5.942-13.588 13.272v13.271H61V34.272h-7.765c0-4.188 3.477-7.584 7.765-7.584z"/>
    </g>
</svg>
