<svg xmlns="http://www.w3.org/2000/svg" width="58" height="58" viewBox="0 0 58 58">
    <g fill="none" fill-rule="evenodd">
        <ellipse cx="28.985" cy="28.987" fill="#E2E2FD" fill-rule="nonzero" rx="28.926" ry="28.821"/>
        <path fill="#726EFB" fill-rule="nonzero" d="M16.376 10.319l1.37-.448a5.13 5.13 0 0 1 6.466 3.274l3.958 12.03a5.13 5.13 0 0 1-3.28 6.48l-1.37.447a5.13 5.13 0 0 1-6.466-3.273l-3.958-12.03a5.13 5.13 0 0 1 3.28-6.48z"/>
        <path fill="#8A8AF9" fill-rule="nonzero" d="M27.929 29.784l-7.947 2.595a.844.844 0 0 0-1.055-.532l-6.116-18.61a.84.84 0 0 0 .533-1.05L21.29 9.59a.844.844 0 0 0 1.055.532l6.116 18.61a.84.84 0 0 0-.531 1.05z"/>
        <ellipse cx="20.633" cy="20.988" fill="#C1C1EA" fill-rule="nonzero" opacity=".9" rx="3.991" ry="3.145" transform="rotate(-18.15 20.633 20.988)"/>
        <ellipse cx="17.851" cy="12.527" fill="#C1C1EA" fill-rule="nonzero" opacity=".9" rx="1" ry="1"/>
        <ellipse cx="23.417" cy="29.446" fill="#C1C1EA" fill-rule="nonzero" opacity=".9" rx="1" ry="1"/>
        <path fill="#3C3AC4" fill-rule="nonzero" d="M19.615 19.817l.162.5a1.284 1.284 0 0 0-.527.51l-.268-.809a.211.211 0 0 0-.388.124l.77 2.377c.037.103.149.16.255.13a.21.21 0 0 0 .13-.254l-.21-.68a.866.866 0 0 1 .367-1.005l.48 1.483a.211.211 0 0 0 .389-.124l-.483-1.475a.877.877 0 0 1 .898.6l.221.68a.196.196 0 0 0 .104.118.212.212 0 0 0 .154.01.21.21 0 0 0 .12-.105l1.055-2.217a.21.21 0 0 0 .01-.15.21.21 0 0 0-.107-.121.211.211 0 0 0-.273.097l-.843 1.76-.063-.197c-.19-.6-.793-.969-1.416-.866l-.16-.5a.211.211 0 0 0-.388.124l.01-.01z"/>
        <path fill="#726EFB" fill-rule="nonzero" d="M13.908 11.196l1.34-.523a5.13 5.13 0 0 1 6.64 2.903l4.632 11.79a5.13 5.13 0 0 1-2.91 6.656l-1.341.523a5.13 5.13 0 0 1-6.64-2.903l-4.632-11.79a5.13 5.13 0 0 1 2.91-6.656z"/>
        <path fill="#8A8AF9" fill-rule="nonzero" d="M26.537 29.986l-7.785 3.036a.845.845 0 0 0-1.084-.473l-7.171-18.236a.84.84 0 0 0 .474-1.08l7.8-3.037a.845.845 0 0 0 1.082.473l7.17 18.236a.84.84 0 0 0-.486 1.08z"/>
        <ellipse cx="18.758" cy="21.608" fill="#C1C1EA" fill-rule="nonzero" opacity=".9" rx="3.991" ry="3.145" transform="rotate(-21.38 18.758 21.608)"/>
        <ellipse cx="15.502" cy="13.321" fill="#C1C1EA" fill-rule="nonzero" opacity=".9" rx="1" ry="1"/>
        <ellipse cx="22.015" cy="29.899" fill="#C1C1EA" fill-rule="nonzero" opacity=".9" rx="1" ry="1"/>
        <path fill="#3C3AC4" fill-rule="nonzero" d="M17.674 20.5l.19.49a1.284 1.284 0 0 0-.498.54l-.308-.795a.21.21 0 0 0-.386-.096.21.21 0 0 0 .009.243l.902 2.329a.21.21 0 0 0 .387.098.21.21 0 0 0-.009-.243l-.257-.669a.866.866 0 0 1 .31-1.023l.563 1.454a.21.21 0 0 0 .385.097.21.21 0 0 0-.005-.242l-.564-1.458c.4-.055.785.171.93.546l.26.666c.02.05.06.09.11.112a.21.21 0 0 0 .27-.111l.936-2.264a.211.211 0 0 0-.378-.151l-.742 1.803-.076-.192a1.266 1.266 0 0 0-1.46-.786l-.19-.491a.21.21 0 0 0-.384-.094.21.21 0 0 0 .005.24V20.5z"/>
        <path fill="#726EFB" fill-rule="nonzero" d="M11.264 12.619l1.255-.697a5.13 5.13 0 0 1 6.968 1.98l6.19 11.062a5.13 5.13 0 0 1-1.986 6.99l-1.255.696a5.13 5.13 0 0 1-6.968-1.98l-6.19-11.062a5.13 5.13 0 0 1 1.986-6.989z"/>
        <path fill="#8A8AF9" fill-rule="nonzero" d="M26.324 29.534L19.02 33.59a.845.845 0 0 0-1.137-.322L8.312 16.164a.839.839 0 0 0 .323-1.134l7.303-4.056a.845.845 0 0 0 1.137.321L26.646 28.4a.839.839 0 0 0-.322 1.135z"/>
        <ellipse cx="17.478" cy="22.287" fill="#C1C1EA" fill-rule="nonzero" opacity=".9" rx="3.989" ry="3.146" transform="rotate(-29.14 17.478 22.287)"/>
        <ellipse cx="13.129" cy="14.508" fill="#C1C1EA" fill-rule="nonzero" opacity=".9" rx="1" ry="1"/>
        <ellipse cx="21.831" cy="30.057" fill="#C1C1EA" fill-rule="nonzero" opacity=".9" rx="1" ry="1"/>
        <path fill="#3C3AC4" fill-rule="nonzero" d="M16.255 21.328l.255.46a1.273 1.273 0 0 0-.422.603l-.422-.746a.211.211 0 0 0-.354.195l1.21 2.188a.21.21 0 1 0 .355-.195l-.346-.63a.868.868 0 0 1 .169-1.052l.755 1.366c.057.095.177.13.276.08a.21.21 0 0 0 .08-.275l-.755-1.366a.87.87 0 0 1 .996.42l.348.63c.058.095.18.128.278.076a.21.21 0 0 0 .097-.124l.629-2.389a.21.21 0 0 0-.02-.15.211.211 0 0 0-.377.05l-.49 1.89-.1-.18c-.3-.552-.962-.8-1.553-.582l-.255-.46a.21.21 0 1 0-.356.195l.002-.004z"/>
        <path fill="#8A8AF9" fill-rule="nonzero" d="M50.291 29.84l-5.72-5.696H34.066a.537.537 0 0 0-.523.546v21.498a.533.533 0 0 0 .523.546h15.709a.537.537 0 0 0 .523-.546L50.29 29.84z"/>
        <path fill="#615EEE" fill-rule="nonzero" d="M44.571 24.133v5.697h5.718z"/>
        <path stroke="#FFF" stroke-linecap="round" stroke-linejoin="round" d="M35.905 33.571h12.224M35.905 35.916h12.224M35.905 38.457h6.043" opacity=".6"/>
        <path fill="#FFF" fill-rule="nonzero" d="M37.614 43.38a.514.514 0 0 1-.498-.382l-.33-1.23a.103.103 0 0 0-.09-.077.101.101 0 0 0-.103.044l-.633 1.39a.21.21 0 1 1-.373-.167l.632-1.406a.517.517 0 0 1 .953.111l.33 1.228c.01.049.053.083.103.082a.116.116 0 0 0 .106-.08l.12-.44a.518.518 0 0 1 .938-.138l.355.555c.02.033.058.052.097.05.04 0 .075-.023.092-.059a.523.523 0 0 1 .332-.27.512.512 0 0 1 .421.07l.247.162c.017.013.037.02.057.02.11.007.197.099.196.21a.21.21 0 0 1-.21.197.533.533 0 0 1-.27-.086L39.84 43a.118.118 0 0 0-.089-.015.116.116 0 0 0-.07.057.517.517 0 0 1-.902.044l-.348-.555a.108.108 0 0 0-.196.03l-.12.439a.512.512 0 0 1-.502.38z" opacity=".6"/>
        <ellipse cx="29.065" cy="31.389" fill="#FFB23D" fill-rule="nonzero" rx="6.04" ry="6.019"/>
        <path fill="#FFF" fill-rule="nonzero" d="M31.917 29.286H28.2c-.028 0-.04 0-.04-.025l.143-.374c.025-.07-.027-.145-.118-.18a.353.353 0 0 0-.245.018l-1.97.905a.13.13 0 0 0 0 .255l1.97.91c.08.029.166.029.245 0 .09-.036.143-.103.118-.179l-.143-.382s.012-.026.04-.026h3.716c.774-.45 0-.922 0-.922zM26.214 33.482h3.718a.038.038 0 0 1 .04.026l-.143.382c-.025.078.025.145.116.179.08.03.167.03.247 0l1.967-.91a.13.13 0 0 0 0-.255l-1.967-.91a.358.358 0 0 0-.247-.016c-.09.035-.141.111-.116.178l.143.374c0 .017-.014.026-.04.026h-3.718s-.778.464 0 .926z"/>
    </g>
</svg>
