<svg xmlns="http://www.w3.org/2000/svg" width="164" height="164" viewBox="0 0 164 164">
    <defs>
        <linearGradient id="a" x1="-31.909%" x2="83.319%" y1="49.526%" y2="49.526%">
            <stop offset="0%" stop-color="#3C3AC4"/>
            <stop offset="100%" stop-color="#3C3AC4" stop-opacity="0"/>
        </linearGradient>
        <linearGradient id="b" x1="-7.245%" x2="61.985%" y1="40.528%" y2="51.911%">
            <stop offset="0%" stop-color="#3C3AC4"/>
            <stop offset="100%" stop-color="#3C3AC4" stop-opacity="0"/>
        </linearGradient>
        <linearGradient id="c" x1=".234%" x2="99.827%" y1="50.117%" y2="50.117%">
            <stop offset="0%" stop-color="#3C3AC4"/>
            <stop offset="100%" stop-color="#3C3AC4" stop-opacity="0"/>
        </linearGradient>
    </defs>
    <g fill="none" fill-rule="evenodd">
        <g fill="#C1C1EA" fill-rule="nonzero">
            <path d="M7.677 153.624h-3.22v-20.342c0-.891.74-1.625 1.637-1.625s1.636.734 1.636 1.625v20.342h-.053zM18.604 153.624h-3.22v-20.342c0-.891.739-1.625 1.636-1.625.897 0 1.636.734 1.636 1.625v20.342h-.052zM29.477 153.624h-3.22v-20.342c0-.891.74-1.625 1.637-1.625s1.636.734 1.636 1.625v20.342h-.053zM40.403 153.624h-3.22v-20.342c0-.891.74-1.625 1.637-1.625s1.636.734 1.636 1.625v20.342h-.053z"/>
            <path d="M1.132 134.383h38.427v2.569H1.132z"/>
        </g>
        <g fill="#D0D0F7" fill-rule="nonzero">
            <path d="M156.786 153.624h3.22v-20.342c0-.891-.739-1.625-1.636-1.625-.898 0-1.637.734-1.637 1.625v20.342h.053zM145.86 153.624h3.22v-20.342c0-.891-.74-1.625-1.636-1.625-.898 0-1.637.734-1.637 1.625v20.342h.053zM134.934 153.624h3.22v-20.342c0-.891-.74-1.625-1.637-1.625s-1.636.734-1.636 1.625v20.342h.053zM124.06 153.624h3.22v-20.342c0-.891-.739-1.625-1.636-1.625-.898 0-1.636.734-1.636 1.625v20.342h.052z"/>
            <path d="M163.303 136.908h-38.427v-2.569h38.427z"/>
        </g>
        <path fill="#3C3AC4" fill-rule="nonzero" d="M135.506 65.375l1.516 4.91h-9.828l-20.7-38.337h11.238z"/>
        <path fill="#E2E2FD" fill-rule="nonzero" d="M34.788 69.575h62.476v57.506H34.788z"/>
        <path fill="#C1C1EA" fill-rule="nonzero" d="M133.472 153.35H97.264V69.46l19.203-31.832 17.005 31.57z"/>
        <path fill="#3C3AC4" fill-rule="nonzero" d="M36.262 69.707l-1.474 1.517v9.001H97.05l19.895-36.736 16.526 29.462v-3.715l-17.105-31.608-18.369 33.596z" opacity=".2"/>
        <path fill="#615EEE" fill-rule="nonzero" d="M31.422 66.54l-2.314 1.467 1.157 2.989h67.367l19.984-36.803L137.18 70.63l1.263-1.94-20.826-39.58L96.16 67.482z"/>
        <path fill="#8A8AF9" fill-rule="nonzero" d="M49.884 29.108L29.108 68.156h67.758l20.987-39.048z"/>
        <path fill="url(#a)" fill-rule="nonzero" d="M40.468 42.597h17.039v4.26H40.468z" transform="translate(.71 9.94)"/>
        <path fill="url(#b)" fill-rule="nonzero" d="M93.792 19.169L82.355 42.546l21.974.051 12.814-23.428z" transform="translate(.71 9.94)"/>
        <g stroke="#3C3AC4" stroke-width=".6" opacity=".1">
            <path d="M48.42 31.055h69.353M46.262 35.064h69.354M44.157 39.02h69.354M42 43.027h69.354M39.895 46.983h69.354M37.738 50.991h69.353M35.633 54.946h69.354M33.475 58.955h69.354M31.371 62.91h69.353M29.213 66.918h69.354"/>
        </g>
        <path fill="#3C3AC4" fill-rule="nonzero" d="M55.963 30.908l-.79 2.4h4.894l13.26-17.683-3.157-3.547z"/>
        <path fill="#E2E2FD" fill-rule="nonzero" d="M83.01 52.45H59.646V30.125l12.366-16.639L83.01 27.57z"/>
        <path fill="#D0D0F7" fill-rule="nonzero" d="M94.797 32.681L83.01 28.874V52.45z"/>
        <path fill="#3C3AC4" fill-rule="nonzero" d="M86.22 32.942L71.118 12.808l-11.472 15.23v3.6l11.472-15.022L83.01 32.994z" opacity=".2"/>
        <path fill="#3C3AC4" fill-rule="nonzero" d="M86.325 32.107l-.684 1.2 8.84-.104.526-.887z"/>
        <path fill="#615EEE" fill-rule="nonzero" d="M70.434 11.504l.263-1.304h29.467l11.577 18.726H97.007l-2 3.39h-8.735z"/>
        <g stroke="#3C3AC4" stroke-width=".6" opacity=".2">
            <path d="M112.108 11.087H42.755M114.266 14.999H44.912M116.371 18.963H47.017M118.528 22.927H49.175M120.633 26.839H51.28M122.79 30.803H53.437M124.895 34.715H55.542M127.053 38.68H57.7M129.157 42.592H59.804M131.315 46.556H61.961"/>
        </g>
        <path fill="#726EFB" fill-rule="nonzero" d="M55.174 33.307l-1.21-.939 16.575-22.063L86.904 32.42l-1.263.887-15.102-20.394z"/>
        <path fill="#3C3AC4" fill-rule="nonzero" d="M21.292 98.81l-1.575 4.934h9.87l26.777-36.11-6.353-7.191z"/>
        <path fill="#E2E2FD" fill-rule="nonzero" d="M75.948 153.448H28.695v-56.16L53.739 63.33l22.21 28.71z"/>
        <path fill="#D0D0F7" fill-rule="nonzero" d="M96.687 102.484l-20.739-7.768v58.732h20.74z"/>
        <path fill="#3C3AC4" fill-rule="nonzero" d="M82.669 101.277l-1.418 2.467 16.276-.21 1.26-1.785z"/>
        <path fill="#615EEE" fill-rule="nonzero" d="M50.484 59.236l.315-2.362h14.7l33.288 44.875H82.511z"/>
        <path fill="url(#c)" fill-rule="nonzero" d="M64.58 22.517H53.554V16.9h6.825z" transform="translate(17.039 56.087)"/>
        <g stroke="#3C3AC4" stroke-width=".6" opacity=".2">
            <path d="M109.393 61.072h-69.2M111.546 65.271h-69.2M113.646 69.47h-69.2M115.799 73.67h-69.2M117.899 77.868h-69.2M120.052 82.067h-69.2M122.152 86.266h-69.2M124.305 90.465h-69.2M126.405 94.664h-69.2M128.557 98.862h-69.2"/>
        </g>
        <path fill="#726EFB" fill-rule="nonzero" d="M19.717 103.744l-2.52-1.89 33.602-44.98 33.025 44.98-2.573 1.89-30.505-41.622z"/>
        <g fill-rule="nonzero">
            <path fill="#F2F2F8" d="M70.593 78.603l-3.15-4.619v-16.69h3.15z"/>
            <path fill="#E2E2FD" d="M70.593 57.294h3.203v21.362h-3.203z"/>
            <path fill="#D3D3F2" d="M73.743 57.924H67.39a.339.339 0 0 1-.315-.315v-1.155c0-.157.158-.315.315-.315h6.353c.158 0 .315.158.315.315v1.155c-.052.157-.157.315-.315.315z"/>
            <path fill="#C9C9F2" d="M73.9 57.924h-3.202a.339.339 0 0 1-.315-.315v-1.155c0-.157.157-.315.315-.315H73.9c.157 0 .315.158.315.315v1.155a.339.339 0 0 1-.315.315z"/>
        </g>
        <g fill-rule="nonzero">
            <path fill="#E2E2FD" stroke="#B2B2ED" stroke-linecap="round" stroke-linejoin="round" stroke-width=".6" d="M114.272 101.366h-11.018V89.077c0-3.111 2.483-5.59 5.483-5.59 3.052 0 5.483 2.531 5.483 5.59v12.289h.052z"/>
            <path fill="#726EFB" d="M113.444 100.31h-9.31V89.078c0-2.531 2.017-4.535 4.448-4.535h.414c2.482 0 4.448 2.056 4.448 4.535v11.234z"/>
            <path fill="#E2E2FD" d="M108.323 84.383h1v16.19h-1z"/>
            <path fill="#E2E2FD" d="M103.815 92.939v-.897h9.931v.897z"/>
        </g>
        <g fill-rule="nonzero">
            <path fill="#D0D0F7" stroke="#BBBBEA" stroke-linecap="round" stroke-linejoin="round" stroke-width=".6" d="M77.14 45.83H66.027V33.543c0-3.111 2.516-5.59 5.557-5.59 3.094 0 5.558 2.532 5.558 5.59v12.289z"/>
            <path fill="#726EFB" d="M76.302 44.776h-9.437V33.542a4.522 4.522 0 0 1 4.509-4.535h.419c2.517 0 4.509 2.057 4.509 4.535v11.234z"/>
            <path fill="#D0D0F7" d="M71.111 28.848h1V45.04h-1z"/>
            <path fill="#D0D0F7" d="M66.527 37.406v-.897h10.066v.897z"/>
        </g>
        <g fill-rule="nonzero">
            <path fill="#E2E2FD" stroke="#B2B2ED" stroke-linecap="round" stroke-linejoin="round" stroke-width=".6" d="M132.02 101.366h-11.017V89.077c0-3.111 2.483-5.59 5.483-5.59 3.052 0 5.483 2.531 5.483 5.59v12.289h.052z"/>
            <path fill="#726EFB" d="M131.193 100.31h-9.31V89.078c0-2.531 2.017-4.535 4.448-4.535h.414c2.482 0 4.448 2.056 4.448 4.535v11.234z"/>
            <path fill="#E2E2FD" d="M126.072 84.383h1v16.19h-1z"/>
            <path fill="#E2E2FD" d="M121.566 92.94v-.896h9.931v.896z"/>
        </g>
        <g fill-rule="nonzero">
            <path fill="#E2E2FD" stroke="#B2B2ED" stroke-linecap="round" stroke-linejoin="round" stroke-width=".6" d="M114.272 135.89h-11.018v-12.236c0-3.111 2.483-5.59 5.483-5.59 3.052 0 5.483 2.531 5.483 5.59v12.236h.052z"/>
            <path fill="#726EFB" d="M113.444 134.835h-9.31v-11.234c0-2.531 2.017-4.535 4.448-4.535h.414c2.482 0 4.448 2.057 4.448 4.535v11.234z"/>
            <path fill="#E2E2FD" d="M108.323 118.908h1v16.19h-1z"/>
            <path fill="#E2E2FD" d="M103.815 127.463v-.897h9.931v.897z"/>
        </g>
        <g fill-rule="nonzero">
            <path fill="#D0D0F7" stroke="#BBBBEA" stroke-linecap="round" stroke-linejoin="round" stroke-width=".6" d="M58.895 99.183H47.877V86.895c0-3.112 2.483-5.59 5.483-5.59 3.052 0 5.483 2.53 5.483 5.59v12.288h.052z"/>
            <path fill="#726EFB" d="M58.067 98.128h-9.31V86.895c0-2.532 2.017-4.536 4.448-4.536h.414c2.483 0 4.448 2.057 4.448 4.536v11.233z"/>
            <path fill="#D0D0F7" d="M52.998 82.201h1v16.191h-1z"/>
            <path fill="#D0D0F7" d="M48.446 90.694v-.897h9.932v.897z"/>
        </g>
        <g>
            <path fill="#C1C1EA" fill-rule="nonzero" d="M69.47 153.264H40.52v-28.167c0-7.876 6.457-14.24 14.449-14.24 7.991 0 14.448 6.364 14.448 14.24v28.167h.053z"/>
            <path fill="#726EFB" fill-rule="nonzero" d="M67.353 153.264H42.69v-27.906c0-6.729 5.504-12.153 12.332-12.153 6.827 0 12.33 5.424 12.33 12.153v27.906z"/>
            <path fill="#8A8AF9" fill-rule="nonzero" d="M66.877 153.264H43.59v-27.958c0-6.311 5.187-11.475 11.643-11.475 6.404 0 11.644 5.111 11.644 11.475v27.958z"/>
            <path stroke="#726EFB" stroke-width=".6" d="M44.86 153.264v-27.645c0-5.53 4.552-10.015 10.162-10.015 5.61 0 10.161 4.486 10.161 10.015v27.645"/>
            <g fill="#726EFB" fill-rule="nonzero" transform="translate(47.348 135.268)">
                <path d="M3.387 1.878H2.54v-.835h.847s.159.365 0 .835z"/>
                <ellipse cx="1.694" cy="1.46" rx="1.27" ry="1.252"/>
            </g>
        </g>
        <g fill-rule="nonzero">
            <path fill="#E2E2FD" stroke="#B2B2ED" stroke-linecap="round" stroke-linejoin="round" stroke-width=".6" d="M132.02 135.89h-11.017v-12.236c0-3.111 2.483-5.59 5.483-5.59 3.052 0 5.483 2.531 5.483 5.59v12.236h.052z"/>
            <path fill="#726EFB" d="M131.193 134.835h-9.31v-11.234c0-2.531 2.017-4.535 4.448-4.535h.414c2.482 0 4.448 2.057 4.448 4.535v11.234z"/>
            <path fill="#E2E2FD" d="M126.072 118.908h1v16.19h-1z"/>
            <path fill="#E2E2FD" d="M121.566 127.465v-.897h9.931v.897z"/>
        </g>
        <g fill-rule="nonzero">
            <path fill="#F2F2F8" d="M41.376 56.726l3.176-4.634V35.536h-3.176z"/>
            <path fill="#E2E2FD" d="M41.396 56.685H38.22v-21.19h3.176z"/>
            <path fill="#D3D3F2" d="M38.305 36.16h6.3a.336.336 0 0 0 .312-.312v-1.145a.336.336 0 0 0-.313-.313h-6.3a.336.336 0 0 0-.312.313v1.145c.052.156.156.312.313.312z"/>
            <path fill="#C9C9F2" d="M38.148 36.16h3.176a.336.336 0 0 0 .313-.312v-1.145a.336.336 0 0 0-.313-.313h-3.176a.336.336 0 0 0-.312.313v1.145c0 .156.156.312.312.312z"/>
        </g>
    </g>
</svg>
