<svg xmlns="http://www.w3.org/2000/svg" width="91" height="91" viewBox="0 0 91 91">
    <g fill="none" fill-rule="evenodd">
        <circle cx="45.054" cy="45.279" r="45" fill="#E2E1FE"/>
        <g fill-rule="nonzero" transform="translate(13.914 18.107)">
            <rect width="32.108" height="43.604" x="6.497" y="4.659" fill="#8A8AF9" rx="1.575" transform="rotate(-7 22.552 26.46)"/>
            <g fill="#FFF" opacity=".3" transform="translate(9.003 11.06)">
                <rect width="23.492" height="1.563" x=".199" y="1.559" rx=".779" transform="rotate(-7 11.944 2.34)"/>
                <rect width="23.492" height="1.563" x=".84" y="6.791" rx=".779" transform="rotate(-7 12.586 7.573)"/>
                <rect width="23.492" height="1.563" x="1.481" y="12.028" rx=".779" transform="rotate(-7 13.227 12.81)"/>
                <rect width="9.404" height="1.563" x="3.307" y="27.305" rx=".779" transform="rotate(-7 8.01 28.086)"/>
            </g>
            <rect width="32.108" height="43.604" x="15.208" y="4.446" fill="#615EEE" rx="1.575" transform="rotate(.46 31.262 26.248)"/>
            <g fill="#FFF" opacity=".3" transform="translate(19.003 11.893)">
                <rect width="23.492" height="1.563" x=".62" y=".421" rx=".779" transform="rotate(.46 12.365 1.202)"/>
                <rect width="23.492" height="1.563" x=".577" y="5.691" rx=".779" transform="rotate(.46 12.323 6.472)"/>
                <rect width="23.492" height="1.563" x=".535" y="10.962" rx=".779" transform="rotate(.46 12.28 11.743)"/>
                <rect width="9.404" height="1.563" x=".415" y="25.437" rx=".779" transform="rotate(.46 5.117 26.218)"/>
            </g>
            <rect width="31.936" height="43.37" x="24.62" y="5.326" fill="#3C3AC4" rx="1.575" transform="rotate(9.841 40.588 27.011)"/>
            <g fill="#FFF" opacity=".3" transform="translate(26.503 11.476)">
                <rect width="23.492" height="1.563" x="4.675" y="2.441" rx=".779" transform="rotate(10.07 16.421 3.222)"/>
                <rect width="23.492" height="1.563" x="3.757" y="7.629" rx=".779" transform="rotate(10.07 15.503 8.41)"/>
                <rect width="23.492" height="1.563" x="2.835" y="12.818" rx=".779" transform="rotate(10.07 14.58 13.599)"/>
                <rect width="9.404" height="1.563" x=".399" y="25.892" rx=".779" transform="rotate(10.07 5.1 26.674)"/>
            </g>
            <path fill="#FFB23D" d="M57.265 5.135a2.146 2.146 0 0 1-1.25 1.279.083.083 0 0 0 0 .158c.583.224 1.04.691 1.25 1.28a.083.083 0 0 0 .159 0 2.15 2.15 0 0 1 1.25-1.28.088.088 0 0 0 0-.158 2.15 2.15 0 0 1-1.25-1.28.083.083 0 0 0-.159 0zM.182 1.268a.167.167 0 0 0-.138.279A4.22 4.22 0 0 1 1.165 4.88a.17.17 0 0 0 .288.138A4.23 4.23 0 0 1 4.786 3.81a.167.167 0 0 0 .133-.25A4.237 4.237 0 0 1 3.8.226.167.167 0 0 0 3.515.06 4.233 4.233 0 0 1 .182 1.268zM2.899 6.78a1.712 1.712 0 0 1-1.396-.27.067.067 0 0 0-.104.07 1.72 1.72 0 0 1-.313 1.396.067.067 0 0 0 .07.104 1.696 1.696 0 0 1 1.4.275.07.07 0 0 0 .11-.07 1.7 1.7 0 0 1 .303-1.392.07.07 0 0 0-.07-.113zM47.582 51.939c-.537.531-1.28.8-2.033.737a.104.104 0 0 0-.08.175 2.58 2.58 0 0 1 .684 2.046.104.104 0 0 0 .175.088 2.587 2.587 0 0 1 2.029-.742.1.1 0 0 0 .083-.171 2.596 2.596 0 0 1-.683-2.05.104.104 0 0 0-.175-.083z"/>
        </g>
    </g>
</svg>
