<svg xmlns="http://www.w3.org/2000/svg" width="90" height="90" viewBox="0 0 90 90">
    <g fill="none" fill-rule="nonzero">
        <ellipse cx="45.101" cy="44.98" fill="#E2E2FD" rx="44.885" ry="44.723"/>
        <path fill="#C1C1EA" d="M66.11 36.74l-9.05-9.023v36.16h12.11v-19.81c-.002-2.75-1.103-5.387-3.06-7.327z"/>
        <path fill="#615EEE" d="M26.107 57.287l-6.83-17.674a3.429 3.429 0 0 1 .07-2.639 3.448 3.448 0 0 1 1.926-1.812l32.25-12.391a3.46 3.46 0 0 1 4.466 1.972l6.811 17.69a3.436 3.436 0 0 1-1.964 4.452l-32.25 12.391a3.47 3.47 0 0 1-2.654-.066 3.452 3.452 0 0 1-1.825-1.923z"/>
        <path fill="#726EFB" d="M60.437 31.128L21.77 46.063l2.573 6.659 38.67-14.929z"/>
        <path fill="#3C3AC4" d="M19.044 38.945v-18.94a3.45 3.45 0 0 1 3.456-3.443h34.56a3.45 3.45 0 0 1 3.456 3.443v18.94c0 .913-.363 1.79-1.011 2.437a3.462 3.462 0 0 1-2.445 1.01H22.5a3.462 3.462 0 0 1-2.445-1.01 3.437 3.437 0 0 1-1.011-2.437z"/>
        <path fill="#C1C1EA" d="M23.364 35.501h1.728c.477 0 .864.386.864.861s-.387.86-.864.86h-1.728a.862.862 0 0 1-.864-.86c0-.475.387-.86.864-.86zM28.892 35.501h1.73c.478 0 .865.386.865.861s-.387.86-.864.86h-1.731a.862.862 0 0 1-.861-.86c0-.474.385-.86.86-.86z"/>
        <path fill="#726EFB" d="M54.468 20.005h1.728v2.583h-1.728zM51.012 20.005h1.728v2.583h-1.728zM47.556 20.005h1.728v2.583h-1.728z"/>
        <path fill="#FFB23D" d="M22.5 25.516v-4.134c0-.76.618-1.377 1.381-1.377h4.15c.763 0 1.381.617 1.381 1.377v4.134c0 .76-.618 1.376-1.381 1.376h-4.14a1.384 1.384 0 0 1-.983-.4 1.374 1.374 0 0 1-.408-.976z"/>
        <path fill="#C1C1EA" d="M51.055 38.107a3.753 3.753 0 0 0-3.595-1.045c-1.3.317-2.33 1.3-2.705 2.58a3.72 3.72 0 0 0 .89 3.623l7.082 7.7a21.954 21.954 0 0 0 .13 11.715c.04.066.066.13.106.193l.628 1.004h11.232V51.812L51.055 38.107z"/>
        <path fill="#615EEE" d="M52.861 62.876H69.9a1.237 1.237 0 0 1 1.26 1.223v8.08a1.242 1.242 0 0 1-1.26 1.22H52.86a1.245 1.245 0 0 1-1.263-1.22V64.1a1.245 1.245 0 0 1 1.263-1.223z"/>
        <ellipse cx="66.014" cy="68.993" fill="#C1C1EA" rx="1.188" ry="1.184"/>
    </g>
</svg>
