<svg xmlns="http://www.w3.org/2000/svg" width="90" height="90" viewBox="0 0 90 90">
    <g fill="none" fill-rule="evenodd">
        <circle cx="44.951" cy="45.144" r="44.885" fill="#E2E2FD" fill-rule="nonzero"/>
        <path fill="#615EEE" fill-rule="nonzero" d="M54 28.731c-10.328 0-18.7 8.373-18.7 18.7 0 10.329 8.372 18.701 18.7 18.701s18.7-8.372 18.7-18.7a18.697 18.697 0 0 0-18.7-18.7zm0 33.284c-8.054 0-14.583-6.53-14.583-14.583 0-8.054 6.529-14.584 14.583-14.584s14.583 6.53 14.583 14.584c0 8.054-6.529 14.583-14.583 14.583z"/>
        <path fill="#615EEE" fill-rule="nonzero" d="M54 28.731c-.894 0-1.786.064-2.67.193a18.69 18.69 0 0 1 12.815 8.035 14.58 14.58 0 0 1 0 20.945 18.684 18.684 0 0 1-12.819 8.038c.885.127 1.777.19 2.67.19a18.7 18.7 0 1 0 0-37.397L54 28.73z"/>
        <path fill="#726EFB" fill-rule="nonzero" d="M54.01 32.835L43.269 22.85l4.104-6.11H60.65l4.104 6.11z"/>
        <path fill="#8A8AF9" fill-rule="nonzero" d="M43.269 22.85l4.104-6.11H60.65l4.104 6.11z"/>
        <path fill="#8A8AF9" fill-rule="nonzero" d="M54.01 32.835L50.7 22.85h6.637z" opacity=".8"/>
        <path fill="#726EFB" fill-rule="nonzero" d="M50.698 22.85l-3.319-6.113h6.637z"/>
        <path fill="#726EFB" fill-rule="nonzero" d="M57.332 22.85l-3.319-6.113h6.637z"/>
        <path fill="#FFB23D" fill-rule="nonzero" d="M44.87 60.716c0 3.213-6.196 5.819-13.838 5.819-7.642 0-13.837-2.619-13.837-5.82v-4.751h27.674v4.758-.006z"/>
        <ellipse cx="31.032" cy="55.954" fill="#FFC885" fill-rule="nonzero" rx="13.837" ry="5.816"/>
        <path fill="#FFB23D" fill-rule="nonzero" d="M44.87 54.936c0 3.214-6.196 5.819-13.838 5.819-7.642 0-13.837-2.618-13.837-5.819v-4.759h27.674v4.759z"/>
        <ellipse cx="31.032" cy="50.181" fill="#FFC885" fill-rule="nonzero" rx="13.837" ry="5.816"/>
        <path fill="#FFB23D" fill-rule="nonzero" d="M44.87 49.156c0 3.214-6.196 5.82-13.838 5.82-7.642 0-13.837-2.619-13.837-5.82v-4.758h27.674v4.758z"/>
        <ellipse cx="31.032" cy="44.401" fill="#FFC885" fill-rule="nonzero" rx="13.837" ry="5.816"/>
        <path fill="#FFB23D" fill-rule="nonzero" d="M44.87 43.377c0 3.214-6.196 5.819-13.838 5.819-7.642 0-13.837-2.619-13.837-5.82v-4.758h27.674v4.759z"/>
        <ellipse cx="31.032" cy="38.618" fill="#FFC885" fill-rule="nonzero" rx="13.837" ry="5.816"/>
        <path fill="#FFDEB6" fill-rule="nonzero" d="M31.032 33.938c-6.67 0-12.076 2.095-12.076 4.68 0 2.586 5.406 4.683 12.076 4.683 6.67 0 12.076-2.097 12.076-4.683 0-2.585-5.41-4.68-12.076-4.68zm0 8.837c-5.93.006-10.741-1.866-10.741-4.157 0-2.29 4.804-4.16 10.734-4.16s10.735 1.863 10.735 4.16c0 2.298-4.801 4.163-10.728 4.163v-.006z"/>
        <path stroke="#3C3AC4" stroke-linecap="round" stroke-linejoin="round" stroke-width="4" d="M18.524 26.869l52.245 46.682"/>
    </g>
</svg>
