<svg xmlns="http://www.w3.org/2000/svg" width="90" height="90" viewBox="0 0 90 90">
    <g fill="none" fill-rule="evenodd">
        <circle cx="44.88" cy="44.978" r="44.88" fill="#E2E2FD" fill-rule="nonzero"/>
        <path fill="#C1C1EA" fill-rule="nonzero" d="M51.532 21.64c-.167-1.615-1.212-4.67-4.068-5.894-2.508-1.088-5.37-.388-8.51 2.04-6.26 4.834-10.107 9.181-9.933 15.906.066 2.428.258 8.18.465 14.27.203 6.013.414 12.233.479 14.784l.083 3.096 14.172-.363.439-2.49c7.037-39.694 6.924-40.812 6.873-41.35z"/>
        <path fill="#3C3AC4" fill-rule="nonzero" d="M41.073 41.454l-.08-27.254a1.702 1.702 0 0 1 1.695-1.705l18.799-.055a1.698 1.698 0 0 1 1.705 1.695l.08 27.254a1.698 1.698 0 0 1-1.695 1.706l-18.798.054a1.698 1.698 0 0 1-1.706-1.695"/>
        <path fill="#726EFB" fill-rule="nonzero" d="M57.28 39.451a2.994 2.994 0 1 1-.021-5.988 2.994 2.994 0 0 1 .022 5.988"/>
        <path d="M54.755 20.918l.011 3.168M54.751 18.802l-.011-3.172"/>
        <path fill="#C1C1EA" fill-rule="nonzero" d="M38.054 38.392l2.99 2.504 2.762-1.11-.287-10.96s-.428-5.662 3.727-5.77c4.156-.11 4.021 5.57 4.021 5.57l.302 11.613c.859 3.1 1.323 6.295 1.382 9.511.145 5.575-4.239 11.537-7.922 11.613-3.683.077-7.175.425-7.175.425"/>
        <path fill="#726EFB" fill-rule="nonzero" d="M46.452 71.383l.047-5.211a2.178 2.178 0 0 0-2.156-2.2l-15.46-.17a2.177 2.177 0 0 0-2.202 2.16l-.044 5.21a2.178 2.178 0 0 0 2.156 2.2l15.456.17a2.177 2.177 0 0 0 2.203-2.159z"/>
        <path fill="#615EEE" fill-rule="nonzero" d="M26.637 69.859a2.177 2.177 0 0 1 2.178-2.12l6.169.055 12.832.152a2.177 2.177 0 0 1 2.152 2.243L49.82 75.4a2.177 2.177 0 0 1-2.202 2.116l-18.98-.203a2.177 2.177 0 0 1-2.156-2.243l.156-5.211z"/>
        <rect width="6.224" height="7.806" x="53.855" y="16.04" fill="#FFB23D" fill-rule="nonzero" rx="2.13"/>
        <path fill="#C1C1EA" fill-rule="nonzero" d="M57.28 35.677a2.994 2.994 0 1 1-.021-5.988 2.994 2.994 0 0 1 .022 5.988"/>
        <path fill="#E2E2FD" fill-rule="nonzero" d="M57.263 33.463a2.972 2.972 0 0 0-2.316 1.089 2.994 2.994 0 0 0 4.649 0 2.987 2.987 0 0 0-2.333-1.089z"/>
    </g>
</svg>
