<?xml version="1.0" encoding="UTF-8"?>
<svg width="91px" height="91px" viewBox="0 0 91 91" version="1.1" xmlns="http://www.w3.org/2000/svg" xmlns:xlink="http://www.w3.org/1999/xlink">
    <!-- Generator: sketchtool 60 (101010) - https://sketch.com -->
    <title>D44110A1-A1AC-4348-97A1-B60B29E35A5B@1.00x</title>
    <desc>Created with sketchtool.</desc>
    <g id="Home-&amp;-Landing" stroke="none" stroke-width="1" fill="none" fill-rule="evenodd">
        <g id="Home-page" transform="translate(-83.000000, -1993.000000)">
            <g id="Group-45" transform="translate(83.000000, 1881.000000)">
                <g id="Group-44" transform="translate(0.000000, 99.000000)">
                    <g id="Sakal-icons_02-01" transform="translate(0.000000, 13.000000)">
                        <circle id="Oval" fill="#E2E1FE" cx="45.0541667" cy="45.2791667" r="45"></circle>
                        <g id="Group-42" transform="translate(13.913997, 18.107148)" fill-rule="nonzero">
                            <rect id="Rectangle" fill="#8A8AF9" transform="translate(22.551508, 26.460769) rotate(-7.000000) translate(-22.551508, -26.460769) " x="6.49734094" y="4.65868584" width="32.1083333" height="43.6041667" rx="1.575"></rect>
                            <g id="Group" opacity="0.3" transform="translate(9.002670, 11.059519)" fill="#FFFFFF">
                                <rect id="Rectangle" transform="translate(11.944384, 2.339917) rotate(-7.000000) translate(-11.944384, -2.339917) " x="0.198551113" y="1.55866692" width="23.4916667" height="1.5625" rx="0.779166667"></rect>
                                <rect id="Rectangle" transform="translate(12.585718, 7.572709) rotate(-7.000000) translate(-12.585718, -7.572709) " x="0.839884457" y="6.79145895" width="23.4916667" height="1.5625" rx="0.779166667"></rect>
                                <rect id="Rectangle" transform="translate(13.227051, 12.809668) rotate(-7.000000) translate(-13.227051, -12.809668) " x="1.4812178" y="12.0284176" width="23.4916667" height="1.5625" rx="0.779166667"></rect>
                                <rect id="Rectangle" transform="translate(8.009263, 28.085951) rotate(-7.000000) translate(-8.009263, -28.085951) " x="3.30717958" y="27.3047014" width="9.40416667" height="1.5625" rx="0.779166667"></rect>
                            </g>
                            <rect id="Rectangle" fill="#615EEE" transform="translate(31.262427, 26.247927) rotate(0.460000) translate(-31.262427, -26.247927) " x="15.2082604" y="4.44584364" width="32.1083333" height="43.6041667" rx="1.575"></rect>
                            <g id="Group" opacity="0.3" transform="translate(19.002670, 11.892852)" fill="#FFFFFF">
                                <rect id="Rectangle" transform="translate(12.365361, 1.202168) rotate(0.460000) translate(-12.365361, -1.202168) " x="0.619527804" y="0.420918048" width="23.4916667" height="1.5625" rx="0.779166667"></rect>
                                <rect id="Rectangle" transform="translate(12.323046, 6.472497) rotate(0.460000) translate(-12.323046, -6.472497) " x="0.577212639" y="5.69124699" width="23.4916667" height="1.5625" rx="0.779166667"></rect>
                                <rect id="Rectangle" transform="translate(12.280731, 11.742826) rotate(0.460000) translate(-12.280731, -11.742826) " x="0.534897475" y="10.9615759" width="23.4916667" height="1.5625" rx="0.779166667"></rect>
                                <rect id="Rectangle" transform="translate(5.116833, 26.218206) rotate(0.460000) translate(-5.116833, -26.218206) " x="0.414750077" y="25.4369559" width="9.40416667" height="1.5625" rx="0.779166667"></rect>
                            </g>
                            <rect id="Rectangle" fill="#3C3AC4" transform="translate(40.588066, 27.011019) rotate(9.841132) translate(-40.588066, -27.011019) " x="24.6200198" y="5.32589067" width="31.9360918" height="43.370257" rx="1.575"></rect>
                            <g id="Group" opacity="0.3" transform="translate(26.502670, 11.476186)" fill="#FFFFFF">
                                <rect id="Rectangle" transform="translate(16.421060, 3.222395) rotate(10.070000) translate(-16.421060, -3.222395) " x="4.6752265" y="2.44114534" width="23.4916667" height="1.5625" rx="0.779166667"></rect>
                                <rect id="Rectangle" transform="translate(15.503205, 8.410639) rotate(10.070000) translate(-15.503205, -8.410639) " x="3.75737137" y="7.62938905" width="23.4916667" height="1.5625" rx="0.779166667"></rect>
                                <rect id="Rectangle" transform="translate(14.580454, 13.598819) rotate(10.070000) translate(-14.580454, -13.598819) " x="2.83462103" y="12.8175686" width="23.4916667" height="1.5625" rx="0.779166667"></rect>
                                <rect id="Rectangle" transform="translate(5.100687, 26.673650) rotate(10.070000) translate(-5.100687, -26.673650) " x="0.398603757" y="25.8924002" width="9.40416667" height="1.5625" rx="0.779166667"></rect>
                            </g>
                            <path d="M57.2651699,5.13451916 C57.0545207,5.72250515 56.5981417,6.18953304 56.0151699,6.41368583 C55.980972,6.42492612 55.9578574,6.45685473 55.9578574,6.49285249 C55.9578574,6.52885026 55.980972,6.56077886 56.0151699,6.57201916 C56.5981417,6.79617195 57.0545207,7.26319984 57.2651699,7.85118583 C57.2764102,7.8853837 57.3083388,7.90849833 57.3443365,7.90849833 C57.3803343,7.90849833 57.4122629,7.8853837 57.4235032,7.85118583 C57.6346337,7.26350103 58.0908436,6.79664619 58.6735032,6.57201916 C58.7041655,6.55758482 58.7237354,6.52674245 58.7237354,6.49285249 C58.7237354,6.45896253 58.7041655,6.42812016 58.6735032,6.41368583 C58.0908436,6.1890588 57.6346337,5.72220395 57.4235032,5.13451916 C57.4122629,5.10032128 57.3803343,5.07720665 57.3443365,5.07720665 C57.3083388,5.07720665 57.2764102,5.10032128 57.2651699,5.13451916 L57.2651699,5.13451916 Z" id="Path" fill="#FFB23D"></path>
                            <path d="M0.181836529,1.26785249 C0.113121887,1.26157343 0.0476431336,1.29828603 0.0171550841,1.36018601 C-0.0133329653,1.42208599 -0.00252538994,1.49637245 0.044336529,1.54701916 C0.885078069,2.44216728 1.29427005,3.6590951 1.16516986,4.88035249 C1.15972146,4.95072412 1.19811185,5.01720101 1.26178649,5.04765409 C1.32546113,5.07810718 1.40130818,5.06626559 1.45266986,5.01785249 C2.333158,4.14627609 3.55153999,3.70461261 4.7860032,3.80951916 C4.84357151,3.8057804 4.8951126,3.77253683 4.92226064,3.72163424 C4.94940869,3.67073166 4.9483026,3.6094096 4.91933653,3.55951916 C4.08053818,2.66320948 3.67165322,1.44719475 3.7985032,0.226185826 C3.8275617,0.150168841 3.79747224,0.0642815443 3.72732659,0.023019393 C3.65718093,-0.0182427582 3.56749305,-0.0028127179 3.51516986,0.059519159 C2.63437367,0.930608473 1.4162241,1.37218769 0.181836529,1.26785249 Z" id="Path" fill="#FFB23D"></path>
                            <path d="M2.8985032,6.78035249 C2.41596252,6.89662509 1.90671212,6.79781531 1.50266986,6.50951916 C1.47988764,6.49256757 1.44886795,6.491908 1.42538577,6.50787589 C1.40190359,6.52384377 1.39111367,6.55293386 1.3985032,6.58035249 C1.50180478,7.06893309 1.3877692,7.578292 1.0860032,7.97618583 C1.0690516,7.99896805 1.06839204,8.02998773 1.08435993,8.05346992 C1.10032781,8.0769521 1.1294179,8.08774202 1.15683653,8.08035249 C1.64123729,7.96169942 2.15330944,8.06228502 2.55683653,8.35535249 C2.58034811,8.37052656 2.61058926,8.37043661 2.63401016,8.35512294 C2.65743105,8.33980928 2.66964125,8.31214258 2.66516986,8.28451916 C2.55793961,7.79847091 2.66910635,7.28984502 2.96933653,6.89285249 C2.98744316,6.86933319 2.98896581,6.83701912 2.97315097,6.81190142 C2.95733613,6.78678373 2.92753821,6.77419002 2.8985032,6.78035249 Z" id="Path" fill="#FFB23D"></path>
                            <path d="M47.5818365,51.9386858 C47.0445505,52.4700856 46.3015255,52.7395844 45.5485032,52.6761858 C45.5065767,52.675048 45.4680573,52.6991663 45.4507701,52.73738 C45.433483,52.7755936 45.4408006,52.8204478 45.4693365,52.8511858 C45.9850213,53.4005735 46.23467,54.1479975 46.1526699,54.8970192 C46.147739,54.9404712 46.1704734,54.9823768 46.2095875,55.0019339 C46.2487016,55.0214909 46.2958667,55.0145351 46.3276699,54.9845192 C46.8635514,54.453236 47.6046589,54.182359 48.3568365,54.2428525 C48.3996701,54.2487789 48.4414605,54.2265027 48.4604186,54.1876385 C48.4793768,54.1487743 48.4712074,54.1021274 48.4401699,54.0720192 C47.9252814,53.520473 47.6758534,52.7721892 47.7568365,52.0220192 C47.7597893,51.9793313 47.7363362,51.9391799 47.6977029,51.9207831 C47.6590696,51.9023863 47.6131157,51.9094867 47.5818365,51.9386858 Z" id="Path" fill="#FFB23D"></path>
                        </g>
                    </g>
                </g>
            </g>
        </g>
    </g>
</svg>