<svg xmlns="http://www.w3.org/2000/svg" width="168" height="86" viewBox="0 0 168 86">
    <defs>
        <linearGradient id="a" x1="49.675%" x2="49.675%" y1="-32.434%" y2="90.123%">
            <stop offset="0%" stop-color="#3C3AC4"/>
            <stop offset="100%" stop-color="#3C3AC4" stop-opacity="0"/>
        </linearGradient>
        <linearGradient id="b" x1="50.692%" x2="50.097%" y1="-32.995%" y2="89.772%">
            <stop offset="0%" stop-color="#3C3AC4"/>
            <stop offset="100%" stop-color="#3C3AC4" stop-opacity="0"/>
        </linearGradient>
    </defs>
    <g fill="none" fill-rule="evenodd">
        <path fill="#D0D0F7" fill-rule="nonzero" d="M163.636 22.837c.049 0 .775-.564.775-.564l1.357 1.834c1.017 1.41 1.55 3.056 1.502 4.796l-.194 4.279-3.44-6.301v-4.044zM6.147 39s-2.764 2.588-3.224 6.233c0 0-.154.792.563 1.531.716.74 2.303 1.69 2.303 1.69l1.484-8.186L6.147 39z"/>
        <path stroke="#8A8AF9" stroke-width=".5" d="M5.818 49.91l-1.848-.667c-.719-.256-1.283-.768-1.694-1.434l-.821-1.536"/>
        <path fill="#3C3AC4" fill-rule="nonzero" d="M80.727 48.286v21.811l17.596 1.63 4.95-7.19-6.813-18.264z"/>
        <g fill-rule="nonzero">
            <path fill="#D3D3D3" d="M83.936 50.06c.048 0 .096-.049.144-.049 0 0 .048 0 .096-.048.097-.05.193-.098.29-.098h.047c.048 0 .097-.049.145-.049.096-.049.192-.049.289-.097.048 0 .096-.05.144-.05h.048c.144-.048.24-.048.385-.097h.048c.145-.049.337-.049.481-.097v.097a6.821 6.821 0 0 0-2.358 1.074c-1.347.878-2.55 2.196-3.61 3.904-1.058 1.708-1.925 3.758-2.502 6.003-.626 2.294-.915 4.832-.915 7.516 0 2.635.337 5.173.915 7.418.577 2.245 1.444 4.197 2.503 5.759 1.058 1.562 2.262 2.782 3.61 3.514.77.439 1.54.683 2.357.83v.097c-.192 0-.433 0-.625-.049-.048 0-.096 0-.193-.049-.144 0-.288-.048-.433-.097-.048 0-.096 0-.144-.049l-.578-.146c-.048 0-.048 0-.096-.05-.193-.048-.337-.146-.53-.194-.048-.05-.096-.05-.144-.098-.144-.098-.289-.146-.433-.244-.048-.049-.096-.049-.144-.098-.193-.097-.385-.244-.53-.341 0 0-.048-.049-.096-.049-.144-.098-.337-.244-.481-.342l-.145-.146c-.144-.098-.24-.244-.385-.342-.048-.049-.096-.097-.144-.097v-.05c-.145-.146-.337-.34-.481-.536 0-.049-.049-.049-.097-.098a3.412 3.412 0 0 1-.385-.488c-.048-.048-.096-.146-.144-.195-.096-.146-.24-.341-.337-.488-.048-.049-.096-.097-.096-.146-.145-.244-.289-.44-.433-.684-.049-.048-.049-.097-.097-.146-.096-.195-.24-.39-.337-.586-.048-.097-.096-.146-.144-.244a7.997 7.997 0 0 1-.289-.634c-.048-.049-.048-.146-.096-.195-.096-.293-.24-.537-.337-.83 0-.049-.048-.146-.048-.195-.096-.244-.192-.44-.24-.683a.914.914 0 0 1-.097-.342.914.914 0 0 1-.096-.342c-.048-.146-.096-.244-.145-.39-.048-.098-.048-.244-.096-.342-.048-.146-.096-.293-.096-.439-.048-.098-.048-.244-.096-.39-.048-.147-.048-.293-.097-.44-.048-.146-.048-.244-.096-.39-.048-.195-.048-.342-.096-.537 0-.097-.048-.146-.048-.244-.048-.244-.096-.488-.096-.732 0-.098 0-.146-.049-.244-.048-.195-.048-.39-.096-.586 0-.048 0-.146-.048-.195v-.097c0-.196-.048-.342-.048-.537 0-.098 0-.195-.048-.293 0-.195-.048-.39-.048-.537v-.293c0-.244 0-.488-.048-.732v-.195-.83-.83-.292-.586-.244-.146c0-.195 0-.39.048-.586 0-.098 0-.195.048-.293 0-.097 0-.195.048-.293 0-.097 0-.244.048-.341v-.195c0-.098.048-.244.048-.342 0-.146.048-.342.048-.488 0-.146.048-.293.097-.488 0-.147.048-.244.048-.39 0-.147.048-.245.096-.391.048-.146.048-.293.096-.44v-.097c.096-.537.24-1.025.385-1.513 0-.049 0-.097.048-.097.145-.488.29-.976.434-1.416 0-.048.048-.097.048-.097.144-.44.337-.83.48-1.27v-.048c.049-.049.049-.146.097-.195l.145-.293c.048-.098.048-.146.096-.244.048-.146.144-.293.192-.44.048-.048.048-.097.097-.194.048-.05.048-.098.096-.196.048-.097.096-.195.144-.244.048-.049.048-.146.096-.195.049-.049.049-.098.097-.146.048-.098.096-.196.192-.293.048-.049.097-.147.145-.195 0 0 0-.05.048-.05.048-.097.144-.194.192-.34.048-.098.097-.147.145-.245.048-.097.144-.195.24-.293a.855.855 0 0 1 .193-.244c.048-.097.144-.195.192-.244.048-.097.097-.146.193-.244l.096-.097.144-.147c.049-.049.097-.146.145-.195.048-.049.048-.098.096-.098l.145-.146.192-.195s.048-.049.048-.098c.048-.049.145-.097.193-.195.096-.098.144-.146.24-.195.097-.049.145-.147.241-.195.048-.05.144-.098.192-.196.097-.048.193-.146.241-.195a.665.665 0 0 1 .193-.146s.048-.05.096-.05c.096-.048.192-.097.24-.194.049 0 .049-.05.097-.05.048-.048.096-.048.144-.097.096-.097.24-.146.337-.195 0 0 .048 0 .048-.049h.048c-.096.098.048.05.193 0z"/>
            <path fill="#2B2BA5" d="M97.123 60.31c.481 2.049.722 4.294.722 6.636 0 2.343-.24 4.637-.722 6.687-.481 2.098-1.203 4.05-2.07 5.71-.866 1.708-1.973 3.123-3.176 4.197-1.203 1.073-2.55 1.805-4.043 2a6.052 6.052 0 0 1-1.877 0c-.818-.097-1.588-.39-2.358-.829-1.348-.732-2.55-1.952-3.61-3.514-1.059-1.61-1.925-3.563-2.502-5.759-.626-2.245-.915-4.734-.915-7.418 0-2.635.337-5.173.915-7.516.577-2.293 1.443-4.343 2.502-6.003 1.06-1.659 2.262-3.025 3.61-3.904.77-.488 1.54-.878 2.358-1.074a8.179 8.179 0 0 1 1.877-.195c1.444.098 2.792.635 4.043 1.61 1.203.928 2.262 2.246 3.176 3.856a22.535 22.535 0 0 1 2.07 5.515z"/>
            <path fill="#2B2BA5" d="M84.032 50.011c-.048 0-.096.05-.144.05-.145.048-.24.097-.385.195h-.048s-.049 0-.049.048c-.096.05-.24.147-.336.196-.049.048-.097.048-.145.097-.048 0-.048.049-.096.049-.096.049-.193.098-.24.195-.049 0-.049.049-.097.049-.048.049-.096.098-.193.146a1.053 1.053 0 0 0-.24.196c-.048.048-.145.097-.193.195-.096.049-.144.146-.24.195-.097.049-.145.146-.241.195-.048.049-.144.098-.192.195 0 .05-.049.05-.049.098-.048.049-.096.146-.192.195l-.145.147-.096.097c-.048.05-.096.147-.144.195l-.145.147-.096.098c-.048.048-.096.146-.192.244a1.062 1.062 0 0 1-.193.244c-.048.097-.096.146-.192.244-.048.097-.145.195-.241.292-.048.098-.096.147-.144.244-.048.098-.145.196-.193.342 0 0 0 .049-.048.049-.048.049-.096.146-.144.195-.049.098-.097.195-.193.293-.048.049-.048.097-.096.146-.048.05-.048.098-.096.196-.049.097-.097.146-.145.244-.048.048-.048.097-.096.195-.048.049-.048.097-.096.195-.048.146-.145.293-.193.44-.048.097-.048.146-.096.243l-.144.293c-.049.049-.049.146-.097.195v.05c-.192.39-.337.829-.481 1.268 0 .049 0 .098-.048.098-.145.488-.289.927-.433 1.415 0 .049 0 .097-.048.097-.145.489-.241.977-.385 1.513v.098c-.049.146-.049.293-.097.44 0 .146-.048.243-.096.39 0 .146-.048.244-.048.39 0 .147-.048.293-.096.488 0 .147-.048.342-.048.488 0 .098-.049.244-.049.342v.195c0 .098-.048.244-.048.342 0 .097 0 .195-.048.292 0 .098 0 .196-.048.293 0 .196-.048.39-.048.586V69.19c0 .244 0 .488.048.732v.293c0 .195 0 .39.048.537 0 .098 0 .195.048.293 0 .195.048.342.048.537v.097c0 .05 0 .147.049.196 0 .195.048.39.096.585 0 .098 0 .147.048.244.048.244.096.488.096.732 0 .098.048.147.048.244.048.196.048.342.097.537.048.147.048.244.096.39.048.147.048.293.096.44.048.097.048.244.096.39.048.147.097.293.097.44.048.097.048.244.096.341.048.147.096.244.144.39a.914.914 0 0 1 .096.342.914.914 0 0 1 .097.342c.096.244.144.488.24.683 0 .049.049.098.049.195.096.293.24.537.336.83.049.049.049.146.097.195.096.195.192.39.288.635.049.097.097.146.145.244.096.195.24.39.337.585.048.05.048.098.096.147.144.244.289.439.433.683.048.049.096.098.096.146.097.147.241.342.337.488.048.05.097.147.145.196.144.146.288.341.385.488l.096.097c.144.195.337.342.481.537v.049c.048.049.096.098.145.098.144.146.24.244.385.341l.144.147c.144.146.289.244.481.341 0 0 .048.049.097.049.192.146.385.244.529.342.048.048.096.048.144.097.145.098.29.147.434.244.048.049.096.049.144.098.192.097.337.146.53.195.047 0 .047 0 .096.049l.577.146c.048 0 .096.05.144.05.145.048.29.048.434.097a.36.36 0 0 1 .192.048c.193 0 .385.05.626.05l-10.3-.196c-.192 0-.433 0-.625-.049-.048 0-.097 0-.193-.049H74.6 74.455 74.166c-.048 0-.096 0-.145-.048-.144-.05-.288-.05-.385-.098-.048 0-.048 0-.096-.049h-.096-.048c-.048 0-.097-.049-.145-.049-.048 0-.096-.048-.192-.048-.048 0-.096-.05-.145-.05 0 0-.048 0-.048-.048h-.048s-.048 0-.048-.049c-.048-.049-.144-.049-.192-.097 0 0-.049 0-.049-.05l-.288-.146s-.048 0-.048-.048h-.049a3.231 3.231 0 0 1-.529-.342l-.048-.049c-.096-.049-.193-.097-.24-.195l-.049-.049c-.048-.049-.096-.049-.144-.097 0 0-.048 0-.048-.05l-.049-.048-.048-.049c-.048-.049-.096-.097-.144-.097-.048-.05-.096-.098-.144-.098-.049 0-.049-.049-.097-.049l-.144-.146s-.048 0-.048-.05l-.048-.048-.097-.098c-.144-.146-.288-.244-.385-.39 0 0-.048-.049-.048-.098a2.115 2.115 0 0 1-.289-.341l-.048-.049c-.048-.049-.096-.098-.096-.146-.048-.05-.048-.098-.096-.098-.048-.049-.048-.098-.096-.146l-.049-.05c-.048-.048-.048-.097-.096-.146-.048-.048-.096-.146-.144-.195 0-.049-.048-.049-.048-.049 0-.048-.048-.048-.048-.097-.049-.049-.049-.098-.097-.147-.048-.048-.048-.097-.096-.146-.096-.098-.144-.244-.24-.342v-.048-.05c0-.048-.049-.097-.049-.146 0-.049-.048-.097-.048-.097-.048-.05-.048-.098-.096-.196-.048-.048-.048-.097-.096-.195 0-.049-.049-.049-.049-.097 0 0 0-.05-.048-.05 0-.048-.048-.048-.048-.097-.048-.049-.048-.097-.096-.146 0-.049-.048-.098-.048-.147v-.048c-.048-.147-.145-.293-.193-.44 0 0 0-.048-.048-.048v-.05-.048c0-.049-.048-.098-.048-.146-.048-.098-.096-.196-.144-.342l-.145-.293c-.048-.049-.048-.098-.048-.195l-.144-.293s0-.049-.048-.098a.372.372 0 0 0-.097-.195c0-.049-.048-.097-.048-.146v-.049-.049-.049c0-.048-.048-.097-.048-.195-.048-.097-.048-.146-.096-.244 0-.049-.048-.097-.048-.146v-.049-.049c0-.049 0-.097-.048-.097 0-.05-.049-.098-.049-.147 0-.049-.048-.097-.048-.195v-.098c0-.048 0-.097-.048-.146 0-.049 0-.049-.048-.098 0-.049 0-.097-.048-.146 0-.098-.048-.147-.048-.244v-.049c0-.049 0-.098-.048-.146 0-.05-.048-.098-.048-.147 0-.097-.049-.146-.049-.244 0-.097-.048-.195-.048-.293 0-.048 0-.097-.048-.146 0-.049 0-.098-.048-.098 0-.048 0-.146-.048-.195 0-.049 0-.146-.048-.195v-.049-.097-.098c0-.049 0-.146-.048-.195 0-.05 0-.098-.048-.147v-.146-.049-.098-.146c0-.049 0-.146-.049-.195v-.195-.147-.049-.146-.098c0-.097-.048-.244-.048-.341v-.195-.244-.196-.048-.05-.194-.245-.048-.098-.098-.195-.244-.146-.098-.146-.195-.244-.147-.049-.048-.05-.048-.098-.097-.098-.097-.196-.146-.195-.342-.098-.195-.195-.146-.098-.049-.244-.146-.098-.049-.097c0-.195.048-.39.048-.586v-.098-.048c.049-.196.049-.39.097-.586v-.195c0-.147.048-.244.048-.39 0-.098.048-.245.048-.342v-.05c0-.048 0-.097.048-.145 0-.147.048-.244.096-.39 0-.05 0-.099.048-.147v-.098-.049-.097c0-.098.049-.196.049-.244 0-.098.048-.147.048-.244 0-.05 0-.098.048-.147 0-.049 0-.049.048-.097 0-.05 0-.098.048-.147.048-.146.096-.293.096-.39 0-.049 0-.098.048-.147v-.048c.097-.293.193-.586.29-.83.047-.195.096-.342.192-.488v-.049c.048-.195.144-.39.24-.586 0-.048 0-.048.049-.048.048-.05.048-.147.096-.196.048-.097.096-.195.096-.244 0-.048.048-.097.096-.146 0-.049.048-.049.048-.098 0-.048.049-.097.049-.097 0-.05.048-.098.048-.147 0-.048 0-.048.048-.097.048-.098.096-.244.144-.342l.145-.293v-.049c.048-.048.048-.097.096-.146 0-.049.048-.098.048-.098 0-.048.048-.048.048-.097s.048-.049.048-.098l.145-.293c.048-.048.048-.097.096-.146v-.049l.289-.439v-.049-.049c0-.048.048-.048.048-.097.048-.098.144-.195.192-.293.048-.049.097-.098.097-.146.048-.098.144-.147.192-.245.048-.048.096-.146.144-.195 0 0 0-.049.049-.049v-.048c.048-.05.048-.098.096-.098.048-.049.096-.146.144-.195 0-.049.048-.049.096-.098l.097-.097.096-.098.096-.098.145-.146c.048-.049.048-.098.096-.098l.048-.048s0-.05.048-.05c.096-.097.145-.194.24-.243l.049-.049.192-.195.193-.195h.048l.048-.05c.096-.097.24-.194.337-.292.048 0 .048-.049.096-.049.048-.049.145-.098.241-.146 0 0 .048-.05.096-.05 0 0 .048 0 .048-.048.049 0 .049-.049.097-.049.048-.049.096-.049.144-.097.048-.05.096-.05.144-.098.049 0 .049-.049.097-.049 0 0 .048 0 .048-.049l.048-.048c.096-.05.24-.147.337-.196h.048c.048 0 .096-.048.144-.048.048 0 .097-.05.097-.05.048 0 .048-.048.096-.048h.048s.048 0 .096-.049h.048c.048 0 .097-.049.145-.049.048 0 .096-.048.096-.048s.048 0 .048-.05c.048 0 .048 0 .096-.048.049 0 .049 0 .097-.049h.048c.048 0 .096-.049.144-.049h.193c.048 0 .096-.048.144-.048.048 0 .048 0 .096-.05h.097c.048 0 .048 0 .096-.048h.192c.097 0 .145 0 .241-.049h.241l5.342-.634h.192l1.396-.147 3.417-.39a1.69 1.69 0 0 0-.481.098h-.048c-.145.048-.24.048-.385.097h-.048c-.048 0-.097.049-.145.049-.096.049-.192.049-.289.098-.048 0-.096.048-.144.048h-.048c-.096.05-.193.05-.289.098 0-.683 0-.635-.048-.635z"/>
            <g>
                <path fill="#FFF" d="M87.594 69.484h.048s.048 0 .048.049c0 0 .048.049.048.098 0 .048.048.048.048.097l2.262 5.954c0 .05 0 .05.048.098v.488c0 .049 0 .098-.048.098 0 .048-.048.048-.048.097s-.048.049-.048.098-.048.049-.048.049c-.193.146-.385.292-.578.39-.192.098-.385.244-.577.293a2.687 2.687 0 0 1-.578.195 2.407 2.407 0 0 1-.626.098c-.192 0-.433.048-.625 0-.193 0-.385-.05-.626-.098a4.424 4.424 0 0 1-.626-.195L85.091 77c-.048 0-.048-.049-.048-.049s-.048-.049-.048-.097c0-.05-.048-.05-.048-.098 0-.049-.049-.098-.049-.098v-.048-.05-.048-.049-.097-.098-.098c0-.048 0-.048.049-.097l2.358-6.394c0-.048.048-.048.048-.097s.048-.049.048-.049l.048-.049.048-.049c.048.098.048.098.097.05-.049.048-.049.048 0 0-.049 0-.049 0 0 0zm-.722-.146h-.048-.049s-.048 0-.048-.049l-.048-.049c-.048-.049-.096-.097-.096-.195-.048-.049-.048-.146-.048-.244v-.244c0-.098.048-.146.048-.244 0-.049.048-.098.048-.098 0-.048.048-.048.096-.097.048 0 .048-.05.097-.05h.192s.048 0 .048.05l.048.049c.048.048.097.097.097.195.048.049.048.146.048.244v.244c0 .097-.048.146-.048.244 0 .049-.049.097-.049.097 0 .05-.048.05-.096.098-.048 0-.048.049-.096.049h-.096zm1.395-.098h-.096c-.048 0-.048 0-.096-.049-.048 0-.048-.048-.096-.097 0-.049-.049-.049-.049-.098-.048-.049-.048-.146-.048-.244v-.244c0-.097.048-.146.048-.244.049-.049.049-.146.097-.195l.048-.049.048-.049s.048 0 .048-.049H88.316c.048 0 .048.05.096.05s.048.048.096.097c0 .049.048.049.048.098.048.048.048.146.048.244v.244c0 .097-.048.146-.048.244-.048.048-.048.146-.096.195l-.048.049-.048.048s-.048 0-.048.05h-.049zm-1.828-2.05h-.049-.048-.048c-.048 0-.096-.048-.144-.097-.048-.049-.048-.098-.097-.195 0-.05-.048-.147-.048-.244v-.244c0-.05.048-.147.048-.196.049-.048.049-.097.097-.146l.096-.098c.048 0 .096-.048.096-.048h.193c.048.048.096.048.144.097.048.049.048.098.096.195 0 .05.049.147.049.244v.244c0 .05-.049.147-.049.196-.048.048-.048.097-.096.146l-.096.098c-.048.048-.096.048-.144.048zm2.213-.097c-.048 0-.096 0-.096-.049-.048 0-.096-.049-.096-.098-.048-.048-.048-.097-.096-.146 0-.049-.048-.098-.048-.195v-.244c0-.098 0-.147.048-.244 0-.05.048-.147.096-.195l.144-.147h.193c.048 0 .096 0 .096.049.048 0 .048.049.096.098.048.048.048.097.097.146 0 .049.048.098.048.195v.244c0 .098 0 .147-.048.244a.372.372 0 0 1-.097.195l-.144.147h-.048H88.652c.049 0 .049 0 0 0zm-7.17-1.025s.047 0 0 0h.047l4.428 1.562c.048 0 .048 0 .096.048.049 0 .049.05.049.05 0 .048.048.048.048.097s.048.049.048.097v.391c0 .049 0 .049-.048.098 0 .048 0 .048-.048.097l-2.936 5.857c0 .048-.048.048-.048.097s-.048.049-.048.098c-.049 0-.049.049-.097.049h-.192c-.048 0-.048 0-.097-.05-.048 0-.048-.048-.048-.048 0-.049-.048-.049-.048-.098-.24-.439-.481-.976-.674-1.464-.192-.537-.385-1.073-.48-1.659a10.865 10.865 0 0 1-.29-1.806c-.048-.634-.096-1.269-.096-1.903v-.195-.196-.195-.195c0-.098 0-.146.048-.195 0-.049.048-.147.097-.195.048-.05.048-.098.096-.147.048-.146.096-.146.192-.195-.048 0-.048 0 0 0-.048 0-.048 0 0 0-.048 0 0 0 0 0zm11.79-.488h.097s.048 0 .048.049l.048.049s0 .048.048.048c0 0 0 .05.048.05 0 0 0 .048.049.048V66.849c0 .585-.049 1.171-.097 1.757a9.726 9.726 0 0 1-.288 1.708c-.097.537-.29 1.122-.434 1.61a14.163 14.163 0 0 1-.625 1.513c0 .05-.048.05-.048.098 0 .049-.048.049-.048.049l-.049.049h-.192c-.048 0-.048 0-.048-.05l-.048-.048c0-.049-.049-.049-.049-.098l-2.743-5.27c0-.05-.048-.05-.048-.098 0-.049 0-.049-.048-.098v-.097-.098-.049-.049-.048-.05c0-.048 0-.097.048-.097 0-.049.048-.049.048-.097 0-.05.048-.05.048-.098 0 0 .048-.049.097-.049l4.09-1.903c.049.244.049.244.097.244-.048 0-.048 0 0 0zm-5.727.244c-.048 0-.096 0-.144-.049l-.144-.146c-.048-.05-.048-.147-.097-.196 0-.097-.048-.146-.048-.244 0-.097 0-.195.048-.244 0-.097.049-.146.097-.195l.144-.146c.048-.049.096-.049.144-.049.049 0 .097 0 .145.049l.144.146c.048.049.048.147.096.195 0 .098.049.147.049.244 0 .098 0 .196-.049.244-.048.05-.048.147-.096.196l-.144.146s-.048 0-.145.049zm1.396-8.785s.048 0 0 0c.048 0 .048 0 0 0 .048 0 .048 0 0 0h.048c.385.147.77.39 1.107.683.337.293.674.635 1.011 1.025.337.39.626.83.866 1.318.24.488.482 1.025.722 1.562 0 .049 0 .049.048.097v.488c0 .05 0 .098-.048.098 0 .049-.048.049-.048.098 0 .048-.048.048-.048.097 0 .05-.048.05-.048.05l-3.899 2.83h-.048-.048-.048-.048-.048s-.048 0-.048-.05l-.048-.048-.049-.049s0-.049-.048-.049v-.097-.098-.097l.337-7.223v-.147c0-.049 0-.097.048-.146 0-.049.048-.098.048-.098 0-.049.049-.049.049-.097 0 0 .048 0 .048-.05 0 0 .048 0 .048-.048.096-.049.096-.049.144-.049zm-2.791 0c.048 0 .048 0 0 0 .048 0 .048 0 0 0h.048c.048 0 .048.049.096.049l.096.098c.049.048.049.097.049.146 0 .049.048.098.048.146v.196l.337 7.271V65.238c0 .05 0 .05-.049.098l-.048.049-.048.048s-.048 0-.048.05h-.048-.048-.048-.048-.049l-4.187-2.636c-.048 0-.048-.049-.096-.049 0-.049-.048-.049-.048-.098 0-.048-.048-.048-.048-.097s-.048-.098-.048-.098v-.049-.048-.05-.048-.098-.097-.098c0-.049 0-.049.048-.097.24-.586.481-1.172.77-1.66.289-.488.625-.976.962-1.366.337-.39.722-.781 1.107-1.025.385-.293.77-.537 1.203-.683.049-.147.049-.147.097-.147zm1.444-2.196a5.1 5.1 0 0 0-2.936.927c-.915.635-1.781 1.562-2.455 2.685-.722 1.17-1.3 2.537-1.684 4.05a20.81 20.81 0 0 0-.626 5.027c0 1.757.24 3.465.626 4.93a13.772 13.772 0 0 0 1.684 3.904c.722 1.073 1.54 1.903 2.455 2.44.914.537 1.925.78 2.936.634 1.01-.097 1.973-.585 2.84-1.269.865-.683 1.636-1.659 2.261-2.83.626-1.123 1.155-2.49 1.492-3.905a20.72 20.72 0 0 0 .53-4.636c0-1.61-.193-3.172-.53-4.588a13.868 13.868 0 0 0-1.492-3.757c-.625-1.074-1.396-1.953-2.262-2.587a5.175 5.175 0 0 0-2.84-1.025z"/>
                <path fill="#D3D3D3" d="M87.545 64.506c-.048 0-.096 0-.144.049l-.144.146c-.048.05-.048.147-.097.196 0 .097-.048.146-.048.244 0 .097 0 .195.048.244 0 .097.049.146.097.195l.144.146c.048.05.096.05.144.05.049 0 .097 0 .145-.05l.144-.146c.048-.049.048-.147.096-.195.049-.05.049-.147.049-.244 0-.098 0-.147-.049-.244 0-.098-.048-.147-.096-.196l-.144-.146s-.048-.049-.145-.049zM88.652 65.824h-.048-.048-.048l-.144.146c-.048.05-.048.147-.097.196 0 .097-.048.146-.048.244v.244c0 .048.048.146.048.195 0 .049.049.097.097.146l.096.098c.048 0 .096.049.096.049h.193c.048-.05.096-.05.144-.147.048-.049.048-.146.096-.195 0-.049.048-.146.048-.244v-.244c0-.049-.048-.146-.048-.195 0-.05-.048-.098-.096-.147l-.096-.097c-.048-.05-.096-.05-.145-.05zM88.267 67.971h-.048s-.048 0-.048.05l-.048.048-.048.049c-.048.049-.096.097-.096.195-.049.049-.049.146-.049.244v.244c0 .098.049.146.049.244 0 .049.048.098.048.098 0 .048.048.048.096.097.048 0 .048.049.096.049H88.364s.048 0 .048-.049l.048-.049.048-.048c.048-.05.096-.098.096-.196.048-.048.048-.146.048-.244v-.244c0-.097-.048-.146-.048-.244 0-.048-.048-.097-.048-.097 0-.05-.048-.05-.096-.098-.048 0-.048-.049-.096-.049h-.097zM86.439 65.922c-.049 0-.097 0-.097.048-.048 0-.096.05-.096.098-.048.049-.048.098-.096.146-.048.05-.048.098-.048.196v.244c0 .097 0 .146.048.244 0 .048.048.146.096.195.048.049.096.097.144.097h.193c.048 0 .096 0 .096-.048.048 0 .096-.05.096-.098.049-.049.049-.098.097-.146.048-.05.048-.098.048-.196v-.244c0-.097 0-.146-.048-.244a.372.372 0 0 0-.097-.195c-.048-.049-.096-.097-.144-.097h-.048H86.439c.048 0 .048 0 0 0zM88.556 64.897s-.048 0 0 0v-.05-.048l.289-6.49c.337.146.674.34 1.01.585.338.244.626.537.915.878.289.342.53.732.77 1.172.24.439.433.878.626 1.366l-3.61 2.587zm.385-7.858h-.096s-.048 0-.048.049c0 0-.048 0-.048.049-.048 0-.048.049-.048.097 0 .05-.049.05-.049.098 0 .049-.048.098-.048.146v.147l-.337 7.223V65.14c0 .048 0 .048.049.048l.048.05.048.048s.048 0 .048.049h.241l3.898-2.83c.048 0 .048-.05.048-.05 0-.048.048-.048.048-.097s.048-.049.048-.098 0-.097.048-.097v-.05-.048-.049-.049-.097-.098-.097c0-.05 0-.05-.048-.098a9.17 9.17 0 0 0-.722-1.562 15.446 15.446 0 0 0-.866-1.317c-.337-.39-.674-.732-1.01-1.025-.338-.293-.723-.488-1.108-.684-.048.05-.048.05-.096.05.048 0 .048 0 0 0 .048 0 .048 0 0 0 .048 0 0 0 0 0zM86.583 64.994s-.048 0 0 0c-.048 0-.048 0 0 0l-3.802-2.391a10.25 10.25 0 0 1 .674-1.464c.24-.44.529-.879.818-1.22.288-.342.625-.684.962-.928a4.51 4.51 0 0 1 1.06-.585l.288 6.588v0zm-.433-7.955h-.048c-.385.147-.819.39-1.204.683-.385.293-.722.635-1.107 1.025-.336.39-.673.879-.962 1.367-.289.537-.578 1.074-.77 1.66 0 .048 0 .048-.048.097v.488c0 .049 0 .097.048.097 0 .05.048.098.048.098 0 .049.048.049.048.098 0 .048.048.048.096.048l4.188 2.636h.24s.048 0 .048-.049l.048-.049.049-.049s0-.048.048-.097v-.098-.097-.098l-.337-7.272v-.049-.048-.05-.048c0-.049 0-.098-.048-.146 0-.05-.048-.098-.048-.147l-.097-.097c-.048-.05-.048-.05-.096-.05-.048.147-.048.147-.096.147.048 0 .048 0 0 0 .048 0 .048 0 0 0zM83.358 73.389c-.24-.39-.433-.83-.577-1.27a6.887 6.887 0 0 1-.433-1.415c-.145-.488-.193-1.025-.29-1.561a19.208 19.208 0 0 1-.095-1.709v-.195-.195-.195-.195l3.994 1.366v.049l-2.599 5.32zm-1.877-7.321s-.048 0 0 0c-.048 0-.048 0 0 0-.048 0-.048 0 0 0-.096 0-.144.049-.144.049-.048.049-.096.097-.096.146-.048.049-.048.098-.097.195 0 .05-.048.147-.048.196v.78c0 .635.048 1.27.097 1.904.048.634.192 1.22.288 1.806.145.585.29 1.122.482 1.659.192.537.433 1.025.673 1.464 0 .049.048.049.048.098 0 .048.049.048.049.048.048 0 .048.05.096.05h.192c.049 0 .049-.05.097-.05s.048-.048.048-.097.048-.049.048-.098l2.936-5.856c0-.05.048-.05.048-.098 0-.049 0-.049.048-.097v-.098-.098-.049-.048-.05-.048c0-.049 0-.098-.048-.098 0-.048-.048-.048-.048-.097s-.048-.049-.048-.049c-.049 0-.049-.049-.097-.049l-4.427-1.561c-.049.146-.049.146-.097.146.048 0 0 0 0 0zM91.588 72.705l-2.454-4.734v-.049l3.657-1.708V66.995c0 .537-.048 1.074-.096 1.61a14.177 14.177 0 0 1-.24 1.514c-.097.488-.241.976-.385 1.415-.097.342-.241.78-.482 1.171zm1.685-7.125c-.048 0-.048 0 0 0h-.048l-4.091 1.903c-.048 0-.048.05-.097.05 0 0-.048.048-.048.097 0 .048-.048.048-.048.097 0 .05-.048.05-.048.098v.39c0 .05 0 .05.048.098 0 .049 0 .049.048.098l2.744 5.27c0 .05.048.05.048.098 0 .049.048.049.048.049l.048.049h.193l.048-.05.048-.048c0-.049.048-.049.048-.098.24-.488.433-.976.626-1.513a9.99 9.99 0 0 0 .433-1.61c.096-.537.192-1.123.288-1.708.049-.586.097-1.172.097-1.757v-.195-.196-.195-.195-.049-.049-.048-.05-.048s0-.049-.048-.049c0 0 0-.049-.049-.049 0 0 0-.048-.048-.048l-.048-.05-.048-.048h-.048c-.048-.244-.048-.244-.096-.244zM87.594 76.22h-.53c-.192 0-.385-.05-.53-.098-.192-.05-.336-.098-.529-.147-.192-.049-.337-.146-.53-.244l2.07-5.71v-.049.05l2.022 5.319c-.145.146-.337.244-.481.341a1.768 1.768 0 0 1-.53.244 2.325 2.325 0 0 1-.53.196c-.096 0-.288.048-.432.097zm0-6.736c-.049 0-.049 0 0 0-.049.049-.049.049 0 0h-.049s-.048 0-.048.049l-.048.049-.048.049c0 .048-.048.048-.048.097l-2.358 6.394c0 .048 0 .048-.048.097v.489c0 .048 0 .097.048.097 0 .049.048.049.048.097 0 .05.048.05.048.098l.048.049.578.293c.192.097.385.146.625.195.193.049.385.049.626.097h.626c.192 0 .433-.048.625-.097.193-.049.385-.147.578-.195l.577-.293a4.01 4.01 0 0 0 .578-.39l.048-.05c0-.048.048-.048.048-.097s.048-.049.048-.098c0-.048 0-.097.048-.097v-.05-.048-.049-.048-.098-.098-.097c0-.05 0-.05-.048-.098l-2.262-5.954c0-.049-.048-.098-.048-.098 0-.048-.048-.048-.048-.097l-.048-.049c-.048-.049-.096-.049-.096-.049zM86.872 68.069h-.097c-.048 0-.048.049-.096.049s-.048.049-.096.097c0 .05-.048.05-.048.098-.048.098-.048.146-.048.244v.244c0 .098.048.146.048.244.048.049.048.146.096.195l.048.049.048.049h.193c.048 0 .048-.049.096-.049s.048-.049.096-.098c0-.048.048-.097.048-.097.049-.049.049-.147.049-.244v-.244c0-.098-.049-.147-.049-.244-.048-.05-.048-.147-.096-.195l-.048-.05-.048-.048h-.048-.048z"/>
            </g>
        </g>
        <path fill="#3C3AC4" fill-rule="nonzero" d="M148.364 25.182v22.105l17.589 1.895.592-9.474-8.992-7.53z"/>
        <g fill-rule="nonzero">
            <path fill="#D3D3D3" d="M155.54 39.11c.048 0 .048-.048.096-.048 0 0 .049 0 .049-.05.048-.049.145-.049.194-.098.048 0 .097-.05.097-.05.048-.049.145-.049.194-.098.048 0 .097 0 .097-.05.097 0 .194-.049.242-.049h.049c.097-.05.242-.05.339-.05v.1c-.582.147-1.115.443-1.649.838-.92.69-1.745 1.725-2.472 3.057-.728 1.331-1.31 2.958-1.746 4.782a25.683 25.683 0 0 0-.678 5.917c0 2.12.193 4.093.63 5.868.388 1.775.97 3.303 1.697 4.585.727 1.233 1.551 2.22 2.473 2.81a4.363 4.363 0 0 0 1.6.642v.098c-.146 0-.291 0-.437-.049h-.097c-.097 0-.194-.05-.29-.05-.05 0-.098 0-.098-.049-.145-.049-.242-.098-.388-.148 0 0-.048 0-.048-.049-.097-.05-.242-.098-.34-.148-.048 0-.096-.049-.096-.049a1.013 1.013 0 0 1-.291-.197c-.049-.05-.049-.05-.097-.05-.146-.098-.243-.197-.388-.295l-.049-.05a2.12 2.12 0 0 0-.34-.296l-.096-.098c-.097-.099-.194-.197-.242-.296l-.097-.099c-.097-.148-.243-.246-.34-.394l-.048-.05c-.097-.147-.194-.246-.291-.394-.049-.05-.049-.098-.097-.148-.097-.148-.146-.246-.243-.394 0-.05-.048-.099-.097-.148-.097-.197-.194-.345-.29-.543 0-.049-.049-.098-.049-.098-.097-.148-.145-.296-.242-.493-.049-.05-.049-.148-.097-.197-.049-.148-.146-.296-.194-.493 0-.05-.049-.1-.049-.148-.097-.198-.145-.444-.242-.641 0-.05-.049-.099-.049-.148a2.43 2.43 0 0 0-.194-.543c-.048-.098-.048-.197-.097-.246 0-.099-.048-.197-.097-.296-.048-.099-.048-.197-.097-.296 0-.099-.048-.197-.048-.296 0-.098-.049-.197-.097-.345 0-.098-.048-.197-.048-.296 0-.098-.049-.197-.049-.345 0-.098-.048-.197-.048-.296 0-.148-.049-.296-.049-.394 0-.05 0-.099-.048-.197-.049-.198-.049-.395-.097-.592v-.197c0-.148-.049-.296-.049-.444v-.197-.099c0-.148-.048-.296-.048-.444v-.246c0-.148 0-.296-.049-.444v-.197-.592-.148-.64-.642-.197-.444-.197-.099c0-.147 0-.295.049-.443v-.247-.197c0-.099 0-.197.048-.296v-.148c0-.098 0-.197.049-.246 0-.148.048-.247.048-.395 0-.148.049-.246.049-.394 0-.099.048-.198.048-.296 0-.099.049-.197.049-.296 0-.099.048-.246.048-.345v-.05c.097-.394.145-.788.242-1.183V47.1c.097-.395.194-.79.291-1.134 0-.05 0-.05.049-.1.097-.344.194-.69.34-.985v-.05c0-.049.048-.098.048-.147.048-.099.048-.148.097-.247.048-.05.048-.148.097-.197.048-.099.097-.197.145-.345 0-.05.049-.099.049-.148 0-.05.048-.099.048-.148.049-.05.049-.148.097-.197.049-.05.049-.099.049-.148 0-.05.048-.099.048-.148.049-.099.097-.148.097-.247.048-.05.048-.098.097-.148v-.049c.048-.099.097-.148.145-.247a.376.376 0 0 0 .097-.197c.049-.098.097-.148.146-.246a.376.376 0 0 0 .097-.198c.048-.049.097-.147.145-.197.049-.049.097-.098.097-.197 0-.05.049-.05.049-.099.048-.049.048-.098.097-.147.048-.05.097-.1.097-.148 0-.05.048-.05.048-.099.049-.05.049-.099.097-.148.049-.05.097-.099.097-.148l.049-.05.145-.147.145-.148.146-.148.145-.148a.67.67 0 0 1 .194-.148c.049-.05.097-.05.146-.098l.048-.05a.67.67 0 0 1 .194-.148l.049-.049c.048 0 .048-.05.097-.05.097-.049.145-.098.242-.147 0 0 .049 0 .049-.05.387 0 .484-.049.581-.098z"/>
            <path fill="#2B2BA5" d="M164.558 47.247c.339 1.627.484 3.402.484 5.226 0 1.874-.194 3.649-.533 5.325-.34 1.677-.824 3.205-1.454 4.487-.63 1.331-1.358 2.465-2.182 3.304-.825.838-1.794 1.38-2.764 1.577-.436.05-.873.05-1.26 0a3.788 3.788 0 0 1-1.6-.64c-.922-.592-1.746-1.578-2.473-2.811-.728-1.282-1.31-2.81-1.697-4.586a27.513 27.513 0 0 1-.63-5.867c0-2.12.242-4.093.678-5.917.437-1.824 1.018-3.402 1.746-4.783.727-1.33 1.551-2.366 2.472-3.057.534-.394 1.067-.69 1.649-.838a5.501 5.501 0 0 1 1.26-.148c1.019.05 1.94.543 2.764 1.282.824.74 1.552 1.775 2.134 3.057.581 1.282 1.066 2.761 1.406 4.389z"/>
            <path fill="#2B2BA5" d="M155.588 39.062c-.049 0-.049.049-.097.049-.097.05-.146.099-.243.148 0 0-.048 0-.048.05-.097.048-.145.098-.242.147-.049 0-.049.05-.097.05l-.049.049a.67.67 0 0 1-.194.148l-.048.049c-.049.05-.097.05-.146.099-.048.049-.097.098-.194.147l-.145.148-.146.148-.145.148-.146.148-.048.05c-.048.049-.097.098-.097.147-.048.05-.048.099-.097.148 0 .05-.048.05-.048.099-.049.05-.097.099-.097.148-.049.05-.049.098-.097.148 0 0-.049.049-.049.098-.048.05-.097.099-.097.198-.048.049-.097.147-.145.197a.376.376 0 0 0-.097.197c-.049.099-.097.148-.146.247-.048.049-.048.147-.097.197-.048.098-.097.148-.145.246v.05c-.049.049-.049.098-.097.148-.049.098-.097.147-.097.246 0 .05-.049.099-.049.148 0 .05-.048.099-.048.148-.049.05-.049.148-.097.197 0 .05-.048.099-.048.148 0 .05-.049.099-.049.148-.048.099-.097.197-.145.345-.049.05-.049.148-.097.197-.049.099-.049.148-.097.247 0 .05-.049.099-.049.148v.05c-.097.295-.242.64-.34.985 0 .05 0 .05-.048.099-.097.345-.194.74-.29 1.134v.099c-.098.394-.195.788-.243 1.183v.05c0 .098-.049.246-.049.344 0 .099-.048.198-.048.296 0 .099-.049.197-.049.296 0 .099-.048.247-.048.394 0 .148-.048.247-.048.395 0 .099 0 .197-.049.246v.148c0 .099 0 .198-.048.296v.444c0 .148 0 .296-.049.444v3.155c0 .148 0 .296.049.444v.247c0 .148 0 .295.048.443V56.368c0 .148.049.296.049.444v.197c0 .197.048.395.096.592 0 .05 0 .099.049.197 0 .148.048.296.048.395 0 .098.049.197.049.295 0 .1.048.198.048.346 0 .098.049.197.049.295 0 .099.048.198.097.346 0 .098.048.197.048.295.049.099.049.198.097.296 0 .099.049.197.097.296.049.099.049.197.097.247.049.197.097.345.194.542 0 .05.049.099.049.148.097.246.145.444.242.64 0 .05.049.1.049.149.048.148.145.345.194.493.048.05.048.148.097.197.048.148.145.296.242.493 0 .05.048.099.048.099.097.197.194.345.291.542.049.05.049.099.097.148.097.148.146.247.243.395.048.049.048.098.097.147.097.148.194.247.29.395l.05.05c.096.147.242.295.338.394l.097.098c.097.099.194.198.243.296.048.05.097.05.097.099.097.098.194.197.34.296l.048.049c.145.099.242.197.388.296.048.049.048.049.097.049.097.05.194.099.29.197.049 0 .097.05.097.05.097.049.243.098.34.147 0 0 .048 0 .048.05.146.05.243.098.388.148.049 0 .097 0 .097.049.097.05.194.05.291.05h.097c.146 0 .291.049.436.049l-7.078-.198c-.146 0-.291 0-.437-.049h-.145-.049-.048-.049-.048-.049c-.048 0-.097 0-.097-.05-.097-.049-.194-.049-.29-.098 0 0-.049 0-.049-.05h-.048-.049c-.048 0-.048 0-.097-.048-.048 0-.097-.05-.097-.05-.048 0-.048-.049-.097-.049h-.048-.049-.048c-.049 0-.097-.05-.146-.099h-.048a.365.365 0 0 0-.194-.098s-.049 0-.049-.05c-.145-.098-.242-.147-.34-.246 0 0-.048 0-.048-.05-.048-.049-.097-.098-.193-.147l-.049-.05-.097-.098-.048-.05-.049-.049h-.048l-.097-.098-.097-.1-.049-.048-.097-.099-.048-.05-.049-.049-.048-.049a2.135 2.135 0 0 1-.291-.345l-.049-.05c-.048-.098-.145-.147-.194-.246v-.05c-.048-.049-.048-.098-.097-.098 0-.05-.048-.05-.048-.098l-.097-.1s0-.048-.048-.048c0-.05-.049-.05-.049-.099-.048-.05-.097-.099-.097-.148 0 0 0-.05-.048-.05l-.049-.049c0-.049-.048-.098-.048-.098 0-.05-.049-.05-.049-.099-.048-.098-.097-.197-.145-.246v-.05-.049c0-.05-.049-.05-.049-.099s-.048-.049-.048-.098c0-.05-.049-.099-.049-.148 0-.05-.048-.099-.048-.148 0-.05-.049-.05-.049-.099v-.049c0-.05 0-.05-.048-.098 0-.05-.049-.1-.049-.148 0-.05-.048-.05-.048-.099v-.05a2.425 2.425 0 0 1-.146-.344v-.05-.05-.048c0-.05-.048-.05-.048-.099-.049-.099-.049-.197-.097-.247-.049-.098-.049-.147-.097-.246 0-.05-.049-.099-.049-.148-.048-.099-.048-.148-.097-.247v-.049c0-.05-.048-.098-.048-.148 0-.05 0-.05-.049-.098v-.05-.049-.05c0-.049-.048-.098-.048-.147 0-.05-.048-.099-.048-.197 0-.05 0-.1-.049-.148v-.05-.098c0-.05 0-.099-.048-.099 0-.05 0-.099-.049-.148v-.05-.098-.049c0-.05 0-.099-.048-.099 0-.049-.049-.148-.049-.197v-.05-.147c0-.05 0-.099-.048-.148 0-.05 0-.148-.049-.197 0-.05-.048-.148-.048-.197v-.1-.098c0-.049 0-.098-.049-.148v-.148-.049-.098-.1-.147-.148-.099-.049-.098-.148-.148-.148-.099-.05-.098-.098c0-.099 0-.198-.048-.296v-.148-.197-.148-.05-.147-.198-.049-.05-.049-.148-.197-.098-.099-.099-.148-.197-.098-.05-.049-.05-.049-.098-.099-.098-.1-.147-.099-.148-.246-.099-.148-.147-.1-.048-.05-.197-.099-.098-.05-.098c0-.148.048-.296.048-.444v-.098-.05c0-.148.049-.296.049-.493v-.148c0-.098.048-.197.048-.296 0-.098.049-.197.049-.295v-.05c0-.05 0-.098.048-.148 0-.098.049-.197.049-.296v-.098-.099-.049c0-.05.048-.148.048-.197 0-.05.049-.148.049-.197v-.1-.098c0-.049 0-.098.048-.098.049-.099.049-.198.097-.296 0-.05 0-.099.048-.099v-.05c.049-.246.146-.443.194-.69.049-.147.097-.246.146-.394v-.05l.145-.443v-.05c0-.049.049-.098.049-.147.048-.05.048-.148.097-.197 0-.05.048-.099.048-.148 0 0 0-.05.049-.099 0-.05.048-.05.048-.099s.049-.098.049-.098 0-.05.048-.05c.049-.098.049-.197.097-.246.049-.099.049-.148.097-.246v-.05c0-.05.049-.098.049-.148 0-.049.048-.049.048-.098 0 0 .049-.05.049-.099 0-.05.048-.05.048-.099.049-.098.097-.147.097-.246 0-.05.049-.05.049-.099v-.049c.048-.148.145-.247.193-.345 0-.05.049-.05.049-.099.048-.098.097-.148.145-.246.049-.05.049-.099.097-.148.049-.05.097-.148.146-.197.048-.05.048-.1.097-.148v-.05c0-.049.048-.049.048-.098.049-.05.097-.099.097-.148l.049-.05.048-.049.049-.05c0-.048.048-.048.048-.098.049-.049.049-.098.097-.098.049-.05.049-.05.049-.099l.048-.05.049-.049c.048-.049.097-.148.194-.197l.048-.05.146-.147.145-.148.048-.05.243-.246.048-.05.146-.147.048-.05.049-.049.048-.049c.049 0 .049-.05.097-.05.049-.049.097-.049.097-.098l.049-.05s.048 0 .048-.048c0 0 .049 0 .049-.05.097-.05.145-.098.242-.148h.049c.048 0 .048-.049.097-.049.048 0 .048-.05.097-.05l.048-.049h.048s.049 0 .049-.049h.048c.049 0 .049-.05.097-.05.049 0 .049-.049.097-.049h.194c.049 0 .049 0 .097-.049H149.576c.048 0 .048 0 .097-.05h.339c.049 0 .097 0 .146-.048h.242l3.685-.494h.097l.97-.147 2.327-.296c-.097 0-.243.049-.34.049h-.048c-.097 0-.194.05-.243.05-.048 0-.096 0-.096.049a.365.365 0 0 0-.194.098c-.049 0-.049.05-.097.05-.049.049-.146.049-.194.098-.63-.296-.63-.246-.68-.246z"/>
            <g>
                <path fill="#FFF" d="M157.964 54.495h.048s.049 0 .049.049l.048.05s.049.049.049.098l1.551 4.733v.493c0 .05 0 .05-.048.099 0 .05-.049.05-.049.05l-.048.049c-.146.098-.243.197-.388.295-.146.099-.243.198-.388.247-.146.05-.291.099-.388.148-.145.05-.29.05-.436.098h-.437c-.145 0-.29-.049-.436-.049l-.436-.148a1.053 1.053 0 0 1-.388-.246l-.049-.05-.048-.049s0-.05-.049-.099v-.098-.05-.049-.05-.048-.05-.049-.05-.049l1.649-5.078c0-.05 0-.05.048-.05 0 0 0-.049.049-.049 0 0 0-.05.048-.05l.049-.048c-.049 0-.049 0 0 0-.049 0-.049 0 0 0-.049 0-.049 0 0 0zm-.485-.148s-.049 0 0 0h-.097s-.049 0-.049-.05l-.048-.049c-.049-.05-.049-.099-.049-.148 0-.05-.048-.098-.048-.197v-.197c0-.05 0-.148.048-.198 0-.049.049-.049.049-.098 0-.05.048-.05.048-.05l.049-.049H157.527s.049 0 .049.05l.048.049c.049.05.049.098.049.148 0 .05.048.098.048.197v.197c0 .05 0 .148-.048.197 0 .05-.049.05-.049.1 0 .048-.048.048-.048.048l-.049.05h-.048zm.921-.05h-.048s-.049 0-.049-.049l-.048-.05s-.049-.049-.049-.098c0-.05-.048-.098-.048-.197v-.197c0-.05 0-.148.048-.198 0-.049.049-.098.049-.147 0 0 0-.05.048-.05 0 0 .049 0 .049-.05H158.497s.048 0 .048.05l.049.05s.048.049.048.098c0 .05.049.099.049.197v.198c0 .049 0 .148-.049.197 0 .05-.048.098-.048.148 0 0 0 .05-.049.05 0 0-.048 0-.048.048h-.097c.048 0 .048 0 0 0zm-1.212-1.627s-.049 0 0 0h-.049c-.048 0-.048-.049-.097-.098-.048-.05-.048-.099-.048-.148 0-.05-.049-.099-.049-.197v-.198c0-.049 0-.098.049-.148 0-.049.048-.098.048-.098 0-.05.049-.05.097-.05.049 0 .049-.049.097-.049.049 0 .049.05.097.099.049.049.049.098.049.148 0 .049.048.098.048.197v.197c0 .05 0 .099-.048.148 0 .05-.049.099-.049.099 0 .049-.048.049-.097.049 0 .05 0 .05-.048.05zm1.551-.098h-.097c-.048 0-.048-.05-.048-.05 0-.049-.049-.049-.049-.098 0-.05-.048-.099-.048-.148v-.197c0-.05 0-.148.048-.198 0-.049.049-.098.049-.148.048-.049.048-.098.097-.098h.097c.048 0 .048.05.048.05 0 .048.049.048.049.098 0 .049.048.098.048.148v.197c0 .05 0 .148-.048.197-.049.05-.049.099-.049.148-.048.05-.048.099-.097.099.049 0 .049 0 0 0zm-4.945-.79s.048 0 0 0h.048l3.055 1.233s.048 0 .048.05l.049.049.048.05v.246s0 .05-.048.05l-2.036 4.585c0 .049-.049.049-.049.098l-.048.05-.049.049h-.048-.049s-.048 0-.048-.05l-.049-.049-.048-.049a4.257 4.257 0 0 1-.437-1.183 10.642 10.642 0 0 1-.34-1.332c-.096-.443-.145-.936-.193-1.43-.048-.493-.048-.986-.048-1.479v-.148-.148-.147-.148c0-.05 0-.099.048-.148 0-.05.048-.099.048-.148 0-.05.049-.099.097-.099-.048.099 0 .099.049.099-.049 0-.049 0 0 0-.049 0-.049 0 0 0-.049 0 0 0 0 0zm8.097-.394s.048 0 0 0h.097l.048.05.049.049v.986c0 .493-.049.937-.049 1.38-.048.444-.097.937-.194 1.381-.097.444-.194.888-.29 1.282-.146.395-.243.838-.437 1.184 0 .049 0 .049-.048.049l-.049.05-.048.048h-.049-.048s-.049 0-.049-.049l-.048-.05-.049-.048-1.842-4.192v-.049-.05-.048-.05-.098c0-.05 0-.05.048-.099l.049-.05.048-.049 2.812-1.479c0-.098 0-.098.049-.148-.049.05-.049.05 0 0-.049.05-.049.05 0 0-.049.05-.049.05 0 0-.049.05 0 .05 0 0 0 .05 0 .05 0 0 0 .05 0 .05 0 0zm-3.927.198c-.049 0-.049 0-.097-.05-.049 0-.049-.05-.097-.098 0-.05-.049-.099-.049-.148v-.198-.197c0-.05.049-.098.049-.148 0-.049.048-.098.097-.098.048-.05.048-.05.097-.05.048 0 .048 0 .097.05.048 0 .048.049.097.098 0 .05.048.099.048.148v.395c0 .049-.048.098-.048.148 0 .049-.049.098-.097.098 0 0-.049.05-.097.05zm.97-6.953s.048 0 0 0c.048 0 .048 0 0 0 .048 0 .048 0 0 0 .048 0 .048 0 0 0 .048 0 .048 0 0 0h.048c.29.148.533.296.776.543.242.246.484.493.678.789.194.295.437.64.582 1.035.194.394.34.789.485 1.233v.493c0 .049 0 .049-.048.098 0 .05-.049.05-.049.05l-.048.049-2.716 2.219h-.048-.049l-.048-.05s0-.049-.049-.049v-.05-.048-.05-.098l.243-5.72v-.099c0-.049 0-.049.048-.098 0-.05 0-.05.049-.099 0-.05.048-.05.048-.05l.049-.048h.048c-.048-.05 0-.05 0-.05zm-1.892 0c.049 0 .049 0 0 0 .049 0 .049 0 0 0 .049 0 .097.05.097.05s.049.049.049.098c0 .05.048.05.048.099 0 .05 0 .098.049.148l.194 5.769v.247s0 .048-.049.048c0 0 0 .05-.048.05h-.049-.048l-2.86-2.12-.05-.05-.048-.049c0-.05 0-.05-.048-.099v-.098-.05-.049-.05-.048-.05-.05-.048-.05c.145-.493.34-.937.533-1.331.194-.394.436-.789.679-1.085.242-.296.485-.591.727-.838.243-.246.534-.394.824-.542-.048.098-.048.098 0 .098-.048 0-.048 0 0 0-.048 0-.048 0 0 0-.048 0-.048 0 0 0-.048 0-.048 0 0 0zm.97-1.725c-.727 0-1.406.246-2.036.74-.63.492-1.212 1.232-1.697 2.12a11.825 11.825 0 0 0-1.164 3.204 17.239 17.239 0 0 0-.436 3.945c0 1.38.145 2.712.436 3.944.291 1.184.679 2.22 1.164 3.107.485.838 1.066 1.528 1.697 1.923.63.443 1.309.591 2.036.493.679-.099 1.358-.444 1.94-1.036.581-.542 1.115-1.331 1.551-2.219.436-.887.776-1.972 1.018-3.106a17.64 17.64 0 0 0 .388-3.698c0-1.282-.097-2.515-.34-3.649a12.82 12.82 0 0 0-1.017-3.007c-.437-.838-.97-1.578-1.552-2.071-.63-.395-1.31-.69-1.988-.69z"/>
                <path fill="#D3D3D3" d="M157.964 50.55c-.049 0-.049 0-.097.05l-.097.098c0 .05-.049.099-.049.148v.394c0 .05.049.099.049.148 0 .05.048.099.097.099.048 0 .048.05.097.05.048 0 .048 0 .097-.05l.097-.099c0-.049.048-.098.048-.148v-.197-.197c0-.05-.048-.099-.048-.148 0-.05-.049-.099-.097-.099 0-.049-.049-.049-.097-.049zM158.74 51.586s-.05 0 0 0c-.05 0-.05 0 0 0h-.05c-.048 0-.048.049-.096.098-.049.05-.049.099-.049.148 0 .05-.048.099-.048.197v.198c0 .049 0 .098.048.147 0 .05.049.099.049.099 0 .05.048.05.048.05h.097c.049 0 .049-.05.097-.1.049-.049.049-.098.049-.147 0-.05.048-.099.048-.197v-.198c0-.049 0-.098-.048-.148 0-.049-.049-.098-.049-.098 0-.05-.048-.05-.048-.05h-.049zM158.448 53.311c-.048 0-.048 0 0 0-.048 0-.048 0-.096.05 0 0-.049 0-.049.049l-.048.05c-.049.048-.049.098-.049.147 0 .05-.048.099-.048.197v.198c0 .049 0 .147.048.197 0 .05.049.05.049.098l.048.05.049.049H158.497s.048 0 .048-.05l.049-.049c.048-.049.048-.098.048-.148 0-.049.049-.098.049-.197v-.197c0-.05 0-.148-.049-.197 0-.05-.048-.05-.048-.099 0-.05-.049-.05-.049-.05l-.048-.048-.049-.05zM157.188 51.635c-.049 0-.049 0-.097.05-.049 0-.049.048-.097.048 0 .05-.049.05-.049.099 0 .05-.048.099-.048.148v.197c0 .05 0 .148.048.197 0 .05.049.099.049.148.048.05.048.099.097.099.048 0 .048 0 .097-.05.048 0 .048-.049.097-.049 0-.049.048-.049.048-.098 0-.05.049-.099.049-.148v-.197c0-.05 0-.148-.049-.198 0-.049-.048-.098-.048-.148-.049-.049-.049-.098-.097-.098.048.05.048 0 0 0 .048 0 .048 0 0 0 .048 0 0 0 0 0zM158.642 50.895c0-.05 0-.05 0 0 0-.05 0-.05 0 0 0-.05 0-.05 0 0v-.098l.243-5.128c.242.098.485.246.679.493.242.197.436.444.63.69.194.296.388.592.533.937.146.345.291.69.437 1.085l-2.522 2.021zm.291-6.262h-.048-.049l-.048.05-.049.049c0 .05-.048.05-.048.099s0 .049-.049.098v.099l-.242 5.72v.246s0 .05.048.05l.049.048h.097l2.715-2.218.049-.05.048-.049c0-.05 0-.05.049-.099v-.098-.05-.049-.05-.048-.05-.049-.05-.049a9.268 9.268 0 0 0-1.067-2.268c-.194-.296-.436-.591-.679-.789-.242-.246-.485-.394-.776-.542.049.05.049.05 0 .05.049 0 .049 0 0 0 .049 0 .049 0 0 0 .049 0 .049 0 0 0 .049 0 .049 0 0 0 .049 0 0 0 0 0zM157.285 50.945c0-.05 0-.05 0 0l-2.618-1.923c.145-.444.29-.79.485-1.184.193-.345.387-.69.581-.986.194-.296.437-.542.68-.74.242-.197.484-.345.726-.493l.194 5.227c-.048 0-.048.05-.048.099 0-.05 0-.05 0 0 0-.05 0-.05 0 0 0-.05 0 0 0 0zm-.243-6.312c-.048 0-.048 0 0 0-.048 0-.048 0 0 0-.048 0-.048 0 0 0-.048 0-.048 0 0 0h-.048c-.291.148-.533.296-.824.543-.243.246-.534.493-.728.838-.242.345-.436.69-.678 1.085a8.396 8.396 0 0 0-.534 1.33v.494c0 .05 0 .05.049.099 0 .049.048.049.048.049l.049.05 2.86 2.12h.097l.049-.05s0-.05.048-.05v-.049-.049-.05-.098l-.194-5.769c0-.049 0-.098-.048-.148 0-.049-.049-.049-.049-.098 0-.05-.048-.05-.048-.099.048-.148 0-.148-.049-.148.049 0 .049 0 0 0 .049 0 .049 0 0 0zM155.055 57.552a5.935 5.935 0 0 1-.388-.987c-.097-.345-.194-.74-.291-1.134-.097-.394-.146-.838-.194-1.232-.049-.444-.049-.888-.049-1.332v-.147-.148-.148-.148l2.715 1.134-1.793 4.142zm-1.261-5.77s-.049 0 0 0c-.049 0-.049 0 0 0-.049 0-.049 0 0 0-.049 0-.097.05-.097.05l-.097.099c0 .049-.048.098-.048.148 0 .049 0 .098-.049.148v.591c0 .493 0 .986.049 1.48.048.492.096.986.193 1.43.097.443.194.887.34 1.33l.436 1.184c0 .05.049.05.049.05l.048.049s.049 0 .049.049h.097s.048 0 .048-.05l.049-.049s.048-.05.048-.098l2.036-4.586s0-.05.049-.05v-.049-.049-.05-.098c0-.05 0-.05-.049-.05l-.048-.048-.049-.05-3.054-1.232c.048-.148.048-.148 0-.148.048 0 0 0 0 0zM160.727 57.059l-1.648-3.748 2.521-1.331v.592c0 .443-.048.838-.048 1.282-.049.394-.097.838-.194 1.232a37.26 37.26 0 0 1-.291 1.134 7.33 7.33 0 0 0-.34.839zm1.164-5.67c0 .049 0 .049 0 0 0 .049 0 .049 0 0 0 .049-.049.049 0 0-.049.049-.049.049 0 0-.049.049-.049.049 0 0-.049.049-.049.049 0 0h-.049l-2.812 1.478s-.048 0-.048.05l-.049.05s-.048.048-.048.098v.296l1.842 4.19c0 .05 0 .05.049.05l.048.05s.049 0 .049.049h.097s.048 0 .048-.05l.049-.05.048-.048.437-1.184a5.48 5.48 0 0 0 .29-1.282c.097-.443.146-.887.194-1.38.049-.444.049-.937.049-1.38v-.149-.148-.148-.148-.049-.05-.048-.05-.05-.048-.05-.049s0-.05-.049-.05l-.048-.049c-.049.198-.049.198-.097.148.048 0 0 0 0 0zM157.915 59.82h-.388c-.145 0-.242-.05-.388-.05a2.343 2.343 0 0 1-.339-.148c-.097-.049-.242-.147-.34-.197l1.455-4.536v.05l1.358 4.24a1.474 1.474 0 0 1-.34.246c-.097.099-.242.148-.34.197-.096.05-.241.1-.387.148-.048 0-.145 0-.29.05zm.049-5.325c-.049 0-.049 0 0 0-.049 0-.049 0 0 0h-.049l-.048.049s0 .05-.049.05c0 0 0 .049-.048.049 0 0 0 .049-.049.049l-1.648 5.078v.493c0 .05 0 .05.048.1l.049.048.048.05c.146.098.291.148.388.246l.436.148c.146.05.291.05.437.05h.436c.146 0 .291-.05.437-.1.145-.048.29-.098.387-.147.146-.05.291-.148.388-.247.146-.098.243-.197.388-.295l.049-.05.048-.05c0-.048 0-.048.049-.098v-.098-.05-.049-.05-.049-.049-.05-.048-.05l-1.552-4.733c0-.05 0-.05-.048-.099l-.049-.05-.048-.048zM157.479 53.36h-.049s-.048 0-.048.05l-.049.05c0 .048-.048.048-.048.098s-.049.098-.049.197v.197c0 .05 0 .148.049.197 0 .05.048.1.048.148 0 0 0 .05.049.05 0 0 .048 0 .048.049H157.576l.048-.05.049-.049c0-.049.048-.049.048-.098 0-.05.049-.099.049-.197v-.198c0-.049 0-.148-.049-.197 0-.05-.048-.099-.048-.148 0 0 0-.05-.049-.05 0 0-.048 0-.048-.048h-.097c.048 0 0 0 0 0z"/>
            </g>
        </g>
        <g transform="translate(8.727 41.182)">
            <path fill="#2B2BA5" fill-rule="nonzero" d="M19.055.098c-.146 0-.34-.05-.485-.05h-.582L11.83.196C6.11.537 1.018 7.615.145 16.793-.775 26.508 3.491 34.904 9.6 35.49c.145 0 .34.049.485.049h.582l5.77-.147c5.866 0 11.248-7.225 12.12-16.597C29.43 9.03 25.213.683 19.056.098z"/>
            <ellipse cx="19.085" cy="18.167" fill="#615EEE" fill-rule="nonzero" rx="14.058" ry="8.146" transform="rotate(-84.623 19.085 18.167)"/>
            <ellipse cx="19.085" cy="18.167" fill="#3C3AC4" fill-rule="nonzero" rx="11.422" ry="6.643" transform="rotate(-84.623 19.085 18.167)"/>
            <ellipse cx="19.085" cy="18.167" fill="#726EFB" fill-rule="nonzero" rx="10.593" ry="6.158" transform="rotate(-84.623 19.085 18.167)"/>
            <ellipse cx="19.085" cy="18.167" fill="#3C3AC4" fill-rule="nonzero" rx="9.909" ry="5.722" transform="rotate(-84.623 19.085 18.167)"/>
            <ellipse cx="19.085" cy="18.167" fill="#615EEE" fill-rule="nonzero" rx="3.563" ry="2.085" transform="rotate(-84.623 19.085 18.167)"/>
            <ellipse cx="19.085" cy="18.167" fill="#3C3AC4" fill-rule="nonzero" rx="1.708" ry="1.018" transform="rotate(-84.623 19.085 18.167)"/>
            <ellipse cx="19.085" cy="18.167" stroke="#726EFB" rx="14.058" ry="8.146" transform="rotate(-84.623 19.085 18.167)"/>
        </g>
        <path fill="#615EEE" fill-rule="nonzero" d="M168 37.605c0-2.538-.681-5.028-.681-5.028l-2.725-7.907v-2.49c0-.634-.243-1.269-.68-1.757l-2.872-3.222s-11.336-11.47-13.33-12.3c-1.46-.586-5.693-1.221-7.883-1.514 0 0-14.304-2.831-31.528-2.929C91.078.361 77.114 2.216 77.114 2.216s-7.784.536-14.693 3.807c-5.936 2.782-18.732 13.13-22.235 16.01a7.408 7.408 0 0 1-1.995 1.172l-2.822 1.172s-10.071 3.758-13.38 5.223c-9.196 4.051-13.526 7.126-14.888 8.2-.34.244-.584.586-.779.977L3.355 45.17l-1.022.928c-.243.195-.39.488-.487.78l-.973 2.88a3.074 3.074 0 0 0-.146.928l.146 6.687c0 .391.098.733.292 1.074l.243.44.244 6.15c-.973.928-.098 2.685.535 4.54.632 1.855 2.19 2.148 2.19 2.148 8.708 2.099 33.279 5.418 33.279 5.418l6.13 1.562c8.271.927 29.533-.635 29.533-.635.438-.44 1.752-5.467 4.136-15.18 2.384-9.714 9.341-13.034 9.341-13.034s6.18-2.88 9.877 2.1c3.698 4.978 3.357 14.838 3.211 16.4-.146 1.562-1.167 3.613-1.167 3.613l49.919-12.643s2.14-.732 2.384-2.831c.243-2.05 1.265-6.932 1.265-6.932s2.822-12.105 8.174-12.105c5.352 0 5.643 11.52 5.643 11.52h.39l1.362-3.32-.39-2.099c.05.098.536-3.417.536-5.955z"/>
        <path stroke="#3C3AC4" stroke-width=".5" d="M109.818 7.727s2.025-1.657 3.26-1.98c1.235-.322 8.742-3.27 25.831-2.118M.727 47.727l.343 3.362c.05.602.392 1.104.882 1.455l1.029.653c.294.2.637.35.98.451 2.351.703 12.444 3.463 28.856 4.115 15.776.652 29.003-1.054 32.874-1.656.735-.1 1.372-.552 1.764-1.204l1.371-2.308a1.852 1.852 0 0 0 .147-1.606l-.196-.452M17.455 45.545l1.366-4.433c.342-1.023.976-1.948 1.903-2.582 3.71-2.533 14.348-9.305 26.549-13.348M23.273 46.273l.967-3.197a5.53 5.53 0 0 1 2.709-3.296c5.272-2.804 20.169-10.231 36.324-13.87M91.021 27.364l1.343 1.219-.864 5.072s-.191 1.268-3.068 2.145c-2.878.878-17.12 5.023-22.25 8.29M71.273 44.818l8.266 7.154 1.916 2.3M97.454 25.182l3.637 2.909M100.364 31l1.014 4.923.863 4.679-.05 24.808.354 2.68"/>
        <path stroke="#3C3AC4" stroke-width=".5" d="M98.91 68.818l3.59-1.318 45.363-11.574s1.525-.88 1.968-2.735c.443-1.856 4.526-14.602 4.526-14.602s1.033-4.835 1.132-6.983c.098-2.15.147-6.154.147-6.154l-1.623-3.907"/>
        <path stroke="#3C3AC4" stroke-width=".5" d="M130.91 25.182l1.53 3.16.437 2.024s.82 3.358.93 5.975c.11 2.617-.602 12.739-.602 12.739s-.546 2.716-.93 3.407c-.382.691.274 3.012.274 3.012l.383 1.234c.164.494.164.988.11 1.531l-.274 1.827"/>
        <path fill="#615EEE" fill-rule="nonzero" d="M70.935 43.736l-25.63.641-18.266-.05c-1.55 0-3.052.494-4.312 1.48l-.97.74c-.096.1-.29.149-.435.1l-3.586-.494a.772.772 0 0 1-.484-.395l-.242-.69a3.328 3.328 0 0 0-2.132-2.072L6.98 40.48c-.29-.098-.63.099-.726.395-.727 2.664-1.163 6.906-1.163 8.682 0 1.923 1.308 2.417 1.308 2.417 5.33 2.417 21.512 3.847 24.904 3.748 2.422-.049 3.536-.74 3.972-1.134a.367.367 0 0 1 .243-.099l5.28-1.38h.098l26.987-1.234c.242 0 .436-.148.484-.345.485-1.234 2.18-5.525 2.616-6.61.679-1.381-.048-1.184-.048-1.184z"/>
        <path fill="#D0D0F7" fill-rule="nonzero" d="M41.552 49.892l-.097 1.59c0 .328.29.609.63.609L67.9 51.015c.436 0 .825-.28.97-.655l2.378-5.708c.097-.28-.097-.561-.437-.561l-23.728.561c-.534 0-1.067.234-1.455.562L42.23 48.3c-.388.421-.63.983-.68 1.591z"/>
        <path fill="#3C3AC4" fill-rule="nonzero" d="M6.88 40.485l8.164 2.564a2.738 2.738 0 0 1 1.787 1.726l.435 1.282 4.154.592 1.304-1.036c1.16-.887 2.512-1.38 3.962-1.331l18.405.049-9.662 10.01s-.82 1.332-4.202 1.381c-3.382.1-19.517-1.331-24.83-3.747 0 0-1.353-.493-1.305-2.417 0-1.824.435-6.065 1.16-8.679.048-.345.338-.493.628-.394z"/>
        <path stroke="#726EFB" stroke-width=".5" d="M7.468 41.814c.098-.445.583-.742 1.02-.594l6.656 2.077c.68.198 1.263.791 1.506 1.483l.437 1.533 5.732.741 1.117-.84a5.534 5.534 0 0 1 3.4-1.137h15.108c.438 0 .632.544.292.79l-8.064 7.22s-1.166 1.186-3.595 1.186c-2.914 0-18.848-1.286-23.414-3.313 0 0-1.118-.395-1.118-2.076.049-1.484.34-4.796.923-7.07z"/>
        <path fill="#3C3AC4" fill-rule="nonzero" d="M37.55 23.893l-2.64 1.071s13.592 3.068 42.05 3.603c0 0 14.13.926 17.26-.779 3.13-1.704 4.059-3.36 4.059-3.36l9.143-13.147s1.614-2.24 2.396-2.922c0 0-29.338-2.921-47.331-1.85a2.998 2.998 0 0 1-.587.243c-5.966 2.776-18.825 13.1-22.346 15.972a7.457 7.457 0 0 1-2.005 1.169z"/>
        <path fill="#E2E2FD" fill-rule="nonzero" d="M41.581 22.248s10.632-9.746 19.556-14.406a5.495 5.495 0 0 1 2.585-.665c5.364-.19 25.993-.666 42.574 1.569.537.095.78.665.488 1.093l-9.705 13.55s-2 2.52-6.486 2.52c-4.487 0-48.768-3.138-48.768-3.138s-.634-.142-.244-.523z"/>
        <path fill="#3C3AC4" fill-rule="nonzero" d="M102.265 30.986c-.581.097-1.163-.339-1.163-.92-.049-1.018.048-2.472.582-3.733.92-2.084 10.034-16.043 10.034-16.043s1.94-2.569 5.527-3.587c3.636-1.017 11.731-2.81 23.657-1.308 2.084.242 6.399 1.163 6.399 1.163s1.55.097 3.248 1.793c1.405 1.406 6.447 6.786 8.29 8.725.435.436.532 1.066.338 1.648l-.581 1.648c-.194.581-.679.97-1.31 1.066-4.217.679-22.492 3.49-55.02 9.548z"/>
        <path fill="#E2E2FD" fill-rule="nonzero" d="M106.182 21.595l.432 7.223 22.113-3.39C127.624 12.65 124.842 7 124.842 7l-6.476.934c-4.413.933-5.708 3.292-5.708 3.292l-6.476 10.369zM127.273 6.382s3.76 10.273 4.676 18.073c0 0 17.548-2.569 20.778-3.234l-8.195-13.887c0 .047-6.22-1.475-17.26-.952zM146.182 7l7.338 13.117c.246.447.738.745 1.28.696l1.182-.1c.542-.05 1.034-.397 1.28-.944l.444-.993c.197-.497.147-1.093-.247-1.49l-7.78-8.696c.049 0-1.38-1.44-3.497-1.59z"/>
        <path fill="#2B2BA5" fill-rule="nonzero" d="M102.024 27.937l-.202 1.525c-.05.449.352.852.906.807l5.783-.403 8.6-.763a1.988 1.988 0 0 0 1.558-.987l.604-1.255-1.459.314c-.955.224-1.96.314-3.017.314l-6.89-.853-1.86.18-3.32.538c-.402 0-.703.27-.703.583z"/>
        <path fill="#2B2BA5" fill-rule="nonzero" d="M105.54 25.722l.83 2.369 9.819-.215c.928 0 1.807-.216 2.687-.593l.195-.054.196-2.153c.048-.485-.196-.97-.635-1.185-2.003-.97-7.963-3.338-12.702.485-.44.269-.586.861-.39 1.346z"/>
        <path fill="#3C3AC4" fill-rule="nonzero" d="M32.28 65.9c-11.104-.47-27.492-4.279-28.96-4.75-1.468-.47-2.593-1.786-2.593-1.786l.196 5.925.587.941c.391 2.07 2.006 2.257 2.006 2.257s21.329 5.08 33.852 5.926c12.524.847 25.487-.987 25.487-.987l3.327-7.948c.049-.048-22.797.893-33.902.423z"/>
        <path fill="#D0D0F7" fill-rule="nonzero" d="M41.516 68.078l1.976 3.68c.241.448.675.697 1.157.697l16.05-.597c.338 0 .627-.2.82-.497a15.262 15.262 0 0 0 1.735-4.028c.096-.349-.193-.697-.53-.697-2.41.2-10.797.746-20.726.547-.386.05-.675.498-.482.895z"/>
        <g transform="translate(125.818 31)">
            <ellipse cx="2.855" cy="2.903" stroke="#3C3AC4" stroke-width=".5" rx="1.953" ry="2.381" transform="rotate(-8.911 2.855 2.903)"/>
            <path fill="url(#a)" fill-rule="nonzero" d="M4.707 2.618C4.92 3.83 4.284 4.945 3.28 5.091c-1.005.145-2.01-.727-2.221-1.988C.846 1.891 1.48.776 2.486.63c1.005-.145 2.01.776 2.221 1.988z"/>
            <path fill="#3C3AC4" fill-rule="nonzero" d="M.264 3.103l.16.582a.397.397 0 0 0 .37.242c.951-.048 3.86-.29 4.76-.63.158-.049.264-.194.211-.34l-.211-.97c-.053-.145-.159-.242-.318-.242-.423-.048-1.64.049-4.707 1.019-.212 0-.317.145-.265.339z"/>
        </g>
        <g transform="translate(149.09 26.636)">
            <ellipse cx="2.804" cy="2.998" stroke="#3C3AC4" stroke-width=".5" rx="1.849" ry="2.38" transform="rotate(-7.516 2.804 2.998)"/>
            <path fill="url(#b)" fill-rule="nonzero" d="M4.549 2.764c.211 1.212-.423 2.327-1.375 2.472-.953.146-1.905-.727-2.116-1.988C.846 2.036 1.48.921 2.433.776 3.438.679 4.39 1.552 4.55 2.764z"/>
            <path fill="#3C3AC4" fill-rule="nonzero" d="M.317 3.2l.106.582c.053.145.159.242.37.242.9-.048 3.703-.29 4.602-.582.159-.048.212-.194.212-.339l-.212-.97c-.053-.145-.159-.242-.264-.242-.424-.049-1.587.048-4.55.97-.21 0-.317.194-.264.339z"/>
        </g>
    </g>
</svg>
