<?xml version="1.0" encoding="UTF-8"?>
<svg width="86px" height="86px" viewBox="0 0 86 86" version="1.1" xmlns="http://www.w3.org/2000/svg" xmlns:xlink="http://www.w3.org/1999/xlink">
    <!-- Generator: sketchtool 60 (101010) - https://sketch.com -->
    <title>32AE54CE-8FD4-4B95-BE9D-DE8567496468@1.00x</title>
    <desc>Created with sketchtool.</desc>
    <defs>
        <circle id="path-1" cx="43.2004405" cy="42.8867841" r="42.6211454"></circle>
    </defs>
    <g id="Home-&amp;-Landing" stroke="none" stroke-width="1" fill="none" fill-rule="evenodd">
        <g id="Home-page" transform="translate(-83.000000, -2188.000000)">
            <g id="Group-45" transform="translate(83.000000, 1881.000000)">
                <g id="Group-43" transform="translate(0.000000, 292.000000)">
                    <g id="Sakal-icons_02-02" transform="translate(0.000000, 15.000000)">
                        <mask id="mask-2" fill="white">
                            <use xlink:href="#path-1"></use>
                        </mask>
                        <use id="Oval" fill="#E2E1FE" xlink:href="#path-1"></use>
                        <g id="Group" mask="url(#mask-2)">
                            <g transform="translate(-4.000000, 15.841410)">
                                <path d="M34.8253984,2.19642526 C34.1177329,2.88157172 33.1381634,3.22995361 32.1447467,3.14979359 C32.0895029,3.14644868 32.0376718,3.17604028 32.0135852,3.22467678 C31.9894986,3.27331329 31.9979398,3.33133627 32.034946,3.37150715 C32.7182015,4.08053206 33.0489046,5.04609418 32.9398553,6.0135938 C32.9347222,6.06906616 32.965542,6.12178653 33.0170837,6.145701 C33.0686254,6.16961547 33.1299755,6.15966035 33.1708154,6.12075536 C33.8793676,5.43458422 34.8605575,5.08611824 35.8552533,5.16738703 C35.9104971,5.17073194 35.9623282,5.14114034 35.9864148,5.09250383 C36.0105014,5.04386733 36.0020602,4.98584435 35.965054,4.94567346 C35.2826594,4.2359847 34.9508997,3.27137352 35.0563585,2.30358682 C35.0614916,2.24811446 35.0306718,2.19539409 34.9791301,2.17147962 C34.9275884,2.14756515 34.8662383,2.15752027 34.8253984,2.19642526 L34.8253984,2.19642526 Z" id="Path" stroke="none" fill="#FFB23D" fill-rule="nonzero"></path>
                                <path d="M51.1191913,0.185713162 C50.5878814,0.697917942 49.8551984,0.96030753 49.1105052,0.90506708 C49.0684319,0.900505012 49.0280063,0.922417783 49.0097418,0.959686047 C48.9914774,0.996954311 48.9993723,1.04141956 49.0294206,1.07051848 C49.5379244,1.60322781 49.7852425,2.32466361 49.7075825,3.04874175 C49.7036985,3.09034784 49.7265408,3.12997388 49.7649943,3.14833769 C49.8034478,3.1667015 49.8495266,3.15998937 49.8808087,3.13146745 C50.4121186,2.61926268 51.1448016,2.35687309 51.8894948,2.41211354 C51.9315681,2.4166756 51.9719937,2.39476283 51.9902582,2.35749457 C52.0085226,2.32022631 52.0006277,2.27576106 51.9705794,2.24666214 C51.4620756,1.7139528 51.2147575,0.99251701 51.2924175,0.268438862 C51.2963015,0.226832775 51.2734592,0.187206738 51.2350057,0.168842929 C51.1965522,0.150479121 51.1504734,0.157191247 51.1191913,0.185713162 Z" id="Path" stroke="none" fill="#FFB23D" fill-rule="nonzero"></path>
                                <path d="M62.4130877,21.1783834 C62.0600581,21.5194548 61.5715626,21.6928495 61.0761782,21.652928 C61.0473183,21.6494466 61.0193915,21.6642796 61.006749,21.6898046 C60.9941064,21.7153296 60.99956,21.7458691 61.0203074,21.7657296 C61.3602244,22.1204269 61.5248506,22.6017982 61.4712649,23.0843412 C61.4676931,23.1124704 61.4829114,23.1396899 61.5090996,23.1520123 C61.5352879,23.1643347 61.5666209,23.1590191 61.5869974,23.1387972 C61.9411416,22.7965846 62.4307723,22.621884 62.9278977,22.6603629 C62.955083,22.6620293 62.9806551,22.6476866 62.9928367,22.6239402 C63.0050184,22.6001938 63.0014475,22.5716487 62.9837685,22.551451 C62.6424064,22.1974233 62.4762951,21.7159703 62.5288202,21.2328394 C62.532392,21.2047102 62.5171737,21.1774908 62.4909855,21.1651683 C62.4647973,21.1528459 62.4334643,21.1581615 62.4130877,21.1783834 Z" id="Path" stroke="none" fill="#FFB23D" fill-rule="nonzero"></path>
                                <path d="M63.1925466,42.0324142 L73.6273292,37.0793124 C75.9271453,35.9130729 78.7327552,36.7688349 80,39.0230927 L58.7950311,52.8085325 C55.9484804,54.1302295 52.7537192,54.4936944 49.6853002,53.8449379 L35.0766046,49.7201278 C33.7315467,49.3373799 32.2911153,49.4956045 31.0600414,50.1613285 L28,51.801263 L28.4140787,36.8170893 L28.5341615,36.8170893 C32.9041054,33.6949127 38.6441772,33.2916175 43.4037267,35.7723594 L44.2774327,36.2260469 C45.6464998,36.9393196 47.158348,37.332049 48.699793,37.3748336 L57.2960663,37.612083 C59.9924304,37.6876553 62.3515268,39.4561659 63.1925466,42.0324142 L63.1925466,42.0324142 Z" id="Path" stroke="none" fill="#8A8AF9" fill-rule="nonzero"></path>
                                <polygon id="Path" stroke="none" fill="#3C3AC4" fill-rule="nonzero" points="28 53.1585903 0 52.9013797 1.57449275 32.1585903 28 32.4199495"></polygon>
                                <path d="M49.5049604,6.70053233 C46.1478753,2.69074664 34.4924697,3.47809322 36.1628042,13.2387558 C37.5992098,21.6438834 47.5719689,28.6610084 49.5049604,30.1585903 C51.437952,28.6772424 61.406607,22.0416152 62.8512207,13.2387558 C64.464099,3.46997625 52.4967881,2.08197351 49.5049604,6.70053233 Z" id="Path" stroke="none" fill="#FFB23D" fill-rule="nonzero"></path>
                                <text id="85" stroke="none" fill="#FFFFFF" fill-rule="evenodd" font-family="NunitoSans-Black, Nunito Sans" font-size="12.714978" font-weight="700">
                                    <tspan x="42" y="20.1585903">85</tspan>
                                </text>
                                <path d="M63,41.1585903 C63,41.1585903 62.7542946,44.817247 59.8058303,45.0704412 C57.4778761,45.2687767 47,45.0704412 47,45.0704412" id="Path" stroke="#E2E2FD" stroke-width="0.5" fill="none"></path>
                            </g>
                        </g>
                    </g>
                </g>
            </g>
        </g>
    </g>
</svg>