<svg xmlns="http://www.w3.org/2000/svg" width="404" height="384" viewBox="0 0 404 384">
    <defs>
        <linearGradient id="a" x1="49.999%" x2="49.999%" y1="100%" y2="0%">
            <stop offset="0%" stop-color="gray" stop-opacity=".25"/>
            <stop offset="54%" stop-color="gray" stop-opacity=".12"/>
            <stop offset="100%" stop-color="gray" stop-opacity=".1"/>
        </linearGradient>
        <linearGradient id="b" x1="50%" x2="50%" y1="100%" y2="0%">
            <stop offset="0%" stop-color="gray" stop-opacity=".25"/>
            <stop offset="54%" stop-color="gray" stop-opacity=".12"/>
            <stop offset="100%" stop-color="gray" stop-opacity=".1"/>
        </linearGradient>
        <linearGradient id="c" x1="60.298%" x2="39.759%" y1="98.88%" y2="1.029%">
            <stop offset="0%" stop-color="gray" stop-opacity=".25"/>
            <stop offset="54%" stop-color="gray" stop-opacity=".12"/>
            <stop offset="100%" stop-color="gray" stop-opacity=".1"/>
        </linearGradient>
        <linearGradient id="d" x1="50%" x2="50%" y1="99.914%" y2="-.086%">
            <stop offset="0%" stop-color="gray" stop-opacity=".25"/>
            <stop offset="54%" stop-color="gray" stop-opacity=".12"/>
            <stop offset="100%" stop-color="gray" stop-opacity=".1"/>
        </linearGradient>
    </defs>
    <g fill="none" fill-rule="nonzero">
        <path fill="#E0E0E0" d="M33.985 66.617l210.09-45.078 62.284 290.278-210.091 45.078z"/>
        <path fill="url(#a)" d="M28.019 18.752h207.61v286.85H28.02z" opacity=".5" transform="rotate(-12.11 278.467 -5.075)"/>
        <path fill="#FAFAFA" d="M41.615 72.273l197.823-42.445 58.848 274.27-197.823 42.445z"/>
        <path fill="url(#b)" d="M90.6 38.834h100.37v24.314H90.6z" transform="rotate(-12.11 140.785 50.991)"/>
        <path fill="url(#c)" d="M133.25 15.886c-7.577 1.628-12.371 9.234-10.704 16.988 1.666 7.753 9.155 12.73 16.717 11.102 7.562-1.628 12.37-9.234 10.704-16.988-1.667-7.754-9.14-12.73-16.718-11.102zm4.754 22.175a8.29 8.29 0 1 1 6.175-9.834 8.191 8.191 0 0 1-6.175 9.834z"/>
        <path fill="#6C63FF" d="M89.98 48.392l96.07-20.613 4.876 22.724-96.07 20.613z"/>
        <path fill="#6C63FF" d="M133.25 15.886c-7.416 1.592-12.137 8.893-10.546 16.308 1.592 7.415 8.893 12.137 16.308 10.546 7.415-1.591 12.137-8.892 10.546-16.307a13.733 13.733 0 0 0-16.309-10.547zm4.543 21.191a7.926 7.926 0 1 1-3.326-15.499 7.926 7.926 0 0 1 3.326 15.5z"/>
        <path fill="#E0E0E0" d="M126.799 57.482h214.873v296.885H126.799z"/>
        <path fill="url(#a)" d="M.138.059h207.611v286.849H.138z" opacity=".5" transform="translate(130.294 62.443)"/>
        <path fill="#FFF" d="M133.072 64.616h202.325v280.512H133.072z"/>
        <path fill="url(#b)" d="M184.315 52.452h100.371v24.313H184.315z"/>
        <path fill="url(#d)" d="M234.5 28.719c-7.748 0-14.032 6.431-14.032 14.367 0 7.935 6.284 14.366 14.033 14.366 7.748 0 14.032-6.43 14.032-14.366s-6.284-14.367-14.032-14.367zm0 22.656a8.29 8.29 0 1 1 8.094-8.29 8.191 8.191 0 0 1-8.093 8.251v.04z"/>
        <path fill="#6C63FF" d="M185.372 51.41h98.257v23.242h-98.257z"/>
        <path fill="#6C63FF" d="M234.5 28.719a13.733 13.733 0 1 0 13.733 13.732c0-7.584-6.148-13.732-13.732-13.732zm0 21.658a7.926 7.926 0 1 1 7.936-7.945 7.926 7.926 0 0 1-7.935 7.92v.025z"/>
        <g fill="#47E6B1" opacity=".5">
            <path d="M7.508 362.391h1.85v10.487h-1.85z"/>
            <path d="M13.678 366.713v1.848H3.191v-1.848z"/>
        </g>
        <g fill="#47E6B1" opacity=".5">
            <path d="M221.987 0h1.85v10.487h-1.85z"/>
            <path d="M228.158 4.317v1.849H217.67v-1.85z"/>
        </g>
        <path fill="#4D8AF0" d="M379.123 379.85a2.267 2.267 0 0 1-1.264-2.738c.026-.082.043-.166.05-.251a1.136 1.136 0 0 0-2.041-.752 1.091 1.091 0 0 0-.128.22 2.267 2.267 0 0 1-2.739 1.264 1.092 1.092 0 0 0-.25-.049 1.136 1.136 0 0 0-.753 2.04c.069.052.143.095.221.129a2.267 2.267 0 0 1 1.264 2.738 1.091 1.091 0 0 0-.05.251 1.136 1.136 0 0 0 2.041.752c.051-.068.094-.143.128-.221a2.267 2.267 0 0 1 2.739-1.264c.081.027.165.043.25.05a1.136 1.136 0 0 0 .753-2.04 1.092 1.092 0 0 0-.221-.129z" opacity=".5"/>
        <path fill="#FDD835" d="M67.198 279.027a2.267 2.267 0 0 1-1.264-2.739c.026-.081.043-.165.05-.25a1.136 1.136 0 0 0-2.041-.753 1.092 1.092 0 0 0-.128.221 2.267 2.267 0 0 1-2.739 1.264 1.091 1.091 0 0 0-.25-.05 1.136 1.136 0 0 0-.753 2.041c.069.052.143.094.221.128a2.267 2.267 0 0 1 1.264 2.739 1.092 1.092 0 0 0-.05.25 1.136 1.136 0 0 0 2.041.753c.051-.069.094-.143.128-.221a2.267 2.267 0 0 1 2.739-1.264c.081.026.165.043.25.05a1.136 1.136 0 0 0 .753-2.041 1.091 1.091 0 0 0-.221-.128zM327.005 33.523a2.267 2.267 0 0 1-1.264-2.74c.026-.08.043-.165.05-.25a1.136 1.136 0 0 0-2.041-.752 1.092 1.092 0 0 0-.128.221 2.267 2.267 0 0 1-2.739 1.264 1.092 1.092 0 0 0-.25-.05 1.136 1.136 0 0 0-.753 2.041c.069.051.143.094.222.128a2.267 2.267 0 0 1 1.263 2.739 1.092 1.092 0 0 0-.049.25 1.136 1.136 0 0 0 2.04.753c.052-.069.095-.143.128-.222a2.267 2.267 0 0 1 2.739-1.263c.081.026.166.042.25.049a1.136 1.136 0 0 0 .753-2.04 1.092 1.092 0 0 0-.221-.128z" opacity=".5"/>
        <circle cx="399.557" cy="154.618" r="3.702" fill="#F55F44" opacity=".5"/>
        <circle cx="113.445" cy="367.111" r="3.702" fill="#F55F44" opacity=".5"/>
        <circle cx="361.535" cy="234.643" r="3.702" fill="#F55F44" opacity=".5"/>
        <circle cx="42.845" cy="47.373" r="3.702" fill="#4D8AF0" opacity=".5"/>
        <circle cx="3.702" cy="148.369" r="3.702" fill="#47E6B1" opacity=".5"/>
    </g>
</svg>
