<svg xmlns="http://www.w3.org/2000/svg" width="90" height="90" viewBox="0 0 90 90">
    <g fill="none" fill-rule="evenodd">
        <circle cx="45.163" cy="45.071" r="44.792" fill="#E2E1FE"/>
        <g transform="translate(13.616 13.789)">
            <path fill="#FFB23D" fill-rule="nonzero" d="M56.046 7.315a4.583 4.583 0 0 1-3.579 1.309.183.183 0 0 0-.15.308 4.583 4.583 0 0 1 1.22 3.63.183.183 0 0 0 .31.15 4.583 4.583 0 0 1 3.6-1.31.183.183 0 0 0 .145-.307 4.583 4.583 0 0 1-1.217-3.634.18.18 0 1 0-.329-.146zM67.575 14.178a2.162 2.162 0 0 1-1.725-.575.088.088 0 0 0-.145.07 2.18 2.18 0 0 1-.621 1.713.087.087 0 0 0 .07.146 2.2 2.2 0 0 1 1.73.575.089.089 0 0 0 .166-.062 2.196 2.196 0 0 1 .617-1.713.09.09 0 0 0-.092-.154zM38.334 17.99c-.531.35-1.19.45-1.8.271a.087.087 0 0 0-.096.13 2.2 2.2 0 0 1 .225 1.808.083.083 0 0 0 .13.096 2.2 2.2 0 0 1 1.8-.271.087.087 0 0 0 .095-.13 2.175 2.175 0 0 1-.225-1.804.087.087 0 0 0-.13-.1z"/>
            <circle cx="51.817" cy="30.42" r="15.563" fill="#C1C1EA" fill-rule="nonzero"/>
            <path stroke="#8A8AF9" stroke-linecap="round" stroke-linejoin="round" stroke-width=".833" d="M45.25 27.161l6.567 4.35 9.52-6.65"/>
            <path fill="#C1C1EA" fill-rule="nonzero" d="M41.098 17.17l1.646-.95 1.358 2.352-1.645.95zM61.18 19.52l-1.645-.95 1.358-2.353 1.646.95z"/>
            <path fill="#FFF" fill-rule="nonzero" d="M21.425 35.157l-.92.413-3.663 1.312-4.925 4.304 2.546 12.1L27.3 55.95l11.363-4.488 3.22-10.062-3.874-4.434-3.888-1.395z"/>
            <path fill="#8A8AF9" fill-rule="nonzero" d="M14.325 38.978l2.517-2.096L27.3 55.95h-5.812l-10.504-8.213zM40.3 38.978l-2.516-2.096L27.325 55.95h5.813l10.508-8.213z"/>
            <path fill="#C1C1EA" fill-rule="nonzero" d="M27.296 40.107l6.838-4.537v-3.413c-.517.35-1.009.735-1.471 1.154-2.98 2.692-5.9 2.23-5.9 2.23-1.78.045-4.317-1.78-5.417-2.63-.275-.216-.558-.416-.833-.616v3.275l6.783 4.537z"/>
            <path fill="#F6C358" fill-rule="nonzero" d="M27.313 40.12l-2.196 2.991z"/>
            <path fill="#D0D0F7" fill-rule="nonzero" d="M26.755 35.54s2.916.463 5.9-2.229c.462-.42.953-.805 1.47-1.154l.15-.108c1.317-.884 3.85-3.334 4.388-9.33v-7.924a5 5 0 0 0-3.28-3.925l-4.45-1.559a3.75 3.75 0 0 0-2.553.03c-.921.35-2.138.804-2.917 1.05a3.75 3.75 0 0 1-1.133.174H20.1a5.158 5.158 0 0 0-4.12 4.121v8.217s.141 6.487 4.437 9.33l.088.062c.291.195.575.416.833.616 1.1.85 3.63 2.675 5.417 2.63z"/>
            <path fill="#D5D6DB" fill-rule="nonzero" d="M25.117 43.111l-.092.125 2.288-3.104v-.012z"/>
            <path fill="#FFB23D" fill-rule="nonzero" d="M29.55 51.861l-1.091-6.875 1.183-1.7-2.33-3.166v.012l-2.287 3.104-.025.038 1.192 1.712-1.096 6.904 2.217 4.034 2.237-4.063z"/>
            <path fill="#E56353" fill-rule="nonzero" d="M27.33 55.949l.212-.213-.22.2zM27.309 55.936l-.221-.2.212.213zM27.305 55.953l.008.008.012-.008-.012-.008zM27.338 40.103l-.004.004h.004zM27.313 40.103v.017l.008-.005z"/>
            <path fill="#2F4859" fill-rule="nonzero" d="M27.305 55.953l.008-.008-.004-.009-.009.013z"/>
            <path fill="#3C3AC4" fill-rule="nonzero" d="M16.505 20.011l-.525.03-2.034-8.371S12.317 5.26 17.8 4.299c0 0 1.934-2.917 7.225-4.038 5.292-1.12 15.109 1.446 15.259 6.15.15 4.704-1.621 12.78-1.621 12.78h-.675v-5.113s-1.425-.833-2.62-3.208c0 0-8.197 3.983-15.163 1.095l-2.963 1.546-.737 6.5z"/>
            <path fill="#726EFB" fill-rule="nonzero" d="M54.58 53.011l-1.25-7.441a5.62 5.62 0 0 0-3.638-4.371l-11.904-4.321 3.167 6.35-3.963.058 1.346 2.567-10.796 9.875-.212.212h24.737a2.538 2.538 0 0 0 2.513-2.929z"/>
            <path fill="#3A556A" fill-rule="nonzero" d="M27.325 55.953l-.012.008h.025z"/>
            <path fill="#726EFB" fill-rule="nonzero" d="M27.305 55.953l-.213-.213-10.796-9.875 1.346-2.566-3.962-.059 3.162-6.362-11.925 4.32a5.625 5.625 0 0 0-3.633 4.372L.034 53.01a2.537 2.537 0 0 0 2.5 2.95h24.762l.009-.008z"/>
        </g>
    </g>
</svg>
